<?xml version="1.0" encoding="UTF-8"?><svg id="Layer_1" xmlns="http://www.w3.org/2000/svg" viewBox="0 0 256 256"><path d="M200.22,216.85c-3.09,0-5.56,2.47-5.56,5.55s2.47,5.55,5.56,5.55,5.56-2.47,5.56-5.55-2.47-5.55-5.56-5.55Z"/><path d="M189.11,216.85c-3.09,0-5.56,2.47-5.56,5.55s2.47,5.55,5.56,5.55,5.56-2.47,5.56-5.55-2.47-5.55-5.56-5.55Z"/><path d="M222.44,216.85c-3.09,0-5.56,2.47-5.56,5.55s2.47,5.55,5.56,5.55,5.56-2.47,5.56-5.55-2.47-5.55-5.56-5.55Z"/><path d="M211.33,216.85c-3.09,0-5.56,2.47-5.56,5.55s2.47,5.55,5.56,5.55,5.56-2.47,5.56-5.55-2.47-5.55-5.56-5.55Z"/><path d="M200.22,205.74c-3.09,0-5.56,2.47-5.56,5.55s2.47,5.55,5.56,5.55,5.56-2.47,5.56-5.55-2.47-5.55-5.56-5.55Z"/><path d="M189.11,205.74c-3.09,0-5.56,2.47-5.56,5.55s2.47,5.55,5.56,5.55,5.56-2.47,5.56-5.55-2.47-5.55-5.56-5.55Z"/><path d="M222.44,205.74c-3.09,0-5.56,2.47-5.56,5.55s2.47,5.55,5.56,5.55,5.56-2.47,5.56-5.55-2.47-5.55-5.56-5.55Z"/><path d="M211.33,205.74c-3.09,0-5.56,2.47-5.56,5.55s2.47,5.55,5.56,5.55,5.56-2.47,5.56-5.55-2.47-5.55-5.56-5.55Z"/><path d="M200.22,194.64c-3.09,0-5.56,2.47-5.56,5.55s2.47,5.55,5.56,5.55,5.56-2.47,5.56-5.55-2.47-5.55-5.56-5.55Z"/><path d="M189.11,194.64c-3.09,0-5.56,2.47-5.56,5.55s2.47,5.55,5.56,5.55,5.56-2.47,5.56-5.55-2.47-5.55-5.56-5.55Z"/><path d="M222.44,194.64c-3.09,0-5.56,2.47-5.56,5.55s2.47,5.55,5.56,5.55,5.56-2.47,5.56-5.55-2.47-5.55-5.56-5.55Z"/><path d="M211.33,194.64c-3.09,0-5.56,2.47-5.56,5.55s2.47,5.55,5.56,5.55,5.56-2.47,5.56-5.55-2.47-5.55-5.56-5.55Z"/><path d="M200.22,183.53c-3.09,0-5.56,2.47-5.56,5.55s2.47,5.55,5.56,5.55,5.56-2.47,5.56-5.55-2.47-5.55-5.56-5.55Z"/><path d="M189.11,183.53c-3.09,0-5.56,2.47-5.56,5.55s2.47,5.55,5.56,5.55,5.56-2.47,5.56-5.55-2.47-5.55-5.56-5.55Z"/><path d="M222.44,183.53c-3.09,0-5.56,2.47-5.56,5.55s2.47,5.55,5.56,5.55,5.56-2.47,5.56-5.55-2.47-5.55-5.56-5.55Z"/><path d="M211.33,183.53c-3.09,0-5.56,2.47-5.56,5.55s2.47,5.55,5.56,5.55,5.56-2.47,5.56-5.55-2.47-5.55-5.56-5.55Z"/><path d="M200.22,172.42c-3.09,0-5.56,2.47-5.56,5.55s2.47,5.55,5.56,5.55,5.56-2.47,5.56-5.55-2.47-5.55-5.56-5.55Z"/><path d="M189.11,172.42c-3.09,0-5.56,2.47-5.56,5.55s2.47,5.55,5.56,5.55,5.56-2.47,5.56-5.55-2.47-5.55-5.56-5.55Z"/><path d="M222.44,172.42c-3.09,0-5.56,2.47-5.56,5.55s2.47,5.55,5.56,5.55,5.56-2.47,5.56-5.55-2.47-5.55-5.56-5.55Z"/><path d="M211.33,172.42c-3.09,0-5.56,2.47-5.56,5.55s2.47,5.55,5.56,5.55,5.56-2.47,5.56-5.55-2.47-5.55-5.56-5.55Z"/><path d="M200.22,161.32c-3.09,0-5.56,2.47-5.56,5.55s2.47,5.55,5.56,5.55,5.56-2.47,5.56-5.55-2.47-5.55-5.56-5.55Z"/><path d="M189.11,161.32c-3.09,0-5.56,2.47-5.56,5.55s2.47,5.55,5.56,5.55,5.56-2.47,5.56-5.55-2.47-5.55-5.56-5.55Z"/><path d="M222.44,161.32c-3.09,0-5.56,2.47-5.56,5.55s2.47,5.55,5.56,5.55,5.56-2.47,5.56-5.55-2.47-5.55-5.56-5.55Z"/><path d="M211.33,161.32c-3.09,0-5.56,2.47-5.56,5.55s2.47,5.55,5.56,5.55,5.56-2.47,5.56-5.55-2.47-5.55-5.56-5.55Z"/><path d="M200.22,150.21c-3.09,0-5.56,2.47-5.56,5.55s2.47,5.55,5.56,5.55,5.56-2.47,5.56-5.55-2.47-5.55-5.56-5.55Z"/><path d="M189.11,150.21c-3.09,0-5.56,2.47-5.56,5.55s2.47,5.55,5.56,5.55,5.56-2.47,5.56-5.55-2.47-5.55-5.56-5.55Z"/><path d="M222.44,150.21c-3.09,0-5.56,2.47-5.56,5.55s2.47,5.55,5.56,5.55,5.56-2.47,5.56-5.55-2.47-5.55-5.56-5.55Z"/><path d="M211.33,150.21c-3.09,0-5.56,2.47-5.56,5.55s2.47,5.55,5.56,5.55,5.56-2.47,5.56-5.55-2.47-5.55-5.56-5.55Z"/><path d="M200.22,139.11c-3.09,0-5.56,2.47-5.56,5.55s2.47,5.55,5.56,5.55,5.56-2.47,5.56-5.55-2.47-5.55-5.56-5.55Z"/><path d="M189.11,139.11c-3.09,0-5.56,2.47-5.56,5.55s2.47,5.55,5.56,5.55,5.56-2.47,5.56-5.55-2.47-5.55-5.56-5.55Z"/><path d="M222.44,139.11c-3.09,0-5.56,2.47-5.56,5.55s2.47,5.55,5.56,5.55,5.56-2.47,5.56-5.55-2.47-5.55-5.56-5.55Z"/><path d="M211.33,139.11c-3.09,0-5.56,2.47-5.56,5.55s2.47,5.55,5.56,5.55,5.56-2.47,5.56-5.55-2.47-5.55-5.56-5.55Z"/><path d="M200.22,128c-3.09,0-5.56,2.47-5.56,5.55s2.47,5.55,5.56,5.55,5.56-2.47,5.56-5.55-2.47-5.55-5.56-5.55Z"/><path d="M189.11,128c-3.09,0-5.56,2.47-5.56,5.55s2.47,5.55,5.56,5.55,5.56-2.47,5.56-5.55-2.47-5.55-5.56-5.55Z"/><path d="M222.44,128c-3.09,0-5.56,2.47-5.56,5.55s2.47,5.55,5.56,5.55,5.56-2.47,5.56-5.55-2.47-5.55-5.56-5.55Z"/><path d="M211.33,128c-3.09,0-5.56,2.47-5.56,5.55s2.47,5.55,5.56,5.55,5.56-2.47,5.56-5.55-2.47-5.55-5.56-5.55Z"/><path d="M200.22,116.89c-3.09,0-5.56,2.47-5.56,5.55s2.47,5.55,5.56,5.55,5.56-2.47,5.56-5.55-2.47-5.55-5.56-5.55Z"/><path d="M189.11,116.89c-3.09,0-5.56,2.47-5.56,5.55s2.47,5.55,5.56,5.55,5.56-2.47,5.56-5.55-2.47-5.55-5.56-5.55Z"/><path d="M222.44,116.89c-3.09,0-5.56,2.47-5.56,5.55s2.47,5.55,5.56,5.55,5.56-2.47,5.56-5.55-2.47-5.55-5.56-5.55Z"/><path d="M211.33,116.89c-3.09,0-5.56,2.47-5.56,5.55s2.47,5.55,5.56,5.55,5.56-2.47,5.56-5.55-2.47-5.55-5.56-5.55Z"/><path d="M200.22,105.79c-3.09,0-5.56,2.47-5.56,5.55s2.47,5.55,5.56,5.55,5.56-2.47,5.56-5.55-2.47-5.55-5.56-5.55Z"/><path d="M189.11,105.79c-3.09,0-5.56,2.47-5.56,5.55s2.47,5.55,5.56,5.55,5.56-2.47,5.56-5.55-2.47-5.55-5.56-5.55Z"/><path d="M222.44,105.79c-3.09,0-5.56,2.47-5.56,5.55s2.47,5.55,5.56,5.55,5.56-2.47,5.56-5.55-2.47-5.55-5.56-5.55Z"/><path d="M211.33,105.79c-3.09,0-5.56,2.47-5.56,5.55s2.47,5.55,5.56,5.55,5.56-2.47,5.56-5.55-2.47-5.55-5.56-5.55Z"/><path d="M200.22,94.68c-3.09,0-5.56,2.47-5.56,5.55s2.47,5.55,5.56,5.55,5.56-2.47,5.56-5.55-2.47-5.55-5.56-5.55Z"/><path d="M189.11,94.68c-3.09,0-5.56,2.47-5.56,5.55s2.47,5.55,5.56,5.55,5.56-2.47,5.56-5.55-2.47-5.55-5.56-5.55Z"/><path d="M222.44,94.68c-3.09,0-5.56,2.47-5.56,5.55s2.47,5.55,5.56,5.55,5.56-2.47,5.56-5.55-2.47-5.55-5.56-5.55Z"/><path d="M211.33,94.68c-3.09,0-5.56,2.47-5.56,5.55s2.47,5.55,5.56,5.55,5.56-2.47,5.56-5.55-2.47-5.55-5.56-5.55Z"/><path d="M200.22,83.57c-3.09,0-5.56,2.47-5.56,5.55s2.47,5.55,5.56,5.55,5.56-2.47,5.56-5.55-2.47-5.55-5.56-5.55Z"/><path d="M189.11,83.57c-3.09,0-5.56,2.47-5.56,5.55s2.47,5.55,5.56,5.55,5.56-2.47,5.56-5.55-2.47-5.55-5.56-5.55Z"/><path d="M222.44,83.57c-3.09,0-5.56,2.47-5.56,5.55s2.47,5.55,5.56,5.55,5.56-2.47,5.56-5.55-2.47-5.55-5.56-5.55Z"/><path d="M211.33,83.57c-3.09,0-5.56,2.47-5.56,5.55s2.47,5.55,5.56,5.55,5.56-2.47,5.56-5.55-2.47-5.55-5.56-5.55Z"/><path d="M200.22,72.47c-3.09,0-5.56,2.47-5.56,5.55s2.47,5.55,5.56,5.55,5.56-2.47,5.56-5.55-2.47-5.55-5.56-5.55Z"/><path d="M189.11,72.47c-3.09,0-5.56,2.47-5.56,5.55s2.47,5.55,5.56,5.55,5.56-2.47,5.56-5.55-2.47-5.55-5.56-5.55Z"/><path d="M222.44,72.47c-3.09,0-5.56,2.47-5.56,5.55s2.47,5.55,5.56,5.55,5.56-2.47,5.56-5.55-2.47-5.55-5.56-5.55Z"/><path d="M211.33,72.47c-3.09,0-5.56,2.47-5.56,5.55s2.47,5.55,5.56,5.55,5.56-2.47,5.56-5.55-2.47-5.55-5.56-5.55Z"/><path d="M200.22,61.36c-3.09,0-5.56,2.47-5.56,5.55s2.47,5.55,5.56,5.55,5.56-2.47,5.56-5.55-2.47-5.55-5.56-5.55Z"/><path d="M189.11,61.36c-3.09,0-5.56,2.47-5.56,5.55s2.47,5.55,5.56,5.55,5.56-2.47,5.56-5.55-2.47-5.55-5.56-5.55Z"/><path d="M222.44,61.36c-3.09,0-5.56,2.47-5.56,5.55s2.47,5.55,5.56,5.55,5.56-2.47,5.56-5.55-2.47-5.55-5.56-5.55Z"/><path d="M211.33,61.36c-3.09,0-5.56,2.47-5.56,5.55s2.47,5.55,5.56,5.55,5.56-2.47,5.56-5.55-2.47-5.55-5.56-5.55Z"/><path d="M200.22,50.26c-3.09,0-5.56,2.47-5.56,5.55s2.47,5.55,5.56,5.55,5.56-2.47,5.56-5.55-2.47-5.55-5.56-5.55Z"/><path d="M189.11,50.26c-3.09,0-5.56,2.47-5.56,5.55s2.47,5.55,5.56,5.55,5.56-2.47,5.56-5.55-2.47-5.55-5.56-5.55Z"/><path d="M222.44,50.26c-3.09,0-5.56,2.47-5.56,5.55s2.47,5.55,5.56,5.55,5.56-2.47,5.56-5.55-2.47-5.55-5.56-5.55Z"/><path d="M211.33,50.26c-3.09,0-5.56,2.47-5.56,5.55s2.47,5.55,5.56,5.55,5.56-2.47,5.56-5.55-2.47-5.55-5.56-5.55Z"/><path d="M200.22,39.15c-3.09,0-5.56,2.47-5.56,5.55s2.47,5.55,5.56,5.55,5.56-2.47,5.56-5.55-2.47-5.55-5.56-5.55Z"/><path d="M189.11,39.15c-3.09,0-5.56,2.47-5.56,5.55s2.47,5.55,5.56,5.55,5.56-2.47,5.56-5.55-2.47-5.55-5.56-5.55Z"/><path d="M222.44,39.15c-3.09,0-5.56,2.47-5.56,5.55s2.47,5.55,5.56,5.55,5.56-2.47,5.56-5.55-2.47-5.55-5.56-5.55Z"/><path d="M211.33,39.15c-3.09,0-5.56,2.47-5.56,5.55s2.47,5.55,5.56,5.55,5.56-2.47,5.56-5.55-2.47-5.55-5.56-5.55Z"/><path d="M200.22,28.05c-3.09,0-5.56,2.47-5.56,5.55s2.47,5.55,5.56,5.55,5.56-2.47,5.56-5.55-2.47-5.55-5.56-5.55Z"/><path d="M189.11,28.05c-3.09,0-5.56,2.47-5.56,5.55s2.47,5.55,5.56,5.55,5.56-2.47,5.56-5.55-2.47-5.55-5.56-5.55Z"/><path d="M222.44,28.05c-3.09,0-5.56,2.47-5.56,5.55s2.47,5.55,5.56,5.55,5.56-2.47,5.56-5.55-2.47-5.55-5.56-5.55Z"/><path d="M211.33,28.05c-3.09,0-5.56,2.47-5.56,5.55s2.47,5.55,5.56,5.55,5.56-2.47,5.56-5.55-2.47-5.55-5.56-5.55Z"/><path d="M144.67,216.85c-3.09,0-5.56,2.47-5.56,5.55s2.47,5.55,5.56,5.55,5.56-2.47,5.56-5.55-2.47-5.55-5.56-5.55Z"/><path d="M155.78,205.74c-3.09,0-5.56,2.47-5.56,5.55s2.47,5.55,5.56,5.55,5.56-2.47,5.56-5.55-2.47-5.55-5.56-5.55Z"/><path d="M144.67,205.74c-3.09,0-5.56,2.47-5.56,5.55s2.47,5.55,5.56,5.55,5.56-2.47,5.56-5.55-2.47-5.55-5.56-5.55Z"/><path d="M155.78,194.64c-3.09,0-5.56,2.47-5.56,5.55s2.47,5.55,5.56,5.55,5.56-2.47,5.56-5.55-2.47-5.55-5.56-5.55Z"/><path d="M144.67,194.64c-3.09,0-5.56,2.47-5.56,5.55s2.47,5.55,5.56,5.55,5.56-2.47,5.56-5.55-2.47-5.55-5.56-5.55Z"/><path d="M166.89,194.64c-3.09,0-5.56,2.47-5.56,5.55s2.47,5.55,5.56,5.55,5.56-2.47,5.56-5.55-2.47-5.55-5.56-5.55Z"/><path d="M155.78,183.53c-3.09,0-5.56,2.47-5.56,5.55s2.47,5.55,5.56,5.55,5.56-2.47,5.56-5.55-2.47-5.55-5.56-5.55Z"/><path d="M144.67,183.53c-3.09,0-5.56,2.47-5.56,5.55s2.47,5.55,5.56,5.55,5.56-2.47,5.56-5.55-2.47-5.55-5.56-5.55Z"/><path d="M178,183.53c-3.09,0-5.56,2.47-5.56,5.55s2.47,5.55,5.56,5.55,5.56-2.47,5.56-5.55-2.47-5.55-5.56-5.55Z"/><path d="M166.89,183.53c-3.09,0-5.56,2.47-5.56,5.55s2.47,5.55,5.56,5.55,5.56-2.47,5.56-5.55-2.47-5.55-5.56-5.55Z"/><path d="M155.78,61.36c-3.09,0-5.56,2.47-5.56,5.55s2.47,5.55,5.56,5.55,5.56-2.47,5.56-5.55-2.47-5.55-5.56-5.55Z"/><path d="M144.67,61.36c-3.09,0-5.56,2.47-5.56,5.55s2.47,5.55,5.56,5.55,5.56-2.47,5.56-5.55-2.47-5.55-5.56-5.55Z"/><path d="M178,61.36c-3.09,0-5.56,2.47-5.56,5.55s2.47,5.55,5.56,5.55,5.56-2.47,5.56-5.55-2.47-5.55-5.56-5.55Z"/><path d="M166.89,61.36c-3.09,0-5.56,2.47-5.56,5.55s2.47,5.55,5.56,5.55,5.56-2.47,5.56-5.55-2.47-5.55-5.56-5.55Z"/><path d="M155.78,50.26c-3.09,0-5.56,2.47-5.56,5.55s2.47,5.55,5.56,5.55,5.56-2.47,5.56-5.55-2.47-5.55-5.56-5.55Z"/><path d="M144.67,50.26c-3.09,0-5.56,2.47-5.56,5.55s2.47,5.55,5.56,5.55,5.56-2.47,5.56-5.55-2.47-5.55-5.56-5.55Z"/><path d="M178,50.26c-3.09,0-5.56,2.47-5.56,5.55s2.47,5.55,5.56,5.55,5.56-2.47,5.56-5.55-2.47-5.55-5.56-5.55Z"/><path d="M166.89,50.26c-3.09,0-5.56,2.47-5.56,5.55s2.47,5.55,5.56,5.55,5.56-2.47,5.56-5.55-2.47-5.55-5.56-5.55Z"/><path d="M155.78,39.15c-3.09,0-5.56,2.47-5.56,5.55s2.47,5.55,5.56,5.55,5.56-2.47,5.56-5.55-2.47-5.55-5.56-5.55Z"/><path d="M144.67,39.15c-3.09,0-5.56,2.47-5.56,5.55s2.47,5.55,5.56,5.55,5.56-2.47,5.56-5.55-2.47-5.55-5.56-5.55Z"/><path d="M178,39.15c-3.09,0-5.56,2.47-5.56,5.55s2.47,5.55,5.56,5.55,5.56-2.47,5.56-5.55-2.47-5.55-5.56-5.55Z"/><path d="M166.89,39.15c-3.09,0-5.56,2.47-5.56,5.55s2.47,5.55,5.56,5.55,5.56-2.47,5.56-5.55-2.47-5.55-5.56-5.55Z"/><path d="M155.78,28.05c-3.09,0-5.56,2.47-5.56,5.55s2.47,5.55,5.56,5.55,5.56-2.47,5.56-5.55-2.47-5.55-5.56-5.55Z"/><path d="M144.67,28.05c-3.09,0-5.56,2.47-5.56,5.55s2.47,5.55,5.56,5.55,5.56-2.47,5.56-5.55-2.47-5.55-5.56-5.55Z"/><path d="M178,28.05c-3.09,0-5.56,2.47-5.56,5.55s2.47,5.55,5.56,5.55,5.56-2.47,5.56-5.55-2.47-5.55-5.56-5.55Z"/><path d="M166.89,28.05c-3.09,0-5.56,2.47-5.56,5.55s2.47,5.55,5.56,5.55,5.56-2.47,5.56-5.55-2.47-5.55-5.56-5.55Z"/><path d="M111.33,216.85c-3.09,0-5.56,2.47-5.56,5.55s2.47,5.55,5.56,5.55,5.56-2.47,5.56-5.55-2.47-5.55-5.56-5.55Z"/><path d="M100.22,216.85c-3.09,0-5.56,2.47-5.56,5.55s2.47,5.55,5.56,5.55,5.56-2.47,5.56-5.55-2.47-5.55-5.56-5.55Z"/><path d="M133.56,216.85c-3.09,0-5.56,2.47-5.56,5.55s2.47,5.55,5.56,5.55,5.56-2.47,5.56-5.55-2.47-5.55-5.56-5.55Z"/><path d="M122.44,216.85c-3.09,0-5.56,2.47-5.56,5.55s2.47,5.55,5.56,5.55,5.56-2.47,5.56-5.55-2.47-5.55-5.56-5.55Z"/><path d="M111.33,205.74c-3.09,0-5.56,2.47-5.56,5.55s2.47,5.55,5.56,5.55,5.56-2.47,5.56-5.55-2.47-5.55-5.56-5.55Z"/><path d="M100.22,205.74c-3.09,0-5.56,2.47-5.56,5.55s2.47,5.55,5.56,5.55,5.56-2.47,5.56-5.55-2.47-5.55-5.56-5.55Z"/><path d="M133.56,205.74c-3.09,0-5.56,2.47-5.56,5.55s2.47,5.55,5.56,5.55,5.56-2.47,5.56-5.55-2.47-5.55-5.56-5.55Z"/><path d="M122.44,205.74c-3.09,0-5.56,2.47-5.56,5.55s2.47,5.55,5.56,5.55,5.56-2.47,5.56-5.55-2.47-5.55-5.56-5.55Z"/><path d="M111.33,194.64c-3.09,0-5.56,2.47-5.56,5.55s2.47,5.55,5.56,5.55,5.56-2.47,5.56-5.55-2.47-5.55-5.56-5.55Z"/><path d="M100.22,194.64c-3.09,0-5.56,2.47-5.56,5.55s2.47,5.55,5.56,5.55,5.56-2.47,5.56-5.55-2.47-5.55-5.56-5.55Z"/><path d="M133.56,194.64c-3.09,0-5.56,2.47-5.56,5.55s2.47,5.55,5.56,5.55,5.56-2.47,5.56-5.55-2.47-5.55-5.56-5.55Z"/><path d="M122.44,194.64c-3.09,0-5.56,2.47-5.56,5.55s2.47,5.55,5.56,5.55,5.56-2.47,5.56-5.55-2.47-5.55-5.56-5.55Z"/><path d="M111.33,183.53c-3.09,0-5.56,2.47-5.56,5.55s2.47,5.55,5.56,5.55,5.56-2.47,5.56-5.55-2.47-5.55-5.56-5.55Z"/><path d="M100.22,183.53c-3.09,0-5.56,2.47-5.56,5.55s2.47,5.55,5.56,5.55,5.56-2.47,5.56-5.55-2.47-5.55-5.56-5.55Z"/><path d="M133.56,183.53c-3.09,0-5.56,2.47-5.56,5.55s2.47,5.55,5.56,5.55,5.56-2.47,5.56-5.55-2.47-5.55-5.56-5.55Z"/><path d="M122.44,183.53c-3.09,0-5.56,2.47-5.56,5.55s2.47,5.55,5.56,5.55,5.56-2.47,5.56-5.55-2.47-5.55-5.56-5.55Z"/><path d="M111.33,61.36c-3.09,0-5.56,2.47-5.56,5.55s2.47,5.55,5.56,5.55,5.56-2.47,5.56-5.55-2.47-5.55-5.56-5.55Z"/><path d="M100.22,61.36c-3.09,0-5.56,2.47-5.56,5.55s2.47,5.55,5.56,5.55,5.56-2.47,5.56-5.55-2.47-5.55-5.56-5.55Z"/><path d="M133.56,61.36c-3.09,0-5.56,2.47-5.56,5.55s2.47,5.55,5.56,5.55,5.56-2.47,5.56-5.55-2.47-5.55-5.56-5.55Z"/><path d="M122.44,61.36c-3.09,0-5.56,2.47-5.56,5.55s2.47,5.55,5.56,5.55,5.56-2.47,5.56-5.55-2.47-5.55-5.56-5.55Z"/><path d="M111.33,50.26c-3.09,0-5.56,2.47-5.56,5.55s2.47,5.55,5.56,5.55,5.56-2.47,5.56-5.55-2.47-5.55-5.56-5.55Z"/><path d="M100.22,50.26c-3.09,0-5.56,2.47-5.56,5.55s2.47,5.55,5.56,5.55,5.56-2.47,5.56-5.55-2.47-5.55-5.56-5.55Z"/><path d="M133.56,50.26c-3.09,0-5.56,2.47-5.56,5.55s2.47,5.55,5.56,5.55,5.56-2.47,5.56-5.55-2.47-5.55-5.56-5.55Z"/><path d="M122.44,50.26c-3.09,0-5.56,2.47-5.56,5.55s2.47,5.55,5.56,5.55,5.56-2.47,5.56-5.55-2.47-5.55-5.56-5.55Z"/><path d="M111.33,39.15c-3.09,0-5.56,2.47-5.56,5.55s2.47,5.55,5.56,5.55,5.56-2.47,5.56-5.55-2.47-5.55-5.56-5.55Z"/><path d="M100.22,39.15c-3.09,0-5.56,2.47-5.56,5.55s2.47,5.55,5.56,5.55,5.56-2.47,5.56-5.55-2.47-5.55-5.56-5.55Z"/><path d="M133.56,39.15c-3.09,0-5.56,2.47-5.56,5.55s2.47,5.55,5.56,5.55,5.56-2.47,5.56-5.55-2.47-5.55-5.56-5.55Z"/><path d="M122.44,39.15c-3.09,0-5.56,2.47-5.56,5.55s2.47,5.55,5.56,5.55,5.56-2.47,5.56-5.55-2.47-5.55-5.56-5.55Z"/><path d="M111.33,28.05c-3.09,0-5.56,2.47-5.56,5.55s2.47,5.55,5.56,5.55,5.56-2.47,5.56-5.55-2.47-5.55-5.56-5.55Z"/><path d="M100.22,28.05c-3.09,0-5.56,2.47-5.56,5.55s2.47,5.55,5.56,5.55,5.56-2.47,5.56-5.55-2.47-5.55-5.56-5.55Z"/><path d="M133.56,28.05c-3.09,0-5.56,2.47-5.56,5.55s2.47,5.55,5.56,5.55,5.56-2.47,5.56-5.55-2.47-5.55-5.56-5.55Z"/><path d="M122.44,28.05c-3.09,0-5.56,2.47-5.56,5.55s2.47,5.55,5.56,5.55,5.56-2.47,5.56-5.55-2.47-5.55-5.56-5.55Z"/><path d="M66.89,216.85c-3.09,0-5.56,2.47-5.56,5.55s2.47,5.55,5.56,5.55,5.56-2.47,5.56-5.55-2.47-5.55-5.56-5.55Z"/><path d="M89.11,216.85c-3.09,0-5.56,2.47-5.56,5.55s2.47,5.55,5.56,5.55,5.56-2.47,5.56-5.55-2.47-5.55-5.56-5.55Z"/><path d="M78,216.85c-3.09,0-5.56,2.47-5.56,5.55s2.47,5.55,5.56,5.55,5.56-2.47,5.56-5.55-2.47-5.55-5.56-5.55Z"/><path d="M66.89,205.74c-3.09,0-5.56,2.47-5.56,5.55s2.47,5.55,5.56,5.55,5.56-2.47,5.56-5.55-2.47-5.55-5.56-5.55Z"/><path d="M55.78,205.74c-3.09,0-5.56,2.47-5.56,5.55s2.47,5.55,5.56,5.55,5.56-2.47,5.56-5.55-2.47-5.55-5.56-5.55Z"/><path d="M89.11,205.74c-3.09,0-5.56,2.47-5.56,5.55s2.47,5.55,5.56,5.55,5.56-2.47,5.56-5.55-2.47-5.55-5.56-5.55Z"/><path d="M78,205.74c-3.09,0-5.56,2.47-5.56,5.55s2.47,5.55,5.56,5.55,5.56-2.47,5.56-5.55-2.47-5.55-5.56-5.55Z"/><path d="M66.89,194.64c-3.09,0-5.56,2.47-5.56,5.55s2.47,5.55,5.56,5.55,5.56-2.47,5.56-5.55-2.47-5.55-5.56-5.55Z"/><path d="M55.78,194.64c-3.09,0-5.56,2.47-5.56,5.55s2.47,5.55,5.56,5.55,5.56-2.47,5.56-5.55-2.47-5.55-5.56-5.55Z"/><path d="M89.11,194.64c-3.09,0-5.56,2.47-5.56,5.55s2.47,5.55,5.56,5.55,5.56-2.47,5.56-5.55-2.47-5.55-5.56-5.55Z"/><path d="M78,194.64c-3.09,0-5.56,2.47-5.56,5.55s2.47,5.55,5.56,5.55,5.56-2.47,5.56-5.55-2.47-5.55-5.56-5.55Z"/><path d="M66.89,183.53c-3.09,0-5.56,2.47-5.56,5.55s2.47,5.55,5.56,5.55,5.56-2.47,5.56-5.55-2.47-5.55-5.56-5.55Z"/><path d="M55.78,183.53c-3.09,0-5.56,2.47-5.56,5.55s2.47,5.55,5.56,5.55,5.56-2.47,5.56-5.55-2.47-5.55-5.56-5.55Z"/><path d="M89.11,183.53c-3.09,0-5.56,2.47-5.56,5.55s2.47,5.55,5.56,5.55,5.56-2.47,5.56-5.55-2.47-5.55-5.56-5.55Z"/><path d="M78,183.53c-3.09,0-5.56,2.47-5.56,5.55s2.47,5.55,5.56,5.55,5.56-2.47,5.56-5.55-2.47-5.55-5.56-5.55Z"/><path d="M66.89,172.42c-3.09,0-5.56,2.47-5.56,5.55s2.47,5.55,5.56,5.55,5.56-2.47,5.56-5.55-2.47-5.55-5.56-5.55Z"/><path d="M55.78,172.42c-3.09,0-5.56,2.47-5.56,5.55s2.47,5.55,5.56,5.55,5.56-2.47,5.56-5.55-2.47-5.55-5.56-5.55Z"/><path d="M66.89,161.32c-3.09,0-5.56,2.47-5.56,5.55s2.47,5.55,5.56,5.55,5.56-2.47,5.56-5.55-2.47-5.55-5.56-5.55Z"/><path d="M55.78,161.32c-3.09,0-5.56,2.47-5.56,5.55s2.47,5.55,5.56,5.55,5.56-2.47,5.56-5.55-2.47-5.55-5.56-5.55Z"/><path d="M66.89,150.21c-3.09,0-5.56,2.47-5.56,5.55s2.47,5.55,5.56,5.55,5.56-2.47,5.56-5.55-2.47-5.55-5.56-5.55Z"/><path d="M55.78,150.21c-3.09,0-5.56,2.47-5.56,5.55s2.47,5.55,5.56,5.55,5.56-2.47,5.56-5.55-2.47-5.55-5.56-5.55Z"/><path d="M66.89,139.11c-3.09,0-5.56,2.47-5.56,5.55s2.47,5.55,5.56,5.55,5.56-2.47,5.56-5.55-2.47-5.55-5.56-5.55Z"/><path d="M55.78,139.11c-3.09,0-5.56,2.47-5.56,5.55s2.47,5.55,5.56,5.55,5.56-2.47,5.56-5.55-2.47-5.55-5.56-5.55Z"/><path d="M66.89,128c-3.09,0-5.56,2.47-5.56,5.55s2.47,5.55,5.56,5.55,5.56-2.47,5.56-5.55-2.47-5.55-5.56-5.55Z"/><path d="M55.78,128c-3.09,0-5.56,2.47-5.56,5.55s2.47,5.55,5.56,5.55,5.56-2.47,5.56-5.55-2.47-5.55-5.56-5.55Z"/><path d="M66.89,116.89c-3.09,0-5.56,2.47-5.56,5.55s2.47,5.55,5.56,5.55,5.56-2.47,5.56-5.55-2.47-5.55-5.56-5.55Z"/><path d="M55.78,116.89c-3.09,0-5.56,2.47-5.56,5.55s2.47,5.55,5.56,5.55,5.56-2.47,5.56-5.55-2.47-5.55-5.56-5.55Z"/><path d="M66.89,105.79c-3.09,0-5.56,2.47-5.56,5.55s2.47,5.55,5.56,5.55,5.56-2.47,5.56-5.55-2.47-5.55-5.56-5.55Z"/><path d="M55.78,105.79c-3.09,0-5.56,2.47-5.56,5.55s2.47,5.55,5.56,5.55,5.56-2.47,5.56-5.55-2.47-5.55-5.56-5.55Z"/><path d="M66.89,94.68c-3.09,0-5.56,2.47-5.56,5.55s2.47,5.55,5.56,5.55,5.56-2.47,5.56-5.55-2.47-5.55-5.56-5.55Z"/><path d="M55.78,94.68c-3.09,0-5.56,2.47-5.56,5.55s2.47,5.55,5.56,5.55,5.56-2.47,5.56-5.55-2.47-5.55-5.56-5.55Z"/><path d="M66.89,83.57c-3.09,0-5.56,2.47-5.56,5.55s2.47,5.55,5.56,5.55,5.56-2.47,5.56-5.55-2.47-5.55-5.56-5.55Z"/><path d="M55.78,83.57c-3.09,0-5.56,2.47-5.56,5.55s2.47,5.55,5.56,5.55,5.56-2.47,5.56-5.55-2.47-5.55-5.56-5.55Z"/><path d="M66.89,72.47c-3.09,0-5.56,2.47-5.56,5.55s2.47,5.55,5.56,5.55,5.56-2.47,5.56-5.55-2.47-5.55-5.56-5.55Z"/><path d="M55.78,72.47c-3.09,0-5.56,2.47-5.56,5.55s2.47,5.55,5.56,5.55,5.56-2.47,5.56-5.55-2.47-5.55-5.56-5.55Z"/><path d="M66.89,61.36c-3.09,0-5.56,2.47-5.56,5.55s2.47,5.55,5.56,5.55,5.56-2.47,5.56-5.55-2.47-5.55-5.56-5.55Z"/><path d="M89.11,61.36c-3.09,0-5.56,2.47-5.56,5.55s2.47,5.55,5.56,5.55,5.56-2.47,5.56-5.55-2.47-5.55-5.56-5.55Z"/><path d="M78,61.36c-3.09,0-5.56,2.47-5.56,5.55s2.47,5.55,5.56,5.55,5.56-2.47,5.56-5.55-2.47-5.55-5.56-5.55Z"/><path d="M89.11,50.26c-3.09,0-5.56,2.47-5.56,5.55s2.47,5.55,5.56,5.55,5.56-2.47,5.56-5.55-2.47-5.55-5.56-5.55Z"/><path d="M78,50.26c-3.09,0-5.56,2.47-5.56,5.55s2.47,5.55,5.56,5.55,5.56-2.47,5.56-5.55-2.47-5.55-5.56-5.55Z"/><path d="M89.11,39.15c-3.09,0-5.56,2.47-5.56,5.55s2.47,5.55,5.56,5.55,5.56-2.47,5.56-5.55-2.47-5.55-5.56-5.55Z"/><path d="M44.67,194.64c-3.09,0-5.56,2.47-5.56,5.55s2.47,5.55,5.56,5.55,5.56-2.47,5.56-5.55-2.47-5.55-5.56-5.55Z"/><path d="M44.67,183.53c-3.09,0-5.56,2.47-5.56,5.55s2.47,5.55,5.56,5.55,5.56-2.47,5.56-5.55-2.47-5.55-5.56-5.55Z"/><path d="M33.56,183.53c-3.09,0-5.56,2.47-5.56,5.55s2.47,5.55,5.56,5.55,5.56-2.47,5.56-5.55-2.47-5.55-5.56-5.55Z"/><path d="M44.67,172.42c-3.09,0-5.56,2.47-5.56,5.55s2.47,5.55,5.56,5.55,5.56-2.47,5.56-5.55-2.47-5.55-5.56-5.55Z"/><path d="M33.56,172.42c-3.09,0-5.56,2.47-5.56,5.55s2.47,5.55,5.56,5.55,5.56-2.47,5.56-5.55-2.47-5.55-5.56-5.55Z"/><path d="M44.67,161.32c-3.09,0-5.56,2.47-5.56,5.55s2.47,5.55,5.56,5.55,5.56-2.47,5.56-5.55-2.47-5.55-5.56-5.55Z"/><path d="M33.56,161.32c-3.09,0-5.56,2.47-5.56,5.55s2.47,5.55,5.56,5.55,5.56-2.47,5.56-5.55-2.47-5.55-5.56-5.55Z"/><path d="M44.67,150.21c-3.09,0-5.56,2.47-5.56,5.55s2.47,5.55,5.56,5.55,5.56-2.47,5.56-5.55-2.47-5.55-5.56-5.55Z"/><path d="M33.56,150.21c-3.09,0-5.56,2.47-5.56,5.55s2.47,5.55,5.56,5.55,5.56-2.47,5.56-5.55-2.47-5.55-5.56-5.55Z"/><path d="M44.67,139.11c-3.09,0-5.56,2.47-5.56,5.55s2.47,5.55,5.56,5.55,5.56-2.47,5.56-5.55-2.47-5.55-5.56-5.55Z"/><path d="M33.56,139.11c-3.09,0-5.56,2.47-5.56,5.55s2.47,5.55,5.56,5.55,5.56-2.47,5.56-5.55-2.47-5.55-5.56-5.55Z"/><path d="M44.67,128c-3.09,0-5.56,2.47-5.56,5.55s2.47,5.55,5.56,5.55,5.56-2.47,5.56-5.55-2.47-5.55-5.56-5.55Z"/><path d="M33.56,128c-3.09,0-5.56,2.47-5.56,5.55s2.47,5.55,5.56,5.55,5.56-2.47,5.56-5.55-2.47-5.55-5.56-5.55Z"/><path d="M44.67,116.89c-3.09,0-5.56,2.47-5.56,5.55s2.47,5.55,5.56,5.55,5.56-2.47,5.56-5.55-2.47-5.55-5.56-5.55Z"/><path d="M33.56,116.89c-3.09,0-5.56,2.47-5.56,5.55s2.47,5.55,5.56,5.55,5.56-2.47,5.56-5.55-2.47-5.55-5.56-5.55Z"/><path d="M44.67,105.79c-3.09,0-5.56,2.47-5.56,5.55s2.47,5.55,5.56,5.55,5.56-2.47,5.56-5.55-2.47-5.55-5.56-5.55Z"/><path d="M33.56,105.79c-3.09,0-5.56,2.47-5.56,5.55s2.47,5.55,5.56,5.55,5.56-2.47,5.56-5.55-2.47-5.55-5.56-5.55Z"/><path d="M44.67,94.68c-3.09,0-5.56,2.47-5.56,5.55s2.47,5.55,5.56,5.55,5.56-2.47,5.56-5.55-2.47-5.55-5.56-5.55Z"/><path d="M33.56,94.68c-3.09,0-5.56,2.47-5.56,5.55s2.47,5.55,5.56,5.55,5.56-2.47,5.56-5.55-2.47-5.55-5.56-5.55Z"/><path d="M44.67,83.57c-3.09,0-5.56,2.47-5.56,5.55s2.47,5.55,5.56,5.55,5.56-2.47,5.56-5.55-2.47-5.55-5.56-5.55Z"/></svg>