<?xml version="1.0" encoding="UTF-8"?><svg id="Layer_1" xmlns="http://www.w3.org/2000/svg" viewBox="0 0 256 256"><defs><style>.cls-1{fill:#2babe2;}</style></defs><path class="cls-1" d="M221.3,109c0,25.33-7.62,47.51-20.38,65.91-.4,.56-.97,.6-1.5,.06-5.91-5.97-11.47-13.25-15.04-20.43-.86,.58-1.63,1.85-1.63,3.55,0,5.73,4.58,17.38,9.24,24.93,2.12,3.42-1.07,5.89-4.24,3.98-9.88-7.58-20.95-21.85-27.19-36.49-1.1,.73-1.89,2.4-1.89,4.25,0,5.68,6.85,24.08,21.87,41.72,.39,.48,.35,.97-.05,1.33-14.86,13.14-32.92,23.37-52.49,30.18-19.56-6.81-37.63-17.03-52.48-30.18-.41-.36-.46-.84-.05-1.33,15.02-17.64,21.85-36.05,21.85-41.72,0-1.86-.78-3.52-1.88-4.25-6.24,14.64-17.31,28.9-27.2,36.49-3.21,2.09-6.34-.56-4.23-3.98,4.66-7.55,9.25-19.2,9.25-24.93,0-1.7-.78-2.96-1.64-3.55-3.57,7.19-9.11,14.46-15.03,20.43-.54,.53-1.1,.5-1.49-.06-12.77-18.41-20.38-40.59-20.38-65.91,0-44.34,18.69-57.8,34.85-57.8,10.68-.02,17.81,5.87,17.81,13.2,0,3.94-2.36,7.91-6.07,8.82,2.52,4.02,7.78,5.57,13.83,5.37,11.1-.37,18.1-6.95,18.6-22.14,.33-9.82-7.38-12.97-13.86-12.96-4.19,0-5.91,.78-6.81,2.19-3.5-5.06,2.11-14.98,16.65-14.98h3.4c1.04-1.29,2.75-2.59,5.24-2.67,3.43-.1,9.47-.03,13.64,1.31,9.32,3.04,10.98,10.29,11.48,25.45,.52,15.19,6.33,23.42,17.43,23.79,6.05,.21,11.32-1.34,13.84-5.37-3.73-.91-6.09-4.88-6.09-8.82,0-7.33,7.14-13.21,17.81-13.2,16.16,0,34.85,13.46,34.85,57.8"/></svg>