<?xml version="1.0" encoding="UTF-8"?><svg id="Layer_1" xmlns="http://www.w3.org/2000/svg" viewBox="0 0 256 256"><defs><style>.cls-1{fill:#e42232;}</style></defs><path class="cls-1" d="M65.39,116.17h-6.54v-29.73h6.54c11.94,0,17.79,4.95,17.79,14.86s-5.85,14.87-17.79,14.87m-6.54,20.03h11.95c5.62,0,10.12,1.59,13.05,4.95,2.49,2.94,3.83,7.01,3.83,11.73,0,11.03-6.3,16.44-18.91,16.44h-9.92v-33.12Zm50.68-24.08v19.14c-3.83-3.38-8.33-6.3-13.74-8.56,6.08-2.69,10.58-6.31,13.74-10.58m90.54-45.49l-31.3,50.45-31.31-50.45h-27.93v15.77c-6.98-10.6-18.69-15.77-35.59-15.77H28v122.74h46.41c15.08,0,26.8-4.28,35.13-13.07v13.07h29.05V110.76l27.25,46.62h5.86l27.25-46.62v78.61h29.05V66.63h-27.93Z"/></svg>