<?xml version="1.0" encoding="UTF-8"?><svg id="Layer_1" xmlns="http://www.w3.org/2000/svg" viewBox="0 0 256 256"><defs><style>.cls-1{fill:#fff;}.cls-2{fill:#1d1d1b;}</style></defs><rect class="cls-2" x="28" y="93.24" width="200" height="48.18"/><g><path class="cls-1" d="M82.66,105.17c0-1.7,1.38-3.08,3.08-3.08s3.08,1.38,3.08,3.08-1.38,3.08-3.08,3.08-3.08-1.38-3.08-3.08"/><polygon class="cls-1" points="88.59 132.92 88.59 113.72 88.59 112.3 83.56 112.3 81.41 112.3 81.41 113.72 83.56 113.72 83.56 132.92 81.5 132.92 81.5 134.35 90.83 134.35 90.83 132.92 88.59 132.92"/><path class="cls-1" d="M187.07,105.17c0-1.7,1.38-3.08,3.08-3.08s3.08,1.38,3.08,3.08-1.38,3.08-3.08,3.08-3.08-1.38-3.08-3.08"/><path class="cls-1" d="M105.72,131.19c-.61,.67-1.36,1.34-2.68,1.34-1.55,0-2.24-.62-2.24-3.24v-15.57h4.19v-1.43h-4.19v-9.18h-5.03v9.18h-2.77v1.43h2.77v15.57c0,3.35,2.23,5.48,5.87,5.48,2.4,0,4.08-1.62,5.2-2.52l-1.12-1.06Z"/><path class="cls-1" d="M77.15,111.62c-1.82,0-5.44,1.04-6.39,5.89v-5.22h-7.18v1.43h2.15v19.2h-2.07v1.42h10.17v-1.42h-3.07v-9.86c.26-4.14,1.16-7.6,4.59-7.6,1.05,0,2.11,.33,2.77,1.03v-4.7c-.36-.1-.5-.17-.96-.17"/><path class="cls-1" d="M127.72,132.92v-10.79c0-8.41-5.02-10.79-9.47-10.79-5.05,0-10.29,3.53-10.29,11.57,0,7.09,3.97,11.35,9.56,11.35,2.48,0,4.22-1.26,5.25-2.85v2.93h7.18v-1.42h-2.24Zm-4.78-10.28c0,5.94-.32,10.17-5.37,10.17s-4.42-4.18-4.42-9.89c0-4.2-.59-10.17,4.98-10.17,4.8,0,4.81,4.08,4.81,9.9"/><path class="cls-1" d="M154.24,132.92v-10.79c0-8.41-5.08-10.79-9.53-10.79s-9.53,2.38-9.53,10.79v10.79h-2.24v1.42h9.33v-1.42h-2.24v-10.28c0-5.82-.13-9.9,4.67-9.9s4.67,4.08,4.67,9.9v10.28h-2.24v1.42h9.33v-1.42h-2.24Z"/><path class="cls-1" d="M180.54,132.92v-10.79c0-8.41-5.08-10.79-9.53-10.79s-9.53,2.38-9.53,10.79v10.79h-2.24v1.42h9.33v-1.42h-2.24v-10.28c0-5.82-.13-9.9,4.67-9.9s4.67,4.08,4.67,9.9v10.28h-2.24v1.42h9.33v-1.42h-2.24Z"/><polygon class="cls-1" points="193 132.92 193 113.72 193 112.3 187.97 112.3 185.82 112.3 185.82 113.72 187.97 113.72 187.97 132.92 185.9 132.92 185.9 134.35 195.24 134.35 195.24 132.92 193 132.92"/><path class="cls-1" d="M216.9,132.92v-10.79c0-8.41-5.02-10.79-9.47-10.79-5.05,0-10.29,3.53-10.29,11.57,0,7.09,3.97,11.35,9.56,11.35,2.48,0,4.22-1.26,5.26-2.85v2.93h7.18v-1.42h-2.24Zm-4.78-10.28c0,5.94-.32,10.17-5.37,10.17s-4.41-4.18-4.41-9.89c0-4.2-.59-10.17,4.97-10.17,4.8,0,4.81,4.08,4.81,9.9"/><path class="cls-1" d="M49.34,102.02c-2.76,0-5.27,.95-5.27,8.68v5.32c9.43,.82,10.05-3.09,10.05-7.26,0-3.85-2.01-6.73-4.78-6.73m-5.27,30.65c6.55,.83,10.66-.97,10.66-8.12,0-7.51-6.54-7.44-10.66-7.08v15.2Zm15.01-23.04c0,4.18-4.4,7.04-8.24,7.04,3.84,0,9.16,2.34,9.16,8.68,0,3.99-2.55,8.99-11.16,8.99h-13.01v-1.42h3v-20.72c0-9.01,5.22-11.6,10.27-11.6,6.59,0,9.96,4.22,9.96,9.03"/><polygon class="cls-2" points="82.21 148.31 79.06 148.31 79.06 147.39 86.47 147.39 86.47 148.31 83.31 148.31 83.31 159.74 82.21 159.74 82.21 148.31"/><path class="cls-2" d="M87.12,147.39h1.03v4.52h.03c.26-.93,1.15-1.48,2.23-1.48,1.39,0,2.33,.72,2.33,2.43v6.87h-1.03v-6.58c0-1.25-.52-1.87-1.56-1.87-1.2,0-2.01,.93-2.01,2.33v6.12h-1.03v-12.35Z"/><path class="cls-2" d="M99.76,156.72c-.16,1.93-1.22,3.22-2.93,3.22-1.92,0-3.05-1.34-3.05-4.77,0-3.15,1.13-4.75,3.14-4.75s2.94,1.39,2.94,4.42v.38h-4.98v.42c0,2.63,.93,3.43,1.94,3.43,1.08,0,1.75-.77,1.92-2.37h1.03Zm-1.01-2.35c-.03-2.26-.67-3.09-1.94-3.09s-1.9,.82-1.94,3.09h3.88Z"/><path class="cls-2" d="M108.48,153.96c0-1.35-.31-1.92-1.05-1.92-.93,0-1.05,1.17-1.05,3.07,0,2.09,.12,3.05,1.05,3.05,.83,0,1.02-.57,1.05-2.19h2.57c-.02,2.86-1.15,4.01-3.67,4.01-3.5,0-3.78-2.45-3.78-5.21,0-2.61,.76-4.54,3.78-4.54s3.67,1.52,3.67,3.74h-2.57Z"/><path class="cls-2" d="M111.66,155.13c0-2.78,.62-4.9,3.83-4.9,3.4,0,3.82,2.08,3.82,4.85s-.62,4.9-3.82,4.9c-3.4,0-3.83-2.08-3.83-4.85m3.84-3.09c-.82,0-1.06,.81-1.06,3.05s.24,3.07,1.06,3.07,1.03-.77,1.03-3.05-.17-3.07-1.03-3.07"/><path class="cls-2" d="M122.98,155.13c0-2.78,.62-4.9,3.83-4.9,3.4,0,3.83,2.08,3.83,4.85s-.62,4.9-3.83,4.9c-3.4,0-3.83-2.08-3.83-4.85m3.84-3.09c-.82,0-1.06,.81-1.06,3.05s.24,3.07,1.06,3.07,1.03-.77,1.03-3.05-.17-3.07-1.03-3.07"/><path class="cls-2" d="M131.19,150.47h2.67v1.13h.03c.21-.64,.77-1.37,2.01-1.37,1.87,0,2.87,1.34,2.87,4.8,0,2.88-.41,4.96-2.69,4.96-.77,0-1.61-.26-2.08-1.25h-.04v4.03h-2.78v-12.29Zm3.74,7.49c1.01,0,1.06-1.12,1.06-2.79,0-1.49-.03-2.92-1.08-2.92-.82,0-.99,.99-.99,2.79,0,1.64,.07,2.92,1.01,2.92"/><path class="cls-2" d="M142.06,155.56v.57c0,1.44,.21,2.14,1.01,2.14,.72,0,.94-.53,1.01-1.7h2.58c-.05,2.3-1.3,3.41-3.61,3.41-3.5,0-3.78-2.45-3.78-5.21,0-2.61,.76-4.54,3.78-4.54,3.45,0,3.69,2.18,3.69,5.33h-4.68Zm2.01-1.61c0-1.3-.17-2-.94-2-.91,0-1.07,.75-1.07,2h2.01Z"/><path class="cls-2" d="M147.3,150.47h2.68v1.3h.03c.36-.82,1.06-1.54,2.23-1.54,.14,0,.27,0,.45,.03v2.6c-.28-.05-.5-.07-.77-.07-1.11,0-1.83,.46-1.83,1.68v5.26h-2.78v-9.28Z"/><path class="cls-2" d="M161.66,152.39h-1.15v-1.92h1.15v-3.09h2.78v3.09h1.29v1.92h-1.29v4.68c0,.65,.24,.86,.89,.86,.12,0,.28-.02,.4-.03v1.85c-.53,.07-1.06,.1-1.59,.1-1.92,0-2.47-.35-2.47-2.5v-4.95Z"/><path class="cls-2" d="M166.48,149.49h2.78v-2.12h-2.78v2.12Zm0,10.25h2.78v-9.28h-2.78v9.28Z"/><polygon class="cls-2" points="169.84 150.47 172.72 150.47 173.8 157.31 173.83 157.31 174.93 150.47 177.71 150.47 175.41 159.74 172.12 159.74 169.84 150.47"/><path class="cls-2" d="M180.3,155.56v.57c0,1.44,.2,2.14,1.01,2.14,.72,0,.94-.53,1.01-1.7h2.57c-.05,2.3-1.3,3.41-3.6,3.41-3.5,0-3.77-2.45-3.77-5.21,0-2.61,.75-4.54,3.77-4.54,3.45,0,3.69,2.18,3.69,5.33h-4.68Zm2-1.61c0-1.3-.17-2-.94-2-.91,0-1.06,.75-1.06,2h2Z"/><rect class="cls-2" x="119.72" y="153.94" width="2.78" height="2.26"/><path class="cls-2" d="M160.01,157.74v-4.77c0-1.95-1.01-2.74-3.3-2.74-1.15,0-1.94,.16-2.59,.6-.57,.39-.93,1.03-1.02,2.03h2.49c.09-.52,.36-.81,.97-.81s.88,.36,.88,.92c0,.71-.15,.84-.99,1.06-.77,.21-1.8,.38-2.49,.75-.69,.38-1.13,1.28-1.13,2.37,0,2,.91,2.83,2.47,2.83,.93,0,1.8-.48,2.18-1.3h.03c.02,.36,.05,.74,.16,1.06h2.68c-.33-.41-.33-1.3-.33-2.01m-2.59-.94c0,.93-.53,1.27-1.12,1.27-.51,0-.81-.45-.81-1.18,0-.52,.14-.81,.43-1.03,.26-.21,.64-.22,1.51-.68,0,.38-.02,.86-.02,1.63"/><path class="cls-2" d="M73.18,159.73h1.04v-8.29h1.62v-.86h-1.62v-1.08c0-1.05,.36-1.34,1.12-1.34,.17,0,.34,.02,.5,.05v-.86c-.19-.05-.33-.05-.65-.05-1.74,0-2,.95-2,2.21v1.08h-1.26v.86h1.26v8.29Zm-7.94-4.58c0,3.22,1.14,4.79,3.15,4.79s3.16-1.57,3.16-4.79-1.14-4.77-3.16-4.77-3.15,1.59-3.15,4.77m1.1,0c0-2.91,.88-3.91,2.05-3.91s2.05,1,2.05,3.91-.88,3.93-2.05,3.93-2.05-.98-2.05-3.93m-7.3,3.08c0,1.22,.54,1.6,1.93,1.6,.36,0,.6-.03,.72-.1v-.86c-.22,.07-.45,.1-.64,.1-.67,0-.98-.22-.98-.96v-6.57h1.62v-.86h-1.62v-2.53h-1.04v2.53h-1.26v.86h1.26v6.79Zm-5.77,1.5h1.03v-5.72c0-1.78,1.05-2.6,2.21-2.6,.16,0,.33,.02,.5,.05v-1.04c-.12-.03-.24-.05-.36-.05-1.09,0-1.91,.6-2.31,1.64h-.03v-1.43h-1.03v9.15Zm-6.09-6.43c0-1.33,.52-2.07,1.76-2.07,.95,0,1.58,.41,1.58,1.59,0,1.05-.14,1.26-.88,1.45l-1.95,.55c-1.31,.36-1.84,1.31-1.84,2.53,0,1.58,.72,2.58,2.33,2.58,1.03,0,1.95-.35,2.36-1.55h.03v.31c0,.95,.52,1.14,1.33,1.14,.12,0,.29-.03,.48-.1v-.76h-.29c-.36,0-.54-.26-.54-.76v-5.41c0-1.45-.71-2.43-2.58-2.43s-2.83,1.05-2.83,2.93h1.04Zm3.34,3.19c0,1.66-.86,2.59-2.12,2.59-.89,0-1.45-.71-1.45-1.79s.53-1.62,1.57-1.9l.86-.22c.42-.12,.98-.28,1.1-.6h.03v1.93Zm-11.68,6.27h1.03v-4.41h.03c.22,.96,.98,1.59,2.14,1.59,2.02,0,2.93-1.6,2.93-4.77s-.86-4.79-2.91-4.79c-1.17,0-1.93,.67-2.26,1.52h-.03v-1.31h-.93v12.18Zm5.03-7.6c0,3.38-.97,3.91-2,3.91s-2-.54-2-3.91c0-1.59,.12-2.48,.59-3.12,.34-.5,.84-.81,1.45-.81,1.02,0,1.96,.6,1.96,3.93"/><path class="cls-2" d="M210.54,159.71h1.03v-3.2l1.36-1.62,2.72,4.83h1.27l-3.26-5.75,2.76-3.4h-1.27l-3.55,4.55h-.03v-7.7h-1.03v12.3Zm-6.97,0h1.04v-6.15c0-1.43,.79-2.34,2.02-2.34,1.05,0,1.57,.62,1.57,1.88v6.62h1.03v-6.91c0-1.72-.95-2.45-2.34-2.45-.95,0-1.81,.45-2.34,1.48h-.03v-1.28h-.93v9.15Zm-6.24-6.43c0-1.33,.52-2.07,1.76-2.07,.95,0,1.59,.41,1.59,1.59,0,1.05-.14,1.26-.88,1.45l-1.95,.55c-1.31,.36-1.84,1.31-1.84,2.53,0,1.59,.72,2.58,2.33,2.58,1.04,0,1.95-.34,2.36-1.55h.03v.31c0,.95,.52,1.14,1.33,1.14,.12,0,.29-.03,.48-.1v-.76h-.29c-.36,0-.53-.26-.53-.76v-5.41c0-1.45-.71-2.43-2.58-2.43s-2.83,1.05-2.83,2.93h1.03Zm3.34,3.19c0,1.65-.86,2.58-2.12,2.58-.9,0-1.45-.71-1.45-1.79s.53-1.62,1.57-1.9l.86-.22c.41-.12,.98-.28,1.1-.6h.03v1.93Zm-11.68,3.24h.93v-1.52h.03c.28,1.05,1.14,1.72,2.24,1.72,2.02,0,2.93-1.6,2.93-4.79s-.91-4.77-2.93-4.77c-1.15,0-1.91,.62-2.14,1.58h-.03v-4.53h-1.04v12.3Zm1.04-4.58c0-3.38,.95-3.91,2-3.91s2,.54,2,3.91-.97,3.93-2,3.93-2-.53-2-3.93"/></g></svg>