<?xml version="1.0" encoding="UTF-8"?><svg id="Layer_1" xmlns="http://www.w3.org/2000/svg" viewBox="0 0 256 256"><defs><style>.cls-1{fill:#0092d5;}.cls-2{fill:#212b55;}</style></defs><path class="cls-1" d="M98.34,50.55h.62c1.17,0,1.9-.73,1.9-1.9V29.9c0-1.17-.73-1.9-1.9-1.9h-.62c-1.17,0-1.9,.73-1.9,1.9v18.75c0,1.17,.73,1.9,1.9,1.9"/><path class="cls-1" d="M106.7,51.23l.61,.11c1.15,.21,2-.38,2.2-1.54l3.26-18.47c.2-1.15-.39-2-1.54-2.2l-.61-.11c-1.15-.2-2,.39-2.2,1.54l-3.26,18.47c-.2,1.15,.39,2,1.54,2.2"/><path class="cls-1" d="M114.81,53.35l.58,.21c1.1,.4,2.03-.04,2.43-1.13l6.42-17.62c.4-1.1-.04-2.04-1.14-2.44l-.58-.21c-1.1-.4-2.03,.04-2.43,1.14l-6.42,17.62c-.4,1.1,.04,2.03,1.14,2.43"/><path class="cls-1" d="M122.43,56.84l.54,.31c1.01,.59,2.01,.32,2.6-.69l9.38-16.24c.59-1.02,.32-2.01-.7-2.6l-.54-.31c-1.01-.59-2.01-.32-2.6,.7l-9.38,16.24c-.59,1.02-.32,2.01,.7,2.6"/><path class="cls-1" d="M129.33,61.61l.47,.4c.9,.75,1.93,.67,2.67-.23l12.06-14.36c.75-.9,.66-1.93-.23-2.68l-.48-.4c-.9-.75-1.92-.66-2.67,.23l-12.05,14.37c-.75,.89-.67,1.92,.23,2.67"/><path class="cls-1" d="M135.3,67.5l.4,.48c.75,.89,1.78,.99,2.67,.23l14.37-12.05c.9-.75,.99-1.78,.23-2.67l-.4-.48c-.75-.9-1.78-.99-2.68-.23l-14.36,12.05c-.9,.75-.99,1.78-.23,2.67"/><path class="cls-1" d="M140.15,74.34l.31,.53c.59,1.02,1.58,1.28,2.6,.7l16.24-9.38c1.01-.59,1.28-1.58,.7-2.6l-.31-.53c-.59-1.02-1.58-1.28-2.6-.7l-16.24,9.38c-1.02,.59-1.28,1.58-.7,2.6"/><path class="cls-1" d="M140.46,122.43l-.31,.53c-.59,1.02-.32,2.01,.69,2.6l16.24,9.38c1.02,.59,2.01,.32,2.6-.69l.31-.54c.59-1.01,.32-2.01-.7-2.6l-16.24-9.38c-1.01-.59-2.01-.32-2.6,.7"/><path class="cls-1" d="M135.7,129.33l-.4,.47c-.75,.9-.67,1.93,.23,2.68l14.36,12.06c.9,.75,1.93,.67,2.68-.23l.4-.48c.75-.9,.67-1.92-.23-2.68l-14.37-12.05c-.89-.75-1.92-.67-2.67,.23"/><path class="cls-1" d="M129.81,135.3l-.47,.4c-.9,.75-.99,1.78-.24,2.67l12.05,14.37c.75,.9,1.78,.99,2.67,.23l.48-.4c.9-.75,.99-1.78,.23-2.67l-12.05-14.37c-.75-.9-1.78-.99-2.67-.23"/><path class="cls-1" d="M122.97,140.15l-.54,.31c-1.01,.59-1.28,1.58-.69,2.6l9.38,16.24c.59,1.01,1.58,1.28,2.6,.7l.53-.31c1.02-.59,1.28-1.58,.7-2.6l-9.38-16.24c-.59-1.02-1.58-1.28-2.6-.7"/><path class="cls-1" d="M115.39,143.74l-.58,.21c-1.1,.4-1.54,1.33-1.14,2.43l6.42,17.62c.4,1.1,1.34,1.54,2.44,1.14l.58-.22c1.1-.4,1.54-1.33,1.14-2.43l-6.42-17.62c-.4-1.1-1.33-1.53-2.43-1.13"/><path class="cls-1" d="M107.31,145.96l-.61,.11c-1.15,.21-1.74,1.05-1.54,2.2l3.26,18.47c.2,1.15,1.04,1.75,2.2,1.54l.61-.11c1.15-.2,1.74-1.05,1.54-2.2l-3.26-18.47c-.2-1.15-1.04-1.74-2.2-1.54"/><path class="cls-1" d="M98.96,146.75h-.62c-1.17,0-1.9,.73-1.9,1.9v18.75c0,1.17,.73,1.9,1.9,1.9h.62c1.17,0,1.9-.73,1.9-1.9v-18.75c0-1.17-.73-1.9-1.9-1.9"/><path class="cls-1" d="M90.6,146.07l-.61-.11c-1.15-.21-2,.38-2.2,1.54l-3.26,18.47c-.2,1.15,.39,2,1.54,2.2l.61,.11c1.15,.2,2-.39,2.2-1.54l3.26-18.47c.2-1.15-.39-2-1.54-2.2"/><path class="cls-1" d="M82.49,143.95l-.58-.21c-1.1-.4-2.04,.04-2.43,1.14l-6.42,17.62c-.4,1.1,.03,2.04,1.13,2.44l.58,.21c1.1,.4,2.04-.04,2.44-1.14l6.42-17.62c.4-1.1-.04-2.03-1.14-2.43"/><path class="cls-1" d="M74.87,140.46l-.54-.31c-1.01-.59-2-.32-2.59,.7l-9.38,16.24c-.59,1.02-.32,2.01,.7,2.6l.54,.31c1.01,.59,2.01,.32,2.6-.7l9.38-16.24c.59-1.01,.32-2.01-.7-2.6"/><path class="cls-1" d="M67.97,135.7l-.47-.4c-.9-.75-1.93-.67-2.68,.23l-12.05,14.36c-.75,.9-.66,1.93,.23,2.68l.48,.4c.9,.75,1.93,.66,2.68-.24l12.05-14.36c.75-.9,.67-1.92-.23-2.67"/><path class="cls-1" d="M62.01,129.81l-.4-.47c-.75-.9-1.78-.99-2.68-.24l-14.36,12.05c-.9,.75-.99,1.78-.23,2.68l.4,.47c.75,.9,1.78,.99,2.67,.23l14.37-12.05c.9-.75,.99-1.78,.23-2.67"/><path class="cls-1" d="M57.15,122.97l-.31-.53c-.59-1.02-1.58-1.28-2.6-.7l-16.24,9.38c-1.01,.59-1.28,1.58-.7,2.6l.31,.53c.59,1.02,1.58,1.28,2.6,.7l16.24-9.38c1.02-.59,1.28-1.58,.7-2.6"/><path class="cls-1" d="M53.56,115.39l-.21-.58c-.4-1.1-1.34-1.54-2.43-1.14l-17.62,6.42c-1.1,.4-1.54,1.33-1.14,2.44l.21,.58c.4,1.1,1.34,1.53,2.44,1.13l17.62-6.42c1.1-.4,1.53-1.33,1.13-2.43"/><path class="cls-1" d="M51.34,107.31l-.11-.61c-.21-1.15-1.05-1.75-2.2-1.54l-18.47,3.26c-1.15,.2-1.75,1.05-1.54,2.2l.11,.61c.2,1.15,1.05,1.74,2.2,1.54l18.47-3.26c1.15-.2,1.74-1.04,1.54-2.2"/><path class="cls-1" d="M50.55,98.96v-.62c0-1.17-.73-1.9-1.9-1.9H29.9c-1.17,0-1.9,.73-1.9,1.9v.62c0,1.17,.73,1.9,1.9,1.9h18.75c1.17,0,1.9-.73,1.9-1.9"/><path class="cls-1" d="M51.23,90.61l.11-.61c.21-1.15-.38-2-1.54-2.2l-18.47-3.26c-1.15-.2-2,.39-2.2,1.54l-.11,.61c-.2,1.15,.39,2,1.54,2.2l18.47,3.26c1.15,.2,2-.39,2.2-1.54"/><path class="cls-1" d="M53.35,82.49l.21-.58c.4-1.1-.04-2.04-1.13-2.43l-17.62-6.42c-1.1-.4-2.04,.04-2.44,1.13l-.21,.58c-.4,1.1,.04,2.04,1.14,2.44l17.62,6.42c1.1,.4,2.03-.04,2.43-1.14"/><path class="cls-1" d="M56.84,74.87l.31-.53c.59-1.02,.32-2.01-.69-2.6l-16.24-9.38c-1.02-.59-2.01-.32-2.6,.7l-.31,.54c-.59,1.01-.32,2.01,.7,2.6l16.24,9.38c1.02,.59,2.01,.32,2.6-.7"/><path class="cls-1" d="M61.61,67.97l.4-.48c.75-.89,.67-1.92-.23-2.67l-14.36-12.06c-.9-.75-1.93-.66-2.68,.23l-.4,.48c-.75,.9-.67,1.92,.23,2.67l14.37,12.06c.89,.75,1.92,.67,2.67-.23"/><path class="cls-1" d="M67.5,62.01l.47-.4c.9-.75,.99-1.78,.24-2.67l-12.05-14.37c-.75-.9-1.78-.99-2.67-.23l-.48,.4c-.9,.75-.99,1.78-.23,2.67l12.05,14.37c.75,.9,1.78,.99,2.67,.23"/><path class="cls-1" d="M74.33,57.15l.54-.31c1.01-.59,1.28-1.58,.69-2.6l-9.38-16.24c-.59-1.01-1.58-1.28-2.6-.7l-.53,.31c-1.02,.59-1.28,1.58-.7,2.6l9.38,16.24c.59,1.01,1.58,1.28,2.6,.7"/><path class="cls-1" d="M81.91,53.56l.58-.21c1.1-.4,1.54-1.33,1.14-2.43l-6.42-17.62c-.4-1.1-1.34-1.54-2.44-1.14l-.58,.21c-1.1,.4-1.54,1.34-1.14,2.44l6.42,17.62c.4,1.1,1.33,1.53,2.43,1.13"/><path class="cls-1" d="M89.99,51.34l.61-.11c1.15-.21,1.74-1.05,1.54-2.2l-3.26-18.47c-.2-1.15-1.04-1.74-2.2-1.54l-.61,.11c-1.15,.2-1.74,1.05-1.54,2.2l3.26,18.47c.2,1.15,1.04,1.74,2.2,1.54"/><path class="cls-2" d="M157.04,109.25h.62c1.17,0,1.9-.73,1.9-1.9v-18.75c0-1.17-.73-1.9-1.9-1.9h-.62c-1.17,0-1.9,.73-1.9,1.9v18.75c0,1.17,.73,1.9,1.9,1.9"/><path class="cls-2" d="M165.4,109.93l.61,.11c1.15,.21,2-.38,2.2-1.54l3.26-18.47c.2-1.15-.39-2-1.54-2.2l-.61-.11c-1.15-.2-2,.39-2.2,1.54l-3.26,18.47c-.2,1.15,.39,2,1.54,2.2"/><path class="cls-2" d="M173.51,112.05l.58,.21c1.1,.4,2.04-.04,2.44-1.13l6.41-17.62c.4-1.1-.03-2.04-1.13-2.44l-.58-.21c-1.1-.4-2.04,.04-2.44,1.14l-6.42,17.62c-.4,1.1,.04,2.03,1.14,2.43"/><path class="cls-2" d="M181.13,115.54l.54,.31c1.01,.59,2,.32,2.59-.69l9.38-16.24c.59-1.02,.32-2.01-.69-2.6l-.54-.31c-1.01-.59-2.01-.32-2.6,.7l-9.38,16.24c-.59,1.02-.32,2.01,.7,2.6"/><path class="cls-2" d="M188.03,120.31l.47,.4c.9,.75,1.93,.67,2.68-.23l12.05-14.36c.75-.9,.66-1.93-.23-2.68l-.48-.4c-.9-.75-1.93-.66-2.67,.23l-12.05,14.37c-.75,.89-.67,1.92,.23,2.67"/><path class="cls-2" d="M194,126.2l.4,.48c.75,.89,1.78,.99,2.67,.23l14.37-12.05c.9-.75,.99-1.78,.23-2.67l-.4-.48c-.75-.9-1.78-.99-2.68-.23l-14.36,12.05c-.9,.75-.99,1.78-.23,2.67"/><path class="cls-2" d="M198.85,133.03l.31,.54c.59,1.01,1.58,1.28,2.6,.7l16.24-9.38c1.01-.59,1.28-1.58,.7-2.59l-.31-.54c-.59-1.01-1.58-1.28-2.6-.7l-16.25,9.38c-1.01,.59-1.28,1.58-.69,2.6"/><path class="cls-2" d="M202.44,140.61l.21,.58c.4,1.1,1.34,1.54,2.43,1.14l17.62-6.42c1.1-.4,1.54-1.33,1.14-2.44l-.21-.58c-.4-1.1-1.34-1.53-2.44-1.13l-17.62,6.42c-1.1,.4-1.53,1.33-1.13,2.43"/><path class="cls-2" d="M204.67,148.7l.11,.61c.21,1.15,1.05,1.75,2.2,1.54l18.47-3.26c1.15-.2,1.74-1.04,1.54-2.2l-.11-.61c-.21-1.15-1.05-1.74-2.2-1.54l-18.47,3.26c-1.15,.2-1.74,1.04-1.54,2.2"/><path class="cls-2" d="M205.45,157.04v.62c0,1.17,.73,1.89,1.9,1.89h18.75c1.17,0,1.9-.73,1.9-1.89v-.62c0-1.17-.73-1.9-1.9-1.9h-18.75c-1.17,0-1.9,.73-1.9,1.9"/><path class="cls-2" d="M204.77,165.4l-.11,.61c-.21,1.15,.38,2,1.54,2.2l18.47,3.26c1.15,.2,2-.39,2.2-1.54l.11-.61c.2-1.15-.39-2-1.54-2.2l-18.47-3.26c-1.15-.2-2,.39-2.2,1.54"/><path class="cls-2" d="M202.65,173.51l-.21,.58c-.4,1.1,.04,2.04,1.13,2.44l17.62,6.42c1.1,.4,2.04-.04,2.44-1.14l.21-.58c.4-1.1-.04-2.04-1.14-2.44l-17.62-6.41c-1.1-.4-2.03,.03-2.43,1.13"/><path class="cls-2" d="M199.16,181.13l-.31,.53c-.59,1.02-.32,2.01,.69,2.6l16.25,9.38c1.01,.59,2.01,.32,2.6-.7l.31-.54c.59-1.01,.32-2.01-.7-2.6l-16.24-9.38c-1.01-.59-2.01-.32-2.6,.7"/><path class="cls-2" d="M194.4,188.03l-.4,.47c-.75,.9-.67,1.92,.23,2.68l14.36,12.06c.9,.75,1.93,.66,2.68-.23l.4-.48c.75-.9,.66-1.93-.24-2.68l-14.36-12.05c-.9-.75-1.92-.67-2.67,.23"/><path class="cls-2" d="M188.5,194l-.47,.4c-.9,.76-.99,1.78-.24,2.68l12.05,14.36c.75,.9,1.78,.99,2.68,.24l.47-.4c.9-.75,.99-1.78,.23-2.67l-12.05-14.37c-.75-.9-1.78-.99-2.67-.23"/><path class="cls-2" d="M181.67,198.85l-.54,.31c-1.01,.59-1.28,1.58-.7,2.6l9.38,16.24c.59,1.01,1.58,1.28,2.6,.7l.53-.31c1.02-.59,1.28-1.58,.7-2.6l-9.38-16.25c-.59-1.01-1.58-1.28-2.6-.69"/><path class="cls-2" d="M174.09,202.44l-.58,.21c-1.1,.4-1.54,1.33-1.14,2.44l6.42,17.62c.4,1.1,1.34,1.54,2.44,1.14l.58-.21c1.1-.4,1.53-1.34,1.13-2.44l-6.42-17.62c-.4-1.1-1.33-1.54-2.43-1.14"/><path class="cls-2" d="M166.01,204.67l-.61,.11c-1.15,.21-1.74,1.05-1.54,2.2l3.26,18.47c.2,1.15,1.04,1.75,2.2,1.54l.61-.11c1.15-.2,1.74-1.05,1.54-2.2l-3.26-18.47c-.2-1.15-1.04-1.74-2.2-1.54"/><path class="cls-2" d="M157.66,205.45h-.62c-1.17,0-1.9,.73-1.9,1.9v18.75c0,1.17,.73,1.9,1.9,1.9h.62c1.17,0,1.9-.73,1.9-1.9v-18.75c0-1.17-.73-1.9-1.9-1.9"/><path class="cls-2" d="M149.3,204.77l-.61-.11c-1.15-.21-2,.38-2.2,1.54l-3.26,18.47c-.21,1.15,.38,2,1.54,2.2l.61,.1c1.15,.21,2-.38,2.2-1.54l3.26-18.47c.2-1.15-.39-2-1.54-2.2"/><path class="cls-2" d="M141.19,202.66l-.58-.21c-1.1-.4-2.04,.04-2.43,1.13l-6.42,17.62c-.4,1.1,.03,2.04,1.13,2.44l.58,.21c1.1,.4,2.04-.04,2.44-1.14l6.42-17.62c.4-1.1-.04-2.03-1.14-2.43"/><path class="cls-2" d="M133.57,199.16l-.54-.31c-1.01-.59-2-.32-2.59,.69l-9.38,16.24c-.59,1.02-.32,2.01,.7,2.6l.54,.31c1.01,.59,2.01,.32,2.6-.7l9.38-16.24c.59-1.02,.32-2.01-.7-2.6"/><path class="cls-2" d="M126.67,194.39l-.48-.4c-.89-.75-1.92-.67-2.67,.23l-12.05,14.36c-.75,.9-.67,1.93,.23,2.68l.48,.4c.9,.75,1.92,.67,2.67-.23l12.05-14.37c.75-.89,.67-1.92-.23-2.67"/><path class="cls-2" d="M120.71,188.51l-.4-.47c-.75-.9-1.78-.99-2.67-.24l-14.37,12.05c-.9,.75-.99,1.78-.23,2.67l.4,.48c.75,.9,1.78,.99,2.67,.23l14.37-12.05c.9-.75,.99-1.78,.23-2.67"/><path class="cls-2" d="M115.85,181.67l-.31-.53c-.59-1.02-1.58-1.28-2.6-.7l-16.24,9.38c-1.01,.59-1.28,1.58-.7,2.6l.31,.53c.59,1.02,1.58,1.28,2.6,.7l16.24-9.38c1.01-.59,1.28-1.58,.7-2.6"/><path class="cls-2" d="M115.54,133.57l.31-.54c.59-1.01,.32-2.01-.69-2.6l-16.24-9.38c-1.02-.59-2.01-.32-2.6,.7l-.31,.54c-.59,1.01-.32,2.01,.7,2.59l16.24,9.38c1.02,.59,2.01,.32,2.6-.7"/><path class="cls-2" d="M120.31,126.67l.4-.48c.75-.89,.67-1.92-.23-2.67l-14.36-12.06c-.9-.75-1.93-.66-2.68,.23l-.4,.48c-.75,.9-.66,1.92,.23,2.67l14.37,12.06c.89,.75,1.92,.67,2.67-.23"/><path class="cls-2" d="M126.2,120.71l.48-.4c.89-.75,.99-1.78,.23-2.67l-12.05-14.37c-.75-.9-1.78-.99-2.67-.23l-.48,.4c-.9,.75-.99,1.78-.23,2.67l12.05,14.37c.75,.9,1.78,.99,2.67,.23"/><path class="cls-2" d="M133.03,115.85l.54-.31c1.01-.59,1.28-1.58,.7-2.6l-9.38-16.24c-.59-1.01-1.58-1.28-2.6-.7l-.53,.31c-1.02,.59-1.28,1.58-.7,2.6l9.38,16.24c.59,1.01,1.58,1.28,2.6,.7"/><path class="cls-2" d="M140.61,112.26l.58-.21c1.1-.4,1.53-1.33,1.14-2.43l-6.42-17.62c-.4-1.1-1.34-1.54-2.44-1.14l-.58,.21c-1.1,.4-1.53,1.34-1.13,2.44l6.42,17.62c.4,1.1,1.33,1.53,2.43,1.13"/><path class="cls-2" d="M148.7,110.04l.61-.11c1.15-.21,1.74-1.05,1.54-2.2l-3.26-18.47c-.2-1.15-1.05-1.74-2.2-1.54l-.61,.11c-1.15,.2-1.74,1.05-1.54,2.2l3.26,18.47c.2,1.15,1.04,1.74,2.2,1.54"/></svg>