<?xml version="1.0" encoding="UTF-8"?><svg id="Layer_1" xmlns="http://www.w3.org/2000/svg" viewBox="0 0 256 256"><defs><style>.cls-1{fill:#e20613;}.cls-2{fill:#094783;}</style></defs><path class="cls-2" d="M82.11,163.06l-.31,.32c-5.11,5.23-11.04,8-17.15,8-12.76,0-22.02-9.58-22.02-22.77s9.26-22.77,22.02-22.77c6.11,0,12.04,2.77,17.15,8l.31,.32,8.22-9.92-.22-.26c-6.82-8.07-15.02-11.99-25.07-11.99s-19.34,3.39-26.01,9.53c-7.22,6.65-11.03,16.02-11.03,27.1s3.81,20.45,11.03,27.1c6.67,6.14,15.91,9.53,26.01,9.53s18.25-3.92,25.07-11.99l.22-.26-8.22-9.92Z"/><polygon class="cls-2" points="98.62 113.12 98.62 183.88 113.11 183.88 113.11 175.82 113.11 113.12 98.62 113.12"/><path class="cls-2" d="M169.91,168.49c-3.86,2.35-7.47,3.54-10.71,3.54-4.69,0-6.79-2.46-6.79-7.98v-37.54h14.74v-13.33h-14.74v-22.03l-14.22,7.62v14.42h-12.26v13.33h12.26v39.93c0,10.88,6.46,18.32,16.07,18.51,6.54,.12,10.47-1.8,12.86-3.26l.14-.09,3.5-13.64-.85,.52Z"/><polygon class="cls-2" points="181.91 113.12 181.91 183.88 196.41 183.88 196.41 175.82 196.41 113.12 181.91 113.12"/><g><path class="cls-1" d="M205.52,101.67c-12.09-18.12-34.41-30.92-58.26-30.91-23.47,0-45.79,12.42-58.28,30.91h16.66c11.37-11.71,26.11-18.09,41.62-18.1,15.23,0,30.21,6.38,41.6,18.1h16.66Z"/><path class="cls-2" d="M222.43,95.93c0,.82-.57,1.18-1.33,1.18h-2.19v-2.36h2.19c.76,0,1.33,.4,1.33,1.18m1.43-.04c0-1.73-1.25-2.51-2.72-2.51h-3.65v8.31h1.41v-3.2h1.6l1.62,3.2h1.67l-1.71-3.35c1.07-.32,1.77-1.14,1.77-2.44m4.13,1.79c0-4.32-3.29-7.61-7.61-7.61s-7.62,3.29-7.62,7.61,3.29,7.61,7.62,7.61,7.61-3.29,7.61-7.61m-1.22,0c0,3.63-2.76,6.39-6.39,6.39s-6.39-2.76-6.39-6.39,2.76-6.39,6.39-6.39,6.39,2.76,6.39,6.39"/></g></svg>