<?xml version="1.0" encoding="UTF-8"?><svg id="Layer_1" xmlns="http://www.w3.org/2000/svg" viewBox="0 0 256 256"><defs><style>.cls-1{fill:#002663;}.cls-2{fill:#09c;}</style></defs><g><path class="cls-1" d="M44.58,125.11c0-3.27-.71-4.61-2.56-4.61-2.2,0-2.53,2.79-2.53,7.36,0,5.02,.26,7.36,2.53,7.36,1.96,0,2.41-1.35,2.56-5.25h6.27c0,6.89-2.75,9.63-8.8,9.63-8.38,0-9.04-5.92-9.04-12.49s1.82-10.93,9.04-10.93,8.8,3.64,8.8,8.99h-6.27v-.05Z"/><path class="cls-1" d="M52.2,127.97c0-6.65,1.49-11.78,9.16-11.78,8.14,0,9.18,5.09,9.18,11.64s-1.49,11.78-9.18,11.78c-8.12,0-9.16-4.99-9.16-11.64m9.18-7.43c-1.96,0-2.53,1.96-2.53,7.36s.57,7.36,2.53,7.36,2.48-1.82,2.48-7.36-.4-7.36-2.48-7.36"/><path class="cls-1" d="M79.34,127.97c0-6.65,1.49-11.78,9.18-11.78,8.14,0,9.16,5.09,9.16,11.64s-1.49,11.78-9.16,11.78c-8.21,0-9.18-4.99-9.18-11.64m9.21-7.43c-1.96,0-2.56,1.96-2.56,7.36s.57,7.36,2.56,7.36,2.46-1.82,2.46-7.36-.4-7.36-2.46-7.36"/><path class="cls-1" d="M99.01,116.71h6.46v2.77h0c.59-2.13,2.6-3.55,4.8-3.38,4.5,0,6.91,3.19,6.91,11.5,0,6.91-.99,11.88-6.46,11.88-2.11,.12-4.07-1.06-4.95-2.98h0v9.63h-6.65v-29.41h-.12Zm8.99,18.06c2.41,0,2.56-2.67,2.56-6.7,0-3.57,0-6.98-2.6-6.98-1.96,0-2.39,2.41-2.39,6.7-.02,3.9,.17,6.98,2.44,6.98"/><path class="cls-1" d="M125.13,128.96v1.37c0,3.38,.52,5.09,2.41,5.09s2.27-1.23,2.41-4.12h6.18c-.14,5.54-3.12,8.21-8.66,8.21-8.4,0-9.04-5.87-9.04-12.49,0-6.25,1.82-10.93,9.04-10.93,8.26,0,8.87,5.21,8.87,12.83l-11.22,.05Zm4.83-3.9c0-3.12-.4-4.83-2.3-4.83-2.2,0-2.53,1.82-2.53,4.83,0,0,4.83,0,4.83,0Z"/><path class="cls-1" d="M137.7,116.71h6.53v3.12h0c1.02-2.56,3.67-4.05,6.37-3.64v6.25c-.59-.14-1.21-.21-1.82-.21-2.67,0-4.43,1.11-4.43,4.05v12.64h-6.65v-22.2h0Z"/><path class="cls-1" d="M172.13,121.32h-2.75v-4.61h2.75v-7.43h6.65v7.43h3.05v4.61h-3.05v11.22c0,1.56,.57,2.08,2.15,2.08h.97v4.43c-1.3,.12-2.56,.26-3.83,.26-4.61,0-5.92-.85-5.92-5.99v-12h-.02Z"/><path class="cls-1" d="M183.68,114.39h6.65v-5.09h-6.65v5.09Zm0,24.61h6.65v-22.29h-6.65v22.29h0Z"/><polygon class="cls-1" points="191.72 116.71 198.63 116.71 201.24 133.13 201.31 133.13 203.98 116.71 210.61 116.71 205.07 139 197.21 139 191.72 116.71"/><path class="cls-1" d="M216.81,128.96v1.37c0,3.38,.45,5.09,2.41,5.09s2.27-1.23,2.39-4.12h6.2c-.14,5.54-3.12,8.21-8.66,8.21-8.4,0-9.04-5.87-9.04-12.49,0-6.25,1.82-10.93,9.04-10.93,8.26,0,8.85,5.21,8.85,12.83l-11.19,.05Zm4.8-3.9c0-3.12-.4-4.83-2.27-4.83-2.2,0-2.53,1.82-2.53,4.83,0,0,4.8,0,4.8,0Z"/><polygon class="cls-1" points="71.54 130.53 78.18 130.53 78.18 125.06 71.54 125.06 71.54 130.53"/><path class="cls-1" d="M168.18,134.17v-11.45c0-4.69-2.41-6.58-7.88-6.58-2.15-.17-4.33,.33-6.2,1.42-1.54,1.16-2.44,2.96-2.46,4.9h5.99c.05-1.14,.99-2.01,2.13-1.96,.07,0,.14,0,.21,.02,1.49,0,2.08,.83,2.08,2.2,0,1.7-.4,2.01-2.41,2.56-2.06,.38-4.05,.99-5.99,1.82-1.85,1.28-2.89,3.43-2.75,5.68,0,4.8,2.2,6.79,5.92,6.79,2.18,.07,4.21-1.14,5.21-3.08h0c.02,.85,.17,1.7,.4,2.56h6.46c-.78-.92-.78-3.05-.78-4.76m-6.25-2.32c0,2.2-1.3,3.05-2.67,3.05s-1.96-1.04-1.96-2.86c-.12-.95,.28-1.89,1.04-2.46,.64-.52,1.49-.52,3.64-1.7v3.9"/></g><g><path class="cls-2" d="M33.01,150.35h2.48v10.93h0c.52-2.37,2.67-4,5.09-3.83,4.9,0,7.03,3.9,7.03,11.52s-2.2,11.52-7.03,11.52c-2.53,0-4.73-1.73-5.32-4.19h0v3.64h-2.22v-29.6h-.02Zm7.36,28.14c2.48,0,4.83-1.3,4.83-9.44s-2.34-9.44-4.83-9.44-4.83,1.3-4.83,9.44,2.3,9.44,4.83,9.44"/><path class="cls-2" d="M50.02,164.55c0-4.54,2.15-7.03,6.79-7.03s6.25,2.34,6.25,5.87v13.02c0,1.23,.4,1.82,1.3,1.82h.71v1.82c-.38,.17-.76,.24-1.18,.26-1.96,0-3.19-.45-3.19-2.74v-.71h0c-.76,2.44-3.12,3.98-5.66,3.69-3.86,0-5.61-2.39-5.61-6.25-.21-2.84,1.66-5.44,4.43-6.11l4.69-1.3c1.7-.52,2.13-.92,2.13-3.53,.26-1.85-1.04-3.57-2.89-3.83-.31-.05-.64-.05-.95,0-2.93,0-4.24,1.7-4.24,5.02,0,0-2.58,0-2.58,0Zm10.55,2.98h0c-.26,.73-1.7,1.18-2.67,1.44l-2.08,.52c-2.32,.24-4.05,2.3-3.86,4.61,0,2.6,1.3,4.31,3.53,4.31,3.08,0,5.09-2.27,5.09-6.25v-4.64Z"/><path class="cls-2" d="M66.9,157.97h2.2v3.05h0c1.02-2.22,3.24-3.62,5.68-3.57,3.38,0,5.66,1.7,5.66,5.92v16.68h-2.48v-15.95c0-3.05-1.23-4.54-3.76-4.54-2.93,0-4.9,2.2-4.9,5.66v14.86h-2.46v-22.08h.07v-.02Z"/><polygon class="cls-2" points="83.82 150.35 83.82 180.05 86.35 180.05 86.35 172.29 89.61 168.38 96.19 180.05 99.25 180.05 91.44 166.16 98.09 157.97 94.96 157.97 86.42 168.9 86.35 168.9 86.35 150.35 83.82 150.35"/></g><g><path class="cls-1" d="M47.36,75.42h2.46v10.86h0c.73-2.3,2.96-3.74,5.35-3.53,3.31,0,5.61,1.7,5.61,5.87v16.54h-2.48v-15.9c0-3.01-1.23-4.5-3.79-4.5-2.86,0-4.8,2.22-4.8,5.61v14.72h-2.48v-29.67h.14Z"/><path class="cls-1" d="M77.69,97.88c-.4,4.61-2.93,7.74-7.03,7.74-4.64,0-7.36-3.17-7.36-11.45,0-7.55,2.75-11.41,7.55-11.41s7.03,3.38,7.03,10.6v.92h-11.88v1.04c0,6.32,2.2,8.21,4.61,8.21s4.24-1.82,4.61-5.68l2.46,.02Zm-2.41-5.68c0-5.47-1.7-7.43-4.69-7.43s-4.57,1.96-4.61,7.43h9.3Z"/><polygon class="cls-1" points="28 75.42 28 77.62 35.57 77.62 35.57 105.12 38.15 105.12 38.15 77.62 45.8 77.62 45.8 75.42 28 75.42"/></g></svg>