<?xml version="1.0" encoding="UTF-8"?><svg id="Layer_1" xmlns="http://www.w3.org/2000/svg" xmlns:xlink="http://www.w3.org/1999/xlink" viewBox="0 0 256 256"><defs><style>.cls-1{fill:none;}.cls-2{fill:url(#linear-gradient);}.cls-3{clip-path:url(#clippath);}.cls-4{mask:url(#mask);}.cls-5{fill:#13437e;}.cls-6{fill:#2355a6;}.cls-7{fill:#07a8e1;}.cls-8{fill:#3168b2;}.cls-9{fill:#3a7cc0;}.cls-10{fill:#3b9ed8;}.cls-11{isolation:isolate;opacity:.11;}.cls-12{fill:url(#linear-gradient-2);}</style><clipPath id="clippath"><path class="cls-1" d="M94.83,109.24c-1.08-.21-2.17-.38-3.24-.52-.45-1.25-1.15-3.07-1.52-3.35-.57-.44-.71-1.33-.71-1.77s1.18-2.21,1.92-3.83c.74-1.62,4.57-10.46,4.86-11.49,.29-1.03,.59-1.33,1.03-2.51,.23-.6,1.23-2.41,2.15-4.03,.34,.98,.68,1.85,.98,2.46,1.68,3.36,.54,4.61,0,6.29-.56,1.68-.86,4.94-.88,6.89-.03,1.94-.06,4.66,.67,9.05,.33,1.96,1.18,3.28,2.34,4.21-2.77-.49-5.57-1-7.6-1.4m-5.55-1.9c.14,0,.62,.73,.93,1.22-.54-.05-1.09-.1-1.63-.14,.01-.09,.03-.19,.05-.28,.12-.59,.44-.8,.65-.8m27.55-20.61s1.2,.67,1.82,1.15c.63,.48,1.54,.86,1.95,1.46,.4,.6,1.13,1.61,1.29,2.47,.17,.87,.75,1.56,.77,1.83s-.22,.67-.46,.7c-.24,.03-1.68-.02-2.31-.62-.62-.6-1.51-1.47-1.97-3.31-.45-1.85-.79-2.21-1.1-2.67-.31-.46-.14-.63,0-1.01m104-4.75h0c-.05,0-.1,0-.15,0-2.68-.12-5.37,.17-8.05,.02-1.82-.1-3.62-.66-5.42-1.02-.31-.06-.61-.11-.92-.16-5.17-.95-9.83-.98-14.48-.04l-.24,.05c-4.43,.89-8.63,2.62-12.62,5.13,0,0-3.04,2.06-4.51,3.26l-1.19,1.01c-.14,.12-.15,.12-.29,.24-3.15,2.75-9.7,8.2-9.7,8.2-2.58,2.14-5.05,4.18-7.63,6.32-.9,.75-1.66,.96-2.32,1.25-.63,.27-1.48,.56-2.41,.84,.18-.54,.37-1.08,.55-1.61,.65-1.89,.63-4.27-3.21-5.81-.75-.3-3.72-1.27-4.78-1.56-1.06-.29-2.95-.79-4.44-1.1-1.49-.31-2.05-.56-3.2-.8-1.15-.24-2.41-.42-3.91-.42-2.35,0-2.81-.99-3.05-1.23-.24-.24-.05-.5,0-1.2,.05-.69-.79-1.1-1.51-1.94-.72-.84-1.3-1.61-1.97-2.16-.67-.55-1.44-1.73-2.09-2.47-.65-.74-2.31-2.62-2.95-3.58-.65-.96-2.11-3.05-2.88-4.1-.77-1.05-1.15-1.34-1.34-1.73-.19-.38-.44-1.15,.17-1.93,.45-.57,1.29-2.36,.87-4.21-.37-1.64-1.19-2.74-1.77-3.56-1.13-1.6-2.07-3.49-2.28-3.79-.43-.62-.55-2.06-.6-2.83-.05-.77-.12-1.73-.22-2.45-.09-.72-.48-1.2-.5-1.66-.02-.46,.5-.48,.82-.15,.31,.34,1.1,.6,1.61,.63,.51,.02,1.04-.19,1.44-.67,.41-.48,.7-1.48,1.01-1.89s1.48-.78,2.04-1.21c.56-.43,.72-.97,.9-1.58,.18-.61,.63-1.33,.81-1.98,.18-.65,.64-.61,.9-.9,.24-.26,.15-.79,.18-1.29,.03-.5,.18-1.01,.39-1.3,.22-.29,.71-2.04,.74-3.36,0-.38-.2-1.38-.37-1.82-.15-.41-2.03-2.67-2.53-3.14-.5-.47-.9-1.08-1.87-1.87-.97-.8-2.27-1.23-3.74-1.3-.33-.02-.71,.01-1.5,.13-.11,.01-.22,.04-.33,.07,0,0-2.81,.3-7.67,3.42-4.24,2.71-6.82,4.97-8.3,7.12-1.49,2.15-2.62,5.38-2.82,7.07-.28,2.4-.4,3.92-1.52,5.31-.82,1.01-2.06,4.13-1.86,5.64,.28,2.06,1.76,4.12,3.24,6.19,1.38,1.92,1.01,3.42,.3,4.72-1.42,2.56-2.3,3.18-2.3,3.18,0,0,1.17,.49,2.63,.13-.98,2.58-2.65,6.79-2.98,8.69,0,0-3.53,5.24-5.89,16.29,0,0-1.47,1.77-1.77,2.8-.16,.56-.66,1.73-1.1,2.68-1.33,.12-2.65,.3-3.96,.56l-.12,.02c-2.88,.57-5.62,1.46-8.39,2.79-.21,.1-.77,.32-.77,.32-2.92,1.19-5.42,.77-8.28,.21-.58-.12-1.73-.26-1.73-.26l-.15-.02c-3.67-.38-7.1,.32-10.55,1.62-4.69,1.77-8.22,4.47-10.84,7.93,0,0-.89,1.25-1.29,1.91-.89,1.45-1.66,3.02-2.3,4.68h0c-.68,1.77-1.22,3.65-1.64,5.62-1.42,6.82-1.41,13.55,.04,20.23,.31,1.45,.69,2.9,1.14,4.35,.34,1.1,.41,2.17,.37,3.16-.1,2.31-2.36,4.05-2.36,4.05-.98,.62-2.24,.81-3.37,1.2,3.35,2.96,7.47,2.27,10.09,.05,0,0,1.05-1.01,1.45-1.59,.86-1.27,1.63-2.57,2.32-3.9l.37-.74c2.44-4.96,3.68-10.3,3.7-16.01,0-1.88,.19-5.76,.19-5.76,.26-4.14,.87-8.12,2.18-12.1,.05-.13,.14-.4,.14-.41l.05-.16c.7-2.09,1.47-4.08,2.77-5.78,2.52-3.31,6.11-3.94,10.05-2.67-1.3,1.71-2.67,3.35-3.86,5.11-1.03,1.53-1.91,3.12-2.67,4.75h0c-1.43,3.14-2.33,6.46-2.57,10.06-.21,3.22,.1,6.36,.27,9.55,.07,1.29,.02,2.57-.12,3.84l-.02,.19c-.27,2.64-.92,5.06-1.83,7.59,0,0-.37,1-.56,1.48-1.03,2.55-2.32,4.94-3.87,7.17,0,.01-.02,.03-.03,.04-.49,.72-1.76,2.34-1.76,2.34-.58,.72-1.18,1.42-1.81,2.1-.42,.45-.81,1.21-.75,1.77,.78,6.64-1.68,12.61-3.61,18.69,0,0,0,0,0,0-.2,.63-.39,1.25-.58,1.88-.81,2.79-2.58,8.33-2.58,8.33l-.04,.13c-.17,.51-.29,.9-.46,1.41-.77,2.25-.5,4.16,1.34,5.72,1.47,1.25,1.3,2.92,1.27,4.56-.02,.67,0,1.34,0,2.15h9.55c-.86-1.63-1.45-3.3-2.49-4.6-2.48-3.1-3.16-6.33-2.15-10.24,.53-2.06,1.11-4.09,1.75-6.1t0,0c1.59-4.99,3.6-9.8,6.56-14.23,.38-.56,1.27-1.76,1.27-1.76,2.41-3.19,5.21-5.78,8.62-7.91,.73-.46,2.34-1.48,2.34-1.48,2.57-1.65,4.92-3.3,7.13-5.41,0,0,.96-.94,1.42-1.45,1.41-1.56,2.67-3.27,4.06-5,3.82,2.22,6.29,5.35,7.2,9.71l.27,2.61c0,.31-.03,1.28-.03,1.28-.04,.75-.13,1.49-.25,2.22,0,0-.65,3.26-1.01,4.87-.67,3.04-.59,3.51,1.9,5.38,1.08,.81,2.13,1.67,3.16,2.54,0,0,.1,.09,.1,.09,4.69,3.98,8.7,8.43,12.1,13.59,1.32,1.99,2.29,4.26,3.16,6.5,.07,.16,.13,.31,.2,.47,.65,1.46,1.55,2.5,3.17,3.03,.45,.14,.91,.74,1.04,1.23,.43,1.53,.7,3.11,1.06,4.74h10.19c-1.65-2.79-3.04-5.55-4.79-8.05-1.62-2.3-3.26-4.6-4.9-6.89-4.12-5.76-8.29-11.49-12.42-17.25-.95-1.33-1.32-2.78-.86-4.26,0,0,.18-.54,.32-.8,.41-.8,1.2-2.62,1.2-2.62,1.63-3.87,2.55-7.76,3.51-11.83,0,0,.93-3.94,1.45-5.89,.14-.54,.29-1.08,.47-1.75,4.96,.84,9.79,1.47,14.76,1.88,0,0,4.14,.3,6.15,.39,.87,.04,1.74,.07,2.61,.09,5.5,.14,11-.06,16.52-.6,0,0,1.26-.1,1.9-.17,.07,.27,.16,.41,.13,.54-.17,.79-.58,2.75-.58,2.75l-2.78,12.85s-.52,2.18-.79,3.23c-1.18,4.55-2.55,9.05-3.96,13.54,0,0-1.19,3.79-1.79,5.68-.52,1.64-2.39,4.85-2.39,4.85-1.08,2.03-1.15,3.83,.66,5.38,2.8,2.4,4.03,5.38,4.1,9.02h10.17c-.54-1.07-.93-2.06-1.51-2.95-1.46-2.25-2.49-3.94-4.1-6.08,0,0-.29-.39-.29-.4l-.16-.21c-1.51-2.03-1.71-4.16-.73-6.36,1.49-3.35,4.61-10.16,4.61-10.16,1.71-3.63,3.43-7.07,5.41-10.56,.17-.29,.74-1.28,.74-1.28,.83-1.41,2.4-3.86,2.73-4.37,.57-.86,1.14-1.71,1.74-2.55,2.32-3.24,3.96-6.98,5.89-10.5,1.17-2.13,4.23-3.16,6.33-2.12,1.48,.74,2.98,1.35,4.51,1.87,0,0,0,0,0,0,2.18,.75,4.42,1.31,6.69,1.71,0,0,4,.61,6.04,.78,3.11,.25,6.19,1,9.25,1.67,1.48,.33,2.11,1.57,1.82,3.12-.44,2.3-.88,4.59-1.33,6.9-.34,1.72-.66,3.45-.99,5.18h0s-.44,2.27-.65,3.39c-.21,1.17-.78,1.87-1.89,2.16-1.71,.46-2.99,1.45-3.96,2.86h0c-.1,.16-.2,.31-.3,.47-.25,.41-.91,.74-1.42,.79-1.18,.12-2.37,.03-3.68,.03v9.7c2.32-.68,4.59-1.04,6.58-1.97,3.33-1.57,5.95-3.78,7.87-6.67,.32-.49,1.97-3.68,2.37-4.87,.92-2.75,1.85-5.5,2.74-8.25,0,0,.65-2.01,.97-3.02,.97-3.07,1.87-6.16,2.65-9.29,.27-1.07,.52-2.15,.76-3.23,.48-2.17-.55-3.76-2.04-4.64-2.54-1.49-5.14-2.82-7.79-4-3.3-1.47-6.69-2.69-10.19-3.61h0c-2.13-.56-4.31-1.01-6.52-1.35-.19-.03-.39-.11-.59-.17,.28-.85,.58-1.69,.87-2.53,.52-1.5,1.04-2.99,1.47-4.5,.12-.44,.26-.87,.36-1.31,.12-.52,.38-1.78,.38-1.78,.53-2.55,.88-4.93,1.08-7.51,.26-3.42,1.53-6.5,2.75-9.6,.03-.08,.19-.47,.19-.47,1.16-2.93,2.28-5.19,3.86-7.9l.18-.3s0,0,0,0c1.34-2.29,2.8-4.51,4.38-6.67,.06,.03,.11,.06,.17,.09,0,0,.01,0,.02,0,1.3,.73,2.57,1.4,3.77,2.14,.35,.22,.68,.65,.79,1.04,.25,.85,.51,1.7,.77,2.55h0c.53,1.76,1.54,5.83,1.54,5.83,.13,.66,.27,1.33,.23,2.03-.06,.95-.2,1.92-.22,2.87-.02,.77,.02,1.56,.24,2.29,.1,.37,.21,.68,.48,.99l.1,.13c.12,.14,.25,.26,.39,.33,1.65,.73,3.01,1.4,4.74,1.89l.31,.09h0s0,0,.02,0c.25,.07,.51,.16,.77,.21,.96,.22,1.97,.17,2.94-.09l-1.07-.04,1.07,.04c2.32-.63,4.38-2.57,4.73-5.52,.29-2.48,.53-4.31,.87-6.79l.09-.66c.79-5.79,1.67-11.57,2.48-17.36,.45-3.16,.85-6.33,1.38-9.48,.1-.6,.57-1.31,1.08-1.63,2.31-1.44,4.69-2.76,7.02-4.45-2.33-.29-4.7-.67-7.07-.79"/></clipPath><linearGradient id="linear-gradient" x1="-20.33" y1="1000.95" x2="-16.45" y2="1000.95" gradientTransform="translate(1024.65 49773.29) scale(49.6 -49.6)" gradientUnits="userSpaceOnUse"><stop offset="0" stop-color="#fff"/><stop offset=".21" stop-color="#fff"/><stop offset="1" stop-color="#fff"/></linearGradient><mask id="mask" x="1.22" y="5.56" width="253.49" height="240.71" maskUnits="userSpaceOnUse"><rect class="cls-2" x="15.59" y="21.15" width="224.75" height="209.53" transform="translate(-17.35 20.5) rotate(-8.58)"/></mask><linearGradient id="linear-gradient-2" x1="-20.33" y1="1000.95" x2="-16.45" y2="1000.95" gradientTransform="translate(1024.65 49773.29) scale(49.6 -49.6)" gradientUnits="userSpaceOnUse"><stop offset="0" stop-color="#52c7e1"/><stop offset=".21" stop-color="#52c7e1"/><stop offset="1" stop-color="#2355a6"/></linearGradient></defs><path class="cls-5" d="M59.2,117.3v-3.3s0-1.82,0-1.82c-.02,0-.02,0-.03,0v5.12s.02,0,.03,0"/><polygon class="cls-5" points="133.98 112.46 133.94 95.89 133.95 99.79 133.98 112.46"/><path class="cls-5" d="M107.85,206.57h3.21s-.01,0-.02,0h-3.2Z"/><path class="cls-5" d="M59.16,120.43l-.02,25.81,.05-25.86s-.02,.03-.03,.04"/><path class="cls-9" d="M35.74,209.91c1.47,1.25,1.3,2.91,1.26,4.56-.01,.67,0,1.34,0,2.14h9.55c-.86-1.63-1.45-3.29-2.49-4.6-1.31-1.64-2.11-3.32-2.44-5.11l-7.58,.09c.15,1.08,.68,2.06,1.7,2.92"/><path class="cls-10" d="M101.41,206.58c.09,.22,.18,.43,.26,.65,.06,.16,.13,.31,.2,.47,.65,1.46,1.55,2.5,3.16,3.03,.45,.15,.91,.75,1.04,1.23,.43,1.53,.71,3.11,1.06,4.74h10.19c-1.65-2.79-3.04-5.55-4.79-8.05-.49-.69-.98-1.38-1.47-2.07h-3.21s-6.44,0-6.44,0Z"/><path class="cls-10" d="M131.73,207.74c2.8,2.4,4.02,5.38,4.1,9.02h10.17c-.54-1.07-.93-2.06-1.51-2.95-1.46-2.25-2.49-3.93-4.1-6.08,0,0-.28-.39-.29-.4l-.16-.21c-.12-.15-.21-.31-.31-.46l-8.86-.03c.23,.38,.54,.75,.95,1.1"/><path class="cls-7" d="M32.11,154.1h0c.31,1.45,.7,2.9,1.15,4.35,.34,1.1,.41,2.17,.37,3.16-.1,2.31-2.36,4.05-2.36,4.05-.98,.62-2.24,.81-3.37,1.2,3.35,2.96,7.47,2.27,10.09,.05,0,0,1.05-1.01,1.45-1.59,.86-1.27,1.63-2.57,2.32-3.9l.37-.74c2.2-4.47,3.42-9.24,3.65-14.3l-14.7,.12c.13,2.55,.47,5.08,1.02,7.61"/><path class="cls-7" d="M41.91,201.77c.53-2.06,1.11-4.09,1.75-6.1t0,0c1.59-4.99,3.6-9.8,6.56-14.22,.38-.56,1.27-1.76,1.27-1.76,2.14-2.84,4.6-5.2,7.51-7.19l.14-26.25-6.8,.06c.02,.31,.03,.62,.05,.93,.07,1.29,.02,2.57-.11,3.83l-.02,.19c-.27,2.64-.92,5.06-1.83,7.59,0,0-.37,1-.56,1.48-1.02,2.55-2.32,4.93-3.86,7.17-.01,.02-.02,.03-.03,.05-.49,.71-1.76,2.34-1.76,2.34-.58,.72-1.18,1.42-1.81,2.1-.42,.45-.81,1.21-.75,1.77,.78,6.64-1.68,12.61-3.61,18.68h0c-.2,.63-.39,1.25-.58,1.88-.81,2.79-2.58,8.34-2.58,8.34l-.04,.13c-.17,.51-.29,.9-.46,1.41-.34,1-.46,1.94-.35,2.8l7.58-.09c-.28-1.6-.18-3.29,.29-5.13"/><path class="cls-9" d="M59,172.49c.36-.24,.73-.49,1.1-.72,.73-.46,2.34-1.48,2.34-1.48,2.58-1.65,4.93-3.29,7.13-5.41,0,0,.96-.94,1.42-1.44,1.41-1.56,2.66-3.27,4.06-5,3.83,2.21,6.29,5.34,7.2,9.71l.28,2.61c0,.31-.03,1.28-.03,1.28-.04,.75-.12,1.49-.24,2.23,0,0-.65,3.25-1.01,4.87-.67,3.04-.59,3.51,1.89,5.38,1.08,.81,2.13,1.67,3.16,2.54,0,0,.11,.09,.11,.09,4.68,3.98,8.7,8.43,12.1,13.59,1.18,1.79,2.08,3.79,2.89,5.81l6.46,.02h3.2c-1.14-1.61-2.27-3.21-3.41-4.81-4.12-5.76-8.29-11.5-12.42-17.25-.95-1.33-1.32-2.77-.86-4.26,0,0,.18-.54,.32-.8,.41-.8,1.2-2.62,1.2-2.62,1.62-3.87,2.55-7.76,3.51-11.83,0,0,.93-3.94,1.45-5.89,.14-.54,.29-1.08,.47-1.75,4.96,.84,9.78,1.47,14.76,1.88,0,0,4.14,.3,6.14,.38,.87,.04,1.74,.07,2.61,.09,3.47,.09,6.94,.02,10.42-.16l-.14-12.66-75.94-.64-.13,26.25Z"/><path class="cls-9" d="M133.46,197.51c-.52,1.64-2.39,4.85-2.39,4.85-.8,1.51-.97,3.03-.29,4.28l4.96,.02-.17-15.84c-.1,.34-.21,.68-.31,1.01,0,0-1.19,3.79-1.79,5.68"/><path class="cls-9" d="M101.4,206.55s.01,.02,.02,.04l6.44-.02-6.46-.02Z"/><path class="cls-7" d="M135.22,159.55c2.03-.1,4.07-.24,6.1-.44,0,0,1.26-.1,1.9-.18,.07,.27,.16,.42,.13,.54-.17,.79-.58,2.75-.58,2.75l-2.78,12.85s-.51,2.18-.79,3.23c-1.09,4.2-2.35,8.37-3.64,12.52l.17,15.84,3.91,.02c-1.17-1.87-1.32-3.89-.42-5.89,1.5-3.35,4.62-10.16,4.62-10.16,1.71-3.63,3.42-7.07,5.41-10.57,.17-.3,.74-1.28,.74-1.28,.82-1.41,2.4-3.86,2.73-4.37,.57-.86,1.14-1.71,1.74-2.55,2.32-3.24,3.96-6.97,5.89-10.5,1.16-2.13,4.23-3.16,6.33-2.12,1.48,.74,2.99,1.34,4.51,1.87,0,0,0,0,0,0,2.18,.75,4.42,1.3,6.69,1.71,0,0,4,.61,6.04,.78,3.11,.25,6.18,1,9.24,1.67,1.48,.33,2.11,1.57,1.82,3.12-.44,2.3-.88,4.59-1.33,6.89-.33,1.73-.66,3.46-.99,5.19h0s-.44,2.27-.65,3.39c-.21,1.17-.78,1.87-1.89,2.16-1.71,.45-2.99,1.45-3.96,2.86h0c-.1,.16-.21,.3-.31,.46-.24,.41-.91,.75-1.41,.79-1.18,.12-2.37,.03-3.68,.03v9.69c2.32-.67,4.59-1.03,6.58-1.97,3.33-1.57,5.95-3.78,7.87-6.67,.32-.49,1.97-3.68,2.37-4.87,.92-2.75,1.85-5.49,2.74-8.24,0,0,.65-2.01,.97-3.02,.97-3.07,1.87-6.16,2.66-9.29,.26-1.08,.52-2.15,.76-3.23,.47-2.17-.55-3.76-2.05-4.64-2.54-1.49-5.14-2.82-7.79-4-3.3-1.47-6.69-2.69-10.19-3.61h0c-2.13-.56-4.31-1.01-6.52-1.35-.19-.03-.38-.11-.58-.17,.28-.85,.57-1.69,.87-2.53,.04-.12,.09-.25,.13-.38l-43.49,1,.14,12.65Z"/><path class="cls-8" d="M59.2,117.3c.66,.1,1.34,.26,2.02,.48-.67,.88-1.36,1.74-2.03,2.6l-.05,25.86,75.95,.64-1.1-34.42-74.78,1.53v3.3Z"/><path class="cls-10" d="M198.61,112.05h0c.53,1.76,1.54,5.83,1.54,5.83,.12,.67,.27,1.33,.23,2.03-.06,.95-.2,1.92-.22,2.87-.01,.76,.03,1.56,.24,2.29,.11,.37,.22,.68,.48,.99l.1,.13c.12,.14,.25,.27,.39,.33,1.65,.73,3.01,1.41,4.74,1.9l.32,.09h0c.26,.07,.51,.16,.77,.22,.96,.22,1.97,.17,2.94-.09l-1.07-.04,1.07,.04c2.32-.63,4.39-2.57,4.73-5.52,.29-2.48,.53-4.31,.86-6.79l.09-.66c.23-1.68,.47-3.36,.72-5.04l-18.24,.41c.1,.33,.21,.68,.31,1.02"/><path class="cls-10" d="M135.09,146.88l43.49-1c.48-1.37,.94-2.74,1.34-4.12,.12-.44,.25-.87,.36-1.31,.12-.52,.38-1.77,.38-1.77,.53-2.54,.88-4.93,1.08-7.51,.26-3.42,1.53-6.49,2.75-9.6,.03-.08,.19-.47,.19-.47,1.16-2.93,2.28-5.19,3.86-7.9l.18-.3s0,0,0,0c.33-.56,.66-1.12,1.01-1.68l-55.73,1.26,1.1,34.42Z"/><path class="cls-10" d="M88.48,108.14c.12-.59,.44-.8,.65-.8,.14,0,.62,.73,.93,1.22-.55-.05-1.09-.1-1.63-.14,0-.09,.03-.19,.05-.28m-5.3-2.33c-.16,.56-.66,1.73-1.1,2.68-1.33,.12-2.64,.3-3.96,.56l-.11,.02c-2.88,.57-5.62,1.46-8.39,2.79-.21,.1-.77,.32-.77,.32-2.92,1.19-5.41,.77-8.28,.21-.37-.07-.98-.16-1.36-.21v1.82s74.78-1.53,74.78-1.53l-.03-12.67-34.67,.08c.05,1.67,.2,3.78,.66,6.56,.33,1.96,1.18,3.28,2.34,4.21-2.77-.5-5.57-1.01-7.6-1.4-1.08-.21-2.16-.38-3.24-.52-.45-1.26-1.15-3.07-1.52-3.35-.57-.44-.71-1.33-.71-1.77s1.12-2.12,1.85-3.71h-5.4c-.25,1-.5,2.02-.73,3.12,0,0-1.47,1.76-1.77,2.79"/><path class="cls-6" d="M59.16,120.43c-.62,.8-1.23,1.61-1.8,2.45-1.03,1.53-1.91,3.12-2.67,4.75h0c-1.43,3.14-2.33,6.46-2.57,10.06-.19,2.9,.04,5.75,.21,8.61l6.79-.06,.02-25.81Z"/><path class="cls-6" d="M46.03,138.91c.26-4.14,.87-8.11,2.18-12.1,.05-.13,.14-.4,.14-.41l.06-.16c.7-2.09,1.47-4.08,2.77-5.78,2.07-2.72,4.87-3.63,7.99-3.16v-5.12c-.19-.03-.32-.04-.32-.04l-.15-.02c-3.67-.38-7.1,.32-10.55,1.62-4.68,1.77-8.22,4.47-10.84,7.92,0,0-.89,1.25-1.29,1.91-.9,1.45-1.66,3.02-2.3,4.68h0c-.68,1.77-1.22,3.64-1.64,5.62-.88,4.23-1.21,8.43-.98,12.61l14.7-.12c.03-.56,.05-1.13,.05-1.7,.02-1.88,.2-5.75,.2-5.75"/><path class="cls-8" d="M219.68,88.81c.1-.59,.57-1.31,1.08-1.63,2.3-1.44,4.69-2.76,7.02-4.45-2.37-.26-4.73-.64-7.11-.76h0c-.05,0-.1,0-.15-.01-2.68-.11-5.37,.18-8.05,.03-1.82-.11-3.61-.66-5.42-1.03-.31-.06-.61-.1-.92-.16-5.17-.94-9.83-.98-14.48-.04l-.24,.05c-4.42,.9-8.63,2.62-12.62,5.13,0,0-3.04,2.06-4.51,3.26l-1.19,1.01c-.14,.12-.15,.12-.29,.24-3.15,2.74-9.7,8.2-9.7,8.2-2.58,2.14-5.05,4.17-7.63,6.32-.9,.75-1.66,.96-2.32,1.25-.63,.27-1.48,.56-2.41,.84,.18-.54,.37-1.08,.55-1.61,.65-1.89,.63-4.27-3.21-5.81-.75-.3-3.72-1.27-4.78-1.56-1.06-.29-2.95-.79-4.44-1.1-1.49-.31-2.05-.56-3.2-.8-.55-.11-1.12-.21-1.72-.29l.04,16.58,55.73-1.26c1.05-1.7,2.18-3.36,3.37-4.99,.06,.03,.11,.06,.17,.09,0,0,.01,0,.02,0,1.3,.73,2.56,1.4,3.77,2.14,.35,.21,.68,.64,.79,1.04,.15,.51,.31,1.01,.46,1.52l18.24-.41c.59-4.1,1.19-8.21,1.76-12.31,.44-3.16,.84-6.33,1.37-9.48"/><path class="cls-6" d="M116.68,86.72s1.2,.68,1.82,1.15c.63,.48,1.54,.86,1.95,1.46,.4,.6,1.12,1.61,1.29,2.47,.17,.86,.75,1.56,.77,1.83,.02,.26-.22,.67-.46,.7-.24,.02-1.68-.02-2.3-.62-.62-.6-1.51-1.47-1.97-3.31-.45-1.85-.79-2.21-1.1-2.67-.31-.45-.14-.62,0-1.01m-25.55,13.05c.74-1.62,4.57-10.46,4.86-11.49,.3-1.03,.59-1.33,1.03-2.51,.23-.61,1.23-2.41,2.15-4.03,.34,.98,.68,1.85,.98,2.46,1.68,3.35,.54,4.61-.01,6.29-.55,1.68-.85,4.94-.88,6.89,0,.71-.02,1.53,.01,2.49l34.67-.08v-3.91c-.68-.09-1.4-.14-2.19-.14-2.35,0-2.81-.99-3.05-1.23s-.05-.5,0-1.2c.05-.69-.79-1.1-1.51-1.94-.72-.84-1.3-1.61-1.97-2.16-.67-.55-1.44-1.73-2.09-2.47-.65-.74-2.31-2.62-2.96-3.58-.65-.96-2.11-3.05-2.88-4.1-.77-1.05-1.15-1.34-1.34-1.73-.19-.38-.44-1.17,.17-1.92,.44-.54,1.26-2.29,.9-4.07-.33-1.66-1.21-2.88-1.8-3.7-1.13-1.6-2.07-3.49-2.28-3.79-.43-.62-.55-2.06-.6-2.83-.05-.77-.12-1.73-.21-2.45-.1-.72-.48-1.2-.51-1.66-.02-.46,.51-.48,.82-.15,.31,.34,1.1,.6,1.61,.63,.5,.02,1.03-.19,1.44-.68,.4-.48,.69-1.48,1.01-1.89,.31-.41,1.48-.78,2.04-1.21,.56-.43,.72-.97,.9-1.58,.18-.61,.63-1.33,.81-1.98,.18-.65,.64-.61,.9-.9,.24-.26,.15-.79,.18-1.29,.04-.5,.18-1.01,.4-1.3,.21-.29,.71-2.04,.73-3.36,0-.38-.2-1.38-.37-1.82-.15-.41-2.03-2.67-2.53-3.14-.51-.47-.9-1.08-1.87-1.88-.97-.79-2.27-1.22-3.75-1.29-.33-.02-.71,.01-1.5,.13-.11,.01-.22,.04-.33,.07,0,0-2.81,.3-7.67,3.42-4.24,2.71-6.81,4.97-8.3,7.12-1.49,2.15-2.62,5.39-2.82,7.08-.27,2.4-.4,3.92-1.52,5.31-.81,1.01-2.06,4.14-1.86,5.64,.29,2.06,1.76,4.12,3.24,6.19,1.37,1.92,1.01,3.42,.29,4.72-1.42,2.56-2.3,3.18-2.3,3.18,0,0,1.17,.49,2.62,.13-.98,2.58-2.65,6.79-2.97,8.68,0,0-2.87,4.26-5.16,13.18h5.4s.04-.08,.06-.12"/><g class="cls-11"><g class="cls-3"><g class="cls-4"><rect class="cls-12" x="15.59" y="21.15" width="224.75" height="209.53" transform="translate(-17.35 20.5) rotate(-8.58)"/></g></g></g></svg>