<?xml version="1.0" encoding="UTF-8"?><svg id="Layer_1" xmlns="http://www.w3.org/2000/svg" viewBox="0 0 256 256"><defs><style>.cls-1{fill:#018078;}.cls-2{fill:#014f36;}.cls-3{fill:#ff0001;}</style></defs><g><rect class="cls-2" x="79.05" y="140.89" width="97.97" height="8.76"/><g><path class="cls-2" d="M141.34,93.19l6.62,16.56,11.69-6.14-10.11-22.41h-14.72l-20.69,38.56s10.17-.32,16.68-5.22c1.64-.98,6.27-13.16,10.53-21.35h0Z"/><path class="cls-1" d="M159.63,103.61l-11.69,6.14c-9.99,5.12-19.49,9.6-24.6,11.06-13.49,3.89-29.92,6.21-35.81,.99-5.55-4.92,7.26-25.55,31.51-30.14,3.93-.87,6.23-.65,6.23-.63,0-.03-1.67-7.05-2.96-8.54-1.8-2.21-3.59-2.67-6.23-2.33-5.25,.32-27.57,6.26-36.38,24.86-4.91,10.56,1.62,21.24,5.85,24.33,1.97,1.44,14.64,12.8,43.94,1.31,28.88-11.21,54.76-28.85,54.77-28.85v-11.81s-11.4,6.51-24.63,13.61Z"/><path class="cls-2" d="M152.06,120.51c1.08,2.54,4.19,9.92,4.98,12.05,1.04,2.33,3.63,2.33,3.63,2.33h13.47l-10.04-20.79c-3.69,2.06-7.74,4.23-12.05,6.42Z"/></g><path class="cls-3" d="M184.28,85.39s-15.41,8.84-19.02,10.19c-3.32,1.31-4.56-.42-4.95-1.04-.89-1.37-2.36-5.85-2.55-6.53,.09,.02,.95,.18,2.91-.32,2.34-.6,23.6-12.48,23.63-12.48v10.17h-.02Z"/></g><g><path class="cls-2" d="M36.46,166.92c2.07,0,4.22,.63,5.97,1.89l-1.34,1.74c-1.44-.99-2.64-1.55-4.47-1.55-3.17,0-5.64,1.97-5.64,4.85s2.48,4.85,5.64,4.85c1.92,0,3.18-.6,4.71-1.64l1.34,1.74c-1.8,1.29-4.07,1.98-6.23,1.98-4.35,0-8.45-2.57-8.45-6.96s4.13-6.9,8.46-6.9Z"/><path class="cls-2" d="M61.28,173.85c0,3.8-3.53,6.93-8.49,6.93s-8.49-3.14-8.49-6.93,3.53-6.93,8.49-6.93,8.49,3.14,8.49,6.93Zm-2.99,0c0-2.7-2.24-4.85-5.51-4.85s-5.51,2.15-5.51,4.85,2.24,4.85,5.51,4.85c3.27,0,5.51-2.15,5.51-4.85Zm-6.77-8.18h-2.7l2.51-2.36h2.9l2.51,2.36h-2.7l-1.25-1.2-1.26,1.2Z"/><path class="cls-2" d="M62.4,169.29v-2.15h13.19v2.15h-5.16v11.27h-2.88v-11.27h-5.15Z"/><path class="cls-2" d="M78.54,176.68v-9.54h12.15v2.15h-9.27v3.24h8.51v2.09h-8.51v2.07c0,1.17,.56,1.73,1.68,1.73h7.86v2.15h-8.55c-2.46,0-3.87-1.44-3.87-3.87Z"/><path class="cls-2" d="M93.71,178.66l1.34-1.94c1.74,1.29,4.13,1.88,6.17,1.88s3.87-.63,3.87-1.64-1.94-1.44-4.16-1.92c-3.06-.65-6.71-1.43-6.71-4.1,0-2.49,3.11-4.04,6.65-4.04,2.43,0,4.98,.69,6.83,1.94l-1.34,1.94c-1.52-1.16-3.54-1.73-5.42-1.73s-3.75,.6-3.75,1.55,1.77,1.26,3.87,1.68c3.12,.63,6.99,1.43,6.99,4.34,0,2.64-3.18,4.16-6.78,4.16-2.79,.02-5.58-.81-7.56-2.12Z"/><path class="cls-2" d="M117.39,167.14h6.06c5.18,0,8.63,2.69,8.63,6.71s-3.45,6.71-8.63,6.71h-6.06v-13.41Zm6.26,11.27c3.26,0,5.45-1.82,5.45-4.55s-2.19-4.58-5.45-4.58h-3.38v9.12h3.38Z"/><path class="cls-2" d="M136.11,167.14h2.9l-2.33,4.28h-2.22l1.65-4.28Z"/><path class="cls-2" d="M149.52,177.31h-7.4l-1.61,3.24h-2.93l6.96-13.41h2.93l6.96,13.41h-3.3l-1.62-3.24Zm-1.05-2.09l-2.64-5.33-2.64,5.33h5.28Z"/><path class="cls-2" d="M157.08,167.14h7.26c3.38,0,6.11,1.37,6.11,4.31,0,2.3-1.68,3.51-3.96,4.02l4.4,5.07h-3.36l-3.99-4.68h-3.57v4.68h-2.88s0-13.4,0-13.4Zm7.07,6.65c2.03,0,3.33-.84,3.33-2.3s-1.25-2.21-3.36-2.21h-4.16v4.5h4.19Z"/><path class="cls-2" d="M187.3,167.14h3.06v13.41h-2.88v-10.01l-5.33,7.49-5.18-7.26v9.77h-2.49v-13.41h3.06l4.86,6.83,4.89-6.81Z"/><path class="cls-2" d="M193.79,173.85c0-3.8,3.53-6.93,8.49-6.93s8.49,3.14,8.49,6.93-3.53,6.93-8.49,6.93c-4.97,.01-8.49-3.14-8.49-6.93Zm2.99,0c0,2.7,2.24,4.85,5.51,4.85s5.51-2.15,5.51-4.85-2.24-4.85-5.51-4.85-5.51,2.15-5.51,4.85Z"/><path class="cls-2" d="M214.2,167.14h7.26c3.38,0,6.11,1.37,6.11,4.31,0,2.3-1.68,3.51-3.96,4.02l4.4,5.07h-3.36l-3.99-4.68h-3.59v4.68h-2.88v-13.4h.02Zm7.05,6.65c2.03,0,3.33-.84,3.33-2.3s-1.25-2.21-3.36-2.21h-4.16v4.5h4.19Z"/></g></svg>