<?xml version="1.0" encoding="UTF-8"?><svg id="Layer_1" xmlns="http://www.w3.org/2000/svg" viewBox="0 0 256 256"><defs><style>.cls-1{fill:#a81e2d;}.cls-2{fill:#26449c;}</style></defs><path class="cls-2" d="M65.38,112.66h17.95v3.24h-14.22v13.47h13.58v3.25h-13.58v17.79h-3.73v-37.75Z"/><rect class="cls-2" x="86.26" y="112.66" width="3.41" height="4.54"/><rect class="cls-2" x="86.26" y="122.82" width="3.41" height="27.58"/><path class="cls-2" d="M92.85,128.99c0-3.03,0-4.16-.22-6.17h3.41v5.3h.11c1.24-3.08,3.57-5.95,7.08-5.95,.81,0,1.78,.16,2.38,.32v3.57c-.7-.22-1.62-.32-2.49-.32-5.41,0-6.87,6.06-6.87,11.03v13.63h-3.41v-21.42Z"/><path class="cls-2" d="M105.51,146.4c2.05,1.03,4.54,1.73,7.19,1.73,3.25,0,6.11-1.78,6.11-4.92,0-6.54-13.25-5.52-13.25-13.52,0-5.46,4.44-7.52,8.98-7.52,1.46,0,4.38,.32,6.81,1.24l-.32,2.97c-1.78-.81-4.22-1.3-6.11-1.3-3.52,0-5.95,1.08-5.95,4.6,0,5.14,13.57,4.49,13.57,13.52,0,5.84-5.46,7.84-9.63,7.84-2.65,0-5.3-.32-7.73-1.3l.32-3.35Z"/><path class="cls-2" d="M137.31,125.74h-6.27v17.85c0,2.49,.92,4.54,3.68,4.54,1.3,0,2.16-.27,3.14-.65l.22,2.81c-.81,.32-2.49,.76-4.16,.76-6.06,0-6.27-4.16-6.27-9.19v-16.12h-5.41v-2.92h5.41v-6.65l3.41-1.19v7.84h6.27v2.92Z"/><path class="cls-2" d="M139.52,145.59c2.22,1.41,4.81,2.22,8.33,2.22,4.65,0,8.49-2.38,8.49-7.73,0-7.41-17.31-8.33-17.31-18.23,0-6.06,5.3-9.84,11.95-9.84,1.84,0,4.81,.27,7.41,1.24l-.6,3.41c-1.68-.92-4.33-1.41-6.87-1.41-3.89,0-8.17,1.62-8.17,6.49,0,7.57,17.31,7.63,17.31,18.66,0,7.63-6.54,10.65-12.38,10.65-3.68,0-6.54-.76-8.55-1.62l.38-3.84Z"/><path class="cls-2" d="M179.81,145.97h-.11c-1.51,3.3-5.35,5.08-8.76,5.08-7.84,0-9.09-5.3-9.09-7.79,0-9.25,9.84-9.68,16.98-9.68h.65v-1.41c0-4.71-1.68-7.08-6.27-7.08-2.87,0-5.57,.65-8.11,2.27v-3.3c2.11-1.03,5.68-1.89,8.11-1.89,6.81,0,9.68,3.08,9.68,10.28v12.17c0,2.22,0,3.89,.27,5.79h-3.35v-4.43Zm-.32-9.46h-.97c-5.89,0-12.93,.6-12.93,6.65,0,3.62,2.6,4.98,5.73,4.98,8,0,8.17-6.98,8.17-9.95v-1.68Z"/><path class="cls-2" d="M225.95,149.54c-2.38,.97-5.46,1.51-8,1.51-9.14,0-12.55-6.17-12.55-14.44s4.65-14.44,11.63-14.44c7.79,0,10.98,6.27,10.98,13.68v1.73h-18.87c0,5.84,3.14,10.55,9.09,10.55,2.49,0,6.11-1.03,7.73-2.05v3.46Zm-1.68-14.87c0-4.81-1.95-9.57-7.03-9.57s-8.11,5.03-8.11,9.57h15.14Z"/><path class="cls-1" d="M51.72,126.55l-3.64-4.6,11.09-9.08c-2.99-1.62-6.41-2.55-10.05-2.55-11.66,0-21.12,9.46-21.12,21.12s9.46,21.12,21.12,21.12c3.04,0,5.92-.66,8.54-1.81v-29.31l-5.94,5.11Z"/><polygon class="cls-1" points="185.86 123.5 182.21 123.5 191.75 150.34 195.83 150.34 216.48 103.44 213.34 103.44 193.91 142.83 185.86 123.5"/></svg>