<?xml version="1.0" encoding="UTF-8"?><svg id="Layer_1" xmlns="http://www.w3.org/2000/svg" viewBox="0 0 256 256"><defs><style>.cls-1{fill:#fff;}</style></defs><circle cx="128" cy="128" r="100"/><g><path class="cls-1" d="M98.09,97.5c-2.73,2.8-4.12,6.44-4.12,10.83v3.7h-8.09v9.43h8.09v39.99h13.72v-39.99h9.33v-9.43h-9.33v-2.85c0-2.28,.38-3.41,1.16-4.26,.77-.83,2.15-1.25,4.11-1.25,1.47,0,3.34,.12,4.82,.3v-10.3c-1.84-.19-5.06-.4-7.24-.4-5.52,0-9.71,1.42-12.45,4.22"/><path class="cls-1" d="M153.82,148.33c-2.01,2.69-4.9,4.06-8.6,4.06-7.18,0-11.64-5.99-11.64-15.65s4.46-15.65,11.64-15.65c3.7,0,6.6,1.37,8.6,4.06,2.01,2.7,3.04,6.6,3.04,11.59s-1.02,8.89-3.04,11.59m2.58-30.53h-.19c-3.07-4.58-8.39-7.11-15.05-7.11-5.15,0-10.3,2.17-14.12,5.96-4.69,4.64-7.16,11.46-7.16,19.7s2.07,14.57,5.98,19.24c3.9,4.66,9.45,7.13,16.04,7.13s12.03-2.52,14.97-7.29h.19v6.03h13.06V93.29h-13.72v24.51Z"/></g></svg>