<?xml version="1.0" encoding="UTF-8"?><svg id="Layer_1" xmlns="http://www.w3.org/2000/svg" viewBox="0 0 256 256"><defs><style>.cls-1{fill:#21396d;}</style></defs><g><path class="cls-1" d="M154.19,108.54c-1.17-.56-2.96,.47-4.57,2.45-1.32,1.62-2.04,3.27-2.06,4.87-.01,.57,.21,1.28,.71,1.54,1.14,.6,2.52-.29,3.51-1.11,.66-.54,1.2-1.1,1.68-1.81,.52-.78,.91-1.29,1.33-2.18,.06-.12,.03-.16-.02-.18-.15-.05-.3-.16-.32-.28-.02-.07-.02-.14,.02-.23,.54-1.1,.93-2.49-.28-3.07"/><path class="cls-1" d="M128,85.54c-34.3,0-62.09,9.44-62.09,20.99s27.8,20.99,62.09,20.99,62.09-9.44,62.09-20.99-27.79-20.99-62.09-20.99m-31.89,34.79c-3.67,.03-6.9-2.23-7.27-6.14-.21-2.17,.41-4.09,1.64-5.69,1.09-1.42,2.94-2.59,4.5-2.88,.51-.09,1.19-.03,1.48,.3,.44,.51,.32,1.08-.13,1.3-1.19,.61-2.63,1.65-3.34,3.07-.58,1.16-.69,2.55,.19,3.88,1.47,2.21,5.58,2.28,9.39-1.26,.94-.87,1.79-1.7,2.65-2.68,1.68-1.91,2.24-2.61,4.48-5.7,.03-.03,.03-.08,.02-.11-.02-.04-.05-.05-.11-.05-1.49,.04-2.79,.48-4.06,1.43-.36,.27-.89,.23-1.12-.12-.25-.39-.07-.91,.35-1.19,2.03-1.41,4.26-1.67,6.53-2.05,0,0,.16,0,.29-.16,.93-1.19,1.64-2.26,2.63-3.47,1-1.22,2.29-2.34,3.28-3.19,1.38-1.18,2.26-1.58,3.16-2.07,.24-.12-.03-.27-.1-.27-5.02-.94-10.23-2.15-15.21-.32-3.45,1.28-4.96,4.01-4.23,5.83,.51,1.29,2.22,1.5,3.82,.73,1.33-.65,2.55-1.69,3.42-3.03,.49-.75,1.51-.21,.96,1.09-1.46,3.41-4.24,6.12-7.63,6.23-2.89,.09-4.75-2.02-4.74-4.63,0-5.15,5.76-8.54,11.81-9.04,7.28-.6,14.18,1.33,21.4,2.21,5.54,.67,10.85,.68,16.41-.59,.66-.14,1.12,.27,1.08,.94-.05,.96-.8,1.88-2.63,2.88-2.09,1.14-4.27,1.48-6.54,1.5-5.51,.05-10.64-2.09-15.95-3.24,0,.23,.07,.51-.13,.65-2.94,2.16-5.6,4.36-7.38,7.44-.06,.07-.03,.14,.08,.13,1.55-.08,2.94-.12,4.38-.24,.25-.02,.26-.08,.24-.27-.13-1.06,.18-2.27,1.12-3.11,.96-.86,2.16-.96,2.96-.34,.91,.7,.83,1.97,.33,2.92-.5,.96-1.34,1.48-2.14,1.73,0,0-.17,.04-.14,.19,.03,.24,1.12,.85,1.21,1,.09,.15,.04,.39-.12,.57-.12,.13-.3,.25-.53,.25-.19,0-.3-.07-.54-.2-.49-.26-1.1-.7-1.51-1.21-.14-.17-.21-.18-.56-.16-1.56,.09-4,.33-5.65,.53-.4,.05-.46,.12-.54,.26-2.63,4.32-5.44,8.98-8.52,12.1-3.31,3.35-6.06,4.23-8.98,4.25m71.35-21c-.51,.88-10.35,15.8-10.97,17.34-.2,.49-.22,.86-.02,1.13,.51,.7,1.66,.29,2.38-.21,2.13-1.46,3.6-3.23,5.24-4.79,.09-.07,.25-.1,.36,0,.24,.22,.59,.51,.84,.77,.11,.12,.07,.24,.01,.32-1.6,1.94-3.37,3.78-5.06,5.08-2.63,2.03-5.26,2.55-6.56,1.25-.48-.49-.75-1.18-.78-1.76-.02-.32-.18-.33-.33-.19-1.55,1.53-4.25,3.22-6.7,2.02-2.05-1.01-2.53-3.44-2.14-5.5,0-.04-.04-.33-.29-.16-.43,.3-.99,.64-1.68,.9-.85,.32-1.25,.44-2.05,.43-1,0-1.89-.43-2.53-1.41-.35-.53-.5-1.34-.53-1.93,0-.07-.09-.18-.18-.03-1.67,2.55-3.24,5.01-4.9,7.6-.08,.12-.16,.2-.33,.21-1.03,0-2.15,0-3.28,0-.21,0-.3-.15-.19-.35,.58-1.12,3.77-5.75,5.93-9.68,.6-1.08,.48-1.64,.11-1.88-.46-.3-1.38,.15-2.16,.74-2.12,1.6-3.9,4.09-4.81,5.21-.53,.66-1.03,1.62-2.42,3.13-2.19,2.37-5.09,3.73-7.88,2.79-1.53-.51-2.63-1.73-3.05-3.23-.08-.29-.25-.37-.4-.18-.45,.56-1.38,1.39-2.15,1.91-.08,.06-.29,.18-.47,.1-.16-.07-.74-.88-.85-1.11-.08-.17,0-.35,.09-.44,1.1-.97,1.71-1.51,2.19-2.12,.35-.45,.63-.95,.95-1.76,.67-1.68,2.2-4.83,5.25-6.46,1.16-.62,2.34-1.07,3.65-1.22,.56-.06,1.02,.01,1.19,.45,.06,.18,.22,.58,.32,.88,.06,.18,.02,.31-.2,.4-1.8,.68-3.6,1.74-4.84,3.4-1.41,1.89-1.8,4.16-.85,5.47,.69,.95,1.8,1.11,2.88,.77,1.63-.51,3.01-2.02,3.72-3.7,.78-1.83,.9-4,.33-5.9-.09-.33-.01-.58,.2-.76,.43-.35,1.03-.62,1.2-.72,.37-.21,.81-.05,1.02,.25,.59,.88,.91,2.11,.94,3.39,.04,.27,.15,.27,.29,.14,1.06-1.13,2.05-2.33,3.18-3.23,1.03-.82,2.36-1.49,3.6-1.46,1.6,.03,2.4,1.12,2.34,3.04,0,.25,.17,.23,.29,.06,.48-.68,.79-1.02,1.34-1.47,1.1-.91,2.24-1.32,3.42-1.24,1.45,.11,2.61,1.43,2.38,2.93-.16,.97-.68,1.82-1.58,2.27-.76,.37-1.65,.31-2.27-.25-.51-.46-.67-1.13-.54-1.79,.03-.14-.15-.27-.3-.11-1.42,1.47-1.53,3.38-.6,4.24,1.03,.95,2.56,.31,3.68-.41,2.05-1.34,3.64-3.14,5.48-4.54,1.22-.92,2.61-1.75,4.17-1.95,.86-.11,1.69-.05,2.55,.29,1.11,.45,1.82,1.39,1.91,2.2,.02,.24,.2,.27,.35,.06,.88-1.37,5.63-8.45,6.02-9.2,.12-.23,.25-.26,.5-.26,1.05,0,2.38,0,3.39,0,.19,0,.29,.11,.2,.27"/><path class="cls-1" d="M121.41,101.37c.5-.1,1.05-.51,1.37-.99,.3-.43,.43-1.05,.14-1.3-.26-.22-.69-.16-1,.12-.63,.55-.82,1.34-.74,1.93,.04,.22,.13,.26,.23,.24"/><path class="cls-1" d="M128,81.43c-37.28,0-67.16,11.13-67.16,25.09s30.13,25.09,67.16,25.09,67.16-11.25,67.16-25.09-30.13-25.09-67.16-25.09m0,47.99c-35.54,0-64.35-10.25-64.35-22.9s28.81-22.89,64.35-22.89,64.35,10.25,64.35,22.89-28.81,22.9-64.35,22.9"/></g><g><polygon class="cls-1" points="28 153.95 41.5 153.95 41.5 156.6 30.76 156.6 30.76 162.71 41.25 162.71 41.25 165.34 30.76 165.34 30.76 174.24 28 174.24 28 153.95"/><path class="cls-1" d="M43.36,164.08c0-7.34,3.86-10.46,10.35-10.46s10.35,3.12,10.35,10.46-3.86,10.49-10.35,10.49-10.35-3.12-10.35-10.49m17.93,.06c0-5.04-2.3-7.86-7.58-7.86s-7.56,2.82-7.56,7.86,2.27,7.86,7.56,7.86,7.58-2.82,7.58-7.86"/><path class="cls-1" d="M75.89,166.43h-5.67v7.8h-2.71v-20.29h9.04c5.15,0,7.12,2.16,7.12,6.13,0,3.29-1.4,5.53-4.9,6.16l4.6,7.99h-2.96l-4.52-7.8Zm.63-2.55c2.76,0,4.35-.79,4.35-3.7s-1.53-3.67-4.44-3.67h-6.21v7.37h6.3Z"/><path class="cls-1" d="M87.55,153.95h6.79c7.72,0,10.65,2.24,10.65,10.13s-3.2,10.16-10.95,10.16h-6.49v-20.29Zm6.63,17.74c6.16,0,8.02-2.02,8.02-7.61s-1.56-7.5-7.83-7.5h-4.05v15.11h3.86Z"/><polygon class="cls-1" points="114.24 153.95 121.66 153.95 126.21 166.02 130.78 153.95 138.17 153.95 138.17 174.24 132.64 174.24 132.64 162.46 128.1 174.24 123.85 174.24 119.36 162.55 119.36 174.24 114.24 174.24 114.24 153.95"/><path class="cls-1" d="M140.85,164.08c0-7.8,4.57-10.46,11.01-10.46s11.04,2.65,11.04,10.46-4.6,10.49-11.04,10.49-11.01-2.66-11.01-10.49m16.29,.11c0-3.15-1.07-5.37-5.29-5.37s-5.28,2.22-5.28,5.37,1.07,5.39,5.28,5.39,5.29-2.24,5.29-5.39"/><polygon class="cls-1" points="165.55 153.95 171.63 153.95 179.54 164.68 179.54 153.95 184.96 153.95 184.96 174.24 179.73 174.24 170.97 162.38 170.97 174.24 165.55 174.24 165.55 153.95"/><polygon class="cls-1" points="188.68 153.95 204.84 153.95 204.84 159.07 194.35 159.07 194.35 161.53 204.56 161.53 204.56 166.49 194.35 166.49 194.35 169.34 204.95 169.34 204.95 174.24 188.68 174.24 188.68 153.95"/><polygon class="cls-1" points="214.28 167.5 206.26 153.95 212.34 153.95 217.24 162.44 222.14 153.95 228 153.95 219.95 167.56 219.95 174.24 214.28 174.24 214.28 167.5"/></g></svg>