<?xml version="1.0" encoding="UTF-8"?><svg id="Layer_1" xmlns="http://www.w3.org/2000/svg" viewBox="0 0 256 256"><defs><style>.cls-1{fill:#0069b3;}</style></defs><polygon class="cls-1" points="28 63.47 68.37 102.33 137.84 102.33 101.05 63.47 28 63.47"/><polygon class="cls-1" points="68.37 153.67 28 192.53 101.05 192.53 137.84 153.67 68.37 153.67"/><polygon class="cls-1" points="49.85 124.68 37.32 124.68 37.32 109.6 28.77 109.6 28.77 146.4 37.32 146.4 37.32 132.45 49.85 132.45 49.85 146.4 58.44 146.4 58.44 109.6 49.85 109.6 49.85 124.68"/><polygon class="cls-1" points="106.91 109.6 98.31 109.6 98.31 146.4 120.25 146.4 120.25 138.64 106.91 138.64 106.91 109.6"/><rect class="cls-1" x="124.24" y="109.6" width="8.7" height="36.81"/><polygon class="cls-1" points="146.43 117.36 162.63 117.36 162.63 109.6 137.84 109.6 137.84 146.4 146.43 146.4 146.43 132.45 159.86 132.45 159.86 124.69 146.43 124.69 146.43 117.36"/><path class="cls-1" d="M74.46,132.45l3.92-12.45,3.92,12.45h-7.84Zm-.78-22.85l-12.45,36.81h8.83l2.11-6.69h12.41l2.11,6.69h8.83l-12.43-36.81h-9.42Z"/><path class="cls-1" d="M173.23,132.45l3.92-12.45,3.92,12.45h-7.84Zm53.07-22.85h-9.75l-6.93,11.12-6.93-11.12h-9.75l12.01,18.4-11.11,17.03-11.97-35.43h-9.42l-12.45,36.81h8.84l2.11-6.69h12.41l2.11,6.69h17.23l6.93-11.12,6.93,11.12h9.75l-12.01-18.41,12.01-18.4Z"/><polygon class="cls-1" points="154.95 63.47 132.16 87.12 146.56 102.33 187.63 102.33 228 63.47 154.95 63.47"/><polygon class="cls-1" points="146.56 153.67 132.16 168.88 154.95 192.53 228 192.53 187.63 153.67 146.56 153.67"/></svg>