<?xml version="1.0" encoding="UTF-8"?><svg id="Layer_1" xmlns="http://www.w3.org/2000/svg" xmlns:xlink="http://www.w3.org/1999/xlink" viewBox="0 0 256 256"><defs><style>.cls-1{fill:none;}.cls-2{clip-path:url(#clippath);}.cls-3{clip-path:url(#clippath-1);}.cls-4{clip-path:url(#clippath-3);}.cls-5{clip-path:url(#clippath-2);}.cls-6{fill:url(#radial-gradient-3);}.cls-7{fill:url(#radial-gradient-4);}.cls-8{fill:url(#radial-gradient-2);}.cls-9{fill:url(#radial-gradient);}</style><clipPath id="clippath"><path class="cls-1" d="M163.17,159.31c-.76,10.96-4.79,31.76-23.21,50.3-6.43,6.44-14.67,12.48-24.92,17.63,2.65,.34,5.31,.57,7.99,.7h10c23.91-1.18,47.45-10.89,65.72-29.15,10.21-10.22,17.73-22.13,22.61-34.8-5.56-17.64-13.4-29.67-21.72-38-9.51-9.54-19.93-14.39-28.54-16.84,7.22,16.43,4.55,36.12-7.92,50.17"/></clipPath><radialGradient id="radial-gradient" cx="4184.15" cy="-2078.13" fx="4184.15" fy="-2078.13" r="9.35" gradientTransform="translate(-25048.24 -12355.65) scale(6.03 -6.03)" gradientUnits="userSpaceOnUse"><stop offset="0" stop-color="#ffe3ab"/><stop offset=".09" stop-color="#fedc9b"/><stop offset=".27" stop-color="#fccb74"/><stop offset=".5" stop-color="#f9b037"/><stop offset=".63" stop-color="#f59e2e"/><stop offset=".88" stop-color="#ee7217"/><stop offset="1" stop-color="#ea5b0b"/></radialGradient><clipPath id="clippath-1"><path class="cls-1" d="M125.93,56.41c-9.57,9.53-14.41,19.93-16.86,28.56,16.46-7.22,36.15-4.57,50.2,7.94,10.98,.76,31.76,4.8,50.26,23.19,6.45,6.44,12.49,14.67,17.63,24.93,3.87-29.72-5.57-60.87-28.41-83.71-10.23-10.23-22.15-17.75-34.83-22.63-17.65,5.59-29.69,13.41-37.98,21.72"/></clipPath><radialGradient id="radial-gradient-2" cx="4184.74" cy="-2065.91" fx="4184.74" fy="-2065.91" r="9.35" gradientTransform="translate(-25068.53 -12371.1) scale(6.03 -6.03)" gradientUnits="userSpaceOnUse"><stop offset="0" stop-color="#c2e6fb"/><stop offset=".07" stop-color="#b6e0f8"/><stop offset=".2" stop-color="#99d2f2"/><stop offset=".36" stop-color="#6abce8"/><stop offset=".5" stop-color="#3fa8df"/><stop offset="1" stop-color="#005c95"/></radialGradient><clipPath id="clippath-2"><path class="cls-1" d="M57.26,57.33c-10.23,10.24-17.75,22.13-22.61,34.82,5.57,17.65,13.4,29.67,21.71,37.97,9.52,9.57,19.94,14.42,28.54,16.86-7.21-16.44-4.56-36.12,7.92-50.16,.77-10.98,4.78-31.78,23.22-50.31,6.43-6.45,14.67-12.48,24.92-17.62-4.31-.55-8.64-.84-12.96-.84-25.61,0-51.19,9.76-70.73,29.27"/></clipPath><radialGradient id="radial-gradient-3" cx="4172.7" cy="-2065.9" fx="4172.7" fy="-2065.9" r="9.35" gradientTransform="translate(-25074.13 -12370.12) scale(6.03 -6.03)" xlink:href="#radial-gradient"/><clipPath id="clippath-3"><path class="cls-1" d="M28,127.63v.97c.12,25.42,9.87,50.8,29.26,70.19,10.23,10.23,22.14,17.77,34.82,22.64,17.66-5.59,29.69-13.41,37.99-21.72,9.56-9.53,14.39-19.95,16.85-28.55-16.46,7.22-36.14,4.56-50.2-7.95-10.98-.76-31.76-4.79-50.26-23.19-6.45-6.45-12.49-14.69-17.63-24.92-.53,4.15-.81,8.33-.83,12.52"/></clipPath><radialGradient id="radial-gradient-4" cx="4172.69" cy="-2077.84" fx="4172.69" fy="-2077.84" r="9.35" gradientTransform="translate(-25075.48 -12361.93) scale(6.03 -6.03)" xlink:href="#radial-gradient-2"/></defs><g class="cls-2"><rect class="cls-9" x="115.04" y="109.14" width="106.31" height="118.8"/></g><g class="cls-3"><rect class="cls-8" x="109.07" y="34.7" width="121.96" height="106.34"/></g><g class="cls-5"><rect class="cls-6" x="34.65" y="28.06" width="106.31" height="118.93"/></g><g class="cls-4"><rect class="cls-7" x="28" y="115.1" width="118.92" height="106.33"/></g></svg>