<?xml version="1.0" encoding="UTF-8"?><svg id="Layer_1" xmlns="http://www.w3.org/2000/svg" xmlns:xlink="http://www.w3.org/1999/xlink" viewBox="0 0 256 256"><defs><style>.cls-1{fill:none;}.cls-2{clip-path:url(#clippath);}.cls-3{fill:#fff;}.cls-4{fill:#1d1d1b;}</style><clipPath id="clippath"><rect class="cls-1" x="28" y="44" width="200" height="168"/></clipPath></defs><rect class="cls-4" x="28" y="44" width="200" height="168"/><g class="cls-2"><path class="cls-3" d="M79.93,172.66h-11.38v-29.02h10.84c5.84,0,9.76,3.07,9.76,7.64,0,2.66-1.11,4.84-3.22,6.32,2.84,1.38,4.34,3.67,4.34,6.65,0,5.03-4.15,8.41-10.34,8.41m-7.38-3.85h7.5c3.87,0,6.19-1.72,6.19-4.6,0-3.7-4.29-4.25-6.84-4.25h-6.84v8.86Zm0-12.7h6.61c3.73,0,5.96-1.73,5.96-4.64,0-2.5-2.17-3.99-5.8-3.99h-6.77v8.63Z"/><path class="cls-3" d="M123.79,172.66h-4.28l-3.2-7.68h-13.38l-3.21,7.68h-4.28l12.06-29.02h4.19l12.11,29.02Zm-19.27-11.53h10.22l-5.14-12.28-5.08,12.28Z"/><polygon class="cls-3" points="154.24 172.66 151.25 172.66 151.19 172.58 134.47 150.95 134.47 172.66 130.47 172.66 130.47 143.64 133.85 143.64 133.91 143.72 150.24 164.85 150.24 143.64 154.24 143.64 154.24 172.66"/><polygon class="cls-3" points="187.69 172.66 182.53 172.66 171.64 159.57 168.78 162.6 168.78 172.66 164.78 172.66 164.78 143.64 168.78 143.64 168.78 157 181.45 143.64 186.74 143.64 174.48 156.57 187.69 172.66"/><path class="cls-3" d="M108.09,83.54v43.6h-4v-35.61l-14.37,27.86h-2.81l-14.37-27.8v35.54h-4v-43.6h4.19l15.62,30.11,15.62-30.11h4.12Zm42.42,44.23l-7.25-7.75c-2.62,4.12-6.19,7.12-12.06,7.12-7.56,0-13.12-5.25-13.12-11.68,0-5.37,3.31-8.68,9.68-12.31-3.62-3.62-5.62-6.62-5.62-10.18,0-5.19,4.37-9.31,9.68-9.31,5.62,0,9.81,4.12,9.81,9.31s-3.94,8.37-7.87,10.93l9,9.81,5.31-8.62,3.19,2-5.87,9.56,8.06,8.56-2.94,2.56Zm-20.24-21.86c-5.68,3.12-8.18,5.62-8.18,9.49,0,4.44,4,8.12,9.12,8.12,4.62,0,7-2.12,9.56-6.25l-10.49-11.37Zm-4.18-12.93c0,2.44,1.62,4.5,5.18,8.31,4.19-2.44,6.5-5,6.5-8.31s-2.19-5.81-5.94-5.81c-3.5,0-5.74,2.75-5.74,5.81m61.16-.13l-3.62,1.31c-1.44-4.56-5.5-7.5-10.99-7.5-6,0-9.93,3-9.93,8.06,0,10.87,24.86,5.12,24.86,20.43,0,7.31-5.87,12.43-14.62,12.43-8.12,0-12.99-3.87-16.37-10.06l3.37-2.06c2.25,4.75,6.37,8.43,12.62,8.43,7.24,0,10.99-3.31,10.99-8.81,0-10.93-24.86-5.56-24.86-20.43,0-8.81,7.93-11.68,13.81-11.68,6.62,0,12.62,3,14.74,9.87"/></g></svg>