<?xml version="1.0" encoding="UTF-8"?><svg id="Layer_1" xmlns="http://www.w3.org/2000/svg" viewBox="0 0 256 256"><defs><style>.cls-1{fill:#009eb2;}.cls-2{fill:#009ba5;}</style></defs><path class="cls-2" d="M99.33,134.97h0s0,0,0,0Z"/><path class="cls-1" d="M93.41,98.81h10.23v18.31c4-3.85,8.46-5.46,12.38-5.46,12.46,0,22.84,10.23,22.84,22.69s-10.23,22.84-22.84,22.84-22.61-9.54-22.61-22.92v-35.46Zm22.61,48.99c7.23,0,12.54-6.54,12.54-13.46s-5.15-13.31-12.54-13.31-12.38,5.92-12.38,13.23c0,6.84,5.15,13.54,12.38,13.54m111.98,7.92h-9.38v-5.31c-3.39,4-8,6.69-13.23,6.69-12.46,0-22.84-10.23-22.84-22.69s10.23-22.84,22.84-22.84,22.61,9.61,22.61,22.92v21.23Zm-22.61-34.77c-7.23,0-12.54,6.54-12.54,13.46s5.15,13.31,12.54,13.31,12.38-5.92,12.38-13.23c0-6.84-5.15-13.54-12.38-13.54m-132.01-9.38c-5.31,0-10.08,2.08-13.46,5.54-3.39-3.46-8.16-5.54-13.39-5.54-2.98,0-5.79,.67-8.3,1.87v-1.57h-10.23v18.02c0,.08-.01,.15-.01,.22v25.61h10.23v-25.55s.01-1.04,.01-1.04c.11-4.52,3.83-8.17,8.37-8.17s8.23,3.77,8.23,8.38v26.38h10.23v-26.38c0-4.61,3.77-8.38,8.38-8.38s8.23,3.77,8.23,8.38v26.38h10.23v-25.61c0-10.92-8.38-18.54-18.54-18.54m87.32,0c-3.7,0-7.17,.82-10.15,2.35v-2.05h-10.23v43.85h10.23v-24.62c0-5.61,4.46-10.15,10.15-10.15s10.15,4.54,10.15,10.15v24.62h10.23v-24.46c0-12.07-9.15-19.69-20.38-19.69"/></svg>