<?xml version="1.0" encoding="UTF-8"?><svg id="Layer_1" xmlns="http://www.w3.org/2000/svg" viewBox="0 0 256 256"><defs><style>.cls-1{fill:#00585c;}</style></defs><path class="cls-1" d="M203.34,215.94c.82,2.63,1.12,3.89,1.12,4.78,0,1.13-.44,1.75-1.86,2.4-6.84,3.09-18.56,4.88-30.79,4.88s-23.95-1.79-30.79-4.88c-1.42-.64-1.86-1.27-1.86-2.4,0-.89,.3-2.16,1.11-4.78,.29-.94,.75-2.3,1.27-3.85,1.41-4.13,1.98-5.34,4.41-4.5,5.45,1.87,11.84,3.17,16.21,3.48v-57.87c-6.24-.44-14.42-1.89-19.12-3.7-1.28-.49-1.92-1.21-1.92-2.96,0-1.16,.32-2.77,.95-5.08,.15-.56,.32-1.13,.52-1.87,1.53-5.38,2.43-6.74,4.76-6.1,8.59,2.35,16.03,3.59,24.45,3.59s15.86-1.24,24.45-3.59c2.33-.64,3.23,.72,4.76,6.1,.21,.74,.38,1.32,.52,1.87,.62,2.3,.94,3.91,.94,5.08,0,1.75-.64,2.47-1.92,2.96-4.69,1.81-12.88,3.26-19.12,3.7v57.87c4.37-.31,10.77-1.61,16.21-3.48,2.43-.84,3,.37,4.41,4.5,.53,1.55,.98,2.91,1.27,3.85m-76.49-2.52c-2.65-2.58-5.27-5.14-7.84-7.68,4.97-9.23,7.37-20.81,7.37-31.9,0-2.27-1.08-2.73-5.87-2.73h-3.63c-5.31,0-5.85,.67-5.91,2.83-.24,7.43-1.39,14.39-3.63,20.19-7.59-7.64-14.36-14.65-19.6-20.38-7.44-8.14-9.38-11.32-9.38-15.55,0-5.1,3.58-8.93,11.56-8.93,4.88,0,10.28,1.38,16.74,3.83,.8,.3,1.42,.46,1.94,.46,1.55,0,2.15-1.42,3.39-4.8,.52-1.41,1.18-3.19,1.63-4.5,.57-1.68,.89-2.81,.89-3.64,0-1.24-.66-1.79-2.11-2.49-6.14-2.98-14.87-5.05-23.36-5.05-16.31,0-28.71,8.02-28.71,24.34,0,5.67,1.91,10.75,5.54,16.03-9.39,6.13-14.34,14.96-14.34,25.32,0,16.79,14.2,28.59,31.56,28.59,10.08,0,18.37-3.25,24.87-8.71,2.47,2.48,4.78,4.78,6.84,6.79,.9,.88,1.59,1.38,2.36,1.4,1.22,.03,2.63-1.13,5.4-3.83,.77-.75,1.26-1.23,1.91-1.85,2.62-2.5,3.82-3.96,3.82-5.26,0-.85-.51-1.58-1.45-2.5m-41.07-2.87c-9.83,0-15.64-6.07-15.64-14.16,0-4.8,1.97-8.68,5.32-11.58,5.43,5.87,13.44,14.31,21.39,22.52-3.11,2.07-6.79,3.22-11.07,3.22m54.8-103.84c.56-1.1,1.06-2.11,1.66-3.28,1.84-3.62,2.66-5.02,4.01-5.02,.66,0,1.4,.34,2.43,.92,7.16,3.96,15.54,6.77,22.59,6.77,10.35,0,14.02-4.77,14.02-9.9,0-5.77-3.87-8.43-13.45-12.57-3.24-1.4-5.23-2.27-8.35-3.57-14.73-6.15-22.89-13.54-22.89-26.74,0-17.78,14.02-25.32,31.52-25.32,9.57,0,19.77,2.35,26.67,6.25,1,.56,1.48,1.17,1.48,2.12,0,1.09-.6,2.63-1.73,5.04-.7,1.5-1.04,2.22-1.57,3.35-1.64,3.47-2.38,4.68-3.66,4.68-.64,0-1.4-.31-2.47-.8-6.18-2.81-12.39-4.3-18.24-4.3-7.55,0-13.35,2.37-13.35,8.3,0,4.88,3.5,7.57,12.48,11.39,2.79,1.18,4.19,1.82,7.3,3.14,16.54,6.99,25.04,14.1,25.04,28.59,0,16.91-13.26,27.16-32.6,27.16-12.05,0-24.06-4.04-31.04-8.55-1.19-.77-1.87-1.39-1.87-2.36,0-1.08,.61-2.5,2.02-5.29m-15.03-75.13V119.34c0,1.82-.63,2.36-7.97,2.36h-2.27c-7.62,0-8.41-.38-9.59-3.33-.7-1.75-1.01-2.54-1.54-3.89-9.02-22.98-21.61-44.7-33.18-58.83v63.69c0,1.82-.63,2.36-7.97,2.36h-1.44c-7.34,0-7.97-.54-7.97-2.36V31.57c0-1.82,.63-2.36,7.97-2.36h3.42c5.2,0,7.54,.57,10.04,3.16,.61,.64,1.14,1.18,1.73,1.8,9.71,10.22,25.67,34.08,31.39,48.07V31.57c0-1.82,.64-2.36,7.97-2.36h1.44c7.34,0,7.97,.54,7.97,2.36"/></svg>