<?xml version="1.0" encoding="UTF-8"?><svg id="Layer_1" xmlns="http://www.w3.org/2000/svg" viewBox="0 0 256 256"><defs><style>.cls-1{fill:#00247c;}.cls-2{fill:#fff;}.cls-3{fill:#ff161f;}</style></defs><g><path class="cls-3" d="M128,228c34.92,0,65.64-17.91,83.53-45.03H44.47c17.89,27.12,48.61,45.03,83.53,45.03Z"/><path class="cls-1" d="M128,28c-55.23,0-100,44.77-100,100,0,20.31,6.07,39.19,16.47,54.97H211.53c10.4-15.77,16.47-34.66,16.47-54.97,0-55.23-44.77-100-100-100Z"/></g><g><path class="cls-2" d="M182.84,182.97h0c4.07,0,8.14-1.77,10.97-4.6,3.18-3.01,4.95-7.08,4.95-11.15v-37.88c0-4.6-1.59-8.5-4.78-11.68l-21.23-21.07c-.71-.89-1.24-1.95-1.24-3.19v-23.01c0-4.07-1.59-7.79-4.6-10.62-2.83-2.83-6.55-4.43-10.44-4.43h-16.63c-8.14,0-14.86,6.73-14.86,15.05v1.24c0,.71-.71,1.42-1.42,1.42h-2.48c-2.83,0-5.84,1.06-8.14,3.01-1.24,1.24-2.3,2.66-3.01,4.07-1.59-.18-3.18-.18-4.6-.18-23.35,0-48.12,18.06-48.12,48.86,0,26.02,21.94,37.53,23.17,38.42,.71,.53,2.65,1.77,2.65,4.25v14.16c0,4.07,1.59,7.97,4.6,10.8,2.83,2.83,6.55,4.25,10.61,4.25h58.55c4.07,0,7.43-1.24,10.08-3.54,2.83-2.48,4.42-6.2,4.42-10.44v-2.3c0-.89,.71-1.42,1.42-1.42h10.08Z"/><path class="cls-1" d="M188.85,122.95h0l-22.11-22.31c-1.42-1.42-2.3-3.19-2.3-5.31v-24.96c0-4.43-3.71-7.97-7.96-7.97h-15.92c-4.25,0-7.78,3.54-7.78,7.79v7.61c0,.89-.53,2.48-2.48,2.48h-8.49c-2.3,0-4.78,1.77-4.95,4.43-.18,1.95-.88,3.72-4.42,3.01h-.35c-2.48-.53-4.95-.71-7.61-.71-22.11,0-40.16,17.88-40.16,40.19,0,13.45,6.55,25.31,16.63,32.57,.53,.35,1.24,.71,1.95,.71,1.06,0,2.12-.71,2.65-1.59l22.82-33.99s2.48-3.54,6.72-3.54h26.18c1.42,0,2.65-1.06,2.65-2.48,0-.18-.18-.53-.18-.71-2.48-11.15-9.73-20.54-19.28-26.02-.88-.35-1.42-1.24-1.42-2.12,0-1.59,1.24-2.66,2.65-2.66h8.49c3.01,0,5.66-2.48,5.66-5.66v-9.74c0-1.42,1.24-2.48,2.65-2.48h12.38c1.42,0,2.48,1.06,2.48,2.48v53.82c0,1.42,1.06,2.48,2.48,2.48h22.47c1.59,0,2.48,1.42,2.48,2.66v35.58c0,1.42-.88,2.66-2.48,2.66h-19.64c-3.36-.18-5.48,2.66-5.48,5.49v9.56c0,1.59-1.24,2.48-2.48,2.48h-21.76v-10.62c0-1.95-1.59-3.54-3.54-3.54s-3.36,1.59-3.36,3.54v10.62h-26.53c-1.24,0-2.48-.89-2.48-2.48v-16.11c0-1.59,1.24-2.48,2.48-2.48h30.6c1.59,0,2.83-1.95,2.83-1.95l21.05-31.33c1.06-1.95-.53-3.89-1.95-3.89h-35.91c-1.42,0-2.12,.89-2.83,1.95l-21.58,32.22s-1.77,2.48-1.77,5.49v17.53c0,4.6,3.89,8.14,8.31,8.14h60.15c2.65,0,5.84-2.12,5.84-5.84v-9.38c0-1.06,.71-2.48,2.48-2.48h16.1c4.6,0,8.84-3.89,8.84-8.67v-37.88c0-2.83-1.06-4.96-2.83-6.55m-21.23,35.41h0v-7.26c0-1.95-1.59-3.54-3.54-3.54s-3.54,1.59-3.54,3.54v7.26c0,1.95,1.59,3.54,3.54,3.54s3.54-1.59,3.54-3.54"/></g></svg>