<?xml version="1.0" encoding="UTF-8"?><svg id="Layer_1" xmlns="http://www.w3.org/2000/svg" xmlns:xlink="http://www.w3.org/1999/xlink" viewBox="0 0 256 256"><defs><style>.cls-1{fill:none;}.cls-2{fill:url(#linear-gradient);}.cls-3{clip-path:url(#clippath);}.cls-4{mask:url(#mask);}.cls-5{fill:#fff;}.cls-6{fill:#d10a17;}.cls-7{fill:#e30521;}.cls-8{fill:#44195e;}.cls-9{clip-path:url(#clippath-1);}.cls-10{clip-path:url(#clippath-4);}.cls-11{clip-path:url(#clippath-3);}.cls-12{clip-path:url(#clippath-2);}.cls-13{clip-path:url(#clippath-5);}.cls-14{fill:url(#linear-gradient-3);}.cls-15{fill:url(#linear-gradient-4);}.cls-16{fill:url(#linear-gradient-2);}.cls-17{fill:url(#linear-gradient-6);}.cls-18{fill:url(#linear-gradient-5);}.cls-19{mask:url(#mask-2);}.cls-20{mask:url(#mask-1);}</style><clipPath id="clippath"><polygon class="cls-1" points="161.74 108.79 150.53 128.22 128.06 128.22 116.84 147.68 116.84 147.68 161.77 147.68 184.24 108.79 161.74 108.79"/></clipPath><clipPath id="clippath-1"><rect class="cls-1" x="116.84" y="89.33" width="67.38" height="77.81" transform="translate(-35.79 194.49) rotate(-60)"/></clipPath><linearGradient id="linear-gradient" x1="-466.38" y1="6048.14" x2="-464.07" y2="6048.14" gradientTransform="translate(-101907.92 7978.48) rotate(90) scale(16.87 -16.87)" gradientUnits="userSpaceOnUse"><stop offset="0" stop-color="#1a1a1a"/><stop offset=".14" stop-color="#222"/><stop offset=".37" stop-color="#3b3b3b"/><stop offset=".66" stop-color="#626262"/><stop offset="1" stop-color="#999"/></linearGradient><mask id="mask" x="57.88" y="35.84" width="185.31" height="184.8" maskUnits="userSpaceOnUse"><g class="cls-9"><rect class="cls-2" x="83.15" y="60.15" width="134.77" height="136.17" transform="translate(-35.79 194.49) rotate(-60)"/></g></mask><linearGradient id="linear-gradient-2" x1="-466.38" y1="6048.14" x2="-464.07" y2="6048.14" gradientTransform="translate(-101907.97 7978.52) rotate(90) scale(16.87 -16.87)" gradientUnits="userSpaceOnUse"><stop offset="0" stop-color="#e30521"/><stop offset="1" stop-color="#e30521"/></linearGradient><clipPath id="clippath-2"><polygon class="cls-1" points="83.13 89.29 83.13 89.29 94.41 108.78 116.8 108.78 128.06 128.22 150.53 128.22 128.06 89.29 83.13 89.29"/></clipPath><clipPath id="clippath-3"><rect class="cls-1" x="80.26" y="70.43" width="73.14" height="76.65" transform="translate(-41.58 128.34) rotate(-50)"/></clipPath><linearGradient id="linear-gradient-3" x1="-552.5" y1="5596.65" x2="-550.2" y2="5596.65" gradientTransform="translate(-8616.51 -88580.85) rotate(-180) scale(15.85 -15.85)" xlink:href="#linear-gradient"/><mask id="mask-1" x="12.11" y="4.04" width="209.43" height="209.43" maskUnits="userSpaceOnUse"><g class="cls-11"><rect class="cls-14" x="42.52" y="34.41" width="148.63" height="148.68" transform="translate(-41.58 128.35) rotate(-50)"/></g></mask><linearGradient id="linear-gradient-4" x1="-552.5" y1="5596.65" x2="-550.2" y2="5596.65" gradientTransform="translate(-8616.71 -88580.83) rotate(180) scale(15.85 -15.85)" xlink:href="#linear-gradient-2"/><clipPath id="clippath-4"><polygon class="cls-1" points="94.35 147.68 116.81 186.62 128.04 167.11 116.84 147.68 128.06 128.22 116.8 108.78 94.35 147.68"/></clipPath><clipPath id="clippath-5"><rect class="cls-1" x="70.56" y="109.77" width="81.29" height="75.86" transform="translate(-73.42 137.94) rotate(-50)"/></clipPath><linearGradient id="linear-gradient-5" x1="-465.86" y1="5968.83" x2="-463.55" y2="5968.83" gradientTransform="translate(-129333.79 10230.09) rotate(90) scale(21.69 -21.69)" xlink:href="#linear-gradient"/><mask id="mask-2" x="1.35" y="37.84" width="219.71" height="219.72" maskUnits="userSpaceOnUse"><g class="cls-13"><rect class="cls-18" x="33.2" y="69.75" width="155.99" height="155.91" transform="translate(-73.42 137.94) rotate(-50)"/></g></mask><linearGradient id="linear-gradient-6" x1="-465.86" y1="5968.83" x2="-463.55" y2="5968.83" gradientTransform="translate(-129333.79 10230.15) rotate(90) scale(21.69 -21.69)" xlink:href="#linear-gradient-2"/></defs><circle class="cls-8" cx="128" cy="128" r="100"/><g><polygon class="cls-5" points="116.81 186.62 128.04 167.11 139.29 186.62 184.23 186.62 184.24 186.62 206.7 147.7 184.23 108.79 184.23 108.79 161.74 108.79 172.99 89.31 150.52 50.4 150.52 50.39 105.58 50.39 83.13 89.29 94.41 108.78 71.86 108.78 49.41 147.68 49.39 147.7 71.86 186.62 116.8 186.62 116.81 186.62"/><g class="cls-3"><g class="cls-4"><rect class="cls-16" x="116.84" y="89.33" width="67.38" height="77.82" transform="translate(-35.79 194.49) rotate(-60)"/></g></g><g class="cls-12"><g class="cls-20"><rect class="cls-15" x="80.26" y="70.43" width="73.14" height="76.65" transform="translate(-41.58 128.35) rotate(-50)"/></g></g><g class="cls-10"><g class="cls-19"><rect class="cls-17" x="70.56" y="109.77" width="81.29" height="75.86" transform="translate(-73.42 137.94) rotate(-50)"/></g></g><polygon class="cls-7" points="206.7 147.7 184.23 108.79 161.78 147.68 116.84 147.68 139.3 186.62 184.23 186.62 184.24 186.62 206.7 147.7"/><polygon class="cls-7" points="94.35 147.68 94.35 147.68 116.8 108.78 71.87 108.78 49.41 147.68 49.41 147.68 49.4 147.7 71.87 186.62 116.8 186.62 116.81 186.62 94.35 147.68"/><polygon class="cls-7" points="172.99 89.31 150.52 50.4 150.52 50.4 105.58 50.4 83.13 89.29 128.06 89.29 150.53 128.22 172.99 89.31"/><polygon class="cls-6" points="184.23 108.79 206.7 147.7 184.24 186.62 161.77 147.69 184.23 108.79"/><polygon class="cls-6" points="116.81 186.62 116.8 186.62 71.87 186.62 49.4 147.7 49.41 147.68 94.35 147.68 116.81 186.62"/><polygon class="cls-6" points="128.06 89.29 150.53 128.22 172.99 89.31 150.52 50.4 128.06 89.29"/></g></svg>