<?xml version="1.0" encoding="UTF-8"?><svg id="Layer_1" xmlns="http://www.w3.org/2000/svg" viewBox="0 0 256 256"><defs><style>.cls-1,.cls-2{fill:#fff;}.cls-3,.cls-4{fill:#d60929;}.cls-4,.cls-2{fill-rule:evenodd;}</style></defs><path class="cls-4" d="M28,128c0-41.4,44.78-74.95,100-74.95s100,33.55,100,74.95-44.77,74.95-100,74.95S28,169.39,28,128"/><path class="cls-2" d="M147.84,145.19c.02-9.62,7.36-16.86,16.74-16.87,3.74,0,7.1,.74,9.85,2.77v4.57c-2.12-1.57-5.14-2.93-9.85-2.91-7.17,.04-11.82,5.06-11.78,12.44,.05,7.21,4.95,12.44,11.78,12.44,4.26,0,6.73-.78,9.85-2.91v4.58c-2.72,2.01-6.11,2.76-9.85,2.76-9.94,0-16.75-7.49-16.74-16.87"/><polygon class="cls-2" points="179.86 129.13 179.86 161.25 201.53 161.25 201.53 156.82 184.54 156.82 184.54 147.04 199.32 147.04 199.32 142.61 184.54 142.61 184.54 133.56 200.73 133.56 200.73 129.13 179.86 129.13"/><rect class="cls-1" x="137.75" y="129.13" width="4.69" height="32.12"/><polygon class="cls-2" points="87.43 129.13 87.43 161.25 92.12 161.25 92.12 147.54 105.84 147.54 105.84 143.11 92.12 143.11 92.12 133.56 107.48 133.56 107.48 129.13 87.43 129.13"/><path class="cls-2" d="M54.29,145.19c0-7.21,4.95-12.44,11.77-12.44s11.76,5.23,11.76,12.44-4.94,12.44-11.76,12.44-11.77-5.22-11.77-12.44m-4.96,0c0,9.61,7.19,16.87,16.73,16.87s16.73-7.26,16.73-16.87-7.2-16.87-16.73-16.87-16.73,7.25-16.73,16.87"/><polygon class="cls-2" points="112.47 129.13 112.47 161.25 117.17 161.25 117.17 147.54 130.88 147.54 130.88 143.11 117.17 143.11 117.17 133.56 132.54 133.56 132.54 129.13 112.47 129.13"/><path class="cls-2" d="M138.89,95.42c0,7.14,5.04,8.62,9.49,10.04,3.29,1.05,6.42,2.14,6.42,5.18,0,3.19-3.46,4.8-6.42,4.85-3.08,.04-6.49-1.43-8.94-3.18v4.7c2.38,1.97,5.7,3.12,8.84,3.09,6.6-.06,11.41-4.17,11.41-10.02,0-6.36-4.97-7.71-9.18-9-3.57-1.09-6.8-2.14-6.8-5.66,0-1.72,1.42-4.64,6.13-4.64,2.43,0,4.22,.36,7.34,2.32l.32,.22v-4.71c-1.9-1.47-4.65-2.26-7.66-2.25-7.98,0-10.95,5.56-10.95,9.07"/><polygon class="cls-2" points="161.44 87.16 161.44 91.59 171.66 91.59 171.66 119.28 176.35 119.28 176.35 91.59 186.56 91.59 186.56 87.16 161.44 87.16"/><path class="cls-2" d="M107.1,103.22c0-7.21,4.95-12.44,11.77-12.44s11.77,5.23,11.77,12.44-4.95,12.44-11.77,12.44-11.77-5.23-11.77-12.44m-4.96,0c0,9.62,7.2,16.87,16.73,16.87s16.73-7.25,16.73-16.87-7.19-16.87-16.73-16.87-16.73,7.26-16.73,16.87"/><path class="cls-2" d="M88.6,91.31c2.47,0,6.61,.7,6.61,5.39s-4.14,5.38-6.61,5.38h-5.91v-10.77h5.91Zm-10.61-4.15v32.11h4.7v-13.02h6.65c9.63,0,10.37-7.31,10.37-9.55s-.75-9.54-10.37-9.54h-11.35Z"/><path class="cls-3" d="M226.47,62.08c0,2.07-.71,3.84-2.15,5.31-1.43,1.46-3.17,2.19-5.23,2.19s-3.8-.73-5.24-2.2c-1.43-1.47-2.15-3.23-2.15-5.3s.72-3.86,2.15-5.31c1.44-1.46,3.18-2.19,5.24-2.19s3.81,.73,5.23,2.18c1.43,1.45,2.14,3.23,2.14,5.32m-1.28,0c.02-1.73-.57-3.2-1.75-4.42-1.2-1.21-2.64-1.82-4.34-1.82s-3.13,.61-4.31,1.81c-1.18,1.21-1.77,2.69-1.79,4.42,.02,1.73,.62,3.19,1.79,4.4,1.18,1.22,2.62,1.83,4.31,1.83s3.15-.61,4.34-1.83c1.18-1.21,1.76-2.68,1.75-4.4m-2.96,3.64h-1.48l-1.7-2.92c-.08,.01-.21,.01-.37,.01-.19,0-.35,0-.51-.01v2.92h-1.29v-7.24h1.72c1.9,0,2.85,.71,2.85,2.13,0,.89-.38,1.52-1.13,1.88l1.92,3.23Zm-2.08-5.08c0-.67-.5-1-1.52-1h-.47v2.01c.17,.01,.36,.01,.55,.01,.95,0,1.43-.34,1.43-1.02"/></svg>