<?xml version="1.0" encoding="UTF-8"?><svg id="Layer_1" xmlns="http://www.w3.org/2000/svg" viewBox="0 0 256 256"><defs><style>.cls-1{fill:#003671;}.cls-2{fill:#fff;}</style></defs><circle class="cls-1" cx="128" cy="128" r="100"/><path class="cls-2" d="M120.3,107.91c-9.39,3.36-12.62,12.45-12.62,12.45-1.26,3.36-4.62,5.87-8.41,5.87h-17.81c-4.91,0-8.97-4.06-8.97-8.96s3.36-8.81,8.97-8.81l14.12,.03-20.44-20.44c-3.5-3.5-3.5-9.09,0-12.58,3.51-3.49,9.12-3.49,12.62,0l20.33,20.24v-13.95c0-4.89,3.93-8.94,8.97-8.94s8.84,4.05,8.84,8.94v17.76c0,3.78-2.24,7.28-5.61,8.39m-3.23,75.24c-4.9,0-8.83-3.23-8.69-8.81l.02-14.18-20.49,20.46c-3.5,3.51-9.25,3.51-12.62,0-3.5-3.49-3.5-9.22,0-12.57l20.27-20.29h-13.96c-5.05,0-8.97-4.05-8.97-8.93s3.92-8.95,8.97-8.95h17.8c3.78,0,7.15,2.23,8.42,5.59,3.23,9.5,12.33,12.72,12.33,12.72,3.51,1.26,5.9,4.47,5.9,8.39v17.77c0,4.89-3.93,8.81-8.98,8.81m57.33-35.53h-14.15s20.46,20.43,20.46,20.43c3.51,3.49,3.51,9.09,0,12.57-3.5,3.51-9.11,3.51-12.61,0l-20.33-20.28v13.99c0,5.32-4.07,8.95-8.97,8.95s-8.98-4.06-8.98-8.95v-17.77c0-3.78,2.38-7.27,5.75-8.39,9.39-3.21,12.61-12.44,12.61-12.44,1.26-3.35,4.63-5.87,8.41-5.87h17.81c4.91,0,8.97,4.06,8.97,8.95s-3.64,8.8-8.97,8.8m.14-21.53h-17.81c-3.78,0-7.29-2.24-8.41-5.59-3.23-9.37-12.48-12.73-12.48-12.73-3.37-1.26-5.89-4.47-5.89-8.39v-17.75c0-4.89,4.07-8.8,8.98-8.8s8.83,3.63,8.83,8.8v14.23s20.46-20.52,20.46-20.52c3.51-3.49,9.11-3.49,12.62,0,3.51,3.49,3.51,9.22,0,12.72l-20.18,20.14h13.88c4.9,0,8.97,4.06,8.97,8.95s-4.06,8.95-8.97,8.95"/></svg>