<?xml version="1.0" encoding="UTF-8"?><svg id="Layer_1" xmlns="http://www.w3.org/2000/svg" viewBox="0 0 256 256"><defs><style>.cls-1{fill:#1e3282;}</style></defs><path class="cls-1" d="M89.75,101.2l-20.36,52.93h4.92l7.63-19.68s20.7,3.05,27.31,19.68h8.48l-20.19-52.93h-7.8Zm-6.28,29.01l8.48-22.56,11.7,32.57c-7.29-7.29-20.19-10.01-20.19-10.01Z"/><path class="cls-1" d="M207.81,101.2h-7.8l-20.36,52.93h4.92c3.05-7.46,9.84-14.25,17.3-17.47,3.39-1.36,6.28-2.37,9.84-2.54l7.97,20.02h8.31l-20.19-52.93Zm-10.01,32.91c-2.37,1.19-5.43,3.56-7.46,5.43l12.04-31.72,7.97,22.39c-4.58,.51-8.48,1.7-12.55,3.9Z"/><path class="cls-1" d="M150.14,134.45h13.91v15.44c-3.05,1.53-6.79,2.21-9.84,2.21-13.4,0-23.07-12.38-23.07-24.26,0-12.55,7.63-24.09,21.03-24.09,0,0,12.04-.51,16.12,11.37h1.53v-.34h0v-8.48s-.68-.51-2.04-1.36c-.85-.51-1.87-1.02-2.88-1.53-4.41-1.87-9.16-2.71-14.76-2.71h0c-17.98,0-28.5,11.54-28.5,27.99s12.21,26.63,29.01,26.63c7.8,0,16.45-1.87,21.54-5.43v-19.68h-22.05v4.24h0Z"/><path class="cls-1" d="M49.71,123.42l-5.77-2.04c-6.62-2.71-8.65-5.94-8.65-10.01,0-4.58,4.24-7.46,10.52-7.46,.85,0,1.53,0,2.37,.17,0,0,8.14,.68,10.86,10.18l.34,1.19h1.53v-10.01s-6.79-4.75-15.95-4.75c-9.16,.34-16.96,5.26-16.96,13.74,0,6.62,3.22,10.86,12.38,14.25l6.11,2.21c6.62,2.37,10.18,6.28,10.18,11.87,0,8.82-11.7,9.5-11.7,9.5-.85,0-1.53,0-2.21-.17-3.56-.51-10.35-2.54-12.55-10.35h0l-.34-1.36h-1.7v10.18s7.29,4.75,16.62,4.75c10.86,0,19.17-5.43,19.17-15.78,.17-10.01-7.8-13.74-14.25-16.12Z"/></svg>