<?xml version="1.0" encoding="UTF-8"?><svg id="Layer_1" xmlns="http://www.w3.org/2000/svg" viewBox="0 0 256 256"><defs><style>.cls-1{fill:#008034;}.cls-2{fill:#f6a000;}.cls-3{fill:#fff;}.cls-4{fill:#e30613;}.cls-5{fill:#1d1d1b;}</style></defs><circle class="cls-5" cx="128" cy="128" r="100"/><path class="cls-1" d="M218.41,170.77c2.73-5.75,4.92-11.8,6.52-18.09L101.5,31.56c-6.25,1.72-12.26,4.02-17.96,6.86L218.41,170.77Z"/><path class="cls-2" d="M224.93,152.68c1.75-6.88,2.78-14.04,3.01-21.41L122.83,28.13c-7.35,.37-14.49,1.55-21.34,3.43l123.43,121.13Z"/><path class="cls-4" d="M228,128c0-8.58-1.08-16.91-3.12-24.86L151.04,30.67c-7.4-1.74-15.11-2.67-23.04-2.67-1.73,0-3.45,.04-5.17,.13l105.11,103.14c.03-1.09,.06-2.18,.06-3.27Z"/><path class="cls-3" d="M60.28,149.65c0-.71-.09-1.35-.27-1.91-.18-.56-.48-1.02-.92-1.38-.59-.51-1.29-.84-2.1-.99-.82-.15-1.82-.23-3.02-.23h-3.63v9.21h3.55c1.25,0,2.27-.09,3.06-.27,.79-.18,1.44-.46,1.95-.84,.51-.38,.87-.87,1.07-1.47,.2-.6,.31-1.31,.31-2.12m-1.15-10.97c0-.61-.12-1.21-.36-1.81-.24-.6-.63-1.08-1.17-1.43-.46-.31-.98-.51-1.57-.61-.59-.1-1.36-.15-2.33-.15h-3.36v8.41h3.4c1.07,0,1.94-.08,2.6-.23,.66-.15,1.21-.43,1.64-.84,.76-.71,1.15-1.82,1.15-3.33m4.47,11.01c0,1.27-.2,2.35-.61,3.23-.41,.88-1,1.59-1.78,2.14s-1.74,.94-2.89,1.18c-1.15,.24-2.45,.36-3.9,.36h-7.26v-21.94h-2.1v-2.25h8.94c1.27,0,2.38,.08,3.33,.25,.94,.17,1.78,.5,2.52,1.01,.79,.51,1.38,1.18,1.76,2.01,.38,.83,.57,1.73,.57,2.7,0,1.35-.26,2.46-.76,3.32-.51,.87-1.27,1.54-2.29,2.03,1.35,.36,2.43,1,3.25,1.93,.81,.93,1.22,2.27,1.22,4.03"/><path class="cls-3" d="M77.67,147.12c-.36-.1-.88-.2-1.57-.31-.69-.1-1.38-.15-2.06-.15-1.76,0-2.99,.38-3.69,1.15-.7,.76-1.05,1.73-1.05,2.9,0,1.38,.38,2.41,1.15,3.1,.76,.69,1.69,1.03,2.79,1.03,1.53,0,2.67-.46,3.44-1.38,.66-.84,.99-2.03,.99-3.55v-2.79Zm4.97,9.09c-.23,.15-.52,.28-.88,.38-.36,.1-.74,.15-1.15,.15-1.63,0-2.54-.71-2.71-2.14-.48,.76-1.19,1.34-2.12,1.74s-1.9,.59-2.92,.59c-1.91,0-3.47-.52-4.66-1.57-1.2-1.04-1.8-2.55-1.8-4.51s.61-3.4,1.82-4.55c1.21-1.15,3.05-1.72,5.52-1.72,.76,0,1.5,.05,2.22,.15,.71,.1,1.29,.22,1.72,.34v-.99c0-.71-.07-1.3-.21-1.78-.14-.47-.36-.88-.67-1.24-.33-.38-.8-.69-1.4-.92-.6-.23-1.32-.34-2.16-.34-.97,0-1.89,.11-2.77,.34-.88,.23-1.69,.52-2.43,.88l-.04-2.18c.66-.31,1.48-.57,2.45-.8,.97-.23,2-.34,3.1-.34,1.3,0,2.43,.16,3.4,.48,.97,.32,1.74,.81,2.33,1.47,.89,.99,1.34,2.46,1.34,4.39v8.98c0,.56,.06,.97,.19,1.22,.13,.25,.39,.38,.8,.38s.79-.11,1.15-.34l-.11,1.91Z"/><path class="cls-3" d="M88.3,140.32c.59-.84,1.35-1.48,2.29-1.93,.94-.45,2.1-.67,3.48-.67,1.1,0,2.09,.17,2.98,.52,.89,.34,1.62,.82,2.18,1.43,.59,.66,.97,1.41,1.15,2.24,.18,.83,.27,1.76,.27,2.81v11.89h-2.94v-11.54c0-.94-.05-1.71-.15-2.29-.1-.59-.37-1.11-.8-1.57-.69-.76-1.76-1.15-3.21-1.15-1.58,0-2.78,.47-3.59,1.41-.43,.51-.73,1.1-.9,1.78-.17,.67-.25,1.56-.25,2.66v10.7h-2.94v-16.36h-2.14v-2.18h3.63c.31,0,.5,.04,.59,.11,.09,.08,.16,.28,.21,.61l.15,1.53Z"/><path class="cls-3" d="M108.09,147.2c.82-.69,1.63-1.43,2.43-2.22,.8-.79,1.57-1.59,2.29-2.39,.73-.8,1.38-1.59,1.97-2.37,.59-.78,1.07-1.49,1.45-2.16h2.71c-.59,1.15-1.41,2.41-2.48,3.78-1.07,1.38-2.25,2.73-3.55,4.05l4.62,7.49c.28,.43,.54,.75,.78,.95,.24,.2,.55,.31,.94,.31,.41,0,.78-.1,1.11-.31l-.08,1.91c-.2,.13-.48,.24-.82,.34-.34,.1-.69,.15-1.05,.15-.74,0-1.36-.16-1.85-.48-.5-.32-1-.88-1.51-1.7l-4.16-6.73c-.46,.43-.92,.84-1.4,1.2-.47,.37-.94,.73-1.4,1.09v6.46h-2.94v-23.96h-2.14v-2.18h4.28c.31,0,.52,.05,.63,.15,.11,.1,.17,.29,.17,.57v16.01Z"/><path class="cls-3" d="M198.02,94.63h-1.9c-.44,0-.52,.32-.52,.56,0,.49,1.21,1.69,1.21,3.35s-.65,2.3-.65,2.82c0,.2,.2,.36,.49,.36h.84c1.89,0,4.03-7.09,.53-7.09m3.66,10.54c0-2.61,5.01-2.36,7.89-.4,.25,.16,.56,.32,.76,.32,.41,0,.65-.16,.65-.72v-1.32c0-.44-.12-.85-.61-1.04-5.2-2.16-12.17-1-12.17,4.64,0,6.37,10.09,5.05,10.09,8.5,0,2.75-4.77,3.05-8.2,.4-.24-.2-.48-.33-.77-.33-.4,0-.63,.16-.63,.72v1.56c0,.44,.11,.8,.59,1.04,4.44,2,12.61,2.05,12.61-5.32,0-6.33-10.22-4.89-10.22-8.05m8.7-3.16l.07,.03-.07-.03Zm.13,.05l.07,.03-.07-.03Zm-108.74-1.22c-2.21,0-4.54,1.08-5.74,1.8l-.08-.92c0-.28-.2-.49-.49-.49h-3.74c-.2,0-.4,.21-.4,.49v17.04c0,.28,.2,.49,.4,.49h3.86c.28,0,.49-.2,.49-.49v-13.74c.76-.45,2.37-1.25,3.73-1.25,2.66,0,2.82,1.61,2.82,2.98v12.02c0,.28,.2,.49,.39,.49h3.86c.28,0,.48-.2,.48-.49v-12.42c0-3.26-1.73-5.51-5.59-5.51m73.71,.3c-.76-.2-1.25-.2-1.77-.2-2.23,0-4.03,1.84-4.79,2.96l-.08-2.16c0-.28-.2-.48-.48-.48h-3.73c-.2,0-.4,.2-.4,.48v16.98c0,.28,.2,.48,.4,.48h3.85c.27,0,.48-.2,.48-.48v-10.81c0-3.44,3.27-3.57,5.44-3.13,.51,.12,.93,.29,1.35,.29,.29,0,.53-.29,.53-.56v-2.53c0-.39-.28-.72-.8-.84m0,0l.19,.05-.19-.05Zm-15.18,.12h-3.84c-.2,0-.4,.2-.4,.48v11.65c0,2.61-.79,4.01-3.29,4.01-2.04,0-3.24-1.16-3.24-3.04v-12.62c0-.28-.2-.48-.48-.48h-3.85c-.2,0-.4,.2-.4,.48v11.69c0,4.48,4,6.17,7.97,6.17s8.01-1.68,8.01-6.65v-11.21c0-.28-.21-.48-.48-.48m-75.37-6.81c-1.76,0-2.6,1.04-2.6,2.24,0,1.44,1.03,2.41,2.6,2.41s2.52-.96,2.52-2.41c0-1.2-.84-2.24-2.52-2.24m1.96,6.86h-3.84c-.2,0-.4,.2-.4,.47v16.98c0,.28,.2,.48,.4,.48h3.84c.28,0,.48-.2,.48-.48v-16.98c0-.27-.2-.47-.48-.47m46.25,16.23c-1.16,0-1.76-.2-2.16-.44-.49-.33-.56-.68-.56-1.04v-10.82c.6-.44,1.64-1.24,3.09-1.24,3.64,0,4.01,4.73,4.01,6.4,0,4.49-1.82,7.13-4.38,7.13m2.53-16.5c-2.73,0-4.5,1.4-5.25,2.04v-7.97c0-.28-.2-.48-.48-.48h-3.84c-.2,0-.4,.2-.4,.48v20.67c0,.64,.12,1.4,.72,1.84,1.4,1.08,3.51,2.08,6.4,2.08,5.29,0,9.57-4.08,9.57-10.25,0-4.8-2.6-8.41-6.73-8.41m-86.67-.95c0-1.85,1.77-3.09,4-3.09,2,0,3.53,.68,5.13,1.84,.44,.32,.72,.52,1.08,.52,.43,0,.55-.28,.55-.64v-2.33c0-.36-.07-.56-.44-.72-1.37-.52-3.76-1.04-6.4-1.04-5.33,0-8.21,3.29-8.21,7.01,0,8.1,12.49,6.42,12.49,11.9,0,3.32-4.8,5.65-10.36,1.77-.53-.36-.76-.56-1.12-.56-.68,0-.8,.36-.8,.73v2.04c0,.36,.08,.56,.48,.8,6.73,3.17,16.3,1.32,16.3-6.72,0-7.41-12.7-6.93-12.7-11.49m25.47,15.22c0,.52-1.36,1.91-3.21,1.91-2.12,0-2.92-1.52-2.92-3.04,0-2.17,1.68-4.17,6.13-4.17v5.29Zm-2.65-14.5c-2.16,0-4.64,.44-6.24,1.24-.44,.24-.6,.6-.6,.97v1.8c0,.56,.44,.8,.68,.8,.48,0,.84-.44,1.08-.6,1.49-1,2.97-1.69,4.93-1.69,2.45,0,2.8,1.6,2.8,3.57,0,.92-.32,1.16-3.8,1.6-2.13,.29-6.97,1.24-6.97,5.61,0,3.61,2.88,5.53,6.25,5.53,1.84,0,3.36-.81,4.65-1.92l.09,1.04c0,.28,.2,.48,.4,.48h3.64c.27,0,.48-.2,.48-.48v-12.46c0-3.25-1.72-5.49-7.37-5.49m50.33,1.25l.06,.02-.06-.02Zm-8.83,3.1c0-2.61,5-2.36,7.89-.4,.23,.16,.56,.32,.76,.32,.4,0,.64-.16,.64-.72v-1.32c0-.44-.12-.85-.6-1.04-5.21-2.16-12.17-1-12.17,4.64,0,6.37,10.09,5.05,10.09,8.5,0,2.75-4.76,3.05-8.21,.4-.24-.2-.48-.33-.76-.33-.4,0-.65,.16-.65,.72v1.56c0,.44,.12,.8,.61,1.04,4.43,2,12.61,2.05,12.61-5.32,0-6.33-10.21-4.89-10.21-8.05m80.49-3.91h-1.83c-.28,0-.49,.16-.57,.44l-3.96,10.81-.24,.76-.24-.76-4.08-10.81c-.12-.32-.28-.44-.64-.44h-4.38c-.24,0-.36,.12-.36,.36,0,.12,.04,.24,.2,.64l7.29,16.86c-.08,2.97-2.89,3.97-6.05,3.09-.48-.12-.8-.24-1.24-.24-.28,0-.52,.28-.52,.56v2.28c0,.4,.28,.72,.79,.84,.69,.21,1.16,.21,1.69,.21,3.09,0,5.97-2.17,6.97-4.76l7.36-18.95c.08-.24,.16-.36,.16-.52,0-.2-.16-.36-.36-.36"/></svg>