<?xml version="1.0" encoding="UTF-8"?><svg id="Layer_1" xmlns="http://www.w3.org/2000/svg" viewBox="0 0 256 256"><defs><style>.cls-1{fill:#ec0000;}</style></defs><path class="cls-1" d="M171.14,120.01c-.27-6.79-2.26-13.72-5.73-19.84l-31.29-54.19c-2.4-4.13-3.99-8.52-4.93-13.05l-1.33,2.26c-7.72,13.45-7.72,29.96,0,43.41l25.03,43.41c7.72,13.45,7.72,29.96,0,43.41l-1.33,2.26c-.93-4.53-2.53-8.92-4.93-13.05l-22.9-39.68-14.65-25.3c-2.4-4.13-3.99-8.52-4.93-13.05l-1.33,2.26c-7.72,13.32-7.72,29.83-.13,43.28l25.17,43.54c7.72,13.45,7.72,29.96,0,43.41l-1.33,2.26c-.93-4.53-2.53-8.92-4.93-13.05l-31.29-54.73c-4.26-7.32-6.13-15.45-5.73-23.57-33.56,8.79-56.59,27.3-56.59,48.87,0,29.96,44.74,54.19,100,54.19s100-24.23,100-54.19c-.13-21.57-23.3-40.08-56.86-48.87Z"/></svg>