<?xml version="1.0" encoding="UTF-8"?><svg id="Layer_1" xmlns="http://www.w3.org/2000/svg" viewBox="0 0 256 256"><defs><style>.cls-1{fill:#00aeef;}</style></defs><path class="cls-1" d="M181.48,113.52l-15.49-62.72,4.77-9.08h-10.58v2.58h-3.24v-2.71h-9.22v2.75h-3.13v-2.61h-10.72l3.27,6.51-1.08,2.16h-16.04l-1.08-2.16,3.27-6.51h-10.75v2.61h-3.13v-2.75h-9.22v2.71h-3.27v-2.58h-10.58l4.77,9.08-15.49,62.72,44.2-4.07v-20.15c0-5.29,4.14-9.61,9.22-9.61s9.26,4.32,9.26,9.61v20.29l44.27,3.93Z"/><path class="cls-1" d="M31.31,189.77h2.76c3.55,0,3.93-2.24,3.93-3.14,0-2.79-2.55-3.41-6.48-3.41h-.21v6.55Zm0-7.45c2.69-.07,5.66-.41,5.66-3.17,0-1.93-1.52-2.55-3.21-2.55h-2.45v5.73h0Zm3.41-7.11c2.79,0,4.42,1.62,4.42,3.66,0,1.86-1.45,3.38-3.35,3.69h.21c2.31,0,4.24,1.38,4.24,3.9,0,1.38-.66,2.69-1.72,3.55-1.21,.93-2.31,1.07-4.38,1.07h-5v-15.87h5.59Zm18.35,15.9v-2.38c-1.45,1.86-3.07,2.83-5.45,2.83-2.14,0-4.38-.9-5.14-3.07-.24-.72-.28-1.72-.28-2.93v-10.38h2.14v9.87c0,1.97,0,3.48,1.69,4.45,.66,.34,1.41,.55,2.17,.52,1.83,0,3.55-1.14,4.83-2.48v-12.35h2.17v15.87s-2.14,.07-2.14,.07Zm5.66-15.9h2.17v15.87h-2.17v-15.87Zm5.62,15.9v-15.9h2.24v14.49h7.73v1.41h-9.97Zm14.07-1.28h1.9c1.07,0,2.41-.03,3.41-.38,2.62-.93,3.86-3.45,3.86-6.11,0-2.83-1.28-5.59-4.21-6.42-.86-.21-1.72-.28-2.59-.24h-2.41l.03,13.14h0Zm3.24-14.52c1.17,0,2.38,.14,3.52,.48,3.1,1.1,4.76,4.21,4.76,7.38,0,3.38-1.76,6.38-5,7.49-1.21,.41-2.76,.48-4.04,.48h-4.62v-15.87h5.38v.03Zm10.52-.1h2.17v15.87h-2.17v-15.87Zm18.04,15.97l-10.83-12.9v12.69h-1.86v-15.87h1.86l9.69,11.59s-.1-9.8-.1-11.59h1.93v16.07h-.69Zm17.07-7.45v6.17c-1.9,1.03-4.04,1.59-6.17,1.66-3.14,0-7.97-1.83-7.97-8.18,0-4.76,3.24-8.62,8.18-8.62,2.52,0,5.11,1.14,5.59,3.86l-.52,.21c-1.28-1.72-2.69-2.55-4.83-2.55-4,0-6.11,3.17-6.11,6.9s2.04,7,6.07,7c1.28-.03,2.55-.34,3.69-.9v-4.21h-3.59v-1.35h5.66Zm15.25,6.35c1.59,0,3.66-.79,3.66-3.17,0-1.9-1.35-2.52-2.9-2.93l-1.72-.45c-3.1-.83-3.73-2.76-3.73-4.24,0-2.17,1.69-4.55,5.14-4.55,2.55,0,4.52,1.45,4.9,4.24l-.55,.21c-.38-.72-1.45-2.93-4.1-2.93s-3.24,1.9-3.24,2.83c0,1.86,1.35,2.38,3.52,2.9l.66,.14c1.97,.48,4.28,1.52,4.28,4.45,0,.93-.55,5-5.73,5-2.73,0-5.24-1.31-5.48-4.62l.59-.17c.52,1.31,1.9,3.31,4.73,3.31m14.94-13.94c-3.83,0-5.45,3.76-5.45,7.07s1.69,6.93,5.45,6.93,5.38-3.76,5.38-7.07-1.59-6.93-5.38-6.93m.03,15.42c-4.86,0-7.73-3.73-7.73-8.38s2.76-8.42,7.73-8.42,7.69,3.76,7.69,8.38-2.79,8.42-7.69,8.42m22.15-12.31c-1-1.83-2.93-2.97-5-2.97-4.07,0-5.8,3.17-5.8,6.86,0,4.73,3,6.83,5.83,6.83,2.21,0,3.9-1.1,5.11-2.9l.62,.24c-.48,1.79-2.17,4.24-6.11,4.24-4.86,0-7.69-3.69-7.69-8.35s2.9-8.49,7.86-8.49c2.79,0,5.35,1.41,5.8,4.21l-.62,.31h0Zm3.17-4.04h2.17v15.87h-2.17v-15.87Zm5.55,15.9v-15.9h9.73v1.38h-7.55v5.52h6.66v1.38h-6.66v6.24h8.55v1.38h-10.73Zm18.7-14.45v14.45h-2.24v-14.45h-5v-1.45h12.21v1.45h-4.97Zm13.63,15.21c-1.28,2.86-3.07,4-6.24,4h-.62v-.76c3.17-.21,4.21-1.79,5.45-4.38l.34-.72-6.17-14.83h2.31l4.97,12.21,5.35-12.18h1.9l-7.28,16.66h0ZM51.59,137.96c.38-.17,.93-.34,1.31-.52-.9-6.55-5.38-9.8-11.45-9.8-7.28,0-11.94,4.86-11.94,10.59,0,7.38,6.55,9.21,8.62,9.76,.59,.14,3.31,.9,3.86,1,3.55,1,4.76,1.79,5.69,3.04,.86,1.1,1.28,2.48,1.24,3.86,0,4.59-3.73,7.35-8.52,7.35-2.62,0-5.14-.86-7.21-2.45-1.69-1.38-3.04-3.17-3.83-5.24-.45,.17-.9,.31-1.38,.41,.31,4.97,3.48,10.73,12.76,10.73s13.28-6.11,13.28-11.56c0-7.35-6.45-9.31-8.42-9.87-.93-.28-5.28-1.31-6.11-1.62-2.41-.79-5.07-2.28-5.07-5.93s2.97-6.62,7.52-6.62c6.11,0,8.55,4.79,9.62,6.86m16.59,7.69l16.76-16.9h-5.28l-16.73,16.9v-16.9h-5v36.91h5v-18.7l18.11,18.7h6.48l-19.35-20.01Zm22.97-16.9h5.04v36.91h-5.04v-36.91Zm16.56,20.14c3.04,.17,3.35,.17,4.45,.17,10.83,0,15.11-5.07,15.11-10.97,0-4.69-2.73-7.17-5.07-8.21-2.1-.93-4.48-1.1-8-1.1h-11.56v36.94h5.07v-16.83Zm0-17.07h5.59c4.48,0,6.11,1.03,7.21,2.35,1,1.24,1.52,2.76,1.52,4.35,0,3.21-2,6.38-6.8,7.69-2.45,.62-5,.83-7.52,.69v-15.07Zm37.91,.28h11.56v-3.35h-28.29v3.35h11.59v33.56h5.14v-33.56Zm46.71,14.97c0-9.62-5.69-19.39-17.9-19.39-11.94-.03-18.01,9.18-18.01,19.63,0,11.73,7.42,19.45,18.04,19.45s17.87-8.42,17.87-19.7h0Zm-5.35-.03c0,9.42-4.55,16.52-12.49,16.52-6.9,0-12.69-5.8-12.69-16.38,0-9.24,4.93-16.25,12.66-16.25,8.49-.03,12.52,7.97,12.52,16.11m40.22-18.28h-4.48l.28,27.35c-1.03-1.66-1.41-2.1-3.38-4.45l-19.14-22.9h-4.28v36.94h4.31v-29.94c.9,1.45,1.93,2.79,3.04,4.1l22.11,26.32h1.59l-.03-37.43h0Z"/><path class="cls-1" d="M93.02,214.42c-1.04,0-2.09-.28-3.03-.8l-.45,.52h-.63l-.1-3.83h.63c.56,1.6,1.6,3.38,3.55,3.38,1.43,0,2.12-.77,2.12-1.84,0-.87-.56-1.53-1.71-1.95-.84-.31-1.53-.52-2.23-.84-1.32-.56-2.05-1.57-2.05-2.96,0-1.71,1.5-3.13,3.69-3.13,.94,0,1.88,.28,2.68,.73l.38-.49h.66l.07,3.69h-.66c-.56-1.67-1.25-3.2-3.06-3.2-1.04,0-1.84,.7-1.84,1.64s.52,1.46,1.6,1.88c.73,.31,1.53,.52,2.16,.84,1.29,.52,2.3,1.32,2.3,2.99,.03,1.91-1.64,3.34-4.07,3.38m7.17-9.61c-.66,0-1.22-.56-1.22-1.22,0-.7,.56-1.25,1.25-1.25s1.25,.56,1.25,1.25c-.03,.66-.59,1.22-1.29,1.22m-1.95,9.33v-.52c.24,0,.45-.03,.7-.1,.28-.1,.45-.38,.45-.7v-4.59c0-.31-.17-.63-.45-.8-.28-.14-.59-.24-.94-.24v-.52l3.24-.17,.1,.1v6.13c-.03,.31,.14,.59,.45,.73,.21,.1,.45,.14,.7,.17v.52h-4.25Zm10.16,0v-.52c.24,0,.45-.03,.7-.1,.28-.1,.35-.35,.35-.7v-3.76c0-1.08-.49-1.64-1.22-1.64s-1.43,.42-1.84,1.04v4.25c-.03,.28,.14,.56,.38,.7,.21,.07,.45,.14,.7,.17v.52h-4.18v-.52c.24,0,.45-.03,.7-.1,.28-.1,.49-.38,.45-.7v-4.56c0-.35-.17-.66-.45-.84-.24-.14-.52-.21-.8-.21v-.52l3.1-.17,.1,.1v1.08h.03c.66-.59,1.25-1.32,2.68-1.32,1.57,0,2.33,1.01,2.33,2.54v3.86c-.03,.31,.14,.59,.42,.7,.21,.1,.45,.14,.7,.17v.52h-4.14Zm8.35,.24c-2.61,0-3.9-1.74-3.9-4.07-.03-2.16,1.67-3.97,3.83-4h.17c1.88,0,2.78,.9,2.78,1.98,0,.63-.31,1.11-1.04,1.11-.59,0-1.15-.31-1.15-.87,.03-.42,.1-.87,.24-1.29-.14-.24-.42-.31-.84-.31-.9,0-1.81,.84-1.81,3.31,0,1.84,.9,3.13,2.23,3.13,1.08,0,1.67-.52,2.19-1.46l.56,.35c-.59,1.29-1.88,2.09-3.27,2.12m7.31-7.45c-.9,0-1.57,.84-1.64,2.51h2.99c.03-1.32-.24-2.51-1.36-2.51m.24,7.45c-2.75,0-4-1.84-4-4.07,0-2.05,1.43-3.97,3.83-3.97s3.41,1.53,3.41,3.27v.52h-5.12c0,2.02,.77,3.31,2.54,3.31,1.04,0,1.67-.56,2.19-1.43l.56,.38c-.66,1.18-1.98,1.98-3.41,1.98m8.42-.8c.45-.03,.87-.07,1.32-.14,.56-.1,.9-.38,.9-.87v-7.73h-2.19v-.7h.52c1.04,.03,2.05-.38,2.78-1.15h1.01c-.03,1.15-.07,1.84-.07,2.37v7.17c0,.45,.24,.7,.8,.87,.42,.1,.87,.14,1.32,.17v.56h-6.4v-.56Zm11.56-9.99c-.97,0-1.74,.77-1.74,1.74v.1c0,1.25,.97,1.67,2.78,2.51,.52-.49,.73-1.32,.73-2.3,0-1.22-.66-2.05-1.78-2.05m-1.15,5.39c-.7,.56-1.08,1.39-1.04,2.3,0,1.53,.87,2.47,2.19,2.47s2.12-.84,2.12-2.05c0-1.32-1.18-1.74-3.27-2.71m.97,5.43c-2.54,0-4.04-1.29-4.04-2.99,0-1.32,.84-2.19,2.54-2.68-1.43-.7-2.09-1.71-2.09-2.82,0-1.67,1.67-2.99,3.97-2.99s3.62,1.18,3.62,2.75c0,1.08-.66,1.95-2.19,2.51,1.84,.73,2.61,1.67,2.61,2.99-.07,1.78-1.78,3.24-4.42,3.24m9.15-.1c-1.95,0-3.45-1.01-3.45-2.19-.03-.59,.38-1.08,.94-1.11h.1c.73,0,1.15,.45,1.15,1.01-.03,.45-.14,.9-.28,1.32,.38,.24,.84,.35,1.29,.35,1.29,0,2.47-1.04,2.47-3.13,0-1.46-.94-2.47-2.23-2.47-.84-.03-1.64,.35-2.16,1.01l-.56-.21,.7-5.6h5.99v1.88h-5.43l-.35,2.75c.73-.49,1.6-.73,2.47-.73,1.57,0,3.79,.84,3.79,3.34,.03,2.3-2.02,3.79-4.45,3.79m9.36,.03c-2.05,0-3.48-1.04-3.48-2.26-.03-.59,.38-1.08,.94-1.11h.1c.73,0,1.15,.42,1.15,.97-.03,.45-.14,.9-.28,1.36,.42,.28,.94,.45,1.46,.42,1.22,0,2.33-.8,2.33-2.68,0-1.18-.38-2.16-2.02-2.16h-1.01v-.97h.66c1.36,0,1.91-.77,1.91-2.33,0-1.08-.45-1.91-1.67-1.91-.45,0-.9,.17-1.29,.45,.14,.45,.24,.9,.28,1.39,0,.56-.45,.97-1.15,.97s-1.01-.49-1.01-1.11c0-1.11,1.36-2.37,3.65-2.37,2.85,0,3.52,1.67,3.52,2.54,0,1.01-.52,2.16-2.51,2.65v.14c1.25,.1,2.96,.73,2.96,2.71s-2.02,3.31-4.56,3.31"/></svg>