<?xml version="1.0" encoding="UTF-8"?><svg id="Layer_1" xmlns="http://www.w3.org/2000/svg" viewBox="0 0 256 256"><defs><style>.cls-1{fill:#004b97;}.cls-2{fill:#e20015;}</style></defs><g><path class="cls-2" d="M29.64,74.95h40.61v8.85c-2.88-2.42-9.01-3.4-15.54-3.4v24.14c0,3.6,.31,4.58,1.7,6.43h-12.92c1.39-1.85,1.7-2.83,1.7-6.43v-24.14c-6.54,0-12.66,.98-15.54,3.4v-8.85Zm0,0h40.61v8.85c-2.88-2.42-9.01-3.4-15.54-3.4v24.14c0,3.6,.31,4.58,1.7,6.43h-12.92c1.39-1.85,1.7-2.83,1.7-6.43v-24.14c-6.54,0-12.66,.98-15.54,3.4v-8.85Zm0,0h40.61v8.85c-2.88-2.42-9.01-3.4-15.54-3.4v24.14c0,3.6,.31,4.58,1.7,6.43h-12.92c1.39-1.85,1.7-2.83,1.7-6.43v-24.14c-6.54,0-12.66,.98-15.54,3.4v-8.85Zm0,0h40.61v8.85c-2.88-2.42-9.01-3.4-15.54-3.4v24.14c0,3.6,.31,4.58,1.7,6.43h-12.92c1.39-1.85,1.7-2.83,1.7-6.43v-24.14c-6.54,0-12.66,.98-15.54,3.4v-8.85Zm60.11,30.57c4.17,0,11.11-.98,13.84-3.4v8.85h-29.59c1.44-1.7,1.7-2.83,1.7-6.28v-23.47c0-3.45-.26-4.58-1.7-6.28h28.05v8.85c-2.73-2.42-9.68-3.4-13.84-3.4h-3.29v9.57h2.42c2.37,0,6.02-.11,8.44-.98v7.1c-2.42-.87-6.07-.98-8.44-.98h-2.42v10.4h4.84Zm38.8-16.73c7.05,.98,12.92,3.45,12.92,11.12,0,9.01-8.54,11.89-17.75,11.84-6.43-.05-11.89-.67-15.9-2.27v-8.08c5.71,3.7,11.58,4.89,15.9,4.89s8.6-1.08,8.6-4.48-3.81-4.22-11.63-5.41c-6.74-1.03-12.87-3.91-12.92-10.55-.05-8.96,8.44-11.68,16.57-11.68,5.25,0,10.34,.62,15.03,2.16v8.7c-3.91-3.45-9.73-5.4-15.44-5.4-3.86,0-7.51,1.23-7.51,4.12,0,3.6,5.4,4.11,12.14,5.04m40.19-14.62c4.22,0,7.87,.51,10.81,1.29v8.95c-2.88-2.93-6.28-4.79-10.76-4.79-8.18,0-13.64,5.71-13.64,13.33s5.45,13.33,13.64,13.33c4.48,0,7.88-1.85,10.76-4.79v8.95c-2.93,.77-6.59,1.34-10.81,1.34-14.15,0-24.39-7.05-24.39-18.83s10.24-18.78,24.39-18.78"/><path class="cls-2" d="M205.05,74.17c-14.62,0-22.95,8.49-22.95,18.78s8.34,18.79,22.95,18.79,22.95-8.54,22.95-18.79-8.34-18.78-22.95-18.78m0,32.11c-7.36,0-12.15-6.07-12.15-13.33s4.79-13.33,12.15-13.33,12.14,6.02,12.14,13.33-4.79,13.33-12.14,13.33"/><path class="cls-1" d="M203.04,120.76h24.52s.05,0,.07,.01h0s.01,.01,.02,.02c.05,.05,.05,.14-.02,.21-.02,.02-.04,.03-.06,.04l-.04,.02c-2.85,1.3-6.66,5.25-6.66,5.25-2.85,2.71-4.99,4.42-9.55,4.42h-23.38c-.07,0-.1-.07-.11-.13,0,0,0,0,0,0,0-.04,.02-.09,.05-.11,.02-.02,.05-.04,.07-.05,2.56-1.43,6.4-5.41,6.4-5.41,1.57-1.85,4.7-4.28,8.7-4.28"/><path class="cls-1" d="M163.08,120.76h24.52s.05,0,.07,.01h0s.01,.01,.02,.02c.05,.05,.05,.14-.02,.21-.02,.02-.04,.03-.06,.04l-.04,.02c-2.85,1.3-6.66,5.25-6.66,5.25-2.85,2.71-4.99,4.42-9.55,4.42h-23.38c-.07,0-.1-.07-.11-.13,0,0,0,0,0,0,0-.04,.02-.09,.05-.11,.02-.02,.05-.04,.07-.05,2.56-1.43,6.4-5.41,6.4-5.41,1.57-1.85,4.7-4.28,8.7-4.28"/><path class="cls-1" d="M123.13,120.76h24.52s.05,0,.07,.01h0s.01,.01,.01,.02c.05,.05,.05,.14-.02,.21-.02,.02-.04,.03-.06,.04l-.04,.02c-2.85,1.3-6.66,5.25-6.66,5.25-2.85,2.71-4.99,4.42-9.55,4.42h-23.38c-.07,0-.1-.07-.11-.13,0,0,0,0,0,0,0-.04,.02-.09,.05-.11,.02-.02,.05-.04,.07-.05,2.56-1.43,6.4-5.41,6.4-5.41,1.57-1.85,4.7-4.28,8.7-4.28"/><path class="cls-1" d="M83.17,120.76h24.52s.05,0,.07,.01h0s.01,.01,.02,.02c.05,.05,.05,.14-.02,.21-.02,.02-.04,.03-.06,.04l-.04,.02c-2.85,1.3-6.66,5.25-6.66,5.25-2.85,2.71-4.99,4.42-9.55,4.42h-23.38c-.07,0-.1-.07-.11-.13,0,0,0,0,0,0,0-.04,.02-.09,.05-.11,.02-.02,.05-.04,.07-.05,2.56-1.43,6.4-5.41,6.4-5.41,1.57-1.85,4.7-4.28,8.7-4.28"/><path class="cls-1" d="M43.22,120.76h24.52s.05,0,.07,.01h0s.01,.01,.01,.02c.05,.05,.05,.14-.02,.21-.02,.02-.04,.03-.06,.04l-.04,.02c-2.85,1.3-6.66,5.25-6.66,5.25-2.85,2.71-4.99,4.42-9.55,4.42H28.11c-.07,0-.1-.07-.11-.13,0,0,0,0,0,0,0-.04,.02-.09,.05-.11,.02-.02,.05-.04,.07-.05,2.56-1.43,6.4-5.41,6.4-5.41,1.57-1.85,4.7-4.28,8.7-4.28"/></g><g><path class="cls-1" d="M28,140.45h14.08c3.55,0,6.33,.92,8.36,2.77,2.03,1.85,3.04,4.37,3.04,7.57,0,1.87-.46,3.53-1.38,5-.91,1.46-2.02,2.52-3.3,3.19,2.14,.82,3.83,2.09,5.06,3.83,1.23,1.73,1.84,3.92,1.84,6.57,0,3.7-1.16,6.62-3.48,8.76-2.32,2.14-5.47,3.21-9.44,3.21h-14.79v-40.91Zm13.91,16.83c2.1,0,3.72-.51,4.85-1.52,1.13-1.01,1.7-2.51,1.7-4.5s-.57-3.49-1.7-4.5c-1.13-1.01-2.77-1.52-4.91-1.52h-8.71v12.04h8.77Zm.23,19.29c2.65,0,4.7-.6,6.17-1.81,1.46-1.21,2.19-3.02,2.19-5.43s-.72-4.28-2.16-5.47c-1.44-1.19-3.51-1.78-6.2-1.78h-9v14.49h9Z"/><path class="cls-1" d="M64.85,180.75c-1.52-.72-2.73-1.75-3.62-3.1-.89-1.34-1.34-2.91-1.34-4.7,0-3.16,1.21-5.6,3.62-7.34,2.42-1.73,5.63-2.6,9.64-2.6h6.43v-1.52c0-1.95-.68-3.5-2.04-4.65-1.37-1.15-3.12-1.73-5.26-1.73-1.83,0-3.42,.45-4.76,1.34-1.34,.9-2.39,2.06-3.12,3.51l-3.8-2.28c1.01-2.03,2.52-3.69,4.53-5,2-1.31,4.39-1.96,7.16-1.96,3.66,0,6.61,.96,8.85,2.87,2.24,1.91,3.36,4.56,3.36,7.95v19.81h-3.92l-.88-4.56c-.97,1.48-2.33,2.69-4.06,3.62-1.73,.94-3.65,1.4-5.76,1.4-1.83,0-3.51-.36-5.03-1.08m10.14-4.35c1.38-.7,2.49-1.74,3.33-3.13,.84-1.38,1.26-3.01,1.26-4.88v-1.17h-6.31c-2.69,0-4.74,.49-6.16,1.46-1.42,.98-2.14,2.3-2.14,3.97,0,1.52,.51,2.7,1.52,3.54,1.01,.84,2.38,1.26,4.09,1.26,1.56,0,3.03-.35,4.41-1.05"/><path class="cls-1" d="M91.56,151.21h4.91v5.67c.86-1.87,2.17-3.36,3.94-4.47,1.77-1.11,3.71-1.67,5.81-1.67,3,0,5.38,.89,7.13,2.66,1.75,1.77,2.63,4.24,2.63,7.39v20.57h-4.91v-19.64c0-2.06-.5-3.65-1.52-4.76-1.01-1.11-2.49-1.67-4.44-1.67-1.68,0-3.18,.52-4.5,1.55-1.32,1.03-2.35,2.5-3.07,4.41-.72,1.91-1.08,4.13-1.08,6.66v13.44h-4.91v-30.16Z"/><polygon class="cls-1" points="128.45 164.06 140.08 151.21 146.22 151.21 133.71 165.06 147.1 181.36 141.02 181.36 128.45 166.05 128.45 181.36 123.55 181.36 123.55 139.98 128.45 139.98 128.45 164.06"/></g></svg>