<?xml version="1.0" encoding="UTF-8"?><svg id="Layer_1" xmlns="http://www.w3.org/2000/svg" viewBox="0 0 256 256"><defs><style>.cls-1{fill:#004d7e;}.cls-2{fill:#005c9d;}.cls-3{fill:#0068b2;}.cls-4{fill:#fff;}.cls-5{fill:#182442;}.cls-6{fill:#35bbed;}.cls-7{fill:#26358b;}</style></defs><path class="cls-7" d="M191.24,91.24c-13.5,0-25.29,7.28-31.68,18.12,3.22,5.47,5.08,11.84,5.08,18.64s-1.85,13.17-5.08,18.64c6.39,10.84,18.19,18.12,31.68,18.12,20.3,0,36.76-16.45,36.76-36.76s-16.46-36.76-36.76-36.76"/><path class="cls-3" d="M159.81,109.36c-6.39-10.84-18.19-18.12-31.68-18.12s-25.29,7.28-31.69,18.12c3.22,5.47,5.08,11.84,5.08,18.64s-1.85,13.17-5.08,18.63c6.39,10.84,18.19,18.12,31.69,18.12s25.29-7.28,31.68-18.12c-3.22-5.47-5.08-11.84-5.08-18.63s1.85-13.17,5.08-18.64"/><path class="cls-6" d="M96.45,109.36c-6.39-10.84-18.18-18.12-31.68-18.12-20.3,0-36.76,16.46-36.76,36.76s16.46,36.76,36.76,36.76c13.5,0,25.29-7.28,31.68-18.12-3.22-5.47-5.08-11.84-5.08-18.63s1.85-13.17,5.08-18.64"/><path class="cls-1" d="M96.45,146.64c3.22-5.47,5.08-11.84,5.08-18.64s-1.85-13.17-5.08-18.64c-3.22,5.47-5.08,11.84-5.08,18.64s1.85,13.17,5.08,18.64"/><path class="cls-2" d="M96.45,146.64h0c-3.32-5.64-5.08-12.08-5.08-18.64s1.76-13.01,5.08-18.64h0s0,0,0,0c3.32,5.64,5.08,12.08,5.08,18.64s-1.75,13-5.08,18.63h0Zm0-37.26c-3.32,5.63-5.07,12.07-5.07,18.63s1.75,12.99,5.07,18.63c3.32-5.64,5.07-12.08,5.07-18.63s-1.75-13-5.07-18.63"/><path class="cls-5" d="M159.56,146.64c3.22-5.47,5.08-11.83,5.08-18.64s-1.85-13.17-5.08-18.64c-3.22,5.47-5.08,11.84-5.08,18.64s1.85,13.17,5.08,18.64"/><polygon class="cls-4" points="78.59 115.16 67.89 115.16 67.89 147.91 60.51 147.91 60.51 115.16 50.05 115.16 50.05 108.46 78.59 108.46 78.59 115.16"/><path class="cls-4" d="M178.72,108.46h13.81c5.25,.05,6.65,.11,8.55,.67,3.97,1.17,6.74,4.69,6.74,9,0,1.73-.37,3.86-1.49,5.37-1.23,1.62-2.79,2.46-4.92,2.85,4.36,.79,8.16,4.3,8.16,10.4,0,4.52-2.01,8.55-6.76,10.23-2.52,.89-4.47,.95-8.94,.95h-15.15v-39.45Zm7.29,6.03v9.84h2.28c2.06,0,3.57,0,4.47-.05,1.84,0,3.69-.06,5.03-.78,1.57-.78,2.63-2.29,2.63-4.08,0-1.51-.78-3.01-2.29-3.91-1.57-.89-2.35-.95-7.71-1.01h-4.4Zm0,15.37v11.68h7.03c4.36,0,5.53,0,7.43-1.34,1.01-.73,1.79-2.23,1.79-4.13,0-.89-.17-1.96-.73-2.96-1.79-3.18-5.92-3.24-8.44-3.24h-7.08Z"/><path class="cls-4" d="M131.93,124.52l-4.05-.89c-3.55-.67-7.21-1.33-7.21-4.66,0-2.99,3.44-4.77,7.37-4.77,5.95,0,8.55,3.5,9.94,5.51l5.81-4.65c-2.79-3.68-7.16-7.46-15.35-7.46-9.21,0-15.48,4.77-15.48,12.2,0,6.49,4.82,8.87,6.6,9.59,1.22,.5,2.44,.78,4.93,1.39l4.72,1c3.55,.84,3.66,.89,4.55,1.22,1.22,.5,2.94,1.38,2.94,3.88,0,1.33-.5,3.33-3.33,4.49-1.39,.56-2.83,.67-4.22,.67-7.85,0-10.89-4.05-11.99-5.69l-5.96,4.55c2.95,4.53,7.25,6.21,9.79,6.97,2.39,.67,4.82,.89,6.99,.89,8.32,0,16.63-3.61,16.63-12.59,0-8.37-7.43-10.54-12.7-11.65"/></svg>