<?xml version="1.0" encoding="UTF-8"?><svg id="Layer_1" xmlns="http://www.w3.org/2000/svg" viewBox="0 0 256 256"><defs><style>.cls-1{fill:#fff;}.cls-2{fill:#be152b;}.cls-3{fill:#9a9089;}</style></defs><rect class="cls-1" y="0" width="256" height="256"/><g><path class="cls-3" d="m28,128c0-25.89,9.98-49.64,26.13-67.46v109.5c0,16.86,7.6,31.83,19.72,41.81-27.79-17.58-45.84-48.7-45.84-83.85"/><path class="cls-2" d="m72.42,170.04c0-19.96,16.15-35.87,35.87-35.87s35.87,16.15,35.87,35.87-16.15,35.87-35.87,35.87c-19.96.24-35.87-15.91-35.87-35.87"/><path class="cls-2" d="m72.42,44.86c15.91-10.69,34.91-16.86,55.58-16.86,55.11,0,100,44.66,100,100s-44.66,100-100,100c-10.21,0-20.19-1.43-29.45-4.28,3.08.47,6.41.95,9.74.95,29.93,0,54.16-24.22,54.16-54.16s-24.23-54.16-54.16-54.16c-13.77,0-26.36,5.23-35.87,13.54V44.86Z"/></g></svg>