<?xml version="1.0" encoding="UTF-8"?><svg id="Layer_1" xmlns="http://www.w3.org/2000/svg" viewBox="0 0 256 256"><defs><style>.cls-1,.cls-2{fill:#fff;}.cls-3{fill:#bb6125;}.cls-4{fill:#53575a;}.cls-2{stroke:#fff;stroke-miterlimit:10;stroke-width:.13px;}</style></defs><rect class="cls-1" y="0" width="256" height="256"/><g><g><path class="cls-4" d="m41.37,128.88c-1.43,1.17-3.31,1.49-5.84,1.49h-7.53v-23.17h6.23c2.21,0,4.09.19,5.52,1.1,1.43.91,2.47,2.27,2.47,4.67s-1.56,4.48-3.51,5.06v.06c3.12.65,5.13,2.6,5.13,5.65,0,2.47-1.04,3.96-2.47,5.13Zm-3.96-18.44c-.84-.45-1.62-.65-3.18-.65h-2.99v7.34h2.73c1.62,0,2.66-.13,3.44-.71.78-.58,1.56-1.36,1.56-3.05s-.71-2.47-1.56-2.92Zm1.43,10.06c-1.17-.78-2.6-.84-4.09-.84h-3.51v8.11h3.51c1.49,0,2.92-.06,4.09-.78,1.17-.78,1.69-1.75,1.69-3.25,0-1.56-.58-2.53-1.69-3.25Z"/><path class="cls-4" d="m63.25,130.37h-13.83v-23.17h13.57v2.73h-10.32v6.95h9.74v2.73h-9.74v8.05h10.58v2.73Z"/><path class="cls-4" d="m86.36,107.2l-8.5,23.24h-2.92l-8.5-23.24h3.51l6.49,18.5,6.49-18.5h3.44Z"/><path class="cls-4" d="m104.47,130.37h-13.83v-23.17h13.57v2.73h-10.32v6.95h9.74v2.73h-9.74v8.05h10.58v2.73Z"/><path class="cls-4" d="m125.89,130.37h-3.96l-6.04-10h-2.47v10h-3.25v-23.17h6.56c2.34,0,4.22.52,5.58,1.62,1.36,1.1,2.27,2.79,2.27,4.93,0,4.09-2.79,5.91-5.26,6.36l6.56,10.26Zm-6.23-19.67c-1.04-.78-2.27-.84-3.89-.84h-2.4v7.85h2.4c1.62,0,2.86-.06,3.89-.78,1.04-.78,1.49-1.69,1.49-3.12s-.45-2.4-1.49-3.12Z"/><path class="cls-4" d="m141.4,130.37h-11.42v-23.17h3.25v20.38h8.18v2.79Z"/><path class="cls-4" d="m159.78,130.37h-13.83v-23.17h13.57v2.73h-10.32v6.95h9.74v2.73h-9.74v8.05h10.58v2.73Z"/><path class="cls-4" d="m182.3,107.2l-8.05,13.5v9.74h-3.25v-9.74l-8.11-13.5h3.64l6.04,10.65,6.04-10.65h3.7Z"/></g><g><path class="cls-4" d="m54.1,148.74c-.52.45-1.17.58-2.21.58h-2.34v-8.76h1.95c.84,0,1.49.06,2.01.45.52.39.84.84.84,1.75s-.58,1.69-1.36,1.88c1.23.19,2.08.97,2.08,2.14-.06.91-.45,1.49-.97,1.95Zm-1.17-7.34c-.32-.19-.71-.26-1.36-.26h-1.3v3.31h1.17c.71,0,1.17-.06,1.49-.32s.71-.58.71-1.36-.32-1.17-.71-1.36Zm.58,4.02c-.52-.32-1.23-.39-1.82-.39h-1.43v3.64h1.43c.65,0,1.3,0,1.82-.32s.78-.78.78-1.43c0-.78-.26-1.17-.78-1.49Z"/><path class="cls-4" d="m63.38,145.75c0,.97-.06,1.88-.65,2.6s-1.43,1.1-2.47,1.1c-1.1,0-1.88-.39-2.47-1.1-.58-.71-.65-1.62-.65-2.6v-5.19h.71v5.26c0,.65,0,1.43.45,2.08.39.58,1.1.91,1.95.91.91,0,1.56-.32,1.95-.91.45-.58.45-1.36.45-2.08v-5.26h.71v5.19Z"/><path class="cls-4" d="m66.75,149.26h-.71v-8.7h.71v8.7Z"/><path class="cls-4" d="m73.25,149.26h-3.83v-8.7h.71v8.11h3.12v.58Z"/><path class="cls-4" d="m80.65,148.09c-.58.58-1.69,1.23-3.18,1.23h-2.4v-8.76h2.4c1.49,0,2.6.65,3.18,1.23s1.3,1.56,1.3,3.18c0,1.49-.78,2.53-1.3,3.12Zm-.65-5.97c-.58-.52-1.43-.91-2.66-.91h-1.69v7.47h1.69c1.23,0,2.08-.39,2.66-.91.58-.52,1.23-1.43,1.23-2.86s-.65-2.27-1.23-2.79Z"/><path class="cls-4" d="m84.8,149.26h-.71v-8.7h.71v8.7Z"/><path class="cls-4" d="m94.67,149.26h-.65l-5.84-7.66v7.66h-.71v-8.7h.71l5.78,7.53v-7.53h.71v8.7Z"/><path class="cls-4" d="m104.86,148.09s-1.1,1.36-3.64,1.36-4.41-1.95-4.41-4.54,1.88-4.48,4.35-4.48c2.21,0,3.18,1.17,3.51,1.49l-.45.52c-.65-.78-1.49-1.43-2.99-1.43-2.08,0-3.64,1.49-3.64,3.89s1.62,3.89,3.77,3.89,2.86-.97,2.86-.97v-2.34h-2.66v-.65h3.38v3.25h-.06Z"/><path class="cls-4" d="m112.71,149.45c-1.69,0-2.47-1.23-2.66-1.56l.52-.39c.32.58,1.1,1.36,2.21,1.36s2.01-.71,2.01-1.82c0-1.17-1.17-1.56-1.69-1.75s-1.1-.45-1.43-.65-1.3-.78-1.3-2.01c0-1.3,1.1-2.14,2.6-2.14s2.21,1.04,2.27,1.17l-.45.39c-.32-.39-.84-.97-1.82-.97s-1.82.52-1.82,1.49.71,1.36,1.3,1.62,1.62.65,1.82.78,1.3.71,1.3,2.01c0,1.36-1.1,2.47-2.86,2.47Z"/><path class="cls-4" d="m121.74,149.45c-2.34,0-4.41-1.75-4.41-4.48s2.08-4.48,4.41-4.48,4.41,1.75,4.41,4.48-2.08,4.48-4.41,4.48Zm0-8.44c-2.01,0-3.7,1.43-3.7,3.89s1.75,3.89,3.7,3.89,3.7-1.43,3.7-3.89c0-2.47-1.75-3.89-3.7-3.89Z"/><path class="cls-4" d="m135.5,148.09c-.65.71-1.62,1.36-3.25,1.36-2.53,0-4.41-1.82-4.41-4.48s1.95-4.48,4.41-4.48c1.49,0,2.53.65,3.18,1.3l-.45.52c-.45-.58-1.43-1.17-2.73-1.17-2.14,0-3.7,1.56-3.7,3.89s1.49,3.89,3.7,3.89c1.23,0,2.14-.45,2.79-1.17l.45.32Z"/><path class="cls-4" d="m138.29,149.26h-.71v-8.7h.71v8.7Z"/><path class="cls-4" d="m145.88,149.26h-4.87v-8.7h4.74v.65h-4.09v3.18h3.83v.65h-3.83v3.7h4.15v.52h.06Z"/><path class="cls-4" d="m153.15,141.15h-2.6v8.11h-.71v-8.11h-2.6v-.65h5.91v.65Z"/><path class="cls-4" d="m160.75,140.56l-3.05,5v3.77h-.71v-3.77l-3.05-5h.78l2.6,4.35,2.6-4.35h.84Z"/></g><g><circle class="cls-3" cx="207.23" cy="127.32" r="20.77"/><path class="cls-2" d="m203.66,123.88h-5.19v-9.35h5.06v.65h-4.35v3.38h4.09v.65h-4.09v3.96h4.41v.71h.06Z"/><path class="cls-2" d="m206.9,124.01c-1.17,0-1.88-.58-2.27-1.23l.52-.39c.39.58,1.04.97,1.82.97s1.49-.39,1.49-1.17c0-.84-1.1-1.1-1.69-1.3-.52-.19-1.75-.58-1.75-1.75s.97-1.69,1.88-1.69,1.49.32,1.95.91l-.45.45c-.45-.45-.84-.71-1.56-.71s-1.23.32-1.23.97.65.91,1.43,1.23c.78.26,1.95.65,1.95,1.88.13,1.1-.91,1.82-2.08,1.82Z"/><path class="cls-2" d="m213.13,123.81s-.32.19-.97.19c-.58,0-.97-.26-1.17-.65s-.26-.91-.26-1.88v-3.25h-.97v-.65h.97v-2.01h.71v2.01h1.56v.65h-1.62v3.64c0,.71.06,1.49.91,1.49.39,0,.65-.19.65-.19l.19.65Z"/><path class="cls-2" d="m215.28,124.01c-.39,0-.65-.26-.65-.65s.26-.65.65-.65.65.26.65.65-.26.65-.65.65Z"/><path class="cls-2" d="m196.39,138.35h-.71v-8.7h-1.95v-.58h2.66v9.28Z"/><path class="cls-2" d="m202.36,138.48c-1.75,0-2.99-.97-2.99-2.66,0-1.23.71-2.08,1.82-2.4h0c-.58-.26-1.49-.71-1.49-2.14s1.23-2.34,2.66-2.34,2.66.91,2.66,2.34-.91,1.95-1.49,2.14h0c1.04.32,1.82,1.17,1.82,2.4-.06,1.69-1.23,2.66-2.99,2.66Zm0-4.74c-1.3,0-2.21.78-2.21,2.08s1.04,2.08,2.21,2.08c1.23,0,2.21-.78,2.21-2.08s-.97-2.08-2.21-2.08Zm0-4.22c-1.1,0-1.95.65-1.95,1.75,0,1.17.84,1.75,1.95,1.75s1.95-.65,1.95-1.75c-.06-1.1-.91-1.75-1.95-1.75Z"/><path class="cls-2" d="m210.15,138.55c-1.82,0-2.53-1.23-2.73-1.62-.19-.39-.52-1.3-.52-2.99s.45-2.92.97-3.7,1.3-1.3,2.53-1.3c1.69,0,2.47.97,2.47.97l-.39.52c-.52-.45-1.1-.91-2.08-.91s-1.56.39-2.01,1.1c-.45.71-.84,1.88-.84,3.64.39-.91,1.17-1.75,2.66-1.75s2.86,1.1,2.86,2.86c0,1.75-1.1,3.18-2.92,3.18Zm0-5.39c-1.56,0-2.27,1.17-2.27,2.4s.71,2.4,2.27,2.4,2.21-1.17,2.21-2.4-.71-2.4-2.21-2.4Z"/><path class="cls-2" d="m217.68,138.55c-1.82,0-2.53-1.23-2.73-1.62-.19-.39-.52-1.3-.52-2.99s.45-2.92.97-3.7,1.3-1.3,2.53-1.3c1.69,0,2.47.97,2.47.97l-.39.52c-.52-.45-1.1-.91-2.08-.91s-1.56.39-2.01,1.1c-.45.71-.84,1.88-.84,3.64.39-.91,1.17-1.75,2.66-1.75s2.86,1.1,2.86,2.86c.06,1.75-1.04,3.18-2.92,3.18Zm0-5.39c-1.56,0-2.27,1.17-2.27,2.4s.71,2.4,2.27,2.4,2.21-1.17,2.21-2.4-.65-2.4-2.21-2.4Z"/></g></g></svg>