<?xml version="1.0" encoding="UTF-8"?><svg id="Layer_1" xmlns="http://www.w3.org/2000/svg" viewBox="0 0 256 256"><defs><style>.cls-1{fill:#fff;}.cls-2{fill:#8e70a3;}.cls-3{fill:#b29dc0;}.cls-4{fill:#cc7829;}.cls-5{fill:#6e4589;}.cls-6{fill:#511673;}</style></defs><rect class="cls-1" y="0" width="256" height="256"/><g><path class="cls-6" d="m76.57,66.38c.13-1.03-.24-23.71,14.24-21.9,11.64,1.46,10.55,26.58-5.92,45.92-94.18,110.5-53.55,155.48-5.79,145.43,0,0-91.61-4.38,19.74-137.75,47.57-56.97,9.57-81.2-12.09-80.89-31.31.44-39.82,27.87-38.88,41.25.94,13.38,16.2-.44,21.73,5.67,0,0,6.15,8.89,6.97,2.27"/><path class="cls-4" d="m76.66,64.63c-.97,33.25-18.83,40.47-18.83,40.47,6.24-25.79-5.35-36.72-5.35-36.72,0,0,4.8-.89,8.21-3.06,3.39-2.17,8.84-1.7,8.84-1.7l7.12,1Z"/><path class="cls-2" d="m58.01,232.69c68.38,8.02,145.49,15.38,166.55-57.79,0,0-16.72,54.38-91.48,41.13-74.75-13.24-75.78,14.3-74.75,13.95"/><path class="cls-5" d="m61.75,212.66s7.17-43,45.4-58.68c38.23-15.69,89.08-34.04,95.9-88.76-2.11,113.4-99.93,80.32-141.31,147.44"/><path class="cls-3" d="m84.95,238.81c-28.73-.55-31.22-3.19-31.22-3.19,0,0-1.5-43.28,46.17-73.22,8.64-5.44,21.89-9.62,35.91-14.06,45.86-14.51,79.96-28.79,67.61-68.86l-8.01-26.01,16.15,21.91c27.68,37.56,19.65,93.04-18.26,126.29-34.02,29.84-78.56,37.13-108.34,37.13m-21.81-11.73c22.8,2.48,81.96,4.58,124.06-32.34,27.84-24.42,37.99-61.93,27.59-93.23-4.67,33.01-45.14,45.82-76.19,55.63-13.44,4.26-26.15,8.27-33.79,13.08-34.51,21.68-40.61,47.31-41.66,56.86"/><path class="cls-6" d="m66.63,212.66c4.44-12.44,14.44-29.25,37.02-44.1,14.04-9.25,42.97-14.83,66.06-25.98-29.95,27.19-77.73,27.75-103.08,70.08"/><path class="cls-5" d="m58.47,229.36c-.01-.38-3.23-27.55,80.13-15.65,9.68,1.39,19.31,5.12,26.37,1.5-28.61,14.67-87.05,26.04-106.49,14.15,0,0,0,0,0,0"/></g></svg>