<?xml version="1.0" encoding="UTF-8"?><svg id="Layer_1" xmlns="http://www.w3.org/2000/svg" viewBox="0 0 256 256"><defs><style>.cls-1{fill:#f4a627;}.cls-2{fill:#00508b;}.cls-3{fill:#0061a4;}.cls-4{fill:#0085c6;}.cls-5{fill:#0087c8;}.cls-6{fill:#ef8000;}.cls-7{fill:#fff;}.cls-8{fill:#f18d15;}.cls-9{fill:#99971e;}.cls-10{fill:#ba1e78;}.cls-11{fill:#a9a619;}.cls-12{fill:#c0bf22;}.cls-13{fill:#cc2a81;}.cls-14{fill:#d22f83;}.cls-15{fill:#18569a;}.cls-16{fill:#888700;}</style></defs><rect class="cls-7" y="0" width="256" height="256"/><g><polygon class="cls-5" points="219.89 106.3 149.18 127.65 219.83 130.96 219.89 106.3"/><polygon class="cls-9" points="47.95 197.69 69.29 182.92 149.18 127.65 48.97 133.11 47.95 197.69"/><polygon class="cls-3" points="219.89 106.3 219.89 56.07 149.18 127.65 219.89 106.3"/><polygon class="cls-4" points="164.71 53.88 139.04 53.88 149.18 127.65 164.71 53.88"/><polygon class="cls-13" points="149.18 127.65 121.72 53.88 104.72 53.88 149.18 127.65"/><polygon class="cls-8" points="219.89 225.82 149.18 127.65 161.9 225.83 219.89 225.83 219.89 225.82"/><polygon class="cls-11" points="40.39 202.92 40.39 230.88 93.18 230.88 149.18 127.65 40.39 202.92"/><polygon class="cls-1" points="223.86 131.11 149.18 127.65 219.89 225.82 223.86 131.11"/><polygon class="cls-2" points="219.89 56.07 149.18 127.65 219.89 64.84 219.89 56.07"/><polygon class="cls-10" points="104.72 53.88 110.67 53.88 149.18 127.65 104.72 53.88"/><polygon class="cls-16" points="47.95 187.68 47.95 197.69 149.18 127.65 47.95 187.68"/><polygon class="cls-6" points="219.89 225.82 149.18 127.65 220.54 213.83 219.89 225.82"/><polygon class="cls-12" points="149.18 127.65 95.92 225.83 161.89 225.83 149.18 127.65"/><polygon class="cls-14" points="28 26.32 33.49 134.03 149.18 127.65 97.09 41.22 28 25.12 28 26.32"/><polygon class="cls-13" points="149.18 127.65 139.04 53.88 121.71 53.88 149.18 127.65"/><polygon class="cls-15" points="168.84 34.27 228 47.86 149.18 127.65 168.84 34.27"/></g></svg>