<?xml version="1.0" encoding="UTF-8"?><svg id="Layer_1" xmlns="http://www.w3.org/2000/svg" viewBox="0 0 256 256"><defs><style>.cls-1{fill:#fff;}.cls-2{fill:#212d54;}.cls-3{fill:#76b1df;}</style></defs><rect class="cls-1" y="0" width="256" height="256"/><g><path class="cls-2" d="m121.58,155.49c24.95,3.98,47.28-6,49.88-22.3,2.61-16.3-15.51-32.74-40.45-36.72-24.95-3.98-47.28,6-49.88,22.3-2.6,16.3,15.51,32.74,40.45,36.73"/><path class="cls-2" d="m127.57,186.66c.59-2.87,1.29-5.81,1.67-8.67.48-2.88.86-5.72,1.1-8.47.28-2.61.46-5.14.6-7.56-3.35-.11-6.76-.43-10.22-.99-8.6-1.37-16.5-4-23.32-7.5.69,1.62,1.48,3.58,2.35,5.84,1.24,3.43,2.66,7.51,3.83,11.96.64,2.23,1.19,4.53,1.67,6.9.58,2.38.87,4.76,1.29,7.21.38,2.43.5,4.83.77,7.27.04,2.36.15,4.76.09,7.05-.2,2.23-.22,4.51-.55,6.57-.39,2.02-.67,4.05-1.1,5.84-.55,1.77-1.06,3.39-1.51,4.83-.43,1.48-1.15,2.56-1.59,3.59-.97,2.01-1.52,3.16-1.52,3.16l-.2.43c-.47.98-.31,2.18.47,3.01,1.02,1.09,2.73,1.14,3.82.12,0,0,1.04-.98,2.87-2.69.87-.9,2.16-1.89,3.22-3.28,1.11-1.41,2.37-2.99,3.73-4.72,1.26-1.81,2.42-3.88,3.77-6.09,1.28-2.22,2.28-4.67,3.5-7.22,1.06-2.56,1.98-5.27,2.97-8.06.75-2.77,1.67-5.65,2.29-8.53"/><path class="cls-3" d="m103.43,91.57c2.75-.61,5.63-1.05,8.59-1.32,5.46-31.74.13-57.91-.67-61.52-17.2,2.01-27.99,7.45-27.99,7.45,28.7,26.66,20.8,53.16,20.07,55.39"/><path class="cls-3" d="m116.08,89.99c5.08-.19,10.39.11,15.81.98.33.05.64.11.97.17l3.84-19.87c3.2-20.25,6.04-41.3,6.09-41.63-9.13-1.59-17.6-1.89-25.1-1.45,0,.03.19,11.71.42,22.39.22,3.72.33,7.79.3,12.14,0,.05,0,.11,0,.16v-.02c-.08,8.2-.72,17.41-2.33,27.13"/><path class="cls-3" d="m136.75,91.9c4.85,1.07,9.43,2.54,13.69,4.34,2.17-9.53,5.04-18.25,8.03-25.85l-.18.2c.41-.92.86-1.95,1.34-3.06.75-1.81,1.5-3.56,2.25-5.23,4.18-9.75,9.23-21.75,9.94-23.42-7.37-3.45-14.53-5.92-21.39-7.62-.49,1.92-5.44,21.62-9.83,40.75l-3.85,19.9Z"/><path class="cls-3" d="m163.45,103.49c.26-.03.43-.05.43-.05,3.5-34.76,39.28-44.1,39.28-44.1-8.69-7.41-17.31-13.19-25.71-17.65-2.4,3.6-16.53,25.73-23.33,56.23,3.38,1.66,6.5,3.53,9.33,5.58"/><path class="cls-2" d="m94.14,180.45h.04s-.04-.05-.11-.12c-1-1.68-2.04-3.19-3.04-4.53-3.07-5.33-6.45-14.15-.21-20.39,0,0-11.13,1.22-13,7.54-.55-.52-1.11-1.04-1.64-1.57-3.84-5.53-3.95-10.46-3.19-13.9,1.39-4.11,3.92-5.95,4.67-6.41.07-.04.13-.08.2-.12l.03-.02h0c.54-.33,1-.66,1.25-.92.16-.17.27-.37.4-.57-5.41-6.76-8.02-14.4-6.81-22.02.85-5.3,3.45-10.02,7.39-14.01-.43-.45-1.49-1.17-3.72-.82,0,0-10.31,2.19-18.34,13.29-.32.52-16.29,26.71,9.29,56.17h-.02s.88,1.09,2.55,2.78c.6.63,1.19,1.26,1.83,1.9.21.15.43.3.66.47,1.86,1.68,4.2,3.61,7.01,5.56,0,0,6.08,4.79,10.98,16.42.33.84.65,1.71.97,2.62.65,1.87,1.29,3.87,1.9,6.09,0,.02,0,.03.01.04h0c.18.83.32,1.62.41,2.32.22,1.64.21,2.9.14,3.71-.05.83-.15,1.22-.15,1.22-.23.95.13,2,.99,2.58,1.1.74,2.6.45,3.34-.66,0,0,.38-.57.87-1.65.5-1.09,1.09-2.7,1.54-4.76.08-.35.15-.73.22-1.1.06-.56.11-1.11.15-1.66.86-11.46-2.63-20.77-6.61-27.47"/><path class="cls-2" d="m161.16,156.33c0,.88-.06,1.81-.2,2.82-.47,2.41-1.04,4.14-1.05,4.18-.43,1.11-.91,2.16-1.42,3.16-.74,1.38-1.54,2.69-2.49,3.96-2.74-4.93-11.19-6.96-11.19-6.96,4.63,5.97,2.01,12.95-1.18,17.91-.04.04-.09.08-.13.12-1.47,1.31-2.66,2.69-3.89,4.01-2.39,2.7-4.46,5.56-6.19,8.38-1.41,2.23-2.57,4.48-3.56,6.63-1.41,2.15-2.58,5.11-3.42,7.67-.84,1.42-3.24,6.28-1.92,13.7,0,0,1.04,2.12,2.81.37,0,0,.65-1.85,1.7-4.19.24-.41.51-.85.83-1.33.82-1.25,1.8-2.74,3.05-4.35,1.29-1.59,2.73-3.33,4.43-5.1.31-.34.68-.67,1.01-1-.01.04-.02.11-.02.11,0,0,18.81-14.75,29.78-3.18,0,0-.83-9.98-5.91-14.19,1.75-1.08,3.46-2.33,5.08-3.74,3.46-3.02,6.39-6.97,8.11-11.24,7.49-14.31,5.05-31.03,3.86-36.86-2.3,8.14-8.9,14.76-18.09,19.1"/></g></svg>