<?xml version="1.0" encoding="UTF-8"?><svg id="Layer_1" xmlns="http://www.w3.org/2000/svg" xmlns:xlink="http://www.w3.org/1999/xlink" viewBox="0 0 256 256"><defs><style>.cls-1{fill:none;}.cls-2{fill:url(#linear-gradient);}.cls-3{clip-path:url(#clippath);}.cls-4{fill:#fff;}.cls-5{clip-path:url(#clippath-1);}.cls-6{clip-path:url(#clippath-2);}.cls-7{fill:url(#linear-gradient-3);}.cls-8{fill:url(#linear-gradient-2);}</style><clipPath id="clippath"><path class="cls-1" d="m28,127.67c0,46.36,31.84,85.27,74.84,96.09,42.39-9.41,74.93-44.96,79.84-88.87.27-2.38.19-2.35-.11.02-3.55,27.48-27.03,48.71-55.48,48.71-25.08,0-46.32-16.46-53.43-39.19l-.02-.02c-3.13-9.29-4.82-19.23-4.82-29.57-.02-39.06,24.09-72.48,58.24-86.22l.03-.02c-54.73,0-99.09,44.36-99.09,99.09"/></clipPath><linearGradient id="linear-gradient" x1="31.84" y1="3910.41" x2="34.42" y2="3910.41" gradientTransform="translate(-251082.7 -2001.86) rotate(90) scale(64.24 -64.24)" gradientUnits="userSpaceOnUse"><stop offset="0" stop-color="#2a032d"/><stop offset=".01" stop-color="#2a032d"/><stop offset=".02" stop-color="#2b032e"/><stop offset=".08" stop-color="#3f0f47"/><stop offset=".16" stop-color="#4e195b"/><stop offset=".24" stop-color="#591f69"/><stop offset=".34" stop-color="#602371"/><stop offset=".53" stop-color="#622574"/><stop offset=".76" stop-color="#602472"/><stop offset=".84" stop-color="#5b206b"/><stop offset=".9" stop-color="#511b5f"/><stop offset=".94" stop-color="#44134e"/><stop offset=".98" stop-color="#330838"/><stop offset="1" stop-color="#2a032d"/></linearGradient><clipPath id="clippath-1"><path class="cls-1" d="m106.37,224.84c7.8,1.81,15.93,2.72,24.29,2.57,54.49-.96,97.93-45.64,97.34-100.05.03.03-42.93-.01-42.93-.01-1.13,47.22-34.18,86.79-78.69,97.49"/></clipPath><linearGradient id="linear-gradient-2" x1="150.38" y1="3877.31" x2="152.96" y2="3877.31" gradientTransform="translate(150399.03 6053.94) rotate(-90) scale(38.75 -38.75)" gradientUnits="userSpaceOnUse"><stop offset="0" stop-color="#2a032d"/><stop offset=".27" stop-color="#2a032d"/><stop offset=".41" stop-color="#340939"/><stop offset=".67" stop-color="#4f195c"/><stop offset=".83" stop-color="#622574"/><stop offset="1" stop-color="#622574"/></linearGradient><clipPath id="clippath-2"><path class="cls-1" d="m70.73,115.8c0,10.34,1.69,20.29,4.81,29.57h.07c-1.65-5.28-2.54-10.89-2.54-16.72,0-30.89,25.04-55.94,55.94-55.94h0V29.61c-34.15,13.73-58.28,47.14-58.28,86.2"/></clipPath><linearGradient id="linear-gradient-3" x1="64.12" y1="4019.54" x2="66.7" y2="4019.54" gradientTransform="translate(-1375.93 90780.35) scale(22.56 -22.56)" gradientUnits="userSpaceOnUse"><stop offset="0" stop-color="#622574"/><stop offset=".67" stop-color="#2a032d"/><stop offset="1" stop-color="#2a032d"/></linearGradient></defs><rect class="cls-4" y="0" width="256" height="256"/><g><g class="cls-3"><rect class="cls-2" x="-18.31" y="2.38" width="247.58" height="247.58" transform="translate(-58.32 111.54) rotate(-45)"/></g><g class="cls-5"><rect class="cls-8" x="106.37" y="127.34" width="122.22" height="100.21"/></g><g class="cls-6"><rect class="cls-7" x="70.73" y="29.61" width="58.28" height="115.77"/></g></g></svg>