<?xml version="1.0" encoding="UTF-8"?><svg id="Layer_1" xmlns="http://www.w3.org/2000/svg" viewBox="0 0 256 256"><defs><style>.cls-1{fill:#fff;}.cls-2{fill:#b5024c;}</style></defs><rect class="cls-1" y="0" width="256" height="256"/><path id="Fill-32" class="cls-2" d="m216.5,99.26c1.21-1.21,2.12-1.51,3.33-1.51s4.24,2.12,6.35,3.63c1.21,1.21,1.82,2.72,1.82,4.54,0,2.12-1.21,4.24-2.72,6.66-10.59,18.15-36.61,45.69-98.03,45.69-56.28,0-83.81-24.81-96.82-45.69-1.51-2.72-2.42-4.54-2.42-6.66s1.21-3.03,2.42-4.54c1.82-1.82,4.24-3.63,5.75-3.63,1.21,0,2.72.61,3.33,1.82,15.43,19.06,36.01,35.4,87.44,35.4,56.88.3,72.92-17.25,89.56-35.7"/></svg>