<?xml version="1.0" encoding="UTF-8"?><svg id="Layer_1" xmlns="http://www.w3.org/2000/svg" viewBox="0 0 256 256"><defs><style>.cls-1{fill:#009fe3;}.cls-2{fill:#005a9b;}.cls-3{fill:#e6007e;}</style></defs><path class="cls-3" d="m193.43,74.31v30.25c-4.94.53-9.7,1.59-14.46,3.01v-33.26h4.23v2.12h5.82v-2.12h4.41Z"/><path class="cls-1" d="m210.72,83.33v21.05c-4.76-.35-9.52-.35-14.46,0v-21.05h4.23v2.12h5.82v-2.12h4.41Z"/><path class="cls-2" d="m228,74.31v33.44c-4.76-1.42-9.52-2.48-14.29-3.01v-30.43h4.23v2.12h5.82v-2.12h4.23Z"/><path class="cls-2" d="m53.57,122.78c-2.82-1.77-5.11-2.83-8.29-2.83-6.53,0-8.99,8.31-8.99,14.33s2.29,13.98,8.47,13.98c3.17,0,6.53-1.59,8.82-3.01v-22.47Zm-10.41,31.14c-10.76,0-15.17-11.15-15.17-19.81s4.94-19.99,15.7-19.99c3.53,0,6.7.88,9.88,2.12v-23h7.58v53.96c-5.47,4.07-11.11,6.72-17.99,6.72Z"/><path class="cls-2" d="m80.38,153.92c-5.64,0-12.52-3.36-12.52-11.32v-27.42h7.94v25.47c0,4.95,3.53,7.78,8.29,7.78,2.82,0,5.29-1.24,7.23-2.48v-30.78h7.76v32.37c-5.47,3.89-11.46,6.37-18.69,6.37Z"/><path class="cls-2" d="m129.41,122.78c-2.82-1.77-5.11-2.83-8.29-2.83-6.53,0-8.99,8.31-8.99,14.33s2.29,13.98,8.47,13.98c3.17,0,6.53-1.59,8.82-3.01v-22.47Zm-10.58,31.14c-10.76,0-15.17-11.15-15.17-19.64,0-9.02,4.94-19.99,15.7-19.99,3.53,0,6.7.88,9.88,2.12v-23.17h7.58v53.96c-5.29,4.07-11.11,6.72-17.99,6.72Z"/><path class="cls-2" d="m144.05,143.83v-50.6h7.41v50.6c0,4.07,1.76,4.95,6.53,5.13v4.78c-8.82.88-13.93-3.01-13.93-9.91Z"/><path class="cls-2" d="m175.97,120.13c-4.59,0-6.52,4.25-7.23,9.02h13.76c-.18-4.78-2.29-9.02-6.53-9.02Zm7.94,32.73c-5.29,1.59-12.34,1.59-16.93-2.3-4.06-3.54-6.53-9.55-6.53-15.74,0-9.55,3.88-20.17,15.17-20.17s14.46,7.61,14.64,19.81h-21.87c-.35,8.67,4.23,13.98,9.88,13.8,3.88,0,6.52-1.42,10.58-3.18l2.12,4.42c-2.47,1.59-4.59,2.83-7.06,3.36Z"/><path class="cls-2" d="m206.66,166.65c4.41-.53,10.41-1.42,12.7-5.48,1.06-2.12,1.06-6.55,1.06-9.2-3.88,1.59-7.58,2.3-11.99,2.3-5.64,0-12.52-4.25-12.52-11.5v-27.6h7.94v25.47c0,4.95,3.35,7.61,8.29,7.43,2.82,0,6-1.59,7.94-2.83v-30.07h7.94v33.97c0,4.25-.18,10.79-2.12,14.33-3.17,6.37-12.34,8.67-19.05,8.85v-5.66h-.18Z"/><path class="cls-2" d="m86.91,163.47h5.29c1.06,0,1.76.18,2.29.71s.88,1.06.88,1.95c0,.53-.18,1.06-.35,1.42-.35.35-.71.71-1.23.88.71.18,1.23.53,1.59.88.35.53.53,1.06.53,1.77,0,.35,0,.88-.18,1.24-.18.35-.35.71-.71.88-.35.35-.71.53-1.23.71-.53.18-1.06.18-1.76.18h-4.94v-10.61h-.18Zm1.94,4.42h3.17c.53,0,.88-.18,1.06-.35.35-.18.53-.71.53-1.06,0-.53-.18-.88-.35-1.24-.35-.18-.71-.35-1.23-.35h-3.17v3.01Zm0,4.78h3.35c.53,0,1.06-.18,1.41-.53.35-.35.53-.71.53-1.24s-.18-.88-.53-1.24c-.35-.35-.71-.35-1.41-.35h-3.35v3.36Z"/><path class="cls-2" d="m104.19,174.26h-1.76v-1.06c-.18.35-.53.71-.88.88-.35.18-.88.35-1.23.35-1.06,0-1.76-.18-2.29-.71-.53-.53-.71-1.24-.71-2.3v-4.95h1.76v4.78c0,.71.18,1.24.35,1.42.18.35.71.35,1.06.35s.71,0,.88-.18c.18-.18.35-.18.53-.53.18-.18.18-.35.35-.71,0-.18.18-.53.18-.88v-4.6h1.76v8.14Z"/><path class="cls-2" d="m106.13,163.47h1.76v1.59h-1.76v-1.59Zm0,3.01h1.76v7.96h-1.76v-7.96Z"/><path class="cls-2" d="m111.6,163.47h-1.76v10.97h1.76v-10.97Z"/><path class="cls-2" d="m120.77,174.26h-1.59v-1.06c-.18.53-.53.71-1.06,1.06-.53.18-.88.35-1.41.35-.71,0-1.23-.18-1.59-.35-.53-.18-.88-.53-1.23-.88-.35-.35-.53-.88-.71-1.42-.18-.53-.18-1.06-.18-1.59,0-.71.18-1.24.35-1.77.18-.53.53-.88.71-1.24.18-.35.71-.53,1.06-.71.35-.18.88-.18,1.23-.18h.71c.18,0,.53.18.71.18.18.18.53.18.71.35.18.18.35.35.53.53v-4.07h1.76v10.79Zm-6-3.89c0,.35,0,.71.18,1.06,0,.35.18.53.35.88.18.18.35.53.71.53.35.18.53.18,1.06.18.35,0,.71,0,1.06-.18.35-.18.53-.35.71-.71.18-.18.35-.53.35-.88s.18-.71.18-1.06c0-.88-.18-1.59-.53-2.12-.35-.53-.88-.71-1.59-.71-.35,0-.71,0-1.06.18-.35.18-.53.35-.71.71-.18.35-.35.53-.35.88-.35.53-.35.88-.35,1.24Z"/><path class="cls-2" d="m122.71,163.47h1.76v1.59h-1.76v-1.59Zm0,3.01h1.76v7.96h-1.76v-7.96Z"/><path class="cls-2" d="m126.41,166.48h1.59v1.24c.18-.35.53-.71,1.06-1.06.35-.18.88-.35,1.41-.35.88,0,1.59.18,2.12.71.53.53.71,1.06.71,1.95v5.48h-1.76v-4.95c0-.71-.18-1.06-.35-1.42-.18-.35-.71-.35-1.06-.35s-.53,0-.71.18c-.18.18-.35.18-.53.35-.18.18-.35.35-.35.71-.18.18-.18.53-.18.88v4.6h-1.76v-7.96h-.18Z"/><path class="cls-2" d="m142.29,173.91c0,1.24-.35,2.12-1.06,2.65s-1.59.88-2.82.88c-.35,0-.71,0-1.23-.18-.35,0-.71-.18-1.06-.35-.35-.18-.53-.53-.88-.71-.18-.35-.35-.71-.35-1.24h1.76c0,.18.18.35.18.53.18.18.35.35.35.35.18,0,.35.18.53.18h.71c.71,0,1.23-.18,1.59-.53.35-.35.53-.88.53-1.42v-1.24c-.18.35-.53.71-1.06,1.06-.35.18-.88.35-1.41.35-.71,0-1.23-.18-1.59-.35-.35-.18-.88-.53-1.06-.88-.35-.35-.53-.88-.71-1.24-.18-.53-.18-1.06-.18-1.59s0-1.06.18-1.59c.18-.53.35-.88.71-1.24.35-.35.71-.71,1.06-.88.35-.18.88-.35,1.41-.35s.88.18,1.41.35c.35.18.71.53.88,1.06v-1.06h1.76v7.43h.35Zm-3.7-1.06c.35,0,.71,0,1.06-.18.35-.18.53-.35.71-.71.18-.18.35-.53.35-.88s.18-.71.18-1.06,0-.71-.18-1.06c0-.35-.18-.53-.35-.88-.18-.18-.35-.35-.71-.53-.35-.18-.53-.18-.88-.18s-.71,0-1.06.18c-.18.18-.53.35-.71.71-.18.18-.35.53-.35.88s-.18.71-.18,1.06,0,.71.18.88c0,.35.18.53.35.88.18.18.35.35.71.53.18.35.35.35.88.35Z"/><path class="cls-2" d="m149.87,170.72c0,.35,0,.71.18,1.06s.35.53.53.71c.18.18.53.35.88.35s.71.18,1.06.18.71,0,1.06-.18c.35-.18.53-.18.71-.35s.35-.35.35-.53.18-.35.18-.53c0-.35-.18-.71-.35-.88-.18-.18-.35-.35-.53-.35-.35-.18-.88-.35-1.41-.35-.53-.18-1.06-.35-1.94-.53-.53-.18-.88-.35-1.23-.53-.35-.18-.53-.35-.71-.71-.18-.18-.35-.53-.35-.71,0-.35-.18-.53-.18-.88,0-.53.18-1.06.35-1.42.18-.35.53-.71.88-1.06.35-.18.88-.53,1.23-.53.53-.18.88-.18,1.41-.18s1.06,0,1.59.18c.53.18.88.35,1.41.71.35.35.71.71.88,1.06.18.35.35.88.35,1.42h-1.94c0-.71-.35-1.24-.71-1.42-.35-.35-.88-.35-1.59-.35h-.71c-.18,0-.53.18-.71.18-.18.18-.35.18-.53.35-.18.18-.18.35-.18.71s.18.71.35.88c.18.18.53.35.88.53,0,0,.18,0,.53.18.35,0,.53.18.88.18.35.18.71.18,1.06.35.35,0,.53.18.71.18.35.18.71.35.88.53.18.18.53.35.71.71.18.18.35.53.35.88s.18.53.18.88c0,.53-.18,1.06-.35,1.59-.18.35-.53.71-1.06,1.06-.35.35-.88.53-1.41.53-.53.18-1.06.18-1.59.18-.71,0-1.23,0-1.76-.18-.53-.18-1.06-.35-1.41-.71-.35-.35-.71-.71-1.06-1.24-.18-.53-.35-1.06-.35-1.77h2.47v-.18Z"/><path class="cls-2" d="m161.69,174.44c-.71,0-1.23-.18-1.76-.35-.53-.18-.88-.53-1.23-.88-.35-.35-.53-.88-.71-1.24-.18-.53-.35-1.06-.35-1.59s.18-1.24.35-1.59c.18-.53.35-.88.71-1.24.35-.35.71-.71,1.23-.88.53-.18,1.06-.35,1.76-.35s1.23.18,1.76.35c.53.18.88.53,1.23.88.35.35.53.88.71,1.24.18.53.35,1.06.35,1.59s-.18,1.24-.35,1.59c-.18.53-.35.88-.71,1.24-.35.35-.71.71-1.23.88-.53.35-1.06.35-1.76.35Zm0-1.24c.35,0,.71,0,1.06-.18.35-.18.53-.35.7-.71.18-.18.35-.53.35-.88s.18-.71.18-1.06,0-.71-.18-1.06c0-.35-.18-.71-.35-.88-.18-.18-.35-.53-.7-.71-.35-.18-.53-.18-1.06-.18-.35,0-.71,0-1.06.18-.35.18-.53.35-.71.71-.18.18-.35.53-.35.88s-.18.71-.18,1.06,0,.71.18,1.06c0,.35.18.71.35.88.18.35.35.53.71.71.35,0,.71.18,1.06.18Z"/><path class="cls-2" d="m172.44,169.13c0-.53-.35-.88-.53-1.06-.35-.18-.71-.35-1.23-.35-.18,0-.53,0-.7.18-.18,0-.53.18-.71.35-.18.18-.35.53-.53.88-.18.35-.18.88-.18,1.42,0,.35,0,.71.18,1.06,0,.35.18.53.35.88.18.18.35.53.7.53.35.18.53.18.88.18.53,0,.88-.18,1.23-.53.35-.35.53-.71.53-1.42h1.76c-.18,1.06-.53,1.77-1.23,2.3-.53.53-1.41.88-2.47.88-.53,0-1.23-.18-1.59-.35-.53-.18-.88-.53-1.23-.88-.35-.35-.53-.71-.7-1.24-.18-.53-.18-1.06-.18-1.59s0-1.06.18-1.59c.18-.53.35-.88.7-1.42.35-.35.71-.71,1.23-.88.53-.18,1.06-.35,1.76-.35.53,0,.88,0,1.23.18.35.18.7.35,1.06.53s.53.53.71.88c.18.35.35.71.35,1.24h-1.59v.18Z"/><path class="cls-2" d="m175.62,163.47h1.76v1.59h-1.76v-1.59Zm0,3.01h1.76v7.96h-1.76v-7.96Z"/><path class="cls-2" d="m180.56,170.72c0,.35,0,.53.18.88,0,.35.18.53.35.71.18.18.35.35.71.53s.53.18.88.18c.53,0,.88-.18,1.23-.35.35-.18.53-.53.7-1.06h1.59c-.18.35-.18.88-.53,1.06-.18.35-.53.53-.88.88-.35.18-.71.35-1.06.53-.35.18-.88.18-1.23.18-.71,0-1.23-.18-1.59-.35-.53-.18-.88-.53-1.23-.88-.35-.35-.53-.88-.7-1.24-.18-.53-.18-1.06-.18-1.59s0-1.06.18-1.59c.18-.53.35-.88.7-1.42.35-.35.71-.71,1.23-.88.53-.18,1.06-.35,1.59-.35.7,0,1.23.18,1.59.35.53.18.88.53,1.23,1.06.35.35.53.88.7,1.42.18.53.18,1.06.18,1.77h-5.64v.18Zm4.06-1.06c0-.35,0-.53-.18-.71-.18-.18-.18-.53-.35-.71-.18-.18-.35-.35-.53-.53-.18-.18-.53-.18-.88-.18s-.53,0-.88.18c-.18.18-.53.18-.71.35-.18.18-.35.35-.35.71-.18.18-.18.53-.18.88h4.06Z"/><path class="cls-2" d="m186.91,166.48h1.23v-2.3h1.76v2.3h1.59v1.24h-1.59v4.78q0,.18.18.35c0,.18.18.18.18.18h1.23v1.42h-1.06c-.53,0-.88,0-1.06-.18-.35,0-.53-.18-.71-.35-.18-.18-.18-.35-.35-.71,0-.18-.18-.53-.18-.88v-4.6h-1.23v-1.24Z"/><path class="cls-2" d="m191.84,166.48h1.94l2.12,5.84,1.94-5.84h1.76l-3,8.31c-.18.35-.35.71-.35,1.06-.18.35-.35.53-.53.88-.18.18-.53.53-.7.53-.35.18-.71.18-1.06.18s-.88,0-1.23-.18v-1.42h1.23c.18,0,.18-.18.35-.18,0-.18.18-.18.18-.35s.18-.35.18-.53l.18-.53-3-7.78Z"/><path class="cls-3" d="m52.69,170.72c0,.18,0,.35-.18.53v.18l.18.71-.18.71v3.72l.18.35v1.06l-.18.18v.35c0,.18-.18.53-.35.88l-.18.53q-.18,0-.18.18l-.18.18-.18.35-.53-.18c-.18.35-.35.35-.53.53l-.18.18-.18.18-.18.18h-.18l-.18.18h-.35l-.35.18-.35-.18-.53.18h-.35l-.53-.18h-.35l-.18-.18-.71-.18-.71-.18-.18-.18h-.35l-.18-.35h-.18l-.18-.35-.35-.18-.35-.35-.53-.35v-.35s0-.18-.18-.71c0-.18,0-.35.18-.71v-.18l.18-.18.18-.35.18-.35.35-.18h.18l.53-.35h.53c.18-.18.35-.18.53-.18.35.18.35.35.35.53s0,.18-.18.35l.18.18-.35.18h-.35l-.18.35h-.35l-.18.18-.18.18v.35l-.18.18v.18l.18.35.35.18.18.35.53.35h.35l.35.18h.35l.18.18h.18l.18.18h.88l.53-.18h.35l.35-.18h.35l.18-.18h.18v-.18l.18-.18c0-.18.18-.18.35-.35,0,0,0-.18.18-.35l.35-.18v-.18c0-.18.18-.18.18-.35v-1.06l-.18-.35.18-.18v-1.95l-.18-.18.18-.35v-1.42l-.18-.18.18-.18v-.53l-.18-.35v-.71l.18.35-.18.18-.18.18h-.18v.18l-.35.18-.18.18-.35.35-.53.53h-.18v.18l-.53.53h-.18l-.18.18v.18l-.53.18v.18h-.35l-.35.18h-.35l-.18.18h-.18c-.18.18-.35.18-.71.18s-.71-.18-.88-.35l-.53-.35v-.35l-.18-.71v-.71l.18-.18-.18-.35.18-.18v-1.24c0-.18,0-.53.18-.88v-1.06l-.18-.53v-.35l.18-.53v-.53c.18,0,.35-.18.53-.18h.35l.18.35.35.18c0,.18,0,.35-.18.53l.18.35v.18l.18.18-.18.35.18.53-.18.18-.18.88v.71l-.18.18v.71l-.18.18v.35l.18.35-.18.18v.53l.18.35h.18v.18l.18-.18h.53s.18-.18.35-.18c.35-.18.53-.35.71-.35v-.18c.35-.18.71-.35,1.23-.71v-.18h-.18s.18,0,.18-.18v-.18l.18-.18.18-.18.18-.18h.35l.18-.18h.18l.35-.35.18-.35c.18,0,.18-.18.35-.18l.18-.53v-.53h.18l.18-1.06c0-.18-.18-.18-.18-.35s0-.35.18-.53v-.18c.18-.18.35-.35.71-.35l.53.53v.53l.18.35.18.35v2.3l.18.35Z"/><path class="cls-3" d="m61.69,170.02l-.18.35v1.06l-.18.18v.18l-.18.18-.18.53h-.18v.18l-.18.18-.18.35-.35.18v.18l-.35.18c-.18.18-.35.35-.53.35-.18.18-.35.35-.71.35-.18,0-.35.18-.35.18l-.18.18h-.18l-.18.18h-.35l-.35-.18h-.88l-.35-.35-.35-.35.18-.35-.35-.71.18-.18v-1.24c0-.18,0-.35.18-.53,0-.18.18-.35.18-.53h.18v-.71l.18-.18v-.18c0-.18.18-.35.18-.53l.35-.53s.18,0,.18-.18l.35-.35v-.35l.53-.18c.18-.18.35-.35.35-.53h.18c.18,0,.18-.18.35-.18h.53l.53-.18.18.18.18.18h-.18l.35.18h.18c.18.18.35.35.53.53v.18h.18l.35.53.35.88v.88Zm-1.23.35c-.18-.18-.18-.35-.18-.35v-.18l-.18-.35v-.53q-.18-.18-.18-.35c-.18,0-.18-.18-.18-.35h-.18l-.18-.18-.18-.18-.35-.18h-.35l-.35.35-.18.53-.35.18v.18l-.18.18v.53l-.18.18v.53l-.35.35h.18c0,.18,0,.35-.18.35,0,.18-.18.18-.18.35v.35l-.53.35v1.06l.18.18.18.18h.88v-.18h.53l.18-.18h.18c0-.18.35-.35.53-.35v-.18l.35-.18.18-.35.35-.18v-.18l.18-.18.18-.18v-.18l.18-.18v-.35s.18-.18.18-.35Z"/><path class="cls-3" d="m73.5,173.2c0,.18-.18.35-.35.53h-.18l-.18.18-.35.18-.18.18c-.35.18-.53.18-1.06.18h-.18l-.53-.18-.18-.18-.71-.53-.18-.53-.35-.18v-.18s0-.18-.18-.35v-.53c0-.18,0-.35-.18-.53l.18-.53-.18.53h-.35v.35h-.35l-.18.53-.18.35-.18.18-.71.53-.35.35-.35.18-.18.18-.35.18-.53.18-.35-.18c-.18,0-.35-.18-.53-.35l-.18-.18v-.35l-.35-.18v-.18l-.35-.18v-1.95l.18-.18v-.71l.18-1.24c0-.18,0-.53-.18-.88,0-.35.35-.53.71-.71h.35l.35.35-.18.53v1.42l-.18.18v.18l.18.18v1.77c.18,0,.18.18.18.35s0,.18-.18.35c0,.18.18.35.18.35l.18.18s.18-.18.35-.18c0-.18.18-.18.35-.18v-.18h.35v-.18l.35-.18s.18-.18.35-.18l.35-.18c0-.18.18-.35.53-.53q.18-.18.35-.18l.18-.35h.18l.18-.18.35-.18.18-.18v-.18h.18c0-.18.18-.35.35-.53l.35-.71.18-.35.18-.18h-.18c.18-.18.18-.53.35-.71h.53l.35.35.18.35-.18.88-.35.35-.18.71-.18.18v-.35l-.35.18v.35l-.18.18v1.42h.18v.53l.18.35.18.18v.18s.18,0,.35.18h.88l.53-.18h.35c.53-.53.71-.35.71,0Z"/><path class="cls-3" d="m81.62,167.36l-.18.71h-.71l-.35.18-.18-.18-.18.18-.35.18-.18.18-.35.18-.18.35h-.18l-.35.35-.18.35h-.18q0,.18-.18.53l-.53.18v.35l-.18.18v.35h-.18v.18s0,.18.18.18l-.35.18v.18l-.18.35.18.18-.18.35v.53l.35.35-.18.35-.18.18-.53.18-.71-.35v-1.95s-.18-.18-.18-.35,0-.18.18-.35v-1.42l-.18-.18v-1.59l-.18-.18.18-.35v-.88s-.18-.18-.18-.35.35-.53.88-.71l.53.18.18.35.18.18v.53c0,.18,0,.53.18.88v.53s0,.18-.18.18v1.06s.18-.18.18-.35v-.35l.18-.18v-.35l.18-.18v-.18l.18-.18.18-.35c.18-.18.35-.35.53-.35l.18-.18h.18v-.18l.18-.18.18-.18h.35v-.18l.18-.18.35-.18.53-.18h.88c.18,1.06.35,1.24.35,1.42Z"/></svg>