<?xml version="1.0" encoding="UTF-8"?><svg id="Layer_1" xmlns="http://www.w3.org/2000/svg" viewBox="0 0 256 256"><defs><style>.cls-1{fill:#004136;}.cls-2{fill:#fff;}.cls-3{fill:#abab7c;}.cls-4{fill:#83a9a3;}</style></defs><rect class="cls-2" y="0" width="256" height="256"/><g><path class="cls-3" d="m123.2,57.26l-23.07,42.29-36.77-21.25,15.95-27.32c5.83-8.98,25.09-26.02,37.84-3.92l6.05,10.21Z"/><path class="cls-3" d="m105.44,28.97c7.74.01,13.05.47,18.88,10.59l20.19,34.07-17.65,11.9,51.57-1.47,22.78-42.9-19.8,10.06-7.74-12.32c-6.37-9.2-16.24-10.29-21.23-9.91h-47.01Z"/><path class="cls-3" d="m80.97,162.5l48.16-1.16-.02,42.46-31.64-.15c-10.69-.56-35.08-8.72-22.31-30.81l5.81-10.34Z"/><path class="cls-3" d="m65.34,192.03c-3.86-6.71-6.12-11.53-.27-21.65l19.41-34.52,19.13,9.33-27.06-43.93-48.55,1.72,18.61,12.12-6.8,12.87c-4.78,10.11-.79,19.21,2.04,23.33l23.5,40.72Z"/><path class="cls-3" d="m194.62,151.46l-25.09-41.13,36.78-21.21,15.69,27.48c4.86,9.54,9.99,34.74-15.52,34.72l-11.86.14Z"/><path class="cls-3" d="m228,150.23c-3.88,6.7-6.93,11.07-18.61,11.06l-39.6.45-1.48-21.23-24.51,45.4,25.77,41.18,1.19-22.17,14.54-.55c11.15-.91,17.03-8.91,19.19-13.43l23.51-40.71Z"/><polygon class="cls-1" points="123.41 92.62 135.91 108.95 163.28 108.95 146.91 92.66 123.41 92.62"/><rect class="cls-1" x="138.28" y="113.79" width="27.31" height="26.6"/><polygon class="cls-4" points="104.32 140.43 132.97 140.43 132.98 114.08 118.63 95.13 104.32 113.97 104.32 140.43"/></g></svg>