<?xml version="1.0" encoding="UTF-8"?><svg id="Layer_1" xmlns="http://www.w3.org/2000/svg" viewBox="0 0 256 256"><defs><style>.cls-1{fill:#fff;}.cls-2{fill:#e5007d;}</style></defs><rect class="cls-1" y="0" width="256" height="256"/><g id="_-04.-Navigation"><g id="_04.-Navigation_01.-Mobile_01.-Header__new-open"><g id="Logo"><path id="Shape" class="cls-2" d="m103.3,153.38h1.51c.9,0,1.51-.15,1.51-.9s-.45-.9-1.51-.9h-1.51v1.81h0Zm0-3.01h1.51c.75,0,1.2-.15,1.2-.75s-.45-.75-1.2-.75h-1.51v1.51Zm1.51-2.56c.75,0,1.2,0,1.81.15s.9.75.9,1.36c0,.75-.45,1.36-1.36,1.51,1.05,0,1.66.75,1.66,1.51,0,1.2-.75,1.81-2.41,1.81h-3.61c.15-1.05.15-2.11.15-2.86v-.45c0-.9,0-1.96-.15-3.16l3.01.15h0Z"/><path id="Path" class="cls-2" d="m112.04,147.8c.15,0,.45,0,.75-.15-.15.45-.15,1.36-.15,2.26v1.66c0,1.2.3,1.81,1.36,1.81s1.51-.6,1.51-1.81v-1.66c0-.75,0-1.51-.15-2.26.3,0,.45.15.75.15.15,0,.45,0,.75-.15-.15,2.71.15,4.52-.45,5.57-.45.75-1.36,1.36-2.56,1.36s-2.11-.6-2.41-1.51c-.45-1.05-.15-2.71-.3-5.27.45,0,.75,0,.9,0"/><path id="Path-2" class="cls-2" d="m121.52,147.8c.15,0,.45,0,.75-.15-.15,1.36-.15,2.41-.15,3.31v.45c0,.75,0,1.81.15,2.71-.3,0-.45-.15-.75-.15-.15,0-.45,0-.75.15.15-1.05.15-1.96.15-2.71v-.45c0-.9,0-2.11-.15-3.31.3.15.45.15.75.15"/><path id="Path-3" class="cls-2" d="m127.1,147.8c.15,0,.45,0,.6-.15,0,.6-.15,1.2-.15,1.66v3.92h3.01v1.05c-.45,0-1.51-.15-2.86-.15h-1.81c.15-1.2.15-2.41.15-3.31s0-2.11-.15-3.31c.6.3.9.3,1.2.3"/><path id="Shape-2" class="cls-2" d="m135.38,153.38h.6c1.66,0,2.41-.75,2.41-2.26s-.75-2.26-2.41-2.26h-.6v4.52Zm.45-5.57c.9,0,1.81,0,2.56.45,1.05.45,1.51,1.51,1.51,2.86,0,1.05-.45,2.11-1.2,2.56s-1.66.75-2.86.75h-1.96c0-1.2.15-2.41.15-3.31s0-1.96-.15-3.31h1.96Z"/><path id="Path-4" class="cls-2" d="m144.11,147.8c.15,0,.45,0,.75-.15-.15,1.36-.15,2.41-.15,3.31v.45c0,.75,0,1.81.15,2.71-.3,0-.45-.15-.75-.15-.15,0-.45,0-.75.15.15-1.05.15-1.96.15-2.71v-.45c0-.9,0-2.11-.15-3.31.3.15.6.15.75.15"/><path id="Path-5" class="cls-2" d="m149.69,147.8c.3,0,.6,0,.9-.15l2.86,4.82c0-1.51,0-3.01-.15-4.82.3,0,.45.15.75.15.15,0,.45,0,.75-.15v6.63c-.3,0-.6-.15-.75-.15-.3,0-.6,0-.9.15l-3.01-5.12v1.51c0,1.51,0,2.71.15,3.61-.15,0-.45-.15-.75-.15s-.45,0-.75.15c.15-1.2.15-2.11.15-2.86v-.45c0-.9,0-1.96-.15-3.31.15.15.45.15.9.15"/><path id="Path-6" class="cls-2" d="m161.89,154.58c-2.11,0-3.61-1.36-3.61-3.31s1.51-3.46,3.61-3.46c.75,0,1.36.15,2.11.45v1.2c-.6-.45-1.2-.6-1.81-.6-1.51,0-2.41,1.05-2.41,2.41s.9,2.41,2.11,2.41c.45,0,.75-.15,1.05-.3v-1.81h-1.05v-.9h2.86c0,.45-.15,1.05-.15,1.36v1.96c-.9.3-1.66.6-2.71.6"/><path id="Path-7" class="cls-2" d="m178.3,149.31c-.6-.45-1.36-.6-2.11-.6-.9,0-1.36.3-1.36.75,0,.75.9.75,2.11,1.05,1.05.3,1.51.75,1.51,1.81,0,1.36-1.05,2.11-2.86,2.11-.75,0-1.51-.15-2.11-.45v-1.05c.6.45,1.36.6,2.11.6,1.05,0,1.51-.45,1.51-.9,0-.75-.75-.75-1.66-1.05-.75-.15-1.2-.45-1.36-.45-.45-.3-.6-.75-.6-1.36,0-1.05,1.05-2.11,2.86-2.11.75,0,1.36.15,2.11.45v1.2h-.15Z"/><path id="Shape-3" class="cls-2" d="m182.82,151.12c0,1.51.75,2.41,1.96,2.41s1.96-.9,1.96-2.41-.75-2.41-1.96-2.41-1.96,1.05-1.96,2.41m5.57,0c0,1.96-1.51,3.46-3.46,3.46s-3.46-1.51-3.46-3.46,1.51-3.46,3.46-3.46c1.81,0,3.46,1.51,3.46,3.46"/><path id="Path-8" class="cls-2" d="m195.92,149.31c-.45-.3-1.05-.45-1.66-.45-1.2,0-2.11.9-2.11,2.41s.75,2.41,2.11,2.41c.6,0,1.2-.15,1.66-.45v1.2c-.45.3-1.2.45-1.81.45-2.11,0-3.46-1.36-3.46-3.31,0-2.11,1.51-3.61,3.46-3.61.6,0,1.2.15,1.81.45v.9h0Z"/><path id="Path-9" class="cls-2" d="m200.44,147.8c.15,0,.45,0,.75-.15-.15,1.36-.15,2.41-.15,3.31v.45c0,.75,0,1.81.15,2.71-.3,0-.45-.15-.75-.15-.15,0-.45,0-.75.15.15-1.05.15-1.96.15-2.71v-.45c0-.9,0-2.11-.15-3.31.3.15.6.15.75.15"/><path id="Path-10" class="cls-2" d="m210.23,149.01h-3.46v1.51h3.31v1.05h-3.31v1.66h3.46v1.05h-5.12c.15-1.36.15-2.41.15-3.31s0-1.96-.15-3.31h1.66c1.66,0,2.71,0,3.16-.15l.3,1.51h0Z"/><path id="Path-11" class="cls-2" d="m214.45,147.8h4.22v1.05h-1.81v2.71c0,.75,0,1.81.15,2.71-.3,0-.45-.15-.75-.15-.15,0-.45,0-.75.15.15-1.05.15-1.96.15-2.71v-2.71h-1.96v-1.05h.75"/><path id="Path-12" class="cls-2" d="m222.28,147.8h.75c0,.15.45,1.05,1.36,3.01.9-1.96,1.36-3.01,1.36-3.01h1.51c-.3.6-.6,1.05-.75,1.51l-1.51,3.01v2.11h-1.51v-2.11l-1.51-3.01c-.15-.3-.45-.75-.75-1.51.6,0,.9,0,1.05,0"/><path id="Path-13" class="cls-2" d="m52.55,106.99c0,.6-.45.9-.75.9h-10.09c-2.86,0-3.77.45-3.77,3.31v6.17h12.8v1.81h-12.8v22.59h-1.51c-1.81,0-3.16-1.05-3.46-3.16v-25.3c-.3-4.07-1.81-6.02-4.97-6.33v-.75h23.64c.45,0,.9.45.9.75"/><path id="Path-14" class="cls-2" d="m71.22,138.02c-1.81,2.11-3.16,4.22-7.08,4.22-5.12,0-6.78-3.31-6.78-10.39v-7.53c-.15-3.92-1.36-5.87-4.07-6.17v-.75h8.58v15.36c0,4.37,1.51,6.48,4.82,6.48s6.17-3.77,6.17-9.19v-12.65h4.52v18.07c-2.86.3-4.82.9-6.17,2.56"/><path id="Path-15" class="cls-2" d="m94.42,122.05h0c-1.2,0-1.81-1.36-3.31-1.36-1.96,0-4.52,3.61-4.52,9.34v11.6h-1.36c-1.96,0-3.16-1.36-3.16-4.07v-20.03h4.67v6.33h.45c1.36-4.52,3.77-6.93,6.63-6.93,1.66,0,2.86.75,3.31,2.41l-2.71,2.71Z"/><path id="Path-16" class="cls-2" d="m154.81,142.08c3.16-1.51,4.52-3.01,4.52-5.27,0-3.16-3.16-4.22-7.08-6.48-3.31-1.96-4.82-3.61-4.82-6.33,0-4.22,3.46-7.08,8.28-7.08,1.96,0,3.77.15,6.02,1.05v3.92h-.45c-.45-2.41-2.11-3.77-5.12-3.77s-4.67,1.66-4.67,3.92c0,1.51,1.51,3.01,4.37,4.67,4.22,2.56,7.38,3.92,7.38,8.28s-3.16,7.08-8.43,7.08"/><path id="Path-17" class="cls-2" d="m171.83,142.08c3.16-1.51,4.52-3.01,4.52-5.27,0-3.16-3.16-4.22-7.08-6.48-3.31-1.96-4.82-3.61-4.82-6.33,0-4.22,3.46-7.08,8.28-7.08,1.96,0,3.77.15,6.02,1.05v3.92h-.45c-.45-2.41-2.11-3.77-5.12-3.77s-4.67,1.66-4.67,3.92c0,1.51,1.51,3.01,4.37,4.67,4.22,2.56,7.38,3.92,7.38,8.28.15,4.37-3.16,7.08-8.43,7.08"/><path id="Path-18" class="cls-2" d="m101.64,123.86c-.3-3.46-1.36-5.27-4.07-5.57v-.75h8.73v6.33h.6c2.41-4.67,5.12-6.93,9.04-6.93s5.72,2.26,5.72,6.93v12.65c0,3.31.75,4.52,3.77,4.52h.15l-.15.45h-4.97c-2.26,0-3.46-1.36-3.46-3.92v-9.34c0-5.87-.6-8.43-3.77-8.43-1.2,0-2.41.6-3.46,1.96-2.11,2.41-3.31,5.27-3.31,7.23v12.65h-1.36c-1.96,0-3.16-1.36-3.16-4.07l-.3-13.7h0Z"/><path id="Path-19" class="cls-2" d="m132.82,126.72v-.45c0-.6.45-.9,1.2-.9h3.31c2.26,0,3.31-.45,3.31-1.96,0-2.71-2.11-5.27-4.97-5.27-3.16,0-5.12,2.41-5.42,7.23,0,0-.15,1.51-.15,4.07,0,2.26.75,5.12,2.11,6.93,1.81,2.86,4.52,4.22,8.13,4.22,1.2,0,2.41,0,4.07-.6q.15-.15.3-.15c.15,0,.45.15.45.3v.15c0,.3-.15.45-.45.45-2.26.75-4.52,1.2-6.93,1.2-7.98,0-12.8-4.97-12.8-13.1s3.77-12.05,10.84-12.05c5.72,0,9.34,3.61,9.34,6.93,0,1.51-1.2,2.71-3.31,2.71l-9.04.3h0Z"/><path id="Shape-4" class="cls-2" d="m226.49,122.2c-1.05,6.02-6.33,13.55-14.16,19.88,3.61-.75,8.43-2.26,12.8-6.02,3.46-3.16,3.61-8.28,1.36-13.86m-19.73-21.08h0c-4.07,2.71-7.83,5.57-10.84,8.73,5.72-2.56,11.14-2.41,11.14-2.41,0,0,4.82-.15,10.39,2.11-3.16-3.01-6.78-5.87-10.69-8.43m-19.43,20.48c-2.71,5.87-2.56,11.3,1.2,14.46,4.52,3.92,9.64,5.42,13.25,6.17-8.43-6.63-13.7-14.46-14.46-20.63"/><path id="Path-20" class="cls-2" d="m200.89,121.75s2.11-6.17,7.38-3.31c0,0,3.46,2.26,1.96,7.83-1.51,5.42-2.26,9.19-2.41,10.69,0,0-.45,3.01-2.41,2.11,0,0-.6-.15-1.2-1.66-.45-1.51-.6-7.83-1.36-9.64-.6-1.66-3.16-3.01-1.96-6.02"/><path id="Path-21" class="cls-2" d="m220.17,121.15s-2.71-5.27-6.17-2.71c0,0-2.26,1.81-.45,6.17,2.11,5.27,1.2,8.13,1.2,9.34,0,0-.15,1.2,1.2,1.51,0,0,.75.15,1.2-1.2s.75-6.93,1.36-8.43c.3-1.2,2.56-2.11,1.66-4.67"/><path id="Path-22" class="cls-2" d="m193.21,120.09s1.66-3.16,4.82-1.66c0,0,1.66,1.66.6,4.37-1.05,2.86-1.2,4.52-1.2,5.27,0,0-.45,1.2-1.51.9,0,0-.45.15-.75-.75-.3-.75-.15-4.37-.6-5.27-.3-.75-2.26-1.2-1.36-2.86"/><path id="Path-23" class="cls-2" d="m208.87,114.37c.45,1.66-.6,3.31-2.41,3.61-1.66.45-3.46-.45-3.77-2.11-.45-1.66.6-3.31,2.41-3.61,1.81-.45,3.46.45,3.77,2.11"/><path id="Path-24" class="cls-2" d="m214.45,113.77c1.05-1.05,2.86-1.05,3.92,0,1.2,1.05,1.2,2.71.15,3.92-1.05,1.05-2.86,1.05-3.92,0-1.05-1.2-1.05-3.01-.15-3.92"/><path id="Path-25" class="cls-2" d="m198.48,116.33c0,1.2-1.05,2.26-2.26,2.26s-2.26-1.05-2.26-2.26,1.05-2.26,2.26-2.26,2.26.9,2.26,2.26"/><path id="Shape-5" class="cls-2" d="m225.59,138.02c1.2,0,1.96.9,1.96,1.96s-.75,1.96-1.96,1.96-1.96-.9-1.96-1.96.9-1.96,1.96-1.96h0Zm0,.3c-.9,0-1.66.75-1.66,1.66s.75,1.66,1.66,1.66,1.51-.75,1.51-1.66c.15-1.05-.6-1.66-1.51-1.66h0Zm-.3,2.86h-.3v-2.26c.15,0,.45-.15.6-.15.3,0,.45.15.75.15q.15.15.15.45c0,.3-.15.45-.45.45h0c.15,0,.3.15.45.45s.15.45.15.45h-.45c0-.15-.15-.3-.15-.6-.15-.3-.15-.45-.45-.45h-.15l-.15,1.51h0Zm0-1.36h.15c.3,0,.45-.15.45-.45,0-.15-.15-.45-.45-.45h-.15v.9Z"/></g></g></g></svg>