<?xml version="1.0" encoding="UTF-8"?><svg id="Layer_1" xmlns="http://www.w3.org/2000/svg" viewBox="0 0 256 256"><defs><style>.cls-1{fill:#fff;}.cls-2{fill:#135a7e;}</style></defs><rect class="cls-1" y="0" width="256" height="256"/><g><path class="cls-2" d="m227.03,114.18c-.57,9.31-2.46,20.18-6.71,29.76-14.23,32.22-47.04,44.27-71.15,44.27-44.27,0-77.67-34.59-77.67-76.68s35.18-75.3,78.26-75.3c10.25,0,20.06,2.07,29.03,5.63-14.89-8.8-32.24-13.86-50.79-13.86-55.24,0-100,44.77-100,100s44.77,100,100,100,100-44.77,100-100c0-4.69-.35-9.3-.97-13.83Z"/><path class="cls-2" d="m224.58,102.04c-1.3-4.83-2.94-9.52-4.92-14.03h-38.68c-1.98-3.56-4.55-6.92-7.71-9.88-6.12-5.34-14.23-9.09-24.51-9.09-18.38,0-39.92,13.64-39.92,42.49,0,30.63,21.74,43.87,40.12,43.87,9.29,0,17-2.37,22.93-6.52,5.93-3.95,10.08-9.88,12.06-17h-43.68v-29.84h84.31Z"/></g></svg>