<?xml version="1.0" encoding="UTF-8"?><svg id="Layer_1" xmlns="http://www.w3.org/2000/svg" viewBox="0 0 256 256"><defs><style>.cls-1{fill:#004995;}.cls-2{fill:#fff;}.cls-3{fill:#65b22e;}.cls-4{fill:#868686;}</style></defs><rect class="cls-2" y="0" width="256" height="256"/><g><path class="cls-4" d="m54.67,199.55c-16.55-17.9-26.67-41.87-26.67-68.21V35.02c0-5.89,4.8-10.7,10.67-10.7h16v175.23Z"/><path class="cls-1" d="m174.67,144.72c0-25.86-20.89-46.82-46.67-46.82s-46.67,20.96-46.67,46.82v75.38c13.93,7.39,29.81,11.58,46.67,11.58s32.73-4.19,46.67-11.58v-75.38Z"/><path class="cls-3" d="m217.33,24.32H81.33v63.64c.1-.08.2-.16.3-.24.76-.62,1.53-1.23,2.31-1.82.32-.24.64-.47.96-.7.58-.42,1.16-.84,1.75-1.25.37-.25.75-.5,1.12-.75.56-.37,1.12-.73,1.68-1.08.4-.24.79-.48,1.19-.72.57-.34,1.14-.66,1.71-.99.41-.23.81-.45,1.22-.67.6-.32,1.2-.62,1.8-.93.4-.2.8-.4,1.2-.59.67-.32,1.34-.62,2.02-.92.35-.15.69-.31,1.04-.46,1.03-.44,2.07-.85,3.13-1.24.06-.02.11-.04.17-.06,1-.37,2.02-.71,3.04-1.03.36-.12.74-.22,1.1-.33.72-.21,1.45-.43,2.18-.62.43-.12.87-.22,1.3-.32.68-.17,1.36-.33,2.05-.47.46-.1.91-.19,1.37-.28.68-.13,1.37-.25,2.06-.37.46-.08.92-.15,1.39-.22.71-.1,1.42-.19,2.14-.27.45-.05.89-.11,1.34-.15.79-.08,1.58-.13,2.37-.18.38-.03.77-.06,1.15-.08,1.18-.06,2.36-.09,3.56-.09,40.5,0,73.33,32.94,73.33,73.58v54.83c16.55-17.9,26.67-41.87,26.67-68.21V35.02c0-5.89-4.8-10.7-10.67-10.7"/><path class="cls-2" d="m102.23,200.27c0-.62.49-1.11,1.13-1.11s1.15.48,1.15,1.11v11.89c0,.62-.53,1.11-1.15,1.11s-1.13-.48-1.13-1.11v-11.89Z"/><path class="cls-2" d="m121.2,208.48c0,2.64-2.19,4.8-4.87,4.8s-4.91-2.16-4.91-4.8c0-1.67.86-3.14,2.19-4.01-.43-.54-.68-1.25-.68-1.99,0-1.81,1.52-3.31,3.4-3.31s3.36,1.49,3.36,3.31c0,.75-.25,1.45-.68,1.99,1.31.87,2.19,2.34,2.19,4.01m-2.23,0c0-1.43-1.19-2.62-2.64-2.62s-2.66,1.19-2.68,2.62c.02,1.43,1.21,2.6,2.68,2.6s2.64-1.17,2.64-2.6m-3.81-6.01c0,.62.51,1.15,1.17,1.15.61,0,1.13-.52,1.13-1.15s-.51-1.11-1.13-1.11c-.65,0-1.17.51-1.17,1.11"/><path class="cls-2" d="m136.15,204.73c1,.97,1.49,2.26,1.49,3.55s-.51,2.56-1.49,3.53c-.98.99-2.29,1.47-3.58,1.47h-.04c-1.27,0-2.6-.48-3.56-1.47-.47-.42-.47-1.15,0-1.61.43-.44,1.19-.44,1.64,0,.53.55,1.23.81,1.96.81.69,0,1.41-.26,1.94-.81.53-.52.82-1.23.82-1.91,0-.72-.27-1.41-.82-1.94-.53-.54-1.23-.79-1.94-.79s-1.43.24-1.96.79c-.45.44-1.19.44-1.64,0-.08-.08-.14-.18-.23-.26,0-.04,0-.06-.02-.06,0-.04-.02-.08-.04-.1,0-.06-.02-.1-.02-.14,0-.02-.02-.02-.02-.04-.02-.12-.02-.24,0-.34l.61-5.22c.06-.34.25-.62.51-.81.04-.02.06-.02.08-.04.02-.02.04-.02.06-.04.16-.08.33-.12.53-.12h6.04c.65,0,1.17.5,1.17,1.15,0,.61-.51,1.13-1.17,1.13h-5.03l-.25,2c.45-.12.92-.18,1.37-.18,1.29,0,2.6.48,3.58,1.47"/><path class="cls-2" d="m154.99,209.52c0,.63-.51,1.11-1.15,1.11h-.2v1.53c0,.62-.49,1.11-1.13,1.11s-1.13-.48-1.13-1.11v-1.53h-6.45c-.24,0-.49-.06-.7-.24-.51-.38-.57-1.07-.18-1.55l7.57-9.27s.02-.02.04-.04c.02-.02.04-.04.06-.08.06-.02.08-.04.1-.06.02-.02.06-.04.08-.06.04-.02.06-.04.12-.04.02-.04.04-.06.08-.06.02-.02.06-.02.12-.04.02,0,.06,0,.08-.02h.35s.06.02.1.02c.02.02.08.02.13.04.02,0,.06.02.08.02.04.04.08.06.1.08.04.02.06.04.1.06,0,0,.02,0,.02.02.02,0,.06.02.06.04.04.04.06.06.08.08.02.02.04.06.06.08.02.02.04.04.08.1,0,.02.02.06.04.08.02.04.02.06.04.12,0,.02.02.06.02.08.02.04.02.06.02.12,0,.04.02.06.02.1v8.2h.2c.63,0,1.15.51,1.15,1.11m-3.6-6.09l-4.07,4.98h4.07v-4.98Z"/></g></svg>