<?xml version="1.0" encoding="UTF-8"?><svg id="Layer_1" xmlns="http://www.w3.org/2000/svg" viewBox="0 0 256 256"><defs><style>.cls-1{fill:#b5c04e;}.cls-2{fill:#6d838f;}</style></defs><path class="cls-2" d="m80.7,69.54h11.01v77.1h-11.01v-33.58h-41.59v33.58h-11.01v-77.1h11.01v33.33h41.55v-33.33h.03Z"/><path class="cls-2" d="m165.36,146.65v-77.1l22.36-.1c7.84,0,14.05,1.93,18.64,5.79,4.59,3.86,6.9,9.09,6.9,15.67,0,4.48-1.14,8.37-3.38,11.64-2.24,3.27-5.49,5.72-9.7,7.33,2.48,1.62,4.9,3.82,7.28,6.65,2.38,2.79,5.69,7.68,9.97,14.64,2.69,4.37,4.87,7.68,6.49,9.88l4.11,5.51h-13.18l-3.38-5.1c-.1-.17-.35-.48-.66-.93l-2.14-3.03-3.42-5.65-3.69-6.03c-2.28-3.17-4.38-5.68-6.28-7.58-1.9-1.86-3.62-3.24-5.18-4.06-1.55-.83-4.14-1.24-7.76-1.24l-5.87.1v33.58h-11.11v.03Zm17.32-67.84l-6.28.1v24.31l7.18-.1c5.63,0,9.46-.48,11.56-1.45,2.11-.96,3.73-2.41,4.87-4.34,1.17-1.93,1.76-4.13,1.76-6.58s-.66-4.61-1.93-6.58c-1.31-1.96-3.11-3.34-5.45-4.17-2.38-.79-6.28-1.21-11.7-1.21Z"/><path class="cls-1" d="m176.34,146.75h-9.84c-7.45,0-9.84-.69-20.91-9.44-2.31,2.31-10.25,10.85-25.13,10.85-17.6,0-24.43-13.43-24.43-22.18,0-11.74,7.52-19.56,15.39-24.17-3.73-5.2-4.94-9.33-4.94-13.84,0-7.92,8.14-18.46,21.6-18.46,5.14,0,10.25.9,12.94,2.41,1.21.69,1.28.62,1.31,2.51.03,3,.41,8.82.41,11.05,0,1.55.1,3.24-.07,3.17,0,0-1.04-2.55-1.24-3.17-1.35-4.34-4-7.2-4.14-7.37-1.93-2.55-6.8-5.2-11.22-5.2-6.04,0-12.77,3.72-12.77,13.15,0,7.82,5.42,14.36,15.88,25.69,3.42,3.72,15.77,15.26,19.02,17.94,2.83-3.82,5.14-10.54,5.14-16.67,0-1.52-.41-3.41-1.9-4.92-1.31-1.31-3.93-1.96-5.38-2.27-1.1-.24-2.9-.76-2.9-.76h3.76c2.42,0,6.73.07,12.7.21,1.52.03,2.35.17,2.35.17,0,8.13-6.73,20.56-11.15,25.96,6.63,5.61,11.04,8.33,13.87,9.92,3.21,1.89,8.11,5.2,11.73,5.2l-.1.21Zm-33.37-11.33c-5.63-4.61-15.6-14.15-18.19-16.94-2.62-2.82-9.04-9.92-11.87-14.05-5.21,3.41-9.04,8.82-9.04,16.84,0,12.53,8.84,21.56,20.12,21.56,9.32,0,15.57-3.89,18.98-7.4Z"/><path class="cls-2" d="m37.04,162.38h-6.83v-5.58h-2.21v13.15h2.21v-5.58h6.83v5.58h2.21v-13.15h-2.21v5.58Z"/><path class="cls-2" d="m43.94,156.81h-2.21v13.19h2.21v-13.19Z"/><path class="cls-2" d="m56.61,166.45l-8.49-9.64h-1.73v13.15h2.11v-9.57l8.35,9.57h1.83v-13.15h-2.07v9.64Z"/><path class="cls-2" d="m67.93,168.1c-3,0-5.04-1.89-5.04-4.72s2.07-4.75,4.97-4.75c1.45,0,2.8.41,4.35,1.31l.28.14v-2.38l-.1-.03c-1.79-.76-3.14-1.07-4.49-1.07-4.18,0-7.21,2.93-7.21,6.96,0,2.55,1.93,6.58,7.11,6.58,2.24,0,3.66-.59,4.73-1.14l.1-.03v-2.44l-.28.17c-1.41.9-3,1.41-4.42,1.41Z"/><path class="cls-2" d="m84.64,156.81h-2.76l-5.18,5.58v-5.58h-2.17v13.15h2.17v-6.1l6.32,6.1h3.04l-7.14-6.92,5.73-6.23Z"/><path class="cls-2" d="m89.05,156.81h-2.17v13.15h8.01v-2h-5.83v-11.16Z"/><path class="cls-2" d="m98.34,164.31h5.25v-2h-5.25v-3.51h5.45v-2h-7.66v13.15h7.83v-2h-5.63v-3.65Z"/><path class="cls-2" d="m110,161.11l-3.38-4.3h-2.66l4.97,6.27v6.89h2.17v-6.89l4.97-6.27h-2.66l-3.42,4.3Z"/><path class="cls-2" d="m126.4,156.7l-6.11,13.26h1.42l2.04-4.44h6.07l2.04,4.44h1.41l-6.11-13.26h-.76Zm2.86,7.64h-4.97l2.48-5.44,2.48,5.44Z"/><path class="cls-2" d="m144.79,167.72l-9.53-10.92h-1.1v13.15h1.35v-10.92l9.53,10.92h1.1v-13.15h-1.35v10.92Z"/><path class="cls-2" d="m153.25,156.81h-4.69v13.19h4.87c2.35,0,4.25-.76,5.45-2.17,1-1.14,1.55-2.72,1.55-4.44,0-4.86-3.73-6.58-7.18-6.58Zm5.76,6.58c0,3.72-2.93,5.41-5.66,5.41h-3.45v-10.85h3.38c3.38.03,5.73,2.24,5.73,5.44Z"/><path class="cls-2" d="m173.85,167.17l-.03-.07c-.9-1.48-1.59-2.58-2.62-3.37,1.28-.62,1.97-1.72,1.97-3.17,0-2.31-1.69-3.75-4.38-3.75h-3.42v13.19h2.21v-5.58h.59c.83,0,1.55.21,3.28,2.86l1.76,2.72h2.62l-.38-.52c-.79-1.07-1.11-1.48-1.59-2.31Zm-2.93-6.68c0,.55-.14,1-.45,1.31-.38.41-1.04.59-1.9.59h-1v-3.68h1c1.55,0,2.31.59,2.35,1.79Z"/><path class="cls-2" d="m185.86,164.45c0,1-.1,2.03-.76,2.69-.38.38-1.24,1-2.9,1-1.07,0-1.93-.34-2.66-1.03-.55-.55-.72-1.14-.72-2.51v-7.75h-2.21v8.16c0,2.41,1.45,5.2,5.52,5.2,3.73,0,5.9-1.96,5.9-5.37v-7.95h-2.21v7.58h.03Z"/><path class="cls-2" d="m197.97,165.31h2.48v2.34c-.76.24-1.66.45-2.62.45-2.97,0-5.04-1.93-5.04-4.72s2.11-4.75,4.8-4.75c1.52,0,3.04.41,4.52,1.24l.24.14v-2.27l-.1-.03c-2-.86-3.11-1.1-4.66-1.1-4.04,0-7.08,2.93-7.08,6.82s2.97,6.68,7.01,6.68c1.79,0,3.24-.31,4.97-1.07l.1-.03v-5.72h-4.66v2.03h.03Z"/><path class="cls-2" d="m212.09,162.97c1.14-.59,1.66-1.45,1.66-2.72,0-1.72-1.28-3.44-4.14-3.44h-3.87v13.19h4.59c3.18,0,4.59-1.79,4.59-3.58-.03-1.69-1.07-3-2.83-3.44Zm-3.11-.69h-1.07v-3.48h1.52c1.38,0,2.07.55,2.07,1.62,0,1.27-.79,1.86-2.52,1.86Zm3.66,3.82c0,.69-.34,1.86-2.59,1.86h-2.14v-3.68h2.04c1.73,0,2.69.69,2.69,1.83Z"/><path class="cls-2" d="m224.93,156.81l-3.38,4.3-3.38-4.3h-2.66l4.97,6.27v6.89h2.17v-6.89l4.97-6.27h-2.69Z"/><path class="cls-1" d="m34.35,181.15c.72-.41,1.14-1.1,1.14-1.86,0-1.17-1-2.44-3.21-2.44h-4.14v9.57h4.66c3.18,0,3.42-2.17,3.42-2.82,0-1.17-.69-2.07-1.86-2.44Zm-.79,2.31c0,.65-.28,1.07-1.66,1.07h-1.28v-2.03h1.55c.66,0,1.38.24,1.38.96Zm-2.93-2.86v-1.83h1.14c.83,0,1.1.48,1.1.9s-.28.93-1.1.93h-1.14Z"/><path class="cls-1" d="m44.46,182.19c0,1.41-.86,2.24-2.31,2.24s-2.24-.83-2.24-2.07v-5.48h-2.52v5.44c0,2.72,1.76,4.27,4.8,4.27s4.8-1.52,4.8-4.27v-5.41h-2.52v5.27Z"/><path class="cls-1" d="m51.43,176.85h-2.52v9.57h2.52v-9.57Z"/><path class="cls-1" d="m55.96,176.85h-2.52v9.57h7.35v-1.89h-4.83v-7.68Z"/><path class="cls-1" d="m66.17,176.85h-4.24v9.57h3.97c3.52,0,5.56-1.72,5.56-4.75s-2.07-4.82-5.28-4.82Zm-1.73,1.89h1.42c1.9,0,3,1.07,3,2.89,0,2.69-2.28,2.89-2.97,2.89h-1.45v-5.79Z"/><path class="cls-1" d="m75.59,176.85h-2.52v9.57h2.52v-9.57Z"/><path class="cls-1" d="m84.77,182.46l-4.9-5.61h-2.28v9.57h2.52v-5.89l5.11,5.89h2.07v-9.57h-2.52v5.61Z"/><path class="cls-1" d="m94.71,183.15h1.38v.96c-.62.24-.9.31-1.48.31-1.9,0-3.18-1.07-3.18-2.69,0-1.38.9-2.86,3.35-2.86,1.14,0,2.28.28,3.49.86l.14.07v-2.24l-.03-.03c-1-.48-2.42-.79-3.76-.79-3.38,0-5.76,2.03-5.76,4.92s2.35,4.89,5.69,4.89c1.59,0,3.31-.55,4.04-1.31l.03-.03v-3.96h-3.9v1.89Z"/><path class="cls-1" d="m108.03,180.39c-.86-.31-1.62-.59-1.62-1.1,0-.41.52-.69,1.28-.69s1.59.24,2.93.83l.14.07v-2.03l-.07-.03c-1.21-.52-2.17-.72-3.21-.72-2.24,0-3.66,1.1-3.66,2.79,0,2.07,1.73,2.69,3.14,3.2.9.31,1.66.59,1.66,1.14,0,.69-.79.79-1.31.79-1,0-1.83-.31-3.18-1.21l-.14-.1v2.24l.07.03c.93.48,1.76.9,3.42.9,2.24,0,3.69-1.14,3.69-2.93.07-2-1.73-2.65-3.14-3.17Z"/><path class="cls-1" d="m117.73,176.74c-3.55,0-5.49,2.51-5.49,4.89s1.93,4.89,5.49,4.89,5.45-2.51,5.45-4.89-1.9-4.89-5.45-4.89Zm0,7.68c-1.76,0-2.9-1.1-2.9-2.79s1.14-2.79,2.9-2.79,2.86,1.1,2.86,2.79-1.14,2.79-2.86,2.79Z"/><path class="cls-1" d="m130.19,184.42c-1.93,0-3.28-1.14-3.28-2.79s1.38-2.75,3.31-2.75c1.04,0,2.04.31,3.21.96l.14.07v-2.27l-.03-.03c-.93-.55-2.11-.83-3.45-.83-3.76,0-5.73,2.48-5.73,4.92s1.73,4.89,5.56,4.89c1.38,0,2.38-.24,3.73-.93l.03-.03v-2.24l-.14.07c-1.28.55-2.14.96-3.35.96Z"/><path class="cls-1" d="m137.96,176.85h-2.52v9.57h2.52v-9.57Z"/><path class="cls-1" d="m142.51,182.43h4.28v-1.89h-4.28v-1.79h4.49v-1.89h-7.01v9.57h7.11v-1.89h-4.59v-2.1Z"/><path class="cls-1" d="m148.07,178.74h3.42v7.68h2.52v-7.68h3.42v-1.89h-9.35v1.89Z"/><path class="cls-1" d="m164.6,176.85l-2,2.89-2-2.86v-.03h-3.07l3.8,5.13v4.44h2.52v-4.44l3.8-5.13h-3.04Z"/></svg>