<?xml version="1.0" encoding="UTF-8"?><svg id="Layer_1" xmlns="http://www.w3.org/2000/svg" viewBox="0 0 256 256"><defs><style>.cls-1{fill:#ffe100;}.cls-2{fill:#fcb515;}.cls-3{fill:#24284e;}</style></defs><polygon class="cls-1" points="30.73 17.02 104.69 17.02 30.73 69.17 30.73 17.02"/><polygon class="cls-2" points="104.7 17.02 178.67 17.02 178.67 69.17 104.7 17.02"/><g><path class="cls-3" d="M28,221.07c.74,.82,1.63,1.62,2.66,2.4,1.03,.78,2.19,1.47,3.48,2.08,1.29,.61,2.73,1.09,4.33,1.46,1.6,.37,3.37,.56,5.33,.56,2.11,0,4.07-.3,5.88-.91,1.82-.6,3.4-1.45,4.74-2.55,1.35-1.09,2.41-2.38,3.19-3.86,.78-1.48,1.17-3.1,1.17-4.86,0-2.03-.33-3.76-.99-5.18-.66-1.42-1.54-2.62-2.63-3.6-1.09-.97-2.33-1.77-3.72-2.37-1.39-.6-2.8-1.08-4.25-1.43-2.46-.55-4.39-1.23-5.79-2.05-1.41-.82-2.11-1.89-2.11-3.22,0-.51,.15-.98,.44-1.43,.29-.45,.68-.84,1.17-1.17,.49-.33,1.03-.6,1.64-.79s1.22-.29,1.84-.29c.94,0,1.82,.12,2.66,.35,.84,.23,1.61,.53,2.31,.88,.7,.35,1.34,.73,1.9,1.14,.56,.41,1.06,.79,1.49,1.14l5.09-5.62c-.35-.35-.87-.83-1.55-1.43-.68-.6-1.56-1.19-2.63-1.76-1.07-.56-2.37-1.05-3.89-1.46-1.52-.41-3.28-.62-5.27-.62-2.42,0-4.52,.32-6.29,.97-1.78,.64-3.26,1.52-4.45,2.63-1.19,1.11-2.08,2.39-2.66,3.84-.59,1.44-.88,2.98-.88,4.62,0,1.49,.25,2.83,.76,4.04,.51,1.21,1.22,2.28,2.14,3.22,.92,.94,2.01,1.74,3.28,2.4,1.27,.66,2.64,1.17,4.13,1.52,3.05,.78,5.27,1.57,6.67,2.37,1.41,.8,2.11,1.92,2.11,3.37,0,.66-.16,1.26-.5,1.79s-.77,.98-1.32,1.35c-.55,.37-1.15,.66-1.82,.85-.66,.2-1.33,.29-1.99,.29-1.13,0-2.19-.15-3.19-.44-.99-.29-1.91-.67-2.75-1.14-.84-.47-1.6-.99-2.28-1.55-.68-.57-1.28-1.12-1.79-1.67l-5.68,6.15Zm45.86-1.49c-.84-.41-1.53-.96-2.08-1.67-.55-.7-.96-1.49-1.26-2.37-.29-.88-.44-1.79-.44-2.72s.15-1.84,.44-2.72c.29-.88,.71-1.66,1.26-2.34,.55-.68,1.24-1.23,2.08-1.64,.84-.41,1.79-.61,2.84-.61s1.99,.2,2.81,.61c.82,.41,1.51,.96,2.08,1.64,.56,.68,.99,1.46,1.26,2.34,.27,.88,.41,1.79,.41,2.72s-.14,1.84-.41,2.72-.69,1.67-1.26,2.37c-.57,.7-1.26,1.26-2.08,1.67-.82,.41-1.75,.62-2.81,.62s-2-.2-2.84-.62m-10.83-1.05c.72,1.77,1.73,3.33,3.02,4.65,1.29,1.33,2.84,2.38,4.65,3.16,1.81,.78,3.81,1.17,6,1.17s4.17-.39,5.97-1.17c1.8-.78,3.34-1.83,4.63-3.16,1.29-1.33,2.29-2.88,3.01-4.65,.72-1.78,1.08-3.68,1.08-5.71s-.36-3.93-1.08-5.71c-.72-1.77-1.73-3.33-3.01-4.65-1.29-1.33-2.83-2.37-4.63-3.13-1.79-.76-3.78-1.14-5.97-1.14s-4.19,.38-6,1.14c-1.82,.76-3.37,1.8-4.65,3.13-1.29,1.33-2.29,2.88-3.02,4.65-.72,1.78-1.08,3.68-1.08,5.71s.36,3.93,1.08,5.71m51.95-1.08c-.59,.67-1.37,1.28-2.34,1.84-.97,.57-2.18,.85-3.63,.85-1.01,0-1.92-.21-2.72-.64-.8-.43-1.48-.99-2.05-1.67-.56-.68-.99-1.46-1.29-2.34-.29-.88-.44-1.77-.44-2.66,0-.98,.15-1.9,.44-2.78,.29-.88,.72-1.65,1.29-2.31,.57-.66,1.25-1.2,2.05-1.61,.8-.41,1.71-.61,2.72-.61,1.48,0,2.67,.27,3.57,.82,.9,.55,1.66,1.17,2.28,1.87l5.09-5.5c-1.25-1.37-2.79-2.46-4.62-3.28-1.83-.82-4-1.23-6.5-1.23-2.15,0-4.13,.38-5.94,1.14-1.82,.76-3.38,1.8-4.68,3.13-1.31,1.33-2.33,2.88-3.07,4.65-.74,1.78-1.11,3.68-1.11,5.71,0,2.15,.36,4.12,1.08,5.91,.72,1.79,1.73,3.34,3.01,4.65,1.29,1.31,2.84,2.32,4.65,3.04,1.81,.72,3.83,1.08,6.06,1.08,2.54,0,4.73-.45,6.59-1.35,1.85-.9,3.34-1.97,4.48-3.22l-4.92-5.5Zm8.72-22.36h9.01v-7.55h-9.01v7.55Zm.29,31.49h8.43v-27.45h-8.43v27.45Zm36.17-8.31c-.63,.47-1.62,1.03-2.99,1.67-1.36,.64-3.14,.97-5.32,.97s-3.97-.56-5.24-1.67c-1.27-1.11-1.92-2.41-1.96-3.89h19.55v-1.4c0-2.3-.29-4.42-.88-6.35-.59-1.93-1.45-3.59-2.6-4.98-1.15-1.38-2.57-2.47-4.25-3.25-1.68-.78-3.63-1.17-5.85-1.17s-4.21,.4-5.97,1.2c-1.76,.8-3.24,1.87-4.45,3.19-1.21,1.33-2.14,2.88-2.78,4.65-.64,1.78-.97,3.62-.97,5.53,0,2.19,.34,4.18,1.03,6s1.68,3.37,2.99,4.65c1.31,1.29,2.9,2.29,4.77,3.01,1.87,.72,3.98,1.08,6.32,1.08,1.75,0,3.32-.17,4.68-.5,1.36-.33,2.54-.71,3.54-1.14,.99-.43,1.8-.87,2.43-1.32,.62-.45,1.09-.77,1.4-.97l-3.45-5.33Zm-15.51-8.31c0-.59,.13-1.18,.38-1.79,.25-.6,.62-1.16,1.11-1.67,.49-.51,1.1-.93,1.84-1.26,.74-.33,1.6-.5,2.58-.5s1.81,.16,2.52,.5c.7,.33,1.29,.75,1.75,1.26,.47,.51,.82,1.07,1.05,1.67,.24,.61,.35,1.2,.35,1.79h-11.59Zm26.4,6.15c0,1.72,.17,3.28,.53,4.68,.35,1.4,.94,2.6,1.75,3.6,.82,1,1.89,1.78,3.22,2.34,1.33,.56,2.97,.85,4.92,.85,3.12,0,6.01-1.05,8.66-3.16l-3.39-5.15c-.55,.39-1.13,.73-1.76,1.02-.62,.29-1.37,.44-2.22,.44-1.13,0-1.96-.36-2.49-1.08-.53-.72-.79-1.75-.79-3.07v-10.83h7.08v-6.61h-7.08v-8.31h-8.43v8.31h-4.33v6.61h4.33v10.36Zm19.37,20.6c1.01,.74,2.13,1.31,3.33,1.7,1.21,.39,2.56,.59,4.04,.59,1.91,0,3.5-.37,4.77-1.11,1.27-.74,2.34-1.71,3.22-2.9,.88-1.19,1.62-2.54,2.22-4.04,.6-1.5,1.22-3.01,1.84-4.53l11.24-27.27h-8.96l-6.2,17.32-6.85-17.32h-9.6l12.53,27.16-.82,2.22c-.55,1.37-1.12,2.33-1.73,2.9-.6,.56-1.36,.85-2.25,.85-.67,0-1.28-.14-1.84-.41-.57-.27-1.08-.58-1.55-.93l-3.39,5.79Z"/><path class="cls-3" d="M30.75,174.54h14.63c2.34,0,4.46-.2,6.35-.61,1.89-.41,3.49-1.06,4.8-1.96,1.31-.9,2.32-2.05,3.04-3.45s1.08-3.12,1.08-5.15c0-1.56-.28-2.92-.85-4.07-.57-1.15-1.26-2.1-2.08-2.87-.82-.76-1.69-1.35-2.6-1.75-.92-.41-1.73-.69-2.43-.85,.47-.12,1.04-.37,1.73-.76s1.33-.93,1.93-1.61c.6-.68,1.13-1.5,1.58-2.46,.45-.95,.67-2.06,.67-3.31,0-1.33-.23-2.6-.7-3.83-.47-1.23-1.23-2.31-2.28-3.25-1.05-.94-2.42-1.69-4.1-2.25-1.68-.57-3.73-.85-6.15-.85h-14.63v39.04Zm8.6-23.41v-8.78h5.21c.62,0,1.26,.07,1.9,.21,.64,.14,1.22,.37,1.73,.7,.51,.33,.91,.78,1.23,1.35,.31,.57,.47,1.28,.47,2.14s-.16,1.51-.47,2.08c-.31,.56-.71,1.01-1.2,1.35-.49,.33-1.05,.58-1.7,.73-.64,.16-1.3,.23-1.96,.23h-5.21Zm0,16.63v-10.19h5.74c.66,0,1.39,.07,2.17,.2,.78,.14,1.5,.39,2.17,.76,.66,.37,1.21,.89,1.64,1.55,.43,.66,.64,1.52,.64,2.57,0,1.17-.23,2.09-.67,2.75-.45,.66-1.01,1.17-1.67,1.52-.66,.35-1.39,.57-2.17,.67-.78,.1-1.48,.15-2.11,.15h-5.74Zm25.35-3.63c0,3.67,.92,6.44,2.75,8.31,1.83,1.87,4.33,2.81,7.49,2.81,1.6,0,3.13-.34,4.6-1.02,1.46-.68,2.64-1.55,3.54-2.6l.23,2.92h8.08v-27.45h-8.37v14.81c0,.78-.12,1.54-.35,2.28-.23,.74-.59,1.39-1.05,1.93s-1.03,.99-1.7,1.32c-.67,.33-1.43,.5-2.28,.5-1.48,0-2.61-.45-3.37-1.35-.76-.9-1.14-2.13-1.14-3.69v-15.8h-8.43v17.03Zm31.72-21.07h9.01v-7.55h-9.01v7.55Zm.29,31.49h8.43v-27.45h-8.43v27.45Zm13.7,0h8.43v-39.04h-8.43v39.04Zm32.48,0h7.84v-39.04h-8.37v11.94c-.78-.27-1.54-.5-2.28-.67-.74-.17-1.78-.26-3.1-.26-1.64,0-3.31,.3-5,.91-1.7,.6-3.24,1.51-4.63,2.72-1.38,1.21-2.51,2.74-3.39,4.6-.88,1.86-1.32,4.01-1.32,6.47,0,2.19,.31,4.15,.94,5.88,.63,1.74,1.47,3.22,2.55,4.45,1.07,1.23,2.34,2.18,3.8,2.84,1.47,.66,3.03,.99,4.71,.99s3.25-.34,4.6-1.03c1.35-.68,2.45-1.53,3.31-2.54l.35,2.75Zm-.53-12.41c0,.78-.1,1.54-.29,2.28-.2,.74-.52,1.39-.97,1.93-.45,.55-1.01,.99-1.7,1.32-.68,.33-1.49,.5-2.43,.5-1.95,0-3.41-.63-4.39-1.9-.98-1.27-1.47-2.9-1.47-4.89,0-2.26,.6-4.12,1.79-5.56,1.19-1.44,2.86-2.17,5-2.17,1.01,0,1.86,.08,2.55,.23,.68,.16,1.31,.41,1.9,.76v7.49Zm13.34-19.08h9.01v-7.55h-9.01v7.55Zm.29,31.49h8.43v-27.45h-8.43v27.45Zm13.75,0h8.37v-14.75c0-.82,.12-1.59,.35-2.31,.24-.72,.59-1.36,1.06-1.9,.47-.55,1.05-.99,1.75-1.32,.7-.33,1.52-.5,2.46-.5,1.37,0,2.43,.45,3.19,1.35,.76,.9,1.14,2.11,1.14,3.63v15.8h8.43v-16.97c0-3.67-.93-6.44-2.78-8.31-1.85-1.87-4.36-2.81-7.52-2.81-1.6,0-3.13,.33-4.6,.99-1.46,.66-2.65,1.54-3.54,2.63l-.24-2.98h-8.08v27.45Zm32.78,9.48c1.52,1.02,3.2,1.76,5.03,2.23,1.83,.47,3.98,.7,6.44,.7,4.33,0,7.74-1.08,10.24-3.25,2.5-2.17,3.75-5.51,3.75-10.04v-25.11c-1.64-.59-3.48-1.07-5.53-1.46-2.05-.39-4.21-.59-6.47-.59-2.38,0-4.54,.35-6.47,1.05-1.93,.7-3.59,1.71-4.97,3.02-1.39,1.31-2.46,2.87-3.22,4.68-.76,1.81-1.14,3.83-1.14,6.06,0,1.91,.28,3.67,.85,5.27,.57,1.6,1.38,2.98,2.43,4.16,1.05,1.17,2.35,2.08,3.89,2.72,1.54,.64,3.29,.97,5.24,.97,2.93,0,5.27-.76,7.02-2.28v1.93c0,2.03-.55,3.55-1.64,4.56-1.09,1.01-2.59,1.52-4.51,1.52-1.48,0-2.84-.19-4.07-.56-1.23-.37-2.39-.89-3.48-1.55l-3.4,5.97Zm17.15-21.71c0,1.79-.47,3.11-1.4,3.95-.94,.84-2.26,1.26-3.98,1.26-1.83,0-3.23-.58-4.19-1.76-.96-1.17-1.43-2.75-1.43-4.74,0-1.02,.14-1.98,.44-2.9,.29-.92,.74-1.72,1.35-2.4,.6-.68,1.35-1.23,2.25-1.64,.9-.41,1.95-.61,3.16-.61,.9,0,1.62,.05,2.17,.15,.55,.1,1.09,.24,1.64,.44v8.25Z"/><path class="cls-3" d="M30.75,122.51h27.51v-7.84h-18.67v-31.2h-8.84v39.04Zm53.32-8.31c-.62,.47-1.62,1.02-2.98,1.67-1.37,.64-3.14,.97-5.33,.97s-3.97-.56-5.24-1.67c-1.27-1.11-1.92-2.41-1.96-3.89h19.55v-1.4c0-2.3-.29-4.42-.88-6.35-.58-1.93-1.45-3.59-2.6-4.97-1.15-1.39-2.57-2.47-4.25-3.25-1.68-.78-3.63-1.17-5.85-1.17s-4.21,.4-5.97,1.2c-1.75,.8-3.24,1.86-4.45,3.19-1.21,1.33-2.14,2.88-2.78,4.65-.64,1.78-.97,3.62-.97,5.53,0,2.19,.34,4.19,1.03,6,.68,1.81,1.68,3.36,2.98,4.65,1.31,1.29,2.9,2.29,4.77,3.02,1.87,.72,3.98,1.08,6.32,1.08,1.75,0,3.32-.16,4.68-.5,1.36-.33,2.54-.71,3.54-1.14,.99-.43,1.8-.87,2.43-1.32,.63-.45,1.09-.77,1.41-.96l-3.45-5.33Zm-15.51-8.31c0-.59,.13-1.18,.38-1.79,.25-.6,.62-1.16,1.11-1.67,.49-.51,1.1-.93,1.84-1.26,.74-.33,1.6-.5,2.58-.5s1.81,.17,2.52,.5c.7,.33,1.29,.75,1.76,1.26,.47,.51,.82,1.06,1.05,1.67,.23,.6,.35,1.2,.35,1.79h-11.59Zm46.83,8.31c-.63,.47-1.62,1.02-2.98,1.67-1.37,.64-3.14,.97-5.33,.97s-3.97-.56-5.24-1.67c-1.27-1.11-1.92-2.41-1.96-3.89h19.55v-1.4c0-2.3-.29-4.42-.88-6.35s-1.45-3.59-2.6-4.97c-1.15-1.39-2.57-2.47-4.25-3.25-1.68-.78-3.63-1.17-5.85-1.17s-4.21,.4-5.97,1.2c-1.76,.8-3.24,1.86-4.45,3.19-1.21,1.33-2.14,2.88-2.78,4.65-.64,1.78-.96,3.62-.96,5.53,0,2.19,.34,4.19,1.02,6,.68,1.81,1.68,3.36,2.98,4.65,1.31,1.29,2.9,2.29,4.77,3.02,1.87,.72,3.98,1.08,6.32,1.08,1.76,0,3.32-.16,4.68-.5,1.37-.33,2.55-.71,3.54-1.14,.99-.43,1.8-.87,2.43-1.32,.62-.45,1.09-.77,1.4-.96l-3.45-5.33Zm-15.51-8.31c0-.59,.13-1.18,.38-1.79,.25-.6,.63-1.16,1.11-1.67,.49-.51,1.1-.93,1.84-1.26,.74-.33,1.6-.5,2.58-.5s1.82,.17,2.52,.5c.7,.33,1.29,.75,1.75,1.26,.47,.51,.82,1.06,1.05,1.67,.24,.6,.35,1.2,.35,1.79h-11.59Zm43.37,16.62h7.84v-39.04h-8.37v11.94c-.78-.27-1.54-.5-2.28-.67-.74-.18-1.78-.26-3.1-.26-1.64,0-3.31,.3-5,.91-1.7,.6-3.24,1.51-4.62,2.72-1.39,1.21-2.52,2.74-3.4,4.6s-1.32,4.01-1.32,6.47c0,2.18,.31,4.15,.94,5.88s1.47,3.22,2.55,4.45c1.07,1.23,2.34,2.18,3.81,2.84,1.46,.66,3.03,.99,4.71,.99s3.25-.34,4.6-1.02c1.35-.68,2.45-1.53,3.3-2.55l.35,2.75Zm-.53-12.41c0,.78-.1,1.54-.29,2.28-.2,.74-.52,1.39-.97,1.93-.45,.55-1.02,.99-1.7,1.32s-1.49,.5-2.43,.5c-1.95,0-3.42-.63-4.39-1.9-.98-1.27-1.46-2.9-1.46-4.89,0-2.26,.59-4.12,1.79-5.56,1.19-1.44,2.86-2.17,5-2.17,1.01,0,1.86,.08,2.55,.24,.68,.16,1.32,.41,1.9,.76v7.49Zm12.06,9.31c1.36,1.37,3.14,2.38,5.33,3.04,2.18,.66,4.51,.99,6.96,.99,1.52,0,3.02-.18,4.48-.53s2.77-.89,3.92-1.61c1.15-.72,2.07-1.63,2.75-2.72,.68-1.09,1.03-2.4,1.03-3.92,0-2.26-.64-4.08-1.9-5.44-1.27-1.37-3.31-2.44-6.12-3.22-2.07-.55-3.71-1.03-4.92-1.47-1.21-.43-1.81-1.09-1.81-1.99,0-.62,.29-1.12,.88-1.49,.59-.37,1.52-.56,2.81-.56,1.44,0,2.74,.24,3.89,.7,1.15,.47,2.18,.99,3.07,1.58l3.57-5.56c-1.48-1.02-3.1-1.79-4.86-2.31-1.75-.53-3.8-.79-6.15-.79-1.64,0-3.17,.21-4.6,.62-1.43,.41-2.65,.99-3.69,1.75-1.03,.76-1.84,1.66-2.43,2.69-.59,1.03-.88,2.2-.88,3.48s.24,2.34,.73,3.28c.49,.94,1.13,1.74,1.93,2.4,.8,.66,1.72,1.22,2.75,1.67,1.03,.45,2.08,.81,3.13,1.08,1.29,.35,2.35,.66,3.19,.94,.84,.27,1.49,.54,1.96,.79,.47,.25,.79,.53,.97,.82,.17,.29,.26,.61,.26,.96,0,.9-.41,1.5-1.23,1.82-.82,.31-1.86,.47-3.1,.47-1.36,0-2.78-.27-4.24-.82-1.47-.55-2.65-1.23-3.54-2.05l-4.16,5.39Z"/></g></svg>