<?xml version="1.0" encoding="UTF-8"?><svg id="Layer_1" xmlns="http://www.w3.org/2000/svg" viewBox="0 0 256 256"><defs><style>.cls-1{fill:#0054a6;}.cls-2{fill:#ea3692;}.cls-3,.cls-4{fill:#fff;}.cls-5{fill:#fcaf17;}.cls-6{fill:#15bef0;}.cls-7{fill:#75c044;}.cls-4{fill-rule:evenodd;}</style></defs><rect class="cls-3" y="-.28" width="256" height="256"/><g><path class="cls-1" d="m186.58,104.3H28v46.84h158.58c12.9,0,23.42-10.54,23.42-23.42s-10.52-23.42-23.42-23.42Z"/><path class="cls-4" d="m168.78,112.38h2.46v4.72c.78-.8,1.58-1.18,2.66-1.18,1.66,0,2.64,1.08,2.64,3.04v4.92h-2.46v-4.62c0-1.08-.28-1.58-1.08-1.58-.68,0-1.28.4-1.76,1.28v5.02h-2.46v-11.6Zm-6.8,6.58c0,.8.5,1.38,1.38,1.38s1.38-.58,1.38-1.38-.58-1.38-1.38-1.38c-.88,0-1.38.6-1.38,1.38Zm1.38,7.38c1.18,0,1.88-.3,1.88-.98,0-.6-.7-.88-1.78-.88-1.28,0-1.86.28-1.86.88,0,.68.58.98,1.76.98Zm-3.74-7.48c0-1.76,1.38-2.74,4.14-2.74h3.94v1.66h-1.08c.28.4.38.8.38,1.38,0,1.48-.88,2.26-2.46,2.56-1.08.2-1.76,0-1.76.58,0,.5.68.5,2.16.7,1.68.2,2.56,1.08,2.56,2.26,0,1.68-1.38,2.56-4.24,2.56-2.64,0-4.02-.88-4.02-2.26,0-.88.68-1.58,2.06-1.98-.58-.18-.88-.48-.88-.98,0-.58.48-.98,1.28-1.18-1.38-.48-2.08-1.28-2.08-2.56Zm-6,5.22c-1.66,0-2.64-1.08-2.64-3.04v-4.92h2.46v4.62c0,1.08.28,1.56,1.08,1.56.68,0,1.28-.38,1.76-1.26v-4.92h2.46v7.86h-2.46v-.98c-.88.78-1.66,1.08-2.66,1.08Zm-7.86-1.86c1.08,0,1.76-.9,1.76-2.18,0-1.36-.68-2.26-1.76-2.26-.98,0-1.78.9-1.78,2.26s.7,2.18,1.78,2.18Zm0-6.3c2.56,0,4.32,1.66,4.32,4.02s-1.76,4.04-4.32,4.04-4.34-1.68-4.34-4.04,1.78-4.02,4.34-4.02h0Zm-10.82.2h2.46v2.06c.78-1.48,1.48-2.26,2.46-2.26.48,0,.98.2,1.56.58l-.68,2.26c-.5-.38-.88-.58-1.28-.58-.88,0-1.76.88-2.06,2.36v3.44h-2.46v-7.86Zm-5.32,6.1c1.08,0,1.78-.9,1.78-2.18,0-1.36-.7-2.26-1.78-2.26-.98,0-1.76.9-1.76,2.26s.68,2.18,1.76,2.18Zm0-6.3c2.56,0,4.34,1.66,4.34,4.02s-1.78,4.04-4.34,4.04-4.32-1.68-4.32-4.04,1.76-4.02,4.32-4.02h0Zm-9.74,6.3c1.18,0,1.98-.8,1.98-2.18s-.8-2.16-1.98-2.16c-.48,0-.88.2-1.38.5v3.34c.4.3.9.5,1.38.5Zm-3.84-9.84h2.46v4.32c.6-.48,1.38-.78,2.26-.78,2.28,0,3.74,1.56,3.74,4.12s-1.66,4.04-4.72,4.04c-1.08,0-2.26-.2-3.64-.58v-11.12h-.1Zm-9.04,0h2.46v4.72c.78-.8,1.58-1.18,2.66-1.18,1.66,0,2.64,1.08,2.64,3.04v4.92h-2.46v-4.62c0-1.08-.28-1.58-1.08-1.58-.68,0-1.28.4-1.76,1.28v5.02h-2.46v-11.6h0Zm-6.8,6.58c0,.8.6,1.38,1.38,1.38.9,0,1.38-.58,1.38-1.38s-.58-1.38-1.38-1.38c-.88,0-1.38.6-1.38,1.38Zm1.38,7.38c1.18,0,1.88-.3,1.88-.98,0-.6-.7-.88-1.78-.88-1.28,0-1.86.28-1.86.88-.1.68.48.98,1.76.98Zm-3.74-7.48c0-1.76,1.38-2.74,4.14-2.74h3.94v1.66h-1.08c.28.4.38.8.38,1.38,0,1.48-.88,2.26-2.46,2.56-1.08.2-1.76,0-1.76.58,0,.5.68.5,2.16.7,1.68.2,2.56,1.08,2.56,2.26,0,1.68-1.38,2.56-4.24,2.56-2.64,0-4.02-.88-4.02-2.26,0-.88.68-1.58,2.06-1.98-.6-.18-.88-.48-.88-.98,0-.58.38-.98,1.28-1.18-1.38-.48-2.08-1.28-2.08-2.56Zm-6.1,5.22c-1.66,0-2.64-1.08-2.64-3.04v-4.92h2.46v4.62c0,1.08.28,1.56,1.08,1.56.68,0,1.28-.38,1.76-1.26v-4.92h2.46v7.86h-2.46v-.98c-.78.78-1.56,1.08-2.66,1.08Zm-7.86-1.86c1.08,0,1.76-.9,1.76-2.18,0-1.36-.68-2.26-1.76-2.26s-1.78.9-1.78,2.26c.1,1.38.8,2.18,1.78,2.18Zm0-6.3c2.56,0,4.32,1.66,4.32,4.02s-1.76,4.04-4.32,4.04-4.32-1.68-4.32-4.04c.08-2.26,1.76-4.02,4.32-4.02h0Zm-12.7-3.54h2.86v9.34h5.02v2.26h-7.88v-11.6h0Zm-8.46,6.88c-.1-.98-.68-1.68-1.46-1.68s-1.48.6-1.58,1.68h3.04Zm-1.28,4.82c-2.74,0-4.32-1.58-4.32-4.24,0-2.36,1.68-3.92,4.14-3.92s3.92,1.66,3.92,4.42v.1h-5.5c0,1.28.88,1.96,2.36,1.96.98,0,1.96-.28,2.94-1.08v1.68c-1.08.78-2.26,1.08-3.54,1.08Zm-12.98-11.7h2.46v4.72c.78-.8,1.58-1.18,2.66-1.18,1.68,0,2.66,1.08,2.66,3.04v4.92h-2.46v-4.62c0-1.08-.3-1.58-1.08-1.58-.7,0-1.28.4-1.78,1.28v5.02h-2.46v-11.6Zm-7.86,2.16h-3.84v-2.16h10.72v2.16h-3.84v9.44h-3.04v-9.44h0Z"/><path class="cls-4" d="m125,134.8h1.58l2.16,4.04,1.96-4.04h1.48l-5.12,10.34h-1.46l2.36-4.82-2.96-5.52Zm-2.16,6.98c-1.68,0-2.08-.78-2.08-2.54v-3.26h-1.26v-.2l2.46-2.64h.18v1.66h2.18v1.18h-2.18v3.16c0,.98.1,1.38.98,1.38.4,0,.8-.1,1.2-.3v1.28c-.5.18-1,.28-1.48.28Zm-5.22-4.32c-.1-.98-.78-1.68-1.76-1.68-1.1,0-1.68.6-1.88,1.68h3.64Zm-1.48,4.32c-2.16,0-3.54-1.46-3.54-3.72,0-2.08,1.38-3.46,3.34-3.46s3.26,1.38,3.26,3.64v.2h-5.12c.1,1.28.88,2.08,2.16,2.08.88,0,1.78-.3,2.86-1v1.38c-.98.6-1.98.88-2.96.88Zm-6.3-6.98h1.38v6.88h-1.38v-6.88Zm.7-2.84c.4,0,.78.28.78.78s-.38.78-.78.78-.78-.3-.78-.78.38-.78.78-.78Zm-1.78,9.44c-.68.2-1.38.38-1.96.38-2.26,0-3.84-1.46-3.84-3.54,0-1.96,1.58-3.54,3.74-3.54.68,0,1.28.1,1.96.4v1.48c-.58-.4-1.28-.6-1.86-.6-1.48,0-2.36.98-2.36,2.26s.98,2.28,2.46,2.28c.68,0,1.28-.2,1.96-.5v1.38h-.1Zm-10.32-.88c1.18,0,2.16-1,2.16-2.28s-.98-2.26-2.16-2.26-2.16.98-2.16,2.26c-.1,1.18.88,2.28,2.16,2.28Zm0-5.92c.98,0,1.86.4,2.56,1.08.68.7,1.08,1.58,1.08,2.56s-.4,1.88-1.08,2.56c-.7.7-1.58,1.08-2.56,1.08-2.06,0-3.64-1.56-3.64-3.54-.1-2.16,1.58-3.74,3.64-3.74Zm-10.52,4.24c.88.98,1.66,1.58,2.74,1.58s1.68-.5,1.68-1.38-.6-1.28-1.78-1.98c-1.76-1.08-2.64-1.76-2.64-3.24,0-1.58,1.28-2.76,3.04-2.76.78,0,1.58.2,2.36.7v1.66c-.88-.68-1.58-1.08-2.46-1.08-.98,0-1.58.5-1.58,1.28s.8,1.28,2.08,2.06c1.56,1,2.46,1.68,2.46,3.46,0,1.56-1.28,2.74-3.06,2.74-1.08,0-1.96-.28-2.84-.98v-2.06Zm-9.26-1.58c0,.8.5,1.28,1.48,1.28.88,0,1.48-.48,1.48-1.28s-.6-1.28-1.48-1.28c-.98-.1-1.48.5-1.48,1.28Zm1.38,6.7c1.28,0,2.06-.4,2.06-1,0-.68-.78-.98-2.46-.98-.98,0-1.56.4-1.56.9,0,.68.68,1.08,1.96,1.08Zm-2.76-6.7c0-1.66,1.18-2.56,3.44-2.56h2.76v1.08h-1.18c.4.4.6.9.6,1.38,0,1.18-.8,2.08-1.98,2.26-1.08.2-1.66.2-1.66.7s.68.48,2.16.78c1.38.3,2.06.98,2.06,1.98,0,1.36-1.18,2.16-3.44,2.16s-3.34-.8-3.34-2.08c0-.98.68-1.56,1.96-1.86-.48-.2-.78-.5-.78-.88s.3-.7.88-.9c-.98-.18-1.48-.98-1.48-2.06Zm-7.18-2.46h1.38v.88c.7-.58,1.28-.98,2.16-.98,1.48,0,2.46.9,2.46,2.46v4.52h-1.38v-4.22c0-1.08-.48-1.68-1.46-1.68-.7,0-1.18.3-1.68.9v4.92h-1.38v-6.8h-.1Zm-2.94,0h1.38v6.88h-1.38v-6.88Zm.68-2.84c.4,0,.78.28.78.78s-.38.78-.78.78-.78-.3-.78-.78c0-.5.38-.78.78-.78Zm-3.64,4.32c-.4-.3-.88-.5-1.48-.5-1.38,0-2.26.9-2.26,2.36s.88,2.38,2.26,2.38c.5,0,1-.2,1.48-.5v-3.74Zm-1.76,5.5c-1.98,0-3.36-1.46-3.36-3.54s1.38-3.54,3.36-3.54c.68,0,1.28.2,1.76.5v-3.94h1.38v10.42h-1.38v-.38c-.48.3-1.08.48-1.76.48Zm-6.1-10.52h1.38v10.42h-1.38v-10.42Zm-2.96,3.54h1.38v6.88h-1.38v-6.88Zm.7-2.84c.38,0,.78.28.78.78s-.4.78-.78.78c-.4,0-.8-.3-.8-.78,0-.5.4-.78.8-.78Zm-5.72,9.82c-1.48,0-2.46-.88-2.46-2.46v-4.52h1.38v4.24c0,1.08.5,1.66,1.48,1.66.68,0,1.18-.28,1.66-.88v-4.92h1.38v6.88h-1.38v-.88c-.68.6-1.26.88-2.06.88Zm-9.24-1.46h1.96c1.38,0,2.08-.5,2.08-1.58,0-1.18-.8-1.68-2.38-1.68h-1.76v3.26h.1Zm.98-4.64c1.48,0,2.26-.48,2.26-1.66,0-1.08-.58-1.48-1.86-1.48h-1.38v3.14h.98Zm-2.56-4.42h3.06c2.06,0,3.24.98,3.24,2.76,0,1.08-.5,1.76-1.58,2.16,1.58.4,2.36,1.38,2.36,2.76,0,1.66-1.28,2.84-3.54,2.84h-3.54v-10.52Z"/><path class="cls-6" d="m208.72,113.94h19.18v-9.64h-29.9c4.52,2.18,8.16,5.52,10.72,9.64Z"/><path class="cls-7" d="m228,126.34v-9.64h-17.7c1.38,2.96,2.26,6.2,2.36,9.64h15.34Z"/><path class="cls-2" d="m228,138.74v-9.64h-15.34c-.2,3.44-.98,6.68-2.36,9.64h17.7Z"/><path class="cls-5" d="m198.1,151.14h29.9v-9.64h-19.18c-2.66,4.12-6.3,7.46-10.72,9.64Z"/></g></svg>