<?xml version="1.0" encoding="UTF-8"?><svg id="Layer_1" xmlns="http://www.w3.org/2000/svg" viewBox="0 0 256 256"><defs><style>.cls-1{fill:#fff;}.cls-2{fill:#ffb602;}.cls-3{fill:#6b5f55;}</style></defs><rect class="cls-1" y="-.28" width="256" height="256"/><g><path class="cls-3" d="m228,101.98c0-22.04-32.59-14.77-53.93-7.5-8.91,3.05-16.88,3.52-21.81,3.28.23-10.08,2.34-14.3,2.34-14.3,3.05-6.33,7.03-4.45,10.79-5.86,2.58-.94,3.75-3.75,2.81-6.33-.94-2.58-3.75-3.75-6.33-2.81-4.69,1.64-8.91,14.07-9.61,17.58-.7,2.34-1.41,6.1-1.41,11.72-.7,0-1.17-.23-1.88-.47-9.61-12.9-10.32-19.93-10.32-19.93-.94-7.03,3.52-7.5,5.86-10.79,1.64-2.34,1.17-5.39-1.17-6.8-2.11-1.64-5.16-1.17-6.8,1.17-3.05,3.52.23,16.41,1.41,19.7.94,3.05,3.28,8.44,8.91,16.18-2.11-.47-3.52-1.17-4.45-1.64-4.69-3.99-8.68-6.8-9.85-9.38-.7-1.64-2.58-1.17-2.11.7.47,1.88,5.16,6.1,10.08,9.85,4.92,3.75,18.52,19.23,18.52,52.29s-26.03,39.62-30.48,43.14c0,0-.23.23-.7.23-.23,0-.7-.23-.7-.23-4.45-3.52-30.48-10.08-30.48-43.14s13.6-48.53,18.52-52.29c4.92-3.75,9.61-7.97,10.08-9.85s-1.41-2.34-2.11-.7c-1.17,2.81-5.39,5.39-9.85,9.38-.94.47-2.58.94-4.45,1.64,5.63-7.74,7.97-13.13,8.91-16.18,1.17-3.28,4.69-16.18,1.64-19.93-1.64-2.11-4.69-2.58-6.8-1.17-2.11,1.64-2.58,4.69-1.17,6.8,2.34,3.28,6.8,3.75,5.86,10.79,0,0-.7,7.03-10.32,19.93-.7.23-1.41.23-1.88.47,0-5.63-.7-9.61-1.41-11.72-.7-3.28-4.92-15.94-9.61-17.58-2.58-.94-5.39.23-6.33,2.81-1.17,2.58.23,5.39,2.58,6.33,3.75,1.41,7.74-.47,10.79,5.86,0,0,2.11,4.22,2.34,14.3-4.92.47-12.9,0-21.81-3.28-21.1-7.27-53.69-14.54-53.69,7.74s22.27,21.57,26.49,21.57c2.81,0,16.18-1.41,30.25-7.74l-18.29,26.03c-5.39,6.8-7.74,2.81-13.6,3.28-2.81.23-4.92,2.34-4.92,4.92,0,2.81,2.58,5.39,6.33,4.69,5.86-1.17,11.72-9.85,13.83-12.9l18.99-27.2c.23-.23.47-.23.7-.47-3.05,6.57-6.57,14.77-7.74,21.1-2.34,12.19.94,19.46-5.86,31.89-1.64,3.05-6.1,1.17-9.85,1.88-2.58.47-4.45,3.05-3.99,5.86.47,2.58,3.05,4.92,7.03,3.52,5.16-1.88,9.85-11.96,11.25-15.24l13.6-30.01c-3.05,11.25-4.22,23.68.47,34.23,8.44,18.99,30.25,19.23,35.17,29.31,4.92-10.08,26.73-10.08,35.17-29.31,4.69-10.55,3.52-22.98.47-34.23l13.6,30.01c1.41,3.28,6.1,13.36,11.25,15.24,3.99,1.41,6.57-.7,7.03-3.52.47-2.58-1.17-5.16-3.99-5.86-3.75-.7-7.97,1.17-9.85-1.88-6.8-12.43-3.52-19.7-5.86-31.89-1.17-6.33-4.69-14.77-7.74-21.1.23.23.47.23.7.47l18.99,27.2c2.11,3.05,7.97,11.72,13.83,12.9,3.75.7,6.33-1.88,6.33-4.69s-2.11-4.92-4.92-4.92c-5.63-.23-8.21,3.52-13.6-3.28l-18.29-26.03c13.83,6.33,27.43,7.74,30.25,7.74,4.45-.23,26.73.47,26.73-21.57m-141.62,11.25c-11.96,6.1-24.15,8.68-31.42,8.68-10.79,0-21.34-5.86-21.34-15.71s11.49-14.54,25.32-14.54,24.15,5.63,37.75,7.97c2.81.47,4.45,1.41,5.16,2.34-3.28,3.05-6.57,5.63-10.32,7.74,1.64-3.05,3.05-5.39,3.05-5.86.7-1.64-.7-2.34-1.64-.94l-6.57,10.32Zm-1.17,32.59c.94-5.16-.94-15.01,1.17-22.51.94-3.52,2.58-7.27,4.22-10.55,4.22-2.34,8.44-5.39,12.19-9.14.47,1.64,0,3.28-.47,4.69-.23.47-4.22,8.68-6.1,13.36l-11.02,24.15Zm84.17-22.74c2.11,7.74.23,17.35,1.17,22.51l-11.02-24.15c-1.88-4.69-5.86-12.9-6.1-13.36-.47-1.41-.94-3.28-.47-4.69,3.75,3.75,7.74,6.57,12.19,9.14,1.64,3.28,3.28,7.03,4.22,10.55m.23-9.85l-7.03-10.08c-.94-1.41-2.34-.7-1.64.94.23.47,1.64,2.81,3.05,5.86-3.52-2.34-7.03-4.92-10.32-7.74.94-1.17,2.34-1.88,5.16-2.34,13.6-2.34,24.15-7.97,37.75-7.97s25.32,4.69,25.32,14.54-10.32,15.71-21.34,15.71c-6.8,0-19.23-2.81-30.95-8.91"/><path class="cls-2" d="m143.83,108.55c-1.64-.94-3.05-1.17-4.45-1.41h0c-5.86,0-5.86,4.22-6.57,5.16-.7.94-2.11,1.88-3.75.94-.47-.23-.7-.7-.94-1.17-.23.47-.47.94-.94,1.17-1.64.94-3.05,0-3.75-.94s-.7-5.16-6.57-5.16h0c-1.41,0-3.05.47-4.45,1.41-.7.7-1.88,2.34-2.81,4.22-1.41,3.52-4.22,10.08-5.86,18.29.7,1.41,1.64,3.05,2.58,4.22,3.52,3.75,8.91,7.27,21.1,7.27h1.41c12.19,0,17.58-3.52,21.1-7.27,1.17-1.17,2.11-2.81,2.58-4.22-1.64-8.44-4.45-15.01-5.86-18.29-.94-1.88-2.11-3.52-2.81-4.22"/><path class="cls-2" d="m153.67,140.43c-2.81,4.45-10.08,12.43-24.85,12.43h-1.41c-14.77,0-22.27-7.97-24.85-12.43-.23,2.58-.23,5.16,0,7.97.94,1.64,2.58,3.28,4.92,5.16,6.57,4.69,14.3,7.27,20.16,7.27h1.17c5.86,0,13.83-2.58,20.16-7.27,2.34-1.64,3.75-3.52,4.92-5.16,0-2.81,0-5.39-.23-7.97"/><path class="cls-2" d="m144.3,165.05c-5.39,3.28-11.72,5.39-15.47,5.39h-1.88c-3.75,0-9.85-2.11-15.47-5.39-2.81-1.64-5.63-4.22-7.74-6.57.7,2.58,1.64,5.16,2.58,7.74,1.64,2.11,3.52,4.22,5.86,5.63,5.63,3.52,11.72,6.1,14.77,6.1h1.88c3.05,0,9.14-2.58,14.77-6.1,2.11-1.41,4.22-3.52,5.86-5.63,1.17-2.58,1.88-5.16,2.58-7.74-2.11,2.34-4.92,4.92-7.74,6.57"/><path class="cls-3" d="m155.32,135.04c-.94-8.91-5.39-19.46-5.86-20.63s-4.92-13.6-11.72-16.41c-.47-.23-.7-.23-1.17-.47-2.58-.47-5.16,1.17-5.86,3.99-.23,1.17,0,2.58.7,3.75.47.7,1.41,1.41,2.11,1.88-2.81.47-5.16,1.17-5.86,3.05-.7-2.11-3.05-2.81-5.86-3.05.94-.47,1.64-.94,2.11-1.88.7-1.17.94-2.34.7-3.75-.47-2.58-3.05-4.45-5.86-3.99-.47,0-.94.23-1.17.47-6.8,2.81-11.25,15.01-11.72,16.41-.47,1.17-4.69,11.72-5.86,20.63-.94,7.97-3.28,28.84,11.72,42.2,3.52,3.28,11.02,7.03,14.77,7.5h1.88c3.75-.47,11.25-4.22,14.77-7.5,15.71-13.36,13.13-34.47,12.19-42.2m-52.99,13.13c-.23-2.81-.23-5.39,0-7.97h0c2.81,4.45,10.08,12.43,25.09,12.43h1.41c14.77,0,22.27-7.97,24.85-12.43h0c.23,2.58.23,5.16,0,7.97-.94,1.64-2.58,3.28-4.92,4.92-6.57,4.69-14.3,7.27-20.16,7.27h-1.17c-5.86,0-13.83-2.58-20.16-7.27-2.58-1.41-3.99-3.28-4.92-4.92m14.3-41.03h0c5.86,0,5.86,4.22,6.57,5.16.7.94,2.11,1.88,3.75.94.47-.23.7-.7.94-1.17.23.47.47.94.94,1.17,1.64.94,3.05,0,3.75-.94s.7-5.16,6.57-5.16h0c1.41,0,3.05.47,4.45,1.41h0c.7.7,1.88,2.34,2.81,4.22,1.41,3.52,4.22,10.08,5.86,18.29-.7,1.41-1.64,3.05-2.58,4.22-3.52,3.75-8.91,7.27-21.1,7.27h-1.41c-12.19,0-17.58-3.52-21.1-7.27-1.17-1.17-2.11-2.58-2.58-4.22,1.64-8.44,4.45-15.01,5.86-18.29.94-2.11,2.11-3.52,2.81-4.22h0c1.41-.94,3.05-1.41,4.45-1.41m26.96,64.95c-5.63,3.52-11.72,6.1-14.77,6.1h-1.88c-3.05,0-9.14-2.58-14.77-6.1-2.11-1.41-4.22-3.52-5.86-5.63-1.17-2.58-1.88-5.16-2.58-7.74h0c2.11,2.34,4.92,4.92,7.74,6.57,5.39,3.28,11.72,5.39,15.47,5.39h1.88c3.75,0,9.85-2.11,15.47-5.39,2.81-1.64,5.63-4.22,7.74-6.57h0c-.7,2.58-1.64,5.16-2.58,7.74-1.64,2.11-3.75,4.22-5.86,5.63"/></g></svg>