<?xml version="1.0" encoding="UTF-8"?><svg id="Layer_1" xmlns="http://www.w3.org/2000/svg" xmlns:xlink="http://www.w3.org/1999/xlink" viewBox="0 0 256 256"><defs><style>.cls-1{fill:none;}.cls-2{clip-path:url(#clippath);}.cls-3{fill:#fff;}.cls-4{fill:#ffd400;}.cls-5{fill:#153d89;}</style><clipPath id="clippath"><rect class="cls-1" x="28" y="107.66" width="200" height="40.13"/></clipPath></defs><rect class="cls-3" y="-.28" width="256" height="256"/><g><rect class="cls-3" x="28" y="107.66" width="200" height="40.13"/><g class="cls-2"><path class="cls-5" d="m169.5,132.75l-.03-.02c-.25-.15-.22-.35-.2-.41.04-.14.18-.25.32-.25.08,0,1.97-.03,5.06,1.2,2.79,1.11,7.13,3.52,11.99,8.64,5.91-8.72,13.21-17.02,21.71-24.66,3.84-3.45,7.9-6.75,12.28-9.99H25.28v40.94h159.13c-1.29-2.98-3.18-5.94-5.42-8.47-2.84-3.21-6.13-5.63-9.5-7"/><path class="cls-4" d="m189.34,148.21h43.79v-40.94h-9.11c-10.6,9.27-25.42,24.04-34.67,40.94"/><path class="cls-3" d="m224.01,107.27h-3.39c-4.38,3.23-8.44,6.53-12.28,9.99-8.5,7.64-15.8,15.93-21.71,24.66-4.87-5.12-9.2-7.53-11.99-8.64-3.09-1.23-4.98-1.21-5.06-1.2-.14,0-.28.11-.32.25-.02.06-.05.26.21.41l.03.02c3.37,1.37,6.65,3.78,9.49,7,2.24,2.53,4.13,5.49,5.42,8.47h4.92c9.25-16.91,24.08-31.68,34.67-40.94"/><path class="cls-4" d="m53.36,114.33h-3.03l-5.33,10.7-.23.45c-.19.37-.39.76-.56,1.15,0,0-.34.75-.34.75,0,0-.12.26-.21.48,0-.33-.01-.87-.01-.87l-.05-2.31-.53-10.37h-2.95l-.02.04c-.63,1.72-1.2,3.47-1.72,5.12-1.12,3.5-2.14,7.09-3.13,10.56l-.37,1.29h2.45s3.61-12.96,3.82-13.73c.01.43.08,2.54.08,2.54l.55,11.18h2.37l5.71-11.44c.35-.7.72-1.47,1.09-2.28-.15.9-2.32,13.72-2.32,13.72h2.43v-.06c.21-1.97.55-3.96.87-5.89l.5-3.03s.02-.12.02-.12c.39-2.56.8-5.21.96-7.85v-.07"/><path class="cls-4" d="m66.89,118.82h-2.55c-1.74,0-3.35.08-4.99.75-3.01,1.22-4.76,4.29-4.76,7.49,0,2.5,1.12,4.5,3.82,4.5,1.92,0,2.99-.96,3.98-2.5l-.52,2.21h2.31m-.13-10.45l-.68,3.09c-.47,2.16-1.43,5.69-4.19,5.69-1.56,0-2.29-1.2-2.29-2.6,0-1.87.73-3.72,2.18-4.94,1.12-.94,2.44-1.27,3.9-1.27.34,0,.7.03,1.07.03Z"/><path class="cls-4" d="m79.29,125.87l-1.22,5.41h-2.42l1.14-5.15c.26-1.12.6-2.26.6-3.4,0-1.25-.62-2.05-1.92-2.05-.75,0-1.38.29-1.95.75-1.66,1.38-2.21,4-2.65,6l-.86,3.85h-2.44l2.86-12.48h2.34l-.57,2.39c.18-.23.34-.47.52-.7.91-1.12,2.42-1.85,3.85-1.85,2.1,0,3.33,1.38,3.33,3.43,0,1.27-.31,2.55-.6,3.79"/><path class="cls-4" d="m92,121.16c-.91-.36-1.79-.65-2.78-.65-2.99,0-4.7,2.63-4.7,5.41,0,2.16,1.14,3.61,3.4,3.61.86,0,1.59-.16,2.39-.44l-.44,1.92c-.78.39-1.64.52-2.5.52-3.33,0-5.3-2.08-5.3-5.41,0-4.03,2.65-7.64,6.91-7.64,1.25,0,2.36.23,3.43.86"/><path class="cls-4" d="m103.67,126.99l-.99,4.29h-2.39l1.2-5.41c.23-1.09.55-2.18.55-3.3s-.68-1.92-1.87-1.92c-1.27,0-2.29.91-2.99,1.9-.83,1.2-1.17,2.68-1.48,4.08l-1.07,4.65h-2.42l4.13-18.35h2.44l-1.82,8.06c1.07-1.43,2.31-2.34,4.16-2.34,2.11,0,3.38,1.3,3.38,3.43,0,1.66-.47,3.3-.83,4.91"/><path class="cls-4" d="m117.68,122.93c0-2.68-1.69-4.42-4.37-4.42-4.19,0-6.76,3.95-6.76,7.82,0,3.59,2.21,5.22,5.67,5.22,1.17,0,2.08-.21,3.17-.62l.42-1.87c-1.09.39-2.08.65-3.25.65-2,0-3.72-.96-3.72-3.17,0-.26.03-.49.05-.73h8.08c.44-.88.7-1.87.7-2.89m-2.21,0c0,.47-.08.88-.21,1.33h-6.06c.16-.52.31-1.04.55-1.53.62-1.27,1.82-2.34,3.3-2.34,1.61,0,2.42,1.04,2.42,2.55Z"/><path class="cls-4" d="m128.13,121.06c-1.09-.36-2.18-.6-3.35-.6-1.09,0-2.62.42-2.62,1.77,0,2.1,5.09,2.08,5.09,5.56,0,.73-.26,1.51-.7,2.08-1.04,1.33-2.57,1.72-4.19,1.72-1.43,0-3.07-.23-4.39-.81l.42-1.77c1.2.42,2.29.65,3.56.65.83,0,1.85-.13,2.42-.83.26-.31.44-.68.44-1.09,0-2.26-5.07-2.34-5.07-5.67,0-2.57,2.73-3.56,4.89-3.56,1.38,0,2.68.31,3.98.75"/><path class="cls-4" d="m137.25,120.88h-3.4l-1.38,6.21c-.08.34-.16.68-.16,1.01,0,1.04.73,1.48,1.66,1.48.62,0,1.2-.16,1.79-.31l-.42,1.82c-.68.26-1.38.39-2.1.39-1.98,0-3.38-.99-3.38-3.09,0-.62.13-1.22.26-1.85l2.24-10.09,2.78-1.45-.86,3.92h3.4"/><path class="cls-4" d="m149.23,122.93c0-2.68-1.69-4.42-4.37-4.42-4.19,0-6.76,3.95-6.76,7.82,0,3.59,2.21,5.22,5.67,5.22,1.17,0,2.08-.21,3.17-.62l.42-1.87c-1.09.39-2.08.65-3.25.65-2,0-3.72-.96-3.72-3.17,0-.26.03-.49.05-.73h8.08c.44-.88.7-1.87.7-2.89m-2.21,0c0,.47-.08.88-.21,1.33h-6.06c.16-.52.31-1.04.55-1.53.62-1.27,1.82-2.34,3.3-2.34,1.61,0,2.42,1.04,2.42,2.55Z"/><path class="cls-4" d="m159.79,121.11c-.49-.26-.99-.39-1.56-.39-1.04,0-1.92.52-2.65,1.25-1.17,1.17-1.69,2.78-2.03,4.37l-1.09,4.94h-2.39l2.78-12.45h2.24l-.62,2.78c1.01-1.92,2.16-3.04,4.42-3.04.55,0,.96.05,1.43.36"/><path class="cls-3" d="m36.1,140.03c0,.23-.07.45-.21.64-.34.48-.83.54-1.38.54h-.4l.46-2h.36c.58,0,1.17.14,1.17.82m2.01-3.05c0-.38-.12-.76-.39-1.05-.57-.62-1.45-.66-2.24-.66h-1.48l-1.62,7.07h1.88c1.05,0,2.1-.08,2.82-.94.31-.37.5-.84.5-1.32,0-.67-.37-1.15-1.04-1.3.22-.06.42-.12.62-.22.61-.31.96-.91.96-1.57Zm-1.44.18c0,.23-.08.47-.24.65-.34.4-.78.46-1.29.46h-.36l.44-1.9h.34c.55,0,1.1.15,1.1.79Z"/><path class="cls-3" d="m46.18,139.76c-.18.77-.41,1.51-1.03,2.06-.51.45-1.08.63-1.76.63-1.31,0-2.34-.57-2.34-1.95,0-.36.05-.69.13-1.04l.96-4.19h1.48l-1.04,4.53c-.04.18-.08.36-.08.54,0,.54.37.85.92.85.93,0,1.17-.79,1.33-1.51l1-4.41h1.48"/><polyline class="cls-3" points="51.24 142.35 49.76 142.35 51.38 135.27 52.85 135.27"/><polyline class="cls-3" points="59.47 142.35 55.56 142.35 57.18 135.27 58.67 135.27 57.33 141.08 59.76 141.08"/><path class="cls-3" d="m69.13,138.12c0-.69-.17-1.39-.63-1.93-.72-.84-1.63-.91-2.68-.91h-1.21l-1.62,7.07h1.47c.6,0,1.2-.02,1.79-.16.35-.09.69-.21,1-.4,1.23-.77,1.88-2.28,1.88-3.67m-1.48.03c0,.79-.28,1.69-.85,2.28-.48.5-.99.69-1.68.69h-.38l1.04-4.59c.36,0,.73.01,1.08.14.62.24.78.89.78,1.47Z"/><polyline class="cls-3" points="73.36 142.35 71.89 142.35 73.51 135.27 74.97 135.27"/><polyline class="cls-3" points="82.28 142.35 80.72 142.35 79.75 137.76 78.79 142.35 77.36 142.35 78.99 135.27 80.43 135.27 81.48 140.06 82.47 135.27 83.89 135.27"/><path class="cls-3" d="m92.17,136.72c-.45-.2-.88-.32-1.38-.32-1.75,0-2.7,1.47-2.7,3.05,0,.85.37,1.74,1.38,1.74.15,0,.32-.03.46-.09l.55-2.39h1.39l-.77,3.41c-.51.24-1.15.35-1.71.35-1.85,0-2.79-1.26-2.79-2.96,0-2.28,1.49-4.35,3.98-4.35.66,0,1.26.13,1.85.42"/><path class="cls-3" d="m104.84,136.65c-.33-.17-.96-.26-1.34-.26-.6,0-1.23.25-1.23.92,0,1.05,1.96,1.46,1.96,3.07,0,.39-.15.78-.38,1.1-.54.74-1.33.98-2.23.98-.71,0-1.29-.09-1.95-.34l.27-1.14c.45.18.85.27,1.34.27.43,0,.83-.07,1.13-.41.14-.16.22-.37.22-.58,0-1.16-1.92-1.5-1.92-3.05,0-.39.14-.76.36-1.08.51-.72,1.36-.97,2.22-.97.63,0,1.24.13,1.83.32"/><path class="cls-3" d="m114.02,137.93c0-1.51-.79-2.78-2.47-2.78-2.47,0-3.78,2.29-3.78,4.45,0,1.6.76,2.85,2.54,2.85.58,0,1.15-.13,1.64-.41,1.37-.77,2.06-2.66,2.06-4.12m-1.5-.06c0,1.12-.62,3.29-2.04,3.29-.89,0-1.2-.79-1.2-1.53,0-1.13.68-3.16,2.11-3.16.84,0,1.13.7,1.13,1.4Z"/><path class="cls-3" d="m122.28,136.7c-.31-.21-.79-.29-1.17-.29-1.68,0-2.51,1.63-2.51,3.08,0,.95.49,1.72,1.55,1.72.45,0,.86-.15,1.27-.32l-.29,1.24c-.43.2-.87.32-1.35.32-.72,0-1.36-.24-1.89-.72-.63-.57-.85-1.42-.85-2.24,0-1.42.71-2.98,1.95-3.79.57-.37,1.28-.55,1.96-.55.57,0,1.09.12,1.59.38"/><polyline class="cls-3" points="126.09 142.35 124.61 142.35 126.23 135.27 127.7 135.27"/><polyline class="cls-3" points="135.36 136.53 132.91 136.53 132.53 138.2 134.83 138.2 134.57 139.33 132.27 139.33 131.88 141.08 134.4 141.08 134.12 142.35 130.12 142.35 131.73 135.27 135.65 135.27"/><polyline class="cls-3" points="143.19 136.53 141.67 136.53 140.35 142.35 138.87 142.35 140.2 136.53 138.5 136.53 138.8 135.27 143.49 135.27"/><path class="cls-3" d="m148.89,139.99l-.55,2.35h-1.5l.55-2.36c-.06-.23-.11-.45-.17-.68-.18-.62-.34-1.23-.46-1.86l-.41-2.16h1.56l.48,3.57,2.03-3.57h1.7c-1.03,1.6-2.02,3.23-3.22,4.72"/><path class="cls-3" d="m224.01,107.27h-3.39c-4.38,3.23-8.44,6.53-12.28,9.99-8.5,7.64-15.8,15.93-21.71,24.66-4.87-5.12-9.2-7.53-11.99-8.64-3.09-1.23-4.98-1.21-5.06-1.2-.14,0-.28.11-.32.25-.02.06-.05.26.21.41l.03.02c3.37,1.37,6.65,3.78,9.49,7,2.24,2.53,4.13,5.49,5.42,8.47h4.92c9.25-16.91,24.08-31.68,34.67-40.94"/><path class="cls-4" d="m186.15,127.19c3.51,0,7.28-2.02,10.64-6,3.43-4.08,5.71-9.19,6.45-13.93h-6.04c-.73,4.03-2.12,8.37-4.12,12.37-1.96,3.94-3.93,5.91-5.78,5.91-1.96,0-2.99-1.79-2.99-5.4,0-4.1.85-8.58,2.4-12.87h-5.86c-1.47,3.31-2.27,6.82-2.27,10.08,0,6.46,2.69,9.84,7.59,9.84"/><path class="cls-5" d="m215.93,129.18c-4.04,0-8.07,2.24-11.79,6.68-2.98,3.58-5.05,8-5.95,12.35h6.32c.94-4.37,2.61-8.79,4.9-12.73,1.78-3.05,3.61-4.58,5.38-4.58,2.1,0,2.91,1.67,2.91,5.35s-.7,7.76-2.01,11.97h6.16c1.19-3.08,1.83-6.23,1.83-9.1,0-6.44-2.91-9.93-7.75-9.93"/></g></g></svg>