<?xml version="1.0" encoding="UTF-8"?><svg id="Layer_1" xmlns="http://www.w3.org/2000/svg" viewBox="0 0 256 256"><defs><style>.cls-1{fill:#fff;}.cls-2{fill:#73b943;}</style></defs><rect class="cls-1" y="-.28" width="256" height="256"/><path class="cls-2" d="m225.74,107.53c-12.57,7.73-25.32,18.8-37.6,33.01-12.48,14.46-23.36,34.8-27.88,57.36-2.23,11.11-3.64,18.38-7.93,25.36,43.52-10.91,75.68-49.34,75.68-95.07,0-7.1-.79-14.01-2.26-20.67Zm-47.54,67.83s.37-25.08,36.92-30.69c0,0,10.2,23.46-36.92,30.69Zm6.51-92.87c4.65,18.04,3.68,33.47-.09,47.21,12.21-13.04,25.28-22.82,37.77-28.68-10.1-34.33-38.4-60.89-73.79-68.64,15.34,11.4,30.59,28.67,36.11,50.11Zm20.98-5.22c8.44,28.84-10.94,31.69-10.94,31.69-6.54-22.37,10.94-31.69,10.94-31.69Zm-33.46-1.26c-5.86-17.16-19.31-35.35-28.3-44.98-5.64-1-11.42-1.55-17.34-1.55s-11.34.51-16.8,1.45c-8.98,9.55-22.67,27.97-28.59,45.31-6.63,19.75-5.96,41.64,1.75,62.55.29-5.74,1.85-11.6,5.18-17.55,4.49-8.02,9.78-12.88,15.83-16.52,7.34-4.43,16.55-6.14,18.95-6.35,4.27-.37,3.42.75,1.72,1.64-2.95,1.39-5.44,2.68-10.02,5.36-5.83,3.42-12.45,8.38-16.39,14.78-9.53,12.55-7.88,30.97.45,49.2h-.01c3.6,7.94,6.7,17.57,9.79,31.42,2.54,11.36,3.97,24.45,17.21,25.17.31,0,.61.02.92.02.57,0,1.13-.04,1.7-.05,13.96-.7,14.11-13.86,16.63-25.15,5.26-23.55,10.91-34.76,17.84-46.89,14.23-25.39,17.79-53.06,9.47-77.87Zm-39.93-4.77c52.58,25.56,32.03,49.5,32.03,49.5-40.79-19.83-32.03-49.5-32.03-49.5Zm-40.86,19.14s-15.1-23.68,34.97-39.48c0,0,3.87,27.22-34.97,39.48Zm21.5,77.71c-1.04,3.28-5.03,2.9-5.03,2.9-5.64-.39-6.19-8.69-6.19-8.69,3.37-2.54,6.84-1.44,6.84-1.44,5.88,2.18,4.38,7.24,4.38,7.24Zm-7.98-40.16s18.84-14.72,42.46,5.92c0,0-12.01,20.69-42.46-5.92Zm39.22,43.06s-3.99.38-5.03-2.9c0,0-1.5-5.06,4.38-7.24,0,0,3.47-1.1,6.83,1.44,0,0-.54,8.3-6.18,8.69Zm-74.98-41.92c-3.76-13.6-4.71-28.87-.02-46.69,5.67-21.55,21.44-38.88,37.19-50.21-36.28,7.48-65.32,33.99-75.68,68.33,12.73,5.81,26.06,15.55,38.5,28.57Zm-10.49-20.61s-19.67-2.83-11.11-31.49c0,0,17.75,9.26,11.11,31.49Zm36.07,90.55c-4.45-22.71-15.14-43.18-27.41-57.73-12.12-14.38-24.72-25.56-37.13-33.34-1.46,6.74-2.25,13.74-2.25,20.92,0,46.25,31.92,85.07,75.02,95.83-.04-.05-.05-.1-.09-.15-4.52-5.43-5.96-14.33-8.15-25.52Zm-54.54-53.58c35.92,5.64,36.28,30.89,36.28,30.89-46.31-7.27-36.28-30.89-36.28-30.89Z"/></svg>