<?xml version="1.0" encoding="UTF-8"?><svg id="Layer_1" xmlns="http://www.w3.org/2000/svg" viewBox="0 0 256 256"><defs><style>.cls-1{fill:#fff;}.cls-2{fill:#dc0046;}.cls-3{fill:#76777a;}.cls-4{fill:#93d500;fill-rule:evenodd;}</style></defs><rect class="cls-1" y="-.28" width="256" height="256"/><g><g><path class="cls-3" d="m120.46,122.49h-7.93v-7.84l-2.51.85v16.83h2.51v-7.92h7.93v7.92h2.52v-17.25h-2.52v7.41Zm10.11-2.57c-1.63,0-2.73.29-4.36,1.18l.7,1.61c1.29-.65,2.09-.91,3.19-.91s2.16.8,2.16,1.93v.83h-2.84c-2.33,0-4.25,1.47-4.28,3.91-.03,2.25,1.85,4.04,4.04,4.09v-.02c2.38.05,4.25-.88,5.48-2.11l-.03-6.79c0-2.36-2.06-3.72-4.06-3.69m1.63,10c-.35.32-1.23.8-2.16.8-1.37-.03-2.33-1.15-2.33-2.33,0-1.25.93-2.05,2.27-2.03l2.22.03v3.53Zm8.33-9.52c-1.12.4-2.09,1.04-2.89,1.95v9.98h2.46v-9.47c.61-.51,1.39-.88,2.51-.88.24-.03.67.05,1.26.16.29-.67.61-1.26.99-2.06-2.01-.4-3.15-.11-4.33.32m11.45-.54c-1.17-.03-2.22.29-3.18.83v-8.63l-2.43.83v17.43c.08.13,1.63,2.11,5.62,2.24v-.03c3.21.11,4.87-3.18,4.9-6.58,0-2.99-1.5-5.99-4.9-6.1m-.27,10.86c-1.44.08-2.59-.5-2.91-.77v-7.39c.64-.35,1.74-.75,2.76-.75h.03c2.22,0,2.62,2.27,2.62,4.28s-.56,4.55-2.49,4.62m12.33-10.8c-3.51-.03-5.57,2.92-5.57,6.12s1.74,6.48,5.51,6.5c3.8.03,5.59-3.24,5.59-6.5s-2.03-6.1-5.53-6.12m0,10.86c-2.2.02-2.92-2.46-2.92-4.74,0-2.05.53-4.05,2.87-4.22,0,0,0,0-.01,0h.02s0,0-.01,0c2.21.14,2.93,2.19,2.93,4.25-.02,2.25-.51,4.65-2.88,4.71m10.82-10.38c-1.12.4-2.09,1.04-2.88,1.95v9.98h2.46v-9.47c.62-.51,1.39-.88,2.52-.88.24-.03.67.05,1.25.16.29-.67.62-1.26.99-2.06-2.01-.4-3.15-.11-4.33.32m9.97-.48c-3.5-.03-5.57,2.92-5.57,6.12s1.74,6.48,5.51,6.5c3.8.03,5.59-3.24,5.59-6.5s-2.03-6.1-5.54-6.12m0,10.86c-2.19.02-2.92-2.46-2.92-4.74,0-2.05.53-4.05,2.88-4.22,0,0-.01,0-.02,0h.02s0,0,0,0c2.21.14,2.92,2.19,2.92,4.25-.03,2.25-.5,4.65-2.88,4.71m14.87-.83c-.59.37-1.42.75-2.3.77-1.55.03-2.67-.88-2.67-2.46v-8.45l-2.54.85v8.26c0,2.52,2.19,3.61,4.01,3.61,2.33,0,4.25-.78,5.99-2.06v-10.33h-2.49v9.79Zm4.76-3.59c.03,2.81,1.47,6.21,4.87,6.23,1.34,0,2.38-.32,3.45-.96-.03.08-.03.19-.03.29,0,.88-.03,2.25-.38,2.91-.77,1.44-3.02,1.61-4.47,1.82l.43,1.74c2.19-.05,5.08-.8,6.13-2.81v.03c.62-1.15.7-2.97.7-4.36v-9.02c-1.82-1.6-4.04-2.27-5.89-2.27-3.32,0-4.81,3.74-4.81,6.39m8.21-3.63v6.92c-.86.51-1.71,1.04-2.78,1.04-2.01,0-2.73-2.46-2.73-4.36s.72-4.52,2.84-4.52c1.02,0,1.79.35,2.67.91m11.6-2.65c-1.39,0-2.62.4-3.72,1.09l.03-9.08-2.49.8v19.43h2.49v-9.09c.91-.67,1.9-1.26,2.97-1.26,1.31,0,1.93,1.28,1.93,2.59v7.76h2.51v-8.35c0-2.17-1.47-3.9-3.72-3.9"/><path class="cls-3" d="m148.48,137.87c.23-.18.34-.4.34-.69.01-.69-.55-1.02-1.08-1.02h-1.37v3.77s.67.68,1.58.58h0c.7-.08,1.34-.64,1.32-1.39,0-.69-.35-1.04-.8-1.25m-1.5-1.24h.69c.29,0,.52.25.52.52s-.15.6-.43.6h-.77v-1.12Zm.84,3.4c-.32.04-.68-.15-.84-.28v-1.56s.7,0,.7,0c.64,0,.89.53.89.94s-.29.82-.76.89m5.27-1.14c0,.66-.38,1.09-1.02,1.09-.65,0-.96-.4-.96-1.08v-2.87s-.63.22-.63.22v2.72c0,.91.67,1.54,1.55,1.54.91,0,1.59-.63,1.59-1.54v-2.82h-.51v2.74Zm1.98,1.57h.63v-4.42l-.63.22v4.2Zm2.74-.49v-3.93l-.61.22v4.2h2.18l-.24-.49h-1.32Zm4.06-3.83h-1.4v3.82c.31.25.84.54,1.39.54h0c1.06,0,1.72-1.08,1.72-2.13s-.49-2.23-1.7-2.23m-.12,3.88c-.24,0-.5-.12-.65-.24v-3.15h.45c1.09,0,1.32.9,1.33,1.8,0,.76-.38,1.6-1.13,1.6m3.11.44h.63v-4.42l-.63.22v4.2Zm4.92-.99l-2.32-3.41-.48.16v4.24h.48v-3.25l2.22,3.25h.58v-4.31h-.48v3.31Zm3.65-1.4l-.22.46h.87v1.21c-.23.14-.46.23-.76.23-.76,0-1.09-1.03-1.08-1.72.02-.74.29-1.68,1.1-1.68.33,0,.63.07.98.3l.25-.41c-.48-.31-.83-.39-1.32-.4-1.18-.03-1.73,1.17-1.76,2.17-.03.96.58,2.26,1.71,2.26h.01c.55,0,.97-.17,1.49-.58v-1.85h-1.27Zm6.49-.27c-.48-.15-.65-.32-.65-.58,0-.37.26-.62.75-.62.33,0,.56.13.83.33l.29-.44c-.35-.26-.68-.43-1.15-.43-.83,0-1.4.5-1.4,1.26,0,.28.07.52.26.71.27.3.82.44,1.2.56.48.16.67.35.67.67,0,.22-.1.39-.29.53-.15.12-.27.17-.57.17-.39,0-.81-.23-1.09-.47l-.28.45c.34.32.86.58,1.37.58.39,0,.68-.08.96-.26h0c.38-.27.6-.65.6-1.06,0-.27-.06-.55-.24-.76-.32-.38-.8-.48-1.25-.62m4.38-1.74c-1.19,0-1.86,1.11-1.86,2.18s.63,2.28,1.86,2.28,1.87-1.24,1.87-2.28-.67-2.19-1.87-2.18m0,3.94c-.75,0-1.17-.87-1.17-1.76,0-.79.4-1.66,1.17-1.67h0,0,0c.77,0,1.16.87,1.16,1.67,0,.88-.42,1.76-1.16,1.76m5.54-.27c-.29.16-.5.24-.84.24-1.37,0-1.48-3.39.02-3.4.33,0,.63.07.99.3l.24-.4c-.4-.29-.83-.39-1.32-.4-1.18-.03-1.73,1.17-1.76,2.16-.02.96.58,2.26,1.71,2.26h0c.55,0,1.03-.16,1.58-.59l-.25-.39c-.19.1-.29.17-.39.22m1.94.73h.63v-4.42l-.63.22v4.2Zm4.37-3.83l.24-.47h-2.48v4.31h2.4v-.47h-1.78v-1.6h1.17l.24-.48h-1.42v-1.28h1.62Zm1.2,0h1.29v3.84h.63v-3.84h1.22v-.47h-2.9l-.23.47Zm6.73-.57s-.68,1.22-1.03,1.88l-1.04-1.87-.6.21,1.24,2.2v1.99h.63v-1.94l1.26-2.29-.45-.18Z"/></g><g><path class="cls-2" d="m49.26,129l-5.72-13.59-2.31.79v16.53h1.89v-11.86l4.88,12.18,1.99-.71,4.65-11.91v12.3h2.47v-16.92h-2.68l-5.17,13.2Zm14.37-8.45c-1.6,0-2.68.29-4.28,1.15l.68,1.57c1.26-.63,2.05-.89,3.12-.89s2.12.79,2.12,1.89v.82h-2.78c-2.28,0-4.17,1.44-4.2,3.83-.02,2.2,1.81,3.96,3.96,4.01v-.03c2.34.05,4.17-.87,5.38-2.07l-.03-6.66c0-2.31-2.02-3.65-3.99-3.62m1.6,9.81c-.34.31-1.21.79-2.13.79-1.34-.03-2.28-1.13-2.28-2.28,0-1.23.91-2.02,2.23-1.99l2.18.03v3.46Zm7.12-9.34c-1.1.39-2.04,1.02-2.83,1.91v9.79h2.42v-9.29c.6-.5,1.37-.87,2.47-.87.24-.02.65.05,1.23.16.29-.66.6-1.24.97-2.02-1.97-.39-3.1-.1-4.25.32m13.98.58l-1.31-1.26-4.99,4.56v-10.97l-2.44.84v17.95l2.44-.63v-4.67l.71-.66,3.83,5.96h2.89l-4.88-7.66,3.75-3.46Zm6.47,9.58c-1.81.05-3.23-1.6-3.12-4.3h6.9c-.05-3.83-1.23-6.22-4.62-6.22s-4.75,3.33-4.78,6.32c-.02,1.97.76,3.83,2.05,4.93,1.44,1.23,3.67,1.18,5.33.71.79-.21,1.42-.55,2.23-1.08l-.68-1.39c-1.26.6-2.1,1-3.31,1.02m-.76-8.81c1.34,0,2.02,1.31,2.07,2.83h-4.33c.18-1.52.81-2.83,2.26-2.83m11.53.21v-1.78h-2.07v-3.94l-2.41.86v3.07h-1.26v1.78h1.26v7.19c0,2.15,1.68,3.36,4.48,3.1v-1.5c-1.47-.08-2.07-.37-2.07-1.65v-7.14h2.07Z"/><path class="cls-4" d="m36.96,110.91c-.15.08-.29.17-.41.26.07-.13.13-.24.19-.35.1.09.39-.05.69-.33.34-.32.58-.71.53-.87-.05-.16-.38-.03-.72.29-.07.06-.12.13-.18.19,0-.02,0-.04.01-.07.08-.47.05-.87-.07-.9-.12-.03-.28.32-.36.79-.07.4-.05.76.03.86-.07.12-.15.24-.24.37.02-.18.03-.38.03-.61-.01-.62-.13-1.11-.27-1.09-.13.02-.23.55-.22,1.17.01.46.07.84.17,1-.02.04-.05.08-.08.14-.05.07-.09.15-.13.22.01-.11.02-.22.01-.34-.01-.61-.19-1.08-.39-1.05-.21.04-.36.56-.35,1.18,0,.5.12.9.28,1.01-.06.12-.12.24-.19.36,0-.15-.02-.32-.05-.49-.1-.64-.32-1.12-.48-1.06-.17.05-.22.62-.11,1.26.07.45.2.8.32.97-.04.09-.08.18-.12.27-.01-.1-.02-.19-.05-.29-.13-.6-.39-1.03-.58-.96-.19.07-.24.62-.11,1.22.1.43.25.77.41.9-.05.14-.1.28-.14.4-.03.09-.06.17-.09.26,0-.2-.02-.44-.06-.69-.11-.66-.32-1.16-.48-1.11-.16.05-.2.63-.09,1.29.1.59.27,1.03.42,1.09-.05.14-.1.29-.15.44-.02-.15-.05-.3-.1-.47-.16-.52-.43-.88-.59-.8-.17.08-.17.57,0,1.09.14.44.35.77.51.81-.36,1.27-.66,2.67-.77,4.13-.07.88-.04,1.5.06,2.31-1.81-5.99-5.04-8.57-5.04-8.57,1.73,3.24,3.33,4.7,3.96,8.27.25,1.42.89,12.5,1.5,16.73.43,3.01,3.34,6.17,3.34,6.17-.97-1.92-1.85-2.41-2.28-5.6.21-2.52.79-4.06,1.26-6.69,1.51-8.5-1.51-12.96-1.51-12.96.28,2.5,1.24,3.63,1.11,6.11-.03.56-.44,3.24-.82,5.98.15-1.94.23-3.99.07-5.01-.34-2.23-1.51-5.24-1.36-6.7.15-1.51.42-2.87.74-4.08.16.01.39-.05.64-.18.42-.22.73-.56.69-.76-.04-.19-.41-.17-.84.05-.11.06-.21.12-.3.19.03-.12.07-.24.11-.36.18.03.46-.04.77-.2.49-.26.86-.66.81-.88-.05-.23-.49-.21-.98.05-.13.07-.24.14-.35.22.05-.16.1-.3.16-.45.16.07.46.04.8-.09.5-.19.89-.52.87-.73-.02-.22-.43-.24-.93-.06-.19.07-.37.17-.51.27.03-.08.07-.17.1-.25.05-.1.09-.2.13-.3.11.14.48.12.92-.06.5-.21.89-.56.87-.77-.03-.22-.45-.22-.96-.01-.25.11-.47.24-.63.38.04-.09.08-.18.12-.26.05-.1.1-.2.15-.3.16.08.5.02.88-.18.49-.26.86-.64.82-.85-.04-.21-.48-.18-.97.08-.12.07-.24.14-.34.22.07-.14.14-.28.22-.42.15.05.47-.03.83-.22.47-.24.82-.58.79-.75-.03-.17-.44-.1-.91.15"/></g></g></svg>