<?xml version="1.0" encoding="UTF-8"?><svg id="Layer_1" xmlns="http://www.w3.org/2000/svg" viewBox="0 0 256 256"><defs><style>.cls-1{fill:#e6007e;}.cls-2{fill:#fff;}.cls-3{fill:#1d1d1b;}</style></defs><rect class="cls-2" y="-.28" width="256" height="256"/><g><g><path class="cls-1" d="m33.41,178.11c.99-1.29,1.77-2.72,2.32-4.25,1.54-5.79-1.16-5.02.77-13.13.39-2.7-.39-3.47-2.7-3.47l-.39,20.85Z"/><path class="cls-1" d="m33.41,216.72c9.27,2.7,24.32,1.93,18.53-3.86-5.79-5.79-3.47-6.56-7.72-10.81-3.44-2.33-7.06-4.4-10.81-6.18v20.85Z"/><circle class="cls-1" cx="101.36" cy="169.62" r="15.83"/><path class="cls-1" d="m122.98,222.9c4.92-2.27,9.47-5.27,13.51-8.88l.77-.39c5.19-3,9.26-7.61,11.58-13.13,2.7-6.18-1.93-11.2-8.49-13.51-1.63-.75-3.31-1.39-5.02-1.93,1.54,1.93,6.56,6.95,1.54,11.2-4.25,3.47-3.47,1.93-11.58,5.79l-9.65,8.88c-3.09,1.16-6.18,2.7-12.36-3.86-.39-.39,0,4.25.39,4.63.76,4.15,2.62,8.02,5.41,11.2h13.9Z"/><path class="cls-1" d="m144.99,168.84c.39,3.09.77,6.95-7.34,10.42,1.52.48,3.07.86,4.63,1.16,8.49,0,13.13.39,15.44-8.49,2.32-8.88-1.54-16.22-3.09-22.39l-.77-.39c-1.41-5.78-4.5-11.02-8.88-15.06-5.02-4.63-11.2-1.93-15.83,3.86-.39.39-3.86,4.25-3.47,3.86,2.32-.77,8.49-4.25,11.2,1.93,1.93,5.02.77,3.86,1.93,12.74l6.18,12.36Z"/><path class="cls-1" d="m113.71,127.92c3.09.77,6.56,1.54,7.72,10.42,0,.39,2.32-3.47,2.7-3.86,2.7-8.11,4.25-12.36-3.09-17.37-7.72-5.02-15.83-3.86-22.01-3.86h-.77c-5.92-.44-11.84.91-16.99,3.86-5.79,3.47-5.02,10.04-1.16,16.22.39.39,2.7,5.02,2.7,4.63,0-2.7-1.16-9.65,5.41-10.04,5.41-.39,3.86.77,12.74,1.93l12.74-1.93Z"/><path class="cls-1" d="m65.45,144.9c1.54-2.7,3.47-5.79,12.36-4.25.39,0-2.7-3.47-3.09-3.86-6.95-5.02-10.42-8.11-17.37-2.32-6.95,5.79-8.49,13.9-10.42,20.08l-.39.77c-2.45,5.45-2.99,11.57-1.54,17.37,1.54,6.56,8.11,8.11,15.06,5.79,1.69-.3,3.37-.69,5.02-1.16-2.7-.77-9.27-1.93-7.72-8.11,1.16-5.41,1.93-3.47,5.79-11.58l2.32-12.74Z"/><path class="cls-1" d="m93.25,222.9c2.52-3.04,3.89-6.86,3.86-10.81.31-1.78.44-3.6.39-5.41-1.54,2.32-4.63,8.49-10.04,5.02-4.63-2.7-2.7-2.7-9.27-9.27l-11.58-6.18c-2.32-2.32-4.63-5.02-.39-12.74,0-.39-3.86,1.54-4.63,1.93-6.95,5.02-10.81,7.72-7.72,15.83,3.47,8.49,10.81,12.36,15.83,16.22l.77.39c2.73,2.16,5.71,3.98,8.88,5.41l13.9-.39Z"/><path class="cls-1" d="m172.4,194.71c-1.93,4.25-11.97,6.95-15.44,10.04-4.63,3.86-1.93,4.63-8.11,10.42-6.95,6.56,13.51,7.72,21.62,3.86,6.95-3.47,3.86-15.44,5.79-22.78,3.09-6.95,13.13-14.29,9.65-21.62-3.86-8.11-20.46-19.69-18.92-10.42,1.16,8.11-1.16,7.34,0,13.13.39,4.25,6.56,12.74,5.41,17.37Z"/><path class="cls-1" d="m147.31,110.16c3.47,3.09,3.09,13.51,4.63,17.76,2.32,5.41,3.86,3.47,7.34,10.81,3.86,8.49,11.58-10.81,10.04-19.31-1.16-7.72-13.51-8.49-20.08-12.74-5.79-5.02-9.65-16.99-17.37-15.83-8.88,1.16-25.1,13.51-15.83,15.06,8.11,1.54,6.56,3.47,12.36,4.25,4.63.39,14.67-3.09,18.92,0Z"/><path class="cls-1" d="m58.5,107.45c3.86-2.32,13.9,1.16,18.53,1.16,5.79-.39,4.25-2.7,12.74-3.47,9.27-1.16-6.56-14.29-15.06-15.44-7.72-1.16-12.36,10.42-18.15,15.06-6.56,3.86-18.92,3.86-20.46,11.58-1.54,8.49,5.02,28.19,9.27,19.69,3.86-7.34,5.41-5.41,7.72-10.81,1.54-4.25,1.54-14.67,5.41-17.76Z"/><path class="cls-1" d="m101.75,145.29c-1.54,0-7.72,1.16-7.72,1.16-1.28-1.07-2.33-2.38-3.09-3.86-.68-1.64-.54-3.5.39-5.02,1.1-1.64,3.19-2.28,5.02-1.54,1.93.39,3.86,2.32,5.41,2.32,1.93,0,3.09-1.54,4.63-2.32,1.92-.73,4.08.1,5.02,1.93.93,1.51,1.07,3.38.39,5.02-.76,1.48-1.81,2.79-3.09,3.86,0,0-5.41-1.16-6.95-1.54Z"/><path class="cls-1" d="m194.8,222.9c3.75-7.44,6.85-15.19,9.27-23.17l.39-1.54c4.56-11.41,5.5-23.94,2.7-35.91-3.47-13.51-8.11-19.31-30.5-10.04-1.16.39-4.63,1.16-4.25,1.16,13.13,3.47,26.64,18.53,19.31,30.5-15.06,24.32-8.88,25.48-13.13,36.68v.39c0,.77-.39,1.16-.77,2.32l16.99-.39Z"/><path class="cls-1" d="m173.56,111.7c5.79,2.7,7.72,23.94-3.09,32.05,2.35-.34,4.67-.86,6.95-1.54,20.08-5.02,19.69-15.44,15.83-25.87-5.02-14.67-21.24-27.8-31.66-35.52l-1.16-.77c-9.52-7.94-21.24-12.79-33.59-13.9-13.9-1.16-20.85,1.93-19.31,25.87-.05,1.42-.18,2.84-.39,4.25,7.34-11.58,25.87-19.69,34.75-8.88,18.92,22.01,22.01,16.6,31.66,24.32Z"/><path class="cls-1" d="m33.41,106.29c.81-.31,1.59-.7,2.32-1.16,26.64-10.81,22.39-15.44,32.43-22.01l.39-.39c4.63-4.63,25.1,0,29.73,12.74.39.77.77-5.79.77-7.34,1.54-20.85-8.49-23.17-19.69-23.17-15.44.39-33.2,11.58-43.63,19.31l-1.16.77c-.3.03-.57.17-.77.39l-.39,20.85Z"/><path class="cls-1" d="m101.36,64.98l6.56-6.95s-.77-16.99-6.95-16.99-6.18,16.6-6.18,16.6l6.56,7.34,6.56-6.95"/><path class="cls-1" d="m69.31,123.28l.77-3.86s-4.25-5.41-6.18-3.86c-1.93,1.54,1.93,6.95,1.93,6.95l3.47.77.77-3.86"/><path class="cls-1" d="m206.38,144.13s14.67-5.41,12.74-10.81c-1.93-5.41-16.22-.77-16.22-.77l-4.63,7.72,8.11,3.86Z"/><path class="cls-1" d="m47.31,185.83l-3.47-1.93s-6.56,2.32-5.79,4.63c.77,2.32,6.95.39,6.95.39l2.32-3.09-3.47-1.93"/><path class="cls-1" d="m154.25,188.53l1.93,3.47s6.56,1.93,7.34-.39-5.41-4.63-5.41-4.63l-3.86,1.54,1.93,3.47"/><path class="cls-1" d="m135.72,124.83l3.86-.77s3.86-5.79,1.93-6.95c-1.93-1.54-6.18,3.86-6.18,3.86l.39,3.86,3.86-.77"/><path class="cls-1" d="m78.19,161.89c-.39,1.54-1.16,7.72-1.16,7.72-1.42.82-3,1.35-4.63,1.54-1.76.09-3.46-.62-4.63-1.93-1.38-1.54-1.38-3.87,0-5.41,1.16-1.54,3.47-3.09,3.86-4.25.39-1.54-.77-3.47-.77-5.02-.19-1.99,1.13-3.82,3.09-4.25,1.76-.37,3.6.06,5.02,1.16,1.2,1.2,2.12,2.65,2.7,4.25,0,0-2.7,4.63-3.47,6.18Z"/><path class="cls-1" d="m86.69,189.31c1.16.77,6.95,3.47,6.95,3.47.42,1.64.55,3.34.39,5.02-.37,1.83-1.7,3.31-3.47,3.86-1.83.6-3.84-.02-5.02-1.54-1.16-1.54-1.93-4.25-3.09-5.02-1.54-1.16-3.47-.39-5.02-1.16-1.86-.56-3.13-2.3-3.09-4.25-.05-1.83,1.02-3.51,2.7-4.25,1.42-.77,3.02-1.17,4.63-1.16l5.02,5.02Z"/><path class="cls-1" d="m115.26,189.69l5.41-5.41c1.62-.01,3.21.38,4.63,1.16,1.59,1.02,2.6,2.74,2.7,4.63.21,2-1.12,3.83-3.09,4.25-1.93.77-4.63.39-5.79,1.54-1.54,1.16-1.54,3.09-2.7,4.63-1.17,1.53-3.19,2.15-5.02,1.54-1.78-.56-3.11-2.04-3.47-3.86-.16-1.68-.03-3.38.39-5.02l6.95-3.47Z"/><path class="cls-1" d="m124.53,162.67c-1-2.39-2.16-4.71-3.47-6.95.67-1.55,1.59-2.98,2.7-4.25,1.42-1.1,3.26-1.53,5.02-1.16,1.96.43,3.28,2.25,3.09,4.25-.3,1.92-.43,3.85-.39,5.79.39,1.54,2.7,2.32,3.47,3.86,1.17,1.61,1.17,3.79,0,5.41-1.11,1.4-2.86,2.12-4.63,1.93-1.68-.27-3.26-.93-4.63-1.93,0,0-.77-5.41-1.16-6.95Z"/></g><path class="cls-3" d="m228,225.6H28V29.85h199.61v195.75h.39Zm-195.75-4.25h191.51V33.71H32.25v187.64Z"/></g></svg>