<?xml version="1.0" encoding="UTF-8"?><svg id="Layer_1" xmlns="http://www.w3.org/2000/svg" viewBox="0 0 256 256"><defs><style>.cls-1{fill:#fff;}.cls-2{fill:#4cb9aa;}</style></defs><rect class="cls-1" y="-.28" width="256" height="256"/><g><polygon class="cls-2" points="46.39 133.62 46.39 180.49 59.34 180.49 59.34 139.52 85.83 116.48 112.33 139.52 112.33 180.49 125.28 180.49 125.28 133.62 85.83 99.32 46.39 133.62"/><polygon class="cls-2" points="130.79 133.62 130.79 180.49 143.67 180.49 143.67 139.52 170.17 116.48 196.66 139.52 196.66 180.49 209.68 180.49 209.68 133.62 170.24 99.32 130.79 133.62"/><polygon class="cls-2" points="170.17 74.95 128 111.62 85.83 74.95 28 125.24 28 180.49 40.87 180.49 40.87 131.1 85.83 92.02 128.04 128.71 170.24 92.02 215.2 131.11 215.2 180.49 228 180.49 228 125.24 170.17 74.95"/></g></svg>