<?xml version="1.0" encoding="UTF-8"?><svg id="Layer_1" xmlns="http://www.w3.org/2000/svg" viewBox="0 0 256 256"><defs><style>.cls-1{fill:#ef7d00;}.cls-2{fill:#fff;}</style></defs><rect class="cls-2" y="-.28" width="256" height="256"/><g><path class="cls-1" d="m147.23,175.97c-26.59,0-48.33-21.74-48.33-48.33h0c0-8.86-7.19-16.05-16.05-16.05h0c-8.86,0-16.05,7.19-16.05,16.05v51.67c0,1.84,1.51,3.18,3.18,3.18,1.84,0,3.18-1.51,3.18-3.18v-51.67c0-5.35,4.35-9.7,9.7-9.7s9.7,4.35,9.7,9.7h0c0,30.27,24.58,54.85,54.85,54.85,1.84,0,3.18-1.51,3.18-3.18s-1.51-3.34-3.34-3.34"/><path class="cls-1" d="m147.23,163.09c-19.57,0-35.45-15.89-35.45-35.45h0c0-26.59,21.74-48.33,48.33-48.33s48.33,21.74,48.33,48.33h0c0,8.86,7.19,16.05,16.05,16.05,1.84,0,3.18-1.51,3.18-3.18s-1.51-3.18-3.18-3.18c-5.35,0-9.7-4.35-9.7-9.7h0c.17-30.27-24.41-54.85-54.52-54.85-15.05,0-28.76,6.19-38.63,16.05-10.37-10.2-24.25-16.05-38.8-16.05h0c-30.27,0-54.85,24.58-54.85,54.85v51.67c0,1.84,1.51,3.18,3.18,3.18,1.84,0,3.18-1.51,3.18-3.18v-51.67c0-26.59,21.74-48.33,48.33-48.33,13.04,0,25.42,5.18,34.45,14.38-1.34,1.67-2.68,3.51-3.85,5.35-7.86-8.53-19.06-13.38-30.6-13.38h0c-22.91,0-41.81,18.9-41.81,41.97v51.67c0,1.84,1.51,3.18,3.18,3.18,1.84,0,3.18-1.51,3.18-3.18v-51.67c0-19.57,15.89-35.45,35.45-35.45h0c10.03,0,19.73,4.35,26.42,11.87.33.33.67.84,1,1.17-1,2.34-2.01,4.85-2.68,7.36-5.18-8.36-14.21-13.88-24.75-13.88-16.05,0-29.1,13.04-29.1,29.1v51.67c0,1.84,1.51,3.18,3.18,3.18s3.18-1.51,3.18-3.18v-51.84c0-12.37,10.2-22.58,22.58-22.58s22.58,10.2,22.58,22.58h0c0,23.08,18.73,41.97,41.97,41.97,1.84,0,3.18-1.51,3.18-3.18s-1.17-3.34-3.01-3.34"/><path class="cls-1" d="m224.66,175.97c-26.59,0-48.33-21.74-48.33-48.33h0c0-8.86-7.19-16.05-16.05-16.05h0c-8.86,0-16.05,7.19-16.05,16.05,0,1.84,1.51,3.18,3.18,3.18s3.18-1.51,3.18-3.18c0-5.35,4.35-9.7,9.7-9.7s9.7,4.35,9.7,9.7h0c0,30.27,24.58,54.85,54.85,54.85,1.84,0,3.18-1.51,3.18-3.18s-1.51-3.34-3.34-3.34"/><path class="cls-1" d="m224.66,163.09c-19.57,0-35.45-15.89-35.45-35.45,0-16.05-13.04-29.1-29.1-29.1s-29.1,13.04-29.1,29.1h0c0,8.86,7.19,16.05,16.05,16.05,1.84,0,3.18-1.51,3.18-3.18s-1.51-3.18-3.18-3.18c-5.35,0-9.7-4.35-9.7-9.7h0c0-12.37,10.2-22.58,22.58-22.58h0c12.37,0,22.58,10.2,22.58,22.58,0,23.08,18.73,41.97,41.97,41.97,1.84,0,3.18-1.51,3.18-3.18s-1.17-3.34-3.01-3.34"/><path class="cls-1" d="m224.66,150.21c-12.37,0-22.58-10.2-22.58-22.58h0c0-23.08-18.73-41.97-41.97-41.97h0c-23.08,0-41.81,18.9-41.81,41.97h0c0,16.05,13.04,29.1,29.1,29.1,1.84,0,3.18-1.51,3.18-3.18s-1.51-3.18-3.18-3.18c-12.37,0-22.58-10.2-22.58-22.58h0c0-19.57,15.89-35.45,35.45-35.45s35.45,15.89,35.45,35.45h0c0,16.05,13.04,28.93,29.1,28.93,1.84,0,3.18-1.51,3.18-3.18s-1.51-3.34-3.34-3.34"/></g></svg>