<?xml version="1.0" encoding="UTF-8"?><svg id="Layer_1" xmlns="http://www.w3.org/2000/svg" viewBox="0 0 256 256"><defs><style>.cls-1{fill:#003865;}.cls-2{fill:#fff;}</style></defs><rect class="cls-2" y="-.28" width="256" height="256"/><g><rect class="cls-1" x="150.19" y="138.67" width="50.46" height="50.46"/><rect class="cls-1" x="150.19" y="83.19" width="50.46" height="50.46"/><polygon class="cls-1" points="190.54 27.72 190.54 37.83 180.43 37.83 180.43 27.72 170.33 27.72 170.33 37.83 160.22 37.83 160.22 27.72 150.19 27.72 150.19 78.18 200.64 78.18 200.64 27.72 190.54 27.72"/><path class="cls-1" d="m200.64,194.13h-55.84V44.32h-11.21v10.98h-11.21v-10.98h-11.21v149.81h-55.8l-10.73,10.73v22.86h73.48v-32.84c0-5.46,4.43-9.89,9.89-9.89s9.89,4.43,9.89,9.89v32.84h73.49v-22.86l-10.74-10.73Zm-66.64-39.63h-11.51v-16.97c0-3.18,2.58-5.75,5.75-5.75s5.76,2.57,5.76,5.75v16.97Zm0-48.58h-11.51v-16.97c0-3.18,2.58-5.75,5.75-5.75s5.76,2.57,5.76,5.75v16.97Z"/><rect class="cls-1" x="55.36" y="138.67" width="50.46" height="50.46"/><polygon class="cls-1" points="95.7 27.72 95.7 37.83 85.6 37.83 85.6 27.72 75.49 27.72 75.49 37.83 65.38 37.83 65.38 27.72 55.36 27.72 55.36 78.18 105.81 78.18 105.81 27.72 95.7 27.72"/><rect class="cls-1" x="55.36" y="83.19" width="50.46" height="50.46"/></g></svg>