<?xml version="1.0" encoding="UTF-8"?><svg id="Layer_1" xmlns="http://www.w3.org/2000/svg" viewBox="0 0 256 256"><defs><style>.cls-1{fill:#054a7a;}.cls-2{fill:#fff;}.cls-3{fill:#70942d;}.cls-4{isolation:isolate;}</style></defs><rect class="cls-2" y="-.28" width="256" height="256"/><g><g class="cls-4"><path class="cls-1" d="m100.15,130.26h4.17l7.59,13.31v-13.31h3.72v19.11h-4l-7.79-13.55v13.55h-3.72v-19.11h.03Z"/><path class="cls-1" d="m128.33,135.53c1,.45,1.79,1.14,2.45,2.1.59.83.97,1.83,1.14,2.93.1.66.14,1.59.14,2.79h-10.28c.07,1.41.55,2.41,1.48,2.97.55.34,1.24.52,2.03.52s1.52-.21,2.03-.66c.28-.24.55-.55.76-.97h3.76c-.1.83-.55,1.69-1.38,2.55-1.28,1.38-3.04,2.07-5.31,2.07-1.9,0-3.55-.59-4.97-1.72-1.45-1.17-2.17-3.04-2.17-5.66,0-2.45.66-4.31,1.93-5.62,1.31-1.31,2.97-1.97,5.07-1.97,1.21-.03,2.31.21,3.31.66Zm-5.55,3.17c-.52.55-.86,1.28-1,2.17h6.38c-.07-.97-.38-1.72-1-2.24-.59-.52-1.31-.76-2.21-.76-.9.03-1.66.31-2.17.83Z"/><path class="cls-1" d="m140.54,135.22h3.76l2.14,10.17,2.21-10.17h3.86l-4.1,14.14h-3.79l-2.21-10.31-2.24,10.31h-3.83l-3.97-14.14h3.97l2.21,10.14,2-10.14Z"/><path class="cls-1" d="m162.99,140.29c-.07-.52-.24-1-.52-1.41-.41-.59-1.07-.86-1.93-.86-1.24,0-2.1.62-2.55,1.86-.24.66-.38,1.52-.38,2.62,0,1.03.14,1.86.38,2.48.45,1.17,1.28,1.76,2.48,1.76.86,0,1.48-.24,1.86-.69.38-.48.59-1.07.66-1.83h3.76c-.1,1.14-.48,2.17-1.21,3.17-1.17,1.62-2.86,2.41-5.14,2.41s-3.97-.69-5.04-2.03-1.62-3.1-1.62-5.24c0-2.41.59-4.31,1.79-5.66s2.83-2.03,4.9-2.03c1.76,0,3.24.41,4.35,1.21,1.14.79,1.79,2.21,2,4.21h-3.79v.03Z"/><path class="cls-1" d="m174.89,140.78c.69-.07,1.17-.21,1.48-.31.52-.24.79-.59.79-1.03,0-.59-.21-.97-.62-1.21-.41-.21-1-.34-1.79-.34-.9,0-1.52.21-1.9.66-.28.31-.45.76-.52,1.31h-3.55c.07-1.24.41-2.24,1.03-3.04.97-1.24,2.66-1.86,5.07-1.86,1.55,0,2.93.31,4.14.93s1.79,1.76,1.79,3.48v6.48c0,.45,0,1,.03,1.62.03.48.1.83.21,1,.14.17.31.31.55.41v.55h-4c-.1-.28-.21-.55-.24-.79s-.07-.55-.1-.86c-.52.55-1.1,1.03-1.76,1.41-.79.45-1.69.69-2.72.69-1.28,0-2.35-.38-3.17-1.1-.83-.72-1.24-1.76-1.24-3.1,0-1.72.69-3,2.03-3.76.72-.41,1.83-.72,3.28-.9l1.21-.24Zm2.28,1.72c-.24.14-.48.28-.72.34-.24.1-.59.17-1,.24l-.83.17c-.79.14-1.35.31-1.69.52-.59.34-.86.86-.86,1.55,0,.62.17,1.1.52,1.38s.79.41,1.31.41c.79,0,1.55-.24,2.24-.69s1.03-1.31,1.07-2.55v-1.38h-.03Z"/><path class="cls-1" d="m186.92,144.85c.07.66.24,1.14.52,1.41.45.48,1.31.72,2.55.72.72,0,1.31-.1,1.72-.31.41-.21.66-.55.66-.97s-.17-.72-.52-.93c-.34-.21-1.62-.59-3.86-1.1-1.62-.41-2.72-.9-3.38-1.48s-1-1.45-1-2.55c0-1.31.52-2.41,1.55-3.38s2.48-1.41,4.35-1.41c1.76,0,3.21.34,4.31,1.07,1.1.69,1.76,1.93,1.93,3.66h-3.69c-.07-.48-.17-.86-.41-1.14-.41-.52-1.1-.76-2.07-.76-.79,0-1.38.14-1.72.38-.34.24-.52.55-.52.9,0,.41.17.72.55.93.38.21,1.66.55,3.86,1.03,1.48.34,2.59.86,3.31,1.55.72.72,1.1,1.59,1.1,2.66,0,1.41-.52,2.55-1.55,3.41-1.03.9-2.66,1.35-4.83,1.35s-3.86-.48-4.93-1.41c-1.07-.93-1.59-2.14-1.59-3.59h3.66v-.03Z"/><path class="cls-1" d="m197.37,137.98v-2.62h1.97v-3.93h3.66v3.93h2.31v2.62h-2.31v7.48c0,.59.07.93.21,1.07.14.14.59.21,1.35.21h.34c.14,0,.24,0,.38-.03v2.76l-1.76.07c-1.76.07-2.93-.24-3.59-.9-.41-.41-.62-1.07-.62-1.97v-8.69h-1.93Z"/><path class="cls-1" d="m211.45,149.36h-3.69v-19.11h3.69v19.11Z"/><path class="cls-1" d="m224.28,135.53c1,.45,1.79,1.14,2.45,2.1.59.83.97,1.83,1.14,2.93.1.66.14,1.59.14,2.79h-10.28c.07,1.41.55,2.41,1.48,2.97.55.34,1.24.52,2.03.52s1.52-.21,2.07-.66c.28-.24.55-.55.76-.97h3.76c-.1.83-.55,1.69-1.38,2.55-1.28,1.38-3.04,2.07-5.31,2.07-1.9,0-3.55-.59-4.97-1.72s-2.17-3.04-2.17-5.66c0-2.45.66-4.31,1.93-5.62,1.31-1.31,2.97-1.97,5.07-1.97,1.17-.03,2.28.21,3.28.66Zm-5.52,3.17c-.52.55-.86,1.28-1,2.17h6.38c-.07-.97-.38-1.72-1-2.24-.59-.52-1.31-.76-2.21-.76-.93.03-1.66.31-2.17.83Z"/></g><g class="cls-4"><path class="cls-3" d="m100.08,155.54h4.97c1.35,0,2.31.41,2.9,1.21.34.48.52,1.03.52,1.66,0,.72-.21,1.31-.62,1.79-.21.24-.52.48-.93.69.59.24,1.03.48,1.31.76.52.52.76,1.21.76,2.07,0,.72-.24,1.41-.69,2-.69.9-1.79,1.35-3.35,1.35h-4.9v-11.52h.03Zm4.38,4.86c.66,0,1.17-.1,1.55-.28.59-.28.86-.79.86-1.55s-.31-1.24-.93-1.52c-.34-.14-.86-.21-1.55-.21h-2.79v3.55h2.86Zm.52,5.31c.97,0,1.66-.28,2.07-.83.24-.34.38-.76.38-1.28,0-.83-.38-1.41-1.14-1.69-.41-.17-.93-.24-1.59-.24h-3.14v4.04h3.41Z"/><path class="cls-3" d="m112.01,158.68v5.55c0,.41.07.79.21,1.03.24.52.69.76,1.38.76.97,0,1.62-.45,1.97-1.31.17-.48.28-1.1.28-1.93v-4.1h1.41v8.38h-1.35v-1.24c-.17.31-.41.59-.66.79-.52.45-1.17.66-1.93.66-1.17,0-1.97-.41-2.41-1.21-.24-.41-.34-1-.34-1.72v-5.69h1.45v.03Z"/><path class="cls-3" d="m119.53,155.54h1.45v1.59h-1.45v-1.59Zm0,3.17h1.45v8.35h-1.45v-8.35Z"/><path class="cls-3" d="m123.15,155.54h1.41v11.52h-1.41v-11.52Z"/><path class="cls-3" d="m131.26,158.92c.24.17.52.41.86.83v-4.24h1.35v11.55h-1.28v-1.17c-.34.52-.72.9-1.17,1.1-.45.24-.97.34-1.55.34-.93,0-1.72-.38-2.41-1.17-.69-.79-1.03-1.83-1.03-3.14,0-1.21.31-2.28.93-3.17s1.52-1.35,2.66-1.35c.69,0,1.24.14,1.66.41Zm-3.14,6.28c.38.62,1,.9,1.83.9.66,0,1.17-.28,1.59-.83.41-.55.62-1.38.62-2.41s-.21-1.83-.66-2.35c-.41-.52-.97-.76-1.59-.76-.69,0-1.28.28-1.72.83s-.66,1.35-.66,2.38c.03.9.21,1.66.59,2.24Z"/><path class="cls-3" d="m135.57,155.54h1.45v1.59h-1.45v-1.59Zm0,3.17h1.45v8.35h-1.45v-8.35Z"/><path class="cls-3" d="m139.16,158.68h1.35v1.21c.38-.48.83-.83,1.28-1.07.45-.21.93-.31,1.48-.31,1.21,0,2,.41,2.41,1.24.24.45.34,1.1.34,1.97v5.38h-1.45v-5.35c0-.52-.07-.93-.24-1.24-.24-.52-.69-.79-1.38-.79-.34,0-.62.03-.83.1-.38.1-.72.34-1.03.69-.24.28-.38.55-.45.86-.07.31-.1.72-.1,1.28v4.38h-1.41v-8.35h.03Z"/><path class="cls-3" d="m152.75,158.99c.28.17.55.45.83.79v-1.07h1.31v7.62c0,1.07-.17,1.9-.48,2.52-.59,1.14-1.69,1.69-3.31,1.69-.9,0-1.66-.21-2.28-.62s-.97-1.03-1.03-1.9h1.45c.07.38.21.66.41.86.31.31.83.48,1.48.48,1.07,0,1.79-.38,2.1-1.14.21-.45.28-1.24.28-2.41-.28.41-.62.76-1,.97s-.93.31-1.55.31c-.9,0-1.69-.31-2.38-.97s-1.03-1.72-1.03-3.21.34-2.48,1.03-3.28,1.52-1.17,2.48-1.17c.62.03,1.17.21,1.69.52Zm.17,1.52c-.41-.52-.97-.76-1.62-.76-1,0-1.66.45-2.03,1.38-.21.48-.28,1.14-.28,1.97,0,.93.21,1.66.59,2.17.38.48.9.72,1.55.72,1,0,1.72-.45,2.14-1.38.24-.52.34-1.1.34-1.79-.07-1.03-.28-1.79-.69-2.31Z"/><path class="cls-3" d="m162.64,163.33c.03.66.17,1.17.45,1.59.48.76,1.38,1.14,2.62,1.14.55,0,1.07-.07,1.55-.24.9-.31,1.35-.9,1.35-1.72,0-.62-.21-1.07-.59-1.35-.38-.28-1-.48-1.79-.69l-1.52-.34c-1-.24-1.69-.48-2.1-.76-.72-.48-1.07-1.21-1.07-2.14,0-1.03.34-1.9,1.03-2.55s1.69-1,2.97-1c1.17,0,2.17.28,3,.86s1.24,1.52,1.24,2.79h-1.45c-.07-.62-.24-1.1-.48-1.41-.45-.59-1.24-.9-2.31-.9-.9,0-1.52.21-1.9.59s-.59.83-.59,1.35c0,.55.24.97.69,1.24.31.17.97.38,2.03.62l1.55.38c.76.17,1.35.41,1.76.72.72.55,1.07,1.31,1.07,2.35,0,1.28-.45,2.17-1.35,2.72-.9.55-1.97.83-3.14.83-1.38,0-2.48-.38-3.28-1.1-.79-.72-1.17-1.72-1.17-2.97h1.41Z"/><path class="cls-3" d="m178.2,159.5c.72.72,1.1,1.79,1.1,3.17s-.31,2.48-.97,3.35c-.66.9-1.66,1.31-3.04,1.31-1.14,0-2.07-.38-2.72-1.17s-1-1.83-1-3.14c0-1.41.34-2.52,1.07-3.38.72-.83,1.66-1.24,2.86-1.24,1.07.03,1.97.38,2.69,1.1Zm-.86,5.55c.34-.69.52-1.48.52-2.35,0-.79-.14-1.41-.38-1.9-.38-.76-1.07-1.17-2.03-1.17-.86,0-1.48.34-1.86,1s-.59,1.45-.59,2.38.21,1.62.59,2.24c.38.59,1,.9,1.83.9.97-.03,1.59-.38,1.93-1.1Z"/><path class="cls-3" d="m186.61,159.13c.59.45.97,1.24,1.07,2.38h-1.38c-.07-.52-.28-.93-.59-1.28-.31-.34-.76-.52-1.45-.52-.9,0-1.55.45-1.93,1.31-.24.55-.38,1.28-.38,2.1s.17,1.55.52,2.1c.34.59.9.86,1.69.86.59,0,1.03-.17,1.38-.52s.59-.83.72-1.45h1.38c-.17,1.1-.55,1.93-1.17,2.45s-1.41.76-2.41.76c-1.1,0-1.97-.41-2.62-1.21s-.97-1.79-.97-3c0-1.48.34-2.62,1.07-3.45s1.62-1.24,2.72-1.24c.97,0,1.72.21,2.35.69Z"/><path class="cls-3" d="m189.06,155.54h1.45v1.59h-1.45v-1.59Zm0,3.17h1.45v8.35h-1.45v-8.35Z"/><path class="cls-3" d="m197.82,158.88c.55.28.97.66,1.28,1.07.28.41.48.93.55,1.48.07.38.14,1,.14,1.86h-6.1c.03.86.24,1.55.59,2.07.38.52.97.76,1.72.76s1.31-.24,1.76-.72c.24-.28.41-.62.52-1h1.38c-.03.31-.17.66-.38,1.03s-.45.69-.69.93c-.41.41-.97.69-1.59.86-.34.07-.72.14-1.14.14-1.03,0-1.93-.38-2.62-1.14-.72-.76-1.07-1.83-1.07-3.21s.38-2.45,1.1-3.28,1.69-1.28,2.86-1.28c.55,0,1.14.14,1.69.41Zm.52,3.31c-.07-.62-.17-1.1-.38-1.45-.38-.69-1.03-1.03-1.93-1.03-.66,0-1.17.24-1.62.69-.45.48-.66,1.07-.69,1.79h4.62Z"/><path class="cls-3" d="m201.82,156.33h1.41v2.35h1.35v1.14h-1.35v5.48c0,.28.1.48.31.59.1.07.28.07.55.07h.21c.07,0,.17,0,.28-.03v1.1c-.17.03-.34.07-.52.1s-.38.03-.55.03c-.66,0-1.1-.17-1.35-.52-.24-.34-.34-.76-.34-1.31v-5.55h-1.1v-1.14h1.14v-2.31h-.03Z"/><path class="cls-3" d="m211.27,158.68h1.55c-.21.55-.66,1.76-1.31,3.69-.52,1.45-.93,2.62-1.28,3.52-.83,2.14-1.38,3.45-1.72,3.9-.34.48-.9.69-1.72.69-.21,0-.34,0-.45-.03-.1,0-.24-.03-.38-.07v-1.28c.24.07.41.1.52.14.1,0,.21.03.28.03.28,0,.45-.03.59-.14.14-.07.24-.21.31-.31.03-.03.1-.24.28-.66.17-.38.28-.66.34-.86l-3.1-8.62h1.59l2.24,6.83,2.28-6.83Z"/></g><g><rect class="cls-3" x="28" y="110.91" width="58.46" height="58.46"/><rect class="cls-1" x="80.56" y="84.91" width="35.8" height="35.8"/><g><rect class="cls-2" x="80.56" y="110.91" width="9.79" height="9.79"/><rect class="cls-2" x="99.84" y="110.91" width="9.79" height="9.79"/><rect class="cls-3" x="119.74" y="110.91" width="9.79" height="9.79"/></g></g></g></svg>