<?xml version="1.0" encoding="UTF-8"?><svg id="Layer_1" xmlns="http://www.w3.org/2000/svg" viewBox="0 0 256 256"><defs><style>.cls-1{fill:#fff;}.cls-2{fill:#feca0b;}</style></defs><rect class="cls-1" y="-.28" width="256" height="256"/><g><path class="cls-2" d="m139.56,122.56c-6.73,0-9.22,6.91-9.22,13.55,0,7.75,3.23,13.55,9.22,13.55,5.44,0,8.94-5.44,8.94-13.55,0-6.73-2.58-13.55-8.94-13.55"/><path class="cls-2" d="m128,27.73c-55.23,0-100,44.76-100,100s44.77,99.98,100,99.98,100-44.76,100-99.98S183.22,27.73,128,27.73m-17.67,130.96h-14.75l-13.27-23.96c-3.69-6.64-7.74-14.66-10.79-21.94l-.28.09c.37,8.2.56,16.96.56,27.1v18.71h-12.91v-62.12h16.41l12.91,22.76c3.69,6.54,7.38,14.29,10.14,21.29h.28c-.92-8.2-1.2-16.59-1.2-25.9v-18.16h12.91v62.12Zm28.86,1.02c-13.18,0-23.32-8.66-23.32-23.23s9.59-23.87,24.06-23.87,23.04,9.49,23.04,23.04c0,16.5-11.7,24.06-23.78,24.06m58.81-1.02h-13.55v-47.47h-.18l-11.44,5.44-2.3-10.5,15.85-7.38h11.61v59.91Z"/></g></svg>