<?xml version="1.0" encoding="UTF-8"?><svg id="Layer_1" xmlns="http://www.w3.org/2000/svg" viewBox="0 0 256 256"><defs><style>.cls-1{fill:#009540;}.cls-2{fill:#fff;}</style></defs><rect class="cls-2" y="-.28" width="256" height="256"/><path class="cls-1" d="m57.57,68.59c11.11,2.32,22.27,3.3,35.2,4.89,8.35,1.03,13.41,4.66,16.02,7.2-9.54.57-15.7,1.55-17.08,1.72-4.67.58-5.73,1.57-4.09,4.09,3.55,5.45,6.13,12.84,6.13,13.43,69.24-15.97,113.49-1.24,122.32,1.75,2.03.69,3.54.09.29-1.46-40.86-19.11-81.33-20.78-104.7-19.69-.37-1.93-.99-4.62-2.85-7.46-.83-3.73-.22-9.93,12.15-11.48,23.51-2.94,64.97,23.01,66.16,24.2,1.76,1.76,2.64,1.1,1.98,0-20.86-20.86-61.48-40.84-81.46-35.79-10.47,2.65-14.37,7.82-15.71,12.15-9.38-3.15-18.99-4.14-30.79-6-17.67-2.78-29.43-14.09-31.61-17.11-1.35-1.87-1.68-1.56-1.47-.45,6.5,16.16,13.36,26.62,29.51,30m168.72,40.39c1.73-.23,3.21-1.17-1.17-2.04-4.38-.88-27.73-7.88-72.69-5.55-44.96,2.33-56.34,9.05-56.34,9.05,0,0-1.35,4.26-3.44,7.4-4.34,6.51-9.39,16.71-5.21,26.81,4.51,10.91,17.57,16.54,27.67,23.05,9.27,5.98,18.44,15.94,18.44,15.94,0,0,2.81,1.71,1.05-1.31-3.56-6.09-11.4-20.29-9.61-31.75,1.91-12.23,10.87-16.2,16.35-20,4.42-3.07,8.87-8.3,11.81-23.31-.09,0,8.32-1.17,14-.73-.02.02,4.73,8.19,6.15,15.47,2.27,11.67-30.9,16.2-21.53,28.4,10.8,14.04,21.33,17.22,7.61,12.97-8.1-2.5-14.24-7.11-14.24-7.11,0,0-3.8,3.21-3.8,9.64s6.13,19.56,10.22,27.44c4.08,7.88,7,14.75,11.09,24.38.02,0,64.56.02,64.56.02,0,0-22.87-20.22-65.44-23.82,0,0-1.45-4.08-3.5-9.93-.58-.58,4.96-5.55,9.92-15.47,0,0,14.86,2.8,23.36,1.17,7.04-1.35,3.53-6.81,2.23-9.8-1.24-2.85-2.82-5.38-2.82-7.43s1.28-3.98,2.05-4.97c1.12-1.45-1.75-3.79-1.75-3.79,0,0,.97-.42,2.44-1.3,1.46-.88,1.64-1.92.77-3.37-.88-1.46-1.75-2.63-1.75-3.8s1.62-.98,3.74-.96c2.35.03,4.26-.65,2.58-3.62-1.45-2.55-7.33-11.74-9.71-16.13-.78-1.44-.3-2.47-.3-2.47,0,0,6.9-.77,20.04-1.64,13.14-.88,15.23-1.2,17.22-1.46m-80.61,106.54c-29.54-14.35-55.13-18.08-54.85-18.08,37.66-1.75,52.41,8.23,52.41,8.23,0,0,2.37,1.09.53-1.05-3.79-4.4-13.18-14.62-20.24-20.9-10.51-9.34-28.28-19.62-46.35-19.47-13.63.11-27.04,5.51-31.99,8.13-1.64.87-.43,1.74-.43,1.74,36.16-8.85,63.26,9.83,69.57,15.02.98.8-.37.71-.37.74-40.88-19.78-79.5-7.22-79.5-7.22l.13,9.86c17.61-6.41,32.4-2.61,35.81-1.51.52.17-.05.44-.05.44-23.21,2.59-35.93,9.52-35.93,9.52v16.77h111.71c2.9,0,.91-1.54-.45-2.21"/></svg>