<?xml version="1.0" encoding="UTF-8"?><svg id="Layer_1" xmlns="http://www.w3.org/2000/svg" viewBox="0 0 256 256"><defs><style>.cls-1{fill:#fff;}.cls-2{fill:#c8a977;}</style></defs><rect class="cls-1" y="-.28" width="256" height="256"/><g><path class="cls-2" d="m152.21,115.42c-4.05-3.59-10.03-3.51-14.05.13-2.76,2.5-4.52,5.58-5.64,8.47,1.5-3.09,3.97-6.33,8-8.64,2.98-1.71,6.63-1.65,9.61.06,3.74,2.15,6.11,5.09,7.62,7.95-1.15-2.76-2.89-5.63-5.54-7.98"/><path class="cls-2" d="m141.06,77.55h8.42c.47,0,.84-.39.84-.86v-.72c0-.46-.36-.83-.81-.83h-1.12c-.51,0-.93-.43-.93-.96v-1.7c0-.53-.42-.96-.93-.96s-.92-.42-.93-.94l-.02-1.04h.48c.27,0,.48-.02.68.07.41.15.7.58.7,1.03,0,.1.08.19.18.19.1,0,.19-.08.19-.18h0c.01-.61-.37-1.19-.92-1.4-.27-.12-.58-.11-.82-.11h-.48s-.01-1.08-.01-1.08l1.77-1.6c0,.19.06.38.2.54.28.28.72.28,1,0,.28-.28.28-.74,0-1.03-.05-.05-.1-.09-.15-.12.08-.04.15-.1.21-.17.27-.27.33-.65.15-.84-.18-.19-.55-.12-.82.15-.07.07-.12.14-.16.22-.03-.06-.07-.11-.11-.15-.28-.28-.72-.28-1,0-.28.28-.28.74,0,1.02.12.13.28.19.44.2l-1.54,1.24-.05-3.39c.11.08.25.14.4.14.39,0,.71-.32.71-.72,0-.4-.31-.73-.7-.73-.07,0-.13.01-.19.03.03-.09.04-.18.04-.27,0-.39-.21-.7-.47-.7-.26,0-.48.31-.48.7,0,.1.01.19.04.27-.06-.02-.12-.03-.19-.03-.39,0-.71.32-.71.72,0,.4.31.73.7.73.15,0,.29-.05.4-.13l-.05,3.39-1.52-1.24c.16-.01.31-.08.43-.2.28-.28.28-.74,0-1.02-.28-.28-.72-.28-1,0-.05.05-.08.1-.11.15-.04-.08-.09-.15-.16-.22-.27-.27-.64-.34-.82-.15-.19.19-.12.57.15.84.06.07.14.13.21.17-.06.03-.11.07-.15.12-.28.28-.28.74,0,1.03.28.28.72.28,1,0,.14-.14.2-.33.2-.52l1.77,1.58v1.07h-.45c-.24,0-.55-.02-.83.1-.55.21-.95.79-.95,1.41h0c0,.13.1.23.22.22.11,0,.21-.1.21-.22-.01-.44.27-.86.67-1.01.2-.09.41-.08.68-.08h.43s-.02,1.04-.02,1.04c0,.52-.42.94-.93.94s-.93.43-.93.96v1.7c0,.53-.42.96-.93.96h-1.12c-.45,0-.81.37-.81.83v.72c0,.48.37.86.84.86"/><path class="cls-2" d="m145.26,141.7c-4.83,0-8.75-4.02-8.75-8.97s3.93-8.97,8.75-8.97,8.75,4.03,8.75,8.97-3.93,8.97-8.75,8.97m0-19.59c-5.72,0-10.36,4.75-10.36,10.61s4.64,10.62,10.36,10.62,10.35-4.75,10.35-10.62-4.64-10.61-10.35-10.61"/><path class="cls-2" d="m150.54,133.25c-.51.2-1.04.2-1.55.02l-1.58-.55,1.58-.55c.51-.18,1.04-.17,1.55.02l1.38.53-1.38.53Zm-5.28,1.14c-.9,0-1.62-.74-1.62-1.67,0-.79.56-1.43,1.28-1.59l-.38-1.41c-.24-.86-.23-1.76.03-2.62l.69-2.32.69,2.32c.26.86.27,1.75.03,2.62l-.38,1.41c.73.17,1.28.8,1.28,1.59,0,.92-.73,1.67-1.62,1.67m0-9.77c-4.36,0-7.9,3.63-7.9,8.1s3.55,8.1,7.9,8.1,7.9-3.63,7.9-8.1-3.54-8.1-7.9-8.1"/><path class="cls-2" d="m182.01,146.32h-16.59c-.64,0-1.17-.54-1.17-1.2v-14.3c0-.2-1.34-20.08-18.7-25.65-.19-.06-.39-.06-.58,0-17.36,5.57-18.7,25.45-18.7,25.65v14.3c0,.66-.52,1.2-1.17,1.2h-16.59c-.65,0-1.17-.54-1.17-1.2s.52-1.2,1.17-1.2h.32c.65,0,1.17-.54,1.17-1.2v-1.72c0-.63.51-1.14,1.14-1.14h.03v-13.93c0-.66-.52-1.2-1.17-1.2h-.95c-.24,0-.43-.19-.43-.43v-.66h.45c.64,0,1.17-.54,1.17-1.2v-12.8c0-1.23,1.59-1.66,2.19-.59l3.35,6.03c.1.18.15.38.15.59v6.77c0,.66.52,1.2,1.17,1.2h.08c.65,0,1.17-.54,1.17-1.2v-7.65c0-.29.1-.57.29-.79l25.75-30.28c.46-.55,1.3-.55,1.76,0l25.75,30.28c.19.22.29.5.29.79v7.65c0,.66.52,1.2,1.17,1.2h.08c.64,0,1.17-.54,1.17-1.2v-6.77c0-.21.05-.41.15-.59l3.35-6.03c.6-1.07,2.18-.64,2.18.59v12.8c0,.66.52,1.2,1.17,1.2h.45v.66c0,.24-.2.43-.43.43h-.95c-.65,0-1.17.54-1.17,1.2v13.93h.03c.63,0,1.14.51,1.14,1.14v1.72c0,.66.52,1.2,1.17,1.2h.32c.65,0,1.17.54,1.17,1.2s-.52,1.2-1.17,1.2m-3.04,4.14h-14.26c-.88,0-1.6-.73-1.6-1.64s.72-1.63,1.6-1.63h14.26c.88,0,1.59.73,1.59,1.63s-.71,1.64-1.59,1.64m.37,1.76c0,.64-.5,1.15-1.12,1.15h-13.26c-.62,0-1.12-.51-1.12-1.15v-.16c0-.64.5-1.15,1.12-1.15h13.26c.62,0,1.12.51,1.12,1.15v.16Zm-53.52-1.76h-14.26c-.88,0-1.6-.73-1.6-1.64s.72-1.63,1.6-1.63h14.26c.88,0,1.6.73,1.6,1.63s-.72,1.64-1.6,1.64m.86,1.77c0,.63-.5,1.15-1.11,1.15h-13.26c-.62,0-1.12-.51-1.12-1.15v-.17c0-.64.5-1.15,1.12-1.15h13.26c.61,0,1.11.51,1.11,1.15v.17Zm-16.44-76.42c0-.37.29-.67.65-.67h1.56c.36,0,.65-.3.65-.67v-2.27c0-.37.29-.67.65-.67h1.2l.03-1.98h-.43c-.27,0-.48,0-.68.08-.4.15-.68.58-.67,1.02,0,.12-.09.22-.21.22-.12,0-.22-.09-.22-.22h0c0-.62.39-1.21.95-1.42.28-.12.59-.1.83-.1h.44s.02-1.07.02-1.07l-1.77-1.58c0,.19-.06.38-.2.52-.27.28-.72.28-1,0-.28-.28-.28-.74,0-1.03.05-.05.1-.09.15-.12-.07-.04-.14-.1-.21-.17-.27-.27-.33-.65-.15-.84.19-.19.55-.12.82.15.06.07.12.14.16.22.03-.06.07-.11.11-.16.28-.28.72-.28,1,0,.28.28.28.74,0,1.02-.12.12-.27.18-.43.2l1.53,1.24.05-3.39c-.11.08-.25.13-.4.13-.39,0-.7-.33-.7-.73,0-.4.32-.72.71-.72.06,0,.13.01.19.03-.02-.08-.04-.18-.04-.27,0-.39.22-.7.48-.7.26,0,.47.32.47.7,0,.1-.02.19-.04.27.06-.02.12-.03.19-.03.39,0,.7.33.7.73s-.32.72-.71.72c-.15,0-.28-.05-.4-.13l.05,3.39,1.54-1.24c-.16-.01-.32-.07-.44-.2-.28-.28-.28-.74,0-1.02.28-.28.72-.28,1,0,.05.05.09.1.11.16.04-.08.1-.15.16-.22.27-.27.63-.34.82-.15.19.19.12.56-.15.84-.06.07-.14.12-.21.17.05.03.11.07.15.12.28.28.28.74,0,1.03-.28.28-.72.28-1,0-.14-.15-.21-.35-.2-.54l-1.77,1.6v1.07s.5,0,.5,0c.23,0,.55-.01.82.1.55.21.94.79.92,1.39h0c0,.11-.08.19-.19.19-.1,0-.18-.09-.18-.19,0-.45-.29-.88-.7-1.03-.2-.09-.41-.07-.68-.07h-.48s.03,1.98.03,1.98h1.2c.36,0,.65.3.65.67v2.27c0,.37.29.67.65.67h1.56c.36,0,.65.3.65.67v.88c0,.48-.38.87-.84.87h-8.42c-.47,0-.84-.39-.84-.87v-.88Zm15.71,3.96l18.05-31.92c.14-.26.41-.41.7-.41h.22l.03-2.35c-.4,0-.81-.03-1.09.08-.4.16-.68.58-.67,1.02,0,.12-.09.22-.21.22-.12,0-.22-.09-.22-.22h0c0-.62.39-1.21.95-1.42.47-.15.86-.1,1.25-.09v-1.1s-1.76-1.59-1.76-1.59c.01.19-.03.39-.18.54-.28.28-.72.28-1,0-.28-.28-.28-.74,0-1.02.05-.05.1-.09.15-.11-.07-.04-.15-.1-.21-.17-.27-.27-.33-.65-.15-.84.18-.19.55-.12.82.15.07.07.12.14.16.22.03-.06.07-.11.11-.16.28-.28.72-.28,1,0,.28.28.28.74,0,1.02-.12.13-.28.18-.45.19l1.52,1.23.05-4.67c-.42,0-.86-.03-1.16.08-.4.16-.68.58-.67,1.02,0,.12-.09.22-.21.22-.12,0-.22-.09-.22-.21h0c0-.62.39-1.21.95-1.42.5-.16.9-.1,1.32-.09v-.95s-1.22-1.75-1.22-1.75c-.07-.1-.05-.23.05-.3.09-.07.23-.05.29.05h0s.89,1.3.89,1.3l.03-2.56c0-.11.09-.21.21-.21.11,0,.21.1.21.21l.03,2.6.96-1.32c.06-.08.17-.1.26-.04.08.06.1.18.04.26l-1.25,1.78v.94c.44,0,.86-.06,1.36.11.55.21.94.79.92,1.39,0,.1-.08.19-.18.19-.1,0-.18-.09-.18-.19,0-.45-.29-.88-.7-1.03-.32-.11-.78-.07-1.21-.07l.05,4.67,1.53-1.23c-.17,0-.33-.05-.46-.19-.28-.28-.28-.74,0-1.02.28-.28.72-.28,1,0,.05.05.09.1.11.16.04-.08.09-.15.16-.22.27-.27.63-.34.82-.15.19.19.12.57-.15.84-.07.07-.14.12-.21.17.05.03.11.07.15.11.28.28.28.74,0,1.02-.28.28-.72.28-1,0-.15-.15-.19-.36-.18-.56l-1.78,1.6v1.1c.42,0,.82-.05,1.29.11.55.21.94.79.92,1.39,0,.1-.08.19-.18.19-.1,0-.18-.09-.18-.19,0-.45-.29-.88-.7-1.03-.3-.11-.73-.08-1.14-.07l.03,2.35h.22c.29,0,.55.15.7.41l18.05,31.92c.17.29.47.47.81.47h1.93c.18,0,.35.05.51.15l2.46,1.63c.62.41,1.44-.05,1.44-.8v-1.19c0-.43.28-.8.68-.92l5.18-1.5c.59-.17,1.19.29,1.19.92v1.7h1.53v22.18l-4.17-6.03c-.7-.97-2.14,0-1.55,1.05l2.88,5.09c.18.31.17.71-.03,1.01l-3.83,5.85c-.33.51-1.04.57-1.45.12l-23.1-25.26c-.16-.18-.25-.41-.25-.65v-4.62c0-.53-.42-.95-.93-.95h-5.18c-.51,0-.93.43-.93.95v4.62c0,.24-.09.47-.25.65l-23.1,25.26c-.41.45-1.12.39-1.45-.12l-3.83-5.85c-.2-.3-.21-.7-.03-1.01l2.88-5.09c.59-1.04-.86-2.01-1.56-1.05l-4.17,5.64v-20.22l1.53,1.22v-3.71l5.86-1.7c.59-.17,1.18.29,1.18.92v.75c0,.53.42.95.93.95h5.4c.33,0,.64-.18.8-.47m44.23-3.96c0-.37.29-.67.65-.67h1.56c.36,0,.65-.3.65-.67v-2.27c0-.37.29-.67.65-.67h1.13l.03-1.98h-.43c-.27,0-.48,0-.68.08-.4.15-.68.58-.67,1.02,0,.12-.09.22-.21.22-.12,0-.22-.09-.22-.22h0c0-.62.39-1.21.95-1.42.28-.12.59-.1.83-.1h.44s.01-1.07.01-1.07l-1.77-1.58c0,.19-.06.38-.2.52-.28.28-.72.28-1,0-.28-.28-.28-.74,0-1.03.04-.05.09-.09.15-.12-.07-.04-.15-.1-.21-.17-.27-.27-.33-.65-.15-.84.19-.19.55-.12.82.15.06.07.12.14.16.22.03-.06.07-.11.12-.16.28-.28.72-.28,1,0,.28.28.28.74,0,1.02-.12.12-.27.18-.43.2l1.53,1.24.05-3.39c-.11.08-.25.13-.4.13-.39,0-.7-.33-.7-.73,0-.4.32-.72.71-.72.06,0,.13.01.19.03-.02-.08-.04-.18-.03-.27,0-.39.21-.7.48-.7.26,0,.47.32.47.7,0,.1-.02.19-.04.27.06-.02.12-.03.19-.03.39,0,.7.33.7.73,0,.4-.32.72-.71.72-.15,0-.29-.05-.4-.13l.05,3.39,1.54-1.24c-.16-.01-.32-.07-.44-.2-.28-.28-.28-.74,0-1.02.28-.28.72-.28,1,0,.05.05.09.1.11.16.04-.08.09-.15.16-.22.27-.27.63-.34.82-.15.19.19.12.56-.15.84-.07.07-.14.12-.21.17.05.03.11.07.15.12.28.28.28.74,0,1.03-.28.28-.72.28-1,0-.14-.15-.21-.35-.2-.54l-1.77,1.6v1.07s.5,0,.5,0c.23,0,.55-.01.82.1.55.21.93.79.92,1.39h0c0,.11-.09.19-.19.19-.1,0-.18-.09-.18-.19,0-.45-.29-.88-.7-1.03-.2-.09-.41-.07-.68-.07h-.48s.03,1.98.03,1.98h1.26c.36,0,.65.3.65.67v2.27c0,.37.29.67.65.67h1.56c.36,0,.65.3.65.67v.88c0,.48-.37.87-.84.87h-8.42c-.46,0-.84-.39-.84-.87v-.88Zm-65.51,139.39c4.56-5.61,6.91-12.7,6.91-19.93v-38.06c0-.5.4-.91.89-.91s.89-.41.89-.91v-.53c0-.5.4-.91.88-.91h10.41c.49,0,.88.41.88.91v1.44h.2c.4,0,.72.32.72.72v16.83c0,.62.5,1.13,1.13,1.13.63,0,1.14-.5,1.14-1.13l.09-25.72c0-.28.22-.51.5-.51h2.14c.27,0,.5-.23.5-.51v-.98c0-.28-.23-.52-.5-.52h-2.14c-.28,0-.5-.23-.5-.51v-13.57c0-.17.16-15.02,12.51-21.57,2.45-1.3,5.41-1.3,7.86-.02,12.33,6.46,12.52,20.92,12.52,21.59v13.91c0,.29-.22.51-.5.51h-2.14c-.28,0-.5.23-.5.52v.64c0,.28.22.51.5.51h2.13c.28,0,.5.23.5.52l-.08,23.57c0,.83.82,1.42,1.6,1.15h.03c.48-.18.8-.63.8-1.14v-14.68c0-.4.32-.72.72-.72h.2v-1.44c0-.5.4-.91.88-.91h11.44c.49,0,.89.41.89.91v.53c0,.5.4.91.88.91s.89.41.89.91v4.67c0,1.09,1.24,1.72,2.11,1.07,18.39-13.49,30.4-35.67,30.4-60.76,0-41.13-32.25-74.46-72.04-74.46h-24.89c-39.79,0-72.04,33.34-72.04,74.46v90.9c0,19.13,15.51,34.64,34.64,34.64,10.43,0,20.03-4.53,26.53-12.53"/><path class="cls-2" d="m145.71,159.1c-.29-.09-.61-.09-.9,0-3.31,1.01-3.31,3.86-3.31,3.86v10.28c0,.65.51,1.17,1.15,1.17h5.23c.63,0,1.15-.52,1.15-1.17v-10.28s0-2.85-3.31-3.86"/><path class="cls-2" d="m174.07,124.74h-.71c-.65,0-1.17.54-1.17,1.2v12.73c0,.66.52,1.2,1.17,1.2h.71c.64,0,1.17-.54,1.17-1.2v-12.73c0-.66-.52-1.2-1.17-1.2"/><path class="cls-2" d="m144.25,86.36l-1.34,1.56,1.57-.64c.27-.15.6-.09.8.15l24.53,28.62.44-.5-23.99-29.16c-.52-.63-1.46-.64-1.99-.03"/><path class="cls-2" d="m117.17,124.74h-.71c-.65,0-1.17.54-1.17,1.2v12.73c0,.66.52,1.2,1.17,1.2h.71c.65,0,1.17-.54,1.17-1.2v-12.73c0-.66-.52-1.2-1.17-1.2"/></g></svg>