<?xml version="1.0" encoding="UTF-8"?><svg id="Layer_1" xmlns="http://www.w3.org/2000/svg" viewBox="0 0 256 256"><defs><style>.cls-1{fill:#007961;}.cls-2{fill:#fff;}.cls-3{fill:#e3032c;}</style></defs><rect class="cls-2" y="-.28" width="256" height="256"/><g><path class="cls-3" d="m200.88,60.17s-1.11-.08-1.76.17c-.84.33-.45,1.95-.45,1.95,0,0,2.71,13.29-8.7,33.45,0,0,.02.04.02.04,6.9,11.53,10.78,23.75,12.49,35.88,9.09-10.19,12.72-18.67,12.72-18.67.04-.08.08-.15.13-.23,24.59-45.91-12.23-52.57-14.45-52.59"/><g><path class="cls-3" d="m184.59,104.2c-.86,1.21-1.72,2.42-2.68,3.68-1.01,1.3-2.09,2.58-3.21,3.85,0,0,0,0,0,.01,5,10.47,7.5,22.18,8.04,34.09,2.85-2.07,5.45-4.18,7.82-6.29,0-.05,0-.1,0-.1,0,0-.71-16.83-9.97-35.25"/><path class="cls-3" d="m206.61,25.65c-16.16-8.25-31.51-7.94-48.44-2.58-9.37,2.96-17.51,7.27-24.91,13.8-1.5,1.32-2.93,2.69-4.33,4.08-.61.61-1.2,1.23-1.8,1.85-.71.75-1.42,1.49-2.11,2.25-.77.84-1.51,1.7-2.25,2.57-.41.49-.82.98-1.22,1.47-5.9,7.19-10.8,15-14.79,23.31-1.18,2.45-2.28,4.93-3.3,7.45-.52,1.28-1.02,2.57-1.51,3.87-.2.55-.38,1.12-.6,1.67-.96,2.28-1.65,4.81-2.37,7.23-.67,2.24-1.29,4.49-1.86,6.77-.16.65-.32,1.3-.47,1.96-.4,1.63-.76,3.27-1.1,4.91-.15.74-.31,1.48-.45,2.23-.31,1.58-.59,3.18-.85,4.77-.13.77-.26,1.54-.38,2.32-.26,1.65-.47,3.31-.68,4.96-.08.7-.19,1.4-.27,2.1-.27,2.33-.5,4.67-.68,7.01-.24,2.92-.31,5.86-.46,8.87-42.68-4.86-50.99-27.87-50.99-27.87-4.26-10.35-3.16-18.84-1.26-24.44.11-.49.28-1.46-.13-1.45-.45.01-.93.93-1.09,1.27-15.72,37.8,20.82,56.13,53.06,60.62-.06,2.64.02,5.27.02,7.91-20.1-2.39-61.54-12.24-61.36-52.74-.03-.47-.13-.96-.41-.89-.36.09-.61.78-.73,1.23-.31,1.42-.56,2.92-.7,4.52-1.65,18.94,8.61,49.6,63.05,57.73.08.01.15.02.24.04.04,1.05.11,2.14.21,3.26.24,2.83.63,5.51,1.14,8.31.32,1.75.68,3.5,1.1,5.25.71,2.9,1.61,5.87,2.6,8.69.74,2.07,1.54,4.13,2.44,6.14.71,1.61,1.47,3.18,2.29,4.73,1,1.89,2.13,3.82,3.32,5.65,1.79,2.74,3.92,5.14,6.07,7.63.58.66,1.01,1.3,1.67,1.88.84.73,1.65,1.51,2.46,2.26,0,0,11.9,11.01,26.3-1.83,1.33-1.19,1.64-1.49,2.16-2.09,0,0,2.47-2.83,1.61-3.65-1.8-1.72-3.66-3.31-5.28-5.21-1.66-1.95-3.18-4.01-4.65-6.11-1.92-2.74-3.64-5.62-5.16-8.6-3.89-7.63-6.38-15.93-7.52-24.42,23.62-.72,41.78-6.87,55.54-14.73-.17-9.98-1.66-21.58-6.06-32.86-11.77,10.29-28.11,18.22-49.73,20.07.09-1.96.19-3.94.33-5.97,0-.04,0-.09,0-.13.13-1.9.29-3.85.49-5.83.03-.33.07-.66.11-1,.21-2,.45-4.03.77-6.17.29-2,.66-4.07,1.07-6.16.08-.41.16-.83.24-1.25.43-2.1.92-4.23,1.48-6.42.1-.36.2-.73.3-1.1.54-2.01,1.14-4.07,1.81-6.17.12-.36.22-.72.34-1.1.75-2.29,1.6-4.65,2.53-7.05.2-.53.42-1.07.64-1.6,1-2.5,2.06-5.04,3.28-7.66.08-.19.19-.36.28-.54,1.42-2.99,3.01-5.78,4.74-8.37,1.46-2.2,3.02-4.25,4.68-6.17,1.88-2.19,3.87-4.21,5.94-6.04,1.69-1.5,3.45-2.87,5.24-4.14.2-.14.4-.27.59-.4,1.58-1.1,3.2-2.11,4.83-3.03.25-.14.5-.29.76-.43,3.6-1.97,7.29-3.54,10.99-4.74.38-.12.75-.24,1.13-.35,1.59-.48,3.18-.89,4.75-1.24.25-.06.5-.13.75-.18,1.78-.37,3.55-.64,5.29-.84.37-.04.73-.06,1.09-.1,1.37-.13,2.72-.2,4.06-.24.45,0,.91-.02,1.36-.01,1.62,0,3.23.06,4.76.22,3.69.38,7.14,1.24,10.29,2.51,1.52.62,2.97,1.35,4.35,2.16.04.03.1.04.15.08,6.96,4.06,12.06,11.01,14.48,18.65.3.93.5,2,1.05,2.82.35.53.93.99,1,.03,1.01-15.52-6.97-37.85-21.31-45.17"/></g><g><path class="cls-1" d="m175.09,178.75c-11.19,49.12-36.58,52.17-45.01,52.13-2.74-.02-4.96-.48-6.54-.94-.5-.13-.78-.08-.85.08-.16.38.24.82.76,1.17,7.68,4.95,17.87,3.03,17.87,3.03,32.18-3.66,59.85-75.45,37.39-122.49-9.81-20.54-23.59-32.72-38.33-39.47-1.73,2.59-3.32,5.37-4.74,8.37,57.48,27.01,39.45,98.11,39.45,98.11"/><path class="cls-1" d="m49.93,87.78c-.48.75-.77,1.4-.4,1.49.24.05.58-.18.85-.43,4.04-4.45,17.03-15.1,49.86-16.48,2.35-.1,4.48-.06,6.51.03,1.1-2.29,2.29-4.54,3.54-6.76-.1.19-2.66-.06-2.99-.07-1.06-.01-2.13,0-3.18,0-6.53.1-13.06.7-19.46,2.01-6.98,1.44-13.85,3.73-20.06,7.27-3.18,1.81-6.18,3.95-8.88,6.42-1.39,1.27-2.7,2.62-3.91,4.05-.15.17-1.2,1.42-1.88,2.48"/><path class="cls-1" d="m63.63,68.8c-.28.32-.89,1.08-.55,1.26.04.02.1.03.15.03,6.55-4.01,25.79-13.98,51.57-11.88,1.34-2.02,2.74-4.01,4.21-5.95-35.39-1.83-52.46,13.59-55.39,16.54"/><path class="cls-1" d="m145.06,66.09c47.31,21.12,49.5,73.35,49.5,73.35,0,0,3.64,45.33-20.17,78.68-8.8,12.33-14.35,14.73-18.81,17.23,0,0-1.19.64-.67.86.52.21,14.21-.79,27.26-17.89,14.63-19.18,35.47-76.36,7.83-122.54,0,0-11.96-23.14-39-35.72-2.07,1.83-4.05,3.85-5.93,6.04"/></g></g></svg>