<?xml version="1.0" encoding="UTF-8"?><svg id="Layer_1" xmlns="http://www.w3.org/2000/svg" viewBox="0 0 256 256"><defs><style>.cls-1{fill:#fff;}.cls-2{fill:#ef4135;}</style></defs><rect class="cls-1" y="-.28" width="256" height="256"/><g id="logo"><g id="Group_402"><path id="Path_49" class="cls-2" d="m102.88,64.51c0,.42,1.45,1.03.83,1.45,0,0-4.97,4.14-5.59,4.34-1.03.62-15.51,12.62-33.72,26.26,0,0-21.92,16.75-30.61,21.1-1.87.61-3.83.89-5.79.83v-7.65c4.34-.42,7.24-1.86,17.99-7.86l51.09-34.95c2.06-.94,4.01-2.12,5.8-3.51"/><path id="Path_50" class="cls-2" d="m191.59,68.65c7.86-.18,14.49,5.81,15.1,13.65v8.69c6.2,2.9,11.58,4.34,11.58,12.2,0,1.03-1.24,2.69-1.24,4.97,0,1.45,11.17,4.76,10.55,16.13-.42,10.55-13.24,16.13-13.24,16.75.62,6.41-.21,15.1-11.17,15.1-3.09.07-6.08-1.13-8.27-3.31,4.61.42,9.17-1.25,12.42-4.55,2.57-3.19,3.7-7.32,3.1-11.37,0-.62,6.41-1.45,9.31-4.14,2.32-2.01,3.55-5.01,3.31-8.07,0-3.52-2.48-10.14-12.2-12.2.19-2.45.6-4.87,1.24-7.24.34-1.59.2-3.25-.42-4.76-2.69-4.34-4.97-3.1-11.17-4.76,1.03-2.99,1.52-6.14,1.45-9.31.22-6.21-4.39-11.53-10.56-12.21-7.05,1.14-12.6,6.62-13.84,13.65l-1.03.21c-1.94-1.4-4.12-2.46-6.42-3.11h-6.2c-6.2,0-10.14,8.89-12.2,14.06l-.42-7.03c-.42-4.97,6.2-14.06,15.51-14.06,2.48.35,4.9.97,7.24,1.86,1.24.42,6.2-11.17,17.58-11.17"/><path id="Path_51" class="cls-2" d="m66.25,72.79c-6.62,4.97-9.94,4.14-16.13,6.62.83,5.79-.62,5.38-.83,12.42l-1.03,2.48c-.24-6.27-1.08-12.5-2.48-18.61,6.91-.22,13.77-1.19,20.47-2.9"/><path id="Path_52" class="cls-2" d="m96.66,78.58l34.13,18.61c17.39,8.27,16.55,7.65,21.72,11.37-4.14,2.9-2.07,2.48-7.24,3.93-5.17,1.24-20.06-11.17-24.61-13.65-1.45-1.03-21.92-15.1-23.99-20.27"/><path id="Path_53" class="cls-2" d="m131.61,117.05c1.11,0,2.21-.07,3.31-.21l1.03,10.96c.62,6.62,1.03,11.79,1.03,13.24.21,3.31,2.27,25.23,2.48,27.09.61,3.83.82,7.71.62,11.58-.21,2.69-3.31,3.31-5.79,3.31h-3.72c0-5.38,3.1-24.61,2.69-34.54l-1.66-31.44Z"/><path id="Path_54" class="cls-2" d="m146.71,118.08l1.65-.83.21,6.82c1.7,5.65,7.16,9.29,13.03,8.69-.21,8.69,2.27,9.31,5.79,15.72h-3.1c-10.75-4.97-6.82-10.96-9.31-11.79-5.07,1.2-10.16-1.93-11.36-7-.23-.96-.3-1.95-.22-2.93-.22-3.24.99-6.42,3.31-8.69"/><path id="Path_55" class="cls-2" d="m44.74,119.94c3.31,0,4.14,4.55,4.14,5.17l1.24,8.69c.58,3.83.85,7.71.83,11.58l-1.45,16.96s-6.2,27.92-10.55,34.13l-2.48.21,2.48-12.42c2.72-11.72,3.9-23.75,3.51-35.78-.62-17.79-2.48-25.23-.83-28.96,1.03-.83,2.69.42,3.1.42"/><path id="Path_56" class="cls-2" d="m193.24,128.01c-.21,2.07-1.03,2.27,1.03,2.27,1.45,0-2.69,5.17-3.31,6.82-2.48,5.17-20.06,38.47-20.06,53.15,0,1.24,4.34,1.24,7.45,1.24,4.76,0,14.91.62,17.58.62h32.06l-2.07,1.45c-7.79,1.56-15.66,2.66-23.58,3.31-28.75,1.45-32.47,1.03-37.64,1.03l.42-5.38s6.41-39.92,6.82-47.78c.38-3.64.45-7.31.21-10.96,2.8,2.91,4.48,6.72,4.76,10.75l1.03,8.27c1.86-.42,8.69-12.2,11.37-17.39.86-2.7,2.19-5.22,3.93-7.45"/><path id="Path_57" class="cls-2" d="m101.42,131.52c.36,1.63.57,3.3.62,4.97-.54.77-1.25,1.4-2.07,1.86-2.24,1.01-4.6,1.71-7.03,2.07-4.34.83-11.37,2.07-13.24.21-.83-.83-.42,3.31-1.03,14.69-.62,8.89-.83,11.37-1.03,14.27-.42,6.41-1.24,13.65-1.65,16.33l-1.04.62v-46.74c3.31-2.27,25.85-7.65,26.48-8.27"/><path id="Path_58" class="cls-2" d="m95.21,143.73l4.34.83c1.24,15.72-.21,23.37-.62,35.99-.21,4.34-1.03,2.69-4.55,3.31l.42-8.48c0-.21.62-12.42.62-12.42-.21-.21-.42-13.84-.21-19.24"/><path id="Path_59" class="cls-2" d="m121.06,187.57h31.44s4.55-.62,4.55,1.65c0,2.48-.83,6.2-2.69,7.03h-11.58s-16.33-1.45-20.68-1.65c-3.31-.21-22.34-.21-23.37,0,0,0-9.51,0-18.41.83-6.82.62-14.69,1.45-24.41,2.48,8.69-5.58,45.07-9.51,65.15-10.34"/><path id="Path_60" class="cls-2" d="m49.71,58.1l4.76-.62,1.24,5.79.42,6-4.76.62-.42-6.2-1.24-5.59Z"/></g></g></svg>