<?xml version="1.0" encoding="UTF-8"?><svg id="Layer_1" xmlns="http://www.w3.org/2000/svg" viewBox="0 0 256 256"><defs><style>.cls-1{fill:#fff;}.cls-2{fill:#a794c6;}.cls-3{fill:#d2c9e4;}.cls-4{fill:#e42613;}.cls-5{fill:#5c358b;}</style></defs><rect class="cls-1" y="-.28" width="256" height="256"/><g><path class="cls-5" d="m140.65,80.1c-.56-5.25-2.13-10.35-4.59-14.93-2.12-3.94-4.87-7.23-8.06-10.2-3.18,2.94-5.86,6.13-7.99,10.05-2.57,4.79-4.09,9.94-4.64,15.12-5.53-4.49-11.86-7.94-18.71-10.05,1.25-5.39,3.21-10.68,5.92-15.71,6.52-11.99,15.46-18.4,25.46-26.65,9.96,8.26,19.07,14.88,25.5,26.86,2.61,4.86,4.57,10.07,5.81,15.48-6.85,2.12-13.17,5.56-18.69,10.04m-39.9,30.89c-2.68-5.88-4.45-12.2-5.25-18.69,7.19,3.33,13.19,9.02,17.09,16.1,2.42,4.43,3.55,8.29,4.3,12.47-3.91,1.4-7.83,2.36-12.34,2.36-8.1-.07-15.63-2.92-21.71-7.7,5.58-2.49,11.61-4.06,17.91-4.54m59.79-18.72c-.77,6.37-2.5,12.7-5.26,18.73,6.3.47,12.31,2.04,17.88,4.51-6.11,4.81-13.69,7.68-21.86,7.72-4.25,0-8.2-.86-12.19-2.31.82-4.43,2.13-8.6,4.29-12.52,3.92-7.11,9.94-12.81,17.14-16.14m30.14,35.44c3.79,3.86,7.08,8.28,9.74,13.1,6.55,11.92,7.4,23.62,9.14,36.9-11.74,5.07-21.44,10.08-34.47,10.08-5.46-.03-10.75-.87-15.77-2.43,1.69-7.36,2.05-14.9,1.16-22.23,4.49,2.09,9.45,3.27,14.64,3.29,4.26,0,8.2-.85,12.19-2.3-.83-4.42-2.13-8.6-4.29-12.51-2.5-4.57-5.88-8.56-9.88-11.71,6.54-2.9,12.48-7.05,17.52-12.18m-50.05,47.6c-4.9-3.98-9.18-8.77-12.63-14.2-3.45,5.44-7.74,10.24-12.66,14.23-.86-7.99.57-16.34,4.59-23.82,2.24-4.16,4.99-7.28,8.09-10.19,3.02,2.8,5.61,5.77,8.02,10.21,3.83,7.12,5.45,15.48,4.59,23.76m-43.98,10.06c-4.97,1.54-10.21,2.37-15.63,2.41-13.04,0-22.82-4.99-34.57-10.05,1.8-13.81,2.37-24.59,9.13-36.91,2.66-4.82,5.94-9.23,9.74-13.09,5.04,5.12,10.96,9.29,17.52,12.2-4,3.14-7.38,7.12-9.88,11.66-2.43,4.43-3.56,8.29-4.31,12.47,3.92,1.39,7.84,2.36,12.35,2.36,5.12-.04,10.01-1.2,14.45-3.25-.9,7.48-.47,15.01,1.2,22.21"/><path class="cls-2" d="m119.96,103.9c.74,1.38,1.5,2.6,2.28,3.74,1.52,2.75,3.47,5.07,5.73,7.16,2.2-2.02,4.07-4.24,5.58-6.89.88-1.24,1.73-2.56,2.51-3.99,4.01-7.49,5.44-15.85,4.58-23.83,5.53-4.48,11.85-7.92,18.7-10.04,1.66,7.2,2.09,14.74,1.2,22.22-7.21,3.32-13.23,9.02-17.15,16.14-2.16,3.9-3.46,8.1-4.28,12.51,3.98,1.46,7.94,2.32,12.19,2.32,8.16-.05,15.74-2.91,21.86-7.72,6.54,2.9,12.48,7.06,17.51,12.19-5.03,5.12-10.97,9.3-17.51,12.19-6.08-4.79-13.61-7.63-21.71-7.7-1.57,0-3.05.11-4.5.32-2.91.06-5.69.68-8.44,1.69.56,3.14,1.47,6.03,2.96,8.83.54,1.29,1.17,2.61,1.92,4,3.91,7.08,9.91,12.76,17.09,16.1.89,7.32.53,14.87-1.16,22.23-6.85-2.14-13.18-5.59-18.71-10.06.86-8.27-.77-16.65-4.59-23.77-2.4-4.44-4.99-7.41-8.02-10.2-3.11,2.9-5.85,6.03-8.1,10.18-4,7.48-5.44,15.84-4.58,23.82-5.53,4.49-11.85,7.93-18.7,10.05-1.67-7.2-2.09-14.74-1.2-22.22,7.22-3.33,13.24-9.02,17.15-16.13.74-1.35,1.38-2.72,1.93-4.13,1.46-2.74,2.35-5.66,2.93-8.73-2.8-1.03-5.56-1.65-8.53-1.69-1.39-.2-2.8-.28-4.24-.28-8.16.04-15.74,2.9-21.85,7.71-6.55-2.9-12.48-7.07-17.52-12.19,5.04-5.13,10.98-9.29,17.52-12.19,6.08,4.78,13.61,7.64,21.71,7.7,4.51,0,8.44-.95,12.35-2.36-.76-4.18-1.88-8.04-4.31-12.47-3.89-7.08-9.9-12.75-17.08-16.1-.9-7.33-.55-14.87,1.16-22.23,6.85,2.13,13.17,5.57,18.7,10.05-.87,8.28.76,16.64,4.59,23.76"/><path class="cls-3" d="m115.34,175.34c.57,5.25,2.13,10.34,4.59,14.93,2.11,3.94,4.87,7.24,8.06,10.2,3.18-2.94,5.86-6.14,7.99-10.05,2.57-4.79,4.09-9.93,4.64-15.11,5.53,4.47,11.87,7.93,18.7,10.05-1.23,5.38-3.19,10.68-5.9,15.71-6.52,11.99-15.46,18.38-25.46,26.65-9.96-8.27-19.08-14.89-25.51-26.87-2.61-4.85-4.57-10.06-5.81-15.48,6.84-2.13,13.17-5.55,18.69-10.04m44.04-18.59c.48,2.11.85,4.23,1.11,6.38-7.18-3.34-13.18-9.02-17.09-16.1-.75-1.38-1.38-2.71-1.91-4l.09.15c3.99,7.26,10.61,12,17.8,13.57m-12.42-24.23c1.45-.21,2.93-.32,4.49-.32,8.11.07,15.63,2.92,21.72,7.7-1.89.85-3.81,1.57-5.78,2.2-5.11-6.14-12.45-9.54-19.9-9.58h-.52Zm-51.51,30.65c.26-2.15.63-4.29,1.11-6.41,7.57-1.64,14.04-6.68,17.79-13.5l.19-.34c-.56,1.39-1.18,2.76-1.93,4.11-3.91,7.12-9.93,12.81-17.15,16.14m-6.84-21.06c-1.97-.63-3.89-1.35-5.77-2.18,6.12-4.81,13.69-7.69,21.85-7.72,1.45,0,2.86.09,4.24.28l-.32-.02c-7.94.06-15.11,3.79-20.01,9.64m-23.29-14.37c-3.79-3.87-7.08-8.29-9.73-13.12-6.56-11.91-7.4-23.61-9.14-36.89,11.72-5.06,21.42-10.08,34.46-10.07,5.47.03,10.75.86,15.77,2.42-1.7,7.36-2.06,14.89-1.16,22.23-4.5-2.09-9.45-3.27-14.65-3.3-4.25,0-8.21.86-12.19,2.32.82,4.41,2.12,8.59,4.28,12.51,2.5,4.57,5.88,8.55,9.88,11.69-6.54,2.9-12.48,7.07-17.52,12.2m50.06-47.6c1.6,1.3,3.14,2.69,4.61,4.17-2.45,7.78-1.57,16.22,2.13,23.1l.13.23c-.78-1.13-1.54-2.37-2.28-3.74-3.83-7.12-5.46-15.48-4.59-23.75m20.56,4.22c1.5-1.51,3.07-2.93,4.71-4.26.86,7.98-.57,16.33-4.58,23.82-.78,1.44-1.62,2.76-2.52,3.99l.22-.4c3.92-7.29,4.48-15.74,2.17-23.14m23.41-14.3c4.97-1.54,10.22-2.38,15.63-2.4,13.03,0,22.82,5,34.57,10.04-1.81,13.8-2.37,24.6-9.14,36.91-2.66,4.83-5.94,9.23-9.74,13.1-5.03-5.13-10.96-9.3-17.51-12.21,4-3.15,7.37-7.11,9.88-11.66,2.43-4.43,3.55-8.29,4.31-12.47-3.92-1.39-7.84-2.35-12.34-2.36-5.12.04-10.02,1.2-14.47,3.24.91-7.47.48-15.01-1.19-22.2"/><path class="cls-4" d="m133.8,79.28c4.52,8.41,4.82,19.19-.03,28.23-1.54,2.84-3.49,5.17-5.81,7.29-2.31-2.15-4.31-4.53-5.85-7.4-4.51-8.39-4.83-19.14,0-28.14,1.64-3.01,3.62-5.28,5.87-7.39,2.2,2.01,4.08,4.18,5.82,7.41"/><path class="cls-4" d="m164.57,157.34c-9.12-.06-18.07-5.17-23-14.16-1.55-2.83-2.49-5.79-3.06-8.98,2.92-1.06,5.86-1.69,8.96-1.68,9.11.05,18.02,5.12,22.96,14.06,1.64,3.01,2.5,5.97,3.08,9.09-2.73,1.03-5.44,1.68-8.94,1.66"/><path class="cls-4" d="m85.56,146.57c4.59-8.37,13.24-14.03,23.04-14.09,3.09,0,5.96.64,8.84,1.69-.59,3.2-1.54,6.24-3.1,9.08-4.59,8.33-13.19,14.01-22.95,14.07-3.27,0-6.13-.69-8.97-1.71.55-3.03,1.37-5.83,3.13-9.04"/></g></svg>