<?xml version="1.0" encoding="UTF-8"?><svg id="Layer_1" xmlns="http://www.w3.org/2000/svg" viewBox="0 0 256 256"><defs><style>.cls-1{fill:#00a9a7;}.cls-2{fill:#005aa6;}.cls-3{fill:#fff;}</style></defs><rect class="cls-3" y="-.28" width="256" height="256"/><g><polygon class="cls-1" points="170.96 27.73 170.96 70.36 128.25 116.06 128.25 73.43 170.96 27.73"/><polygon class="cls-1" points="170.96 227.72 170.96 185.09 128.25 139.37 128.25 182 170.96 227.72"/><polygon class="cls-1" points="228 170.31 185.36 170.31 139.66 127.59 182.29 127.59 228 170.31"/><polygon class="cls-1" points="28 170.31 70.63 170.31 116.35 127.59 73.7 127.59 28 170.31"/><polygon class="cls-2" points="85.53 27.73 85.53 70.36 128.25 116.06 128.25 73.43 85.53 27.73"/><polygon class="cls-2" points="85.53 227.72 85.53 185.09 128.25 139.37 128.25 182 85.53 227.72"/><polygon class="cls-2" points="228 84.88 185.36 84.88 139.66 127.59 182.29 127.59 228 84.88"/><polygon class="cls-2" points="28 84.88 70.63 84.88 116.35 127.59 73.7 127.59 28 84.88"/></g></svg>