<?xml version="1.0" encoding="UTF-8"?><svg id="Layer_1" xmlns="http://www.w3.org/2000/svg" xmlns:xlink="http://www.w3.org/1999/xlink" viewBox="0 0 256 256"><defs><style>.cls-1,.cls-2,.cls-3,.cls-4{fill:none;}.cls-2{stroke-width:1.3px;}.cls-2,.cls-4{stroke:#fff;}.cls-5{clip-path:url(#clippath);}.cls-6{fill:#fff;}.cls-7{fill:#c10344;}.cls-8{fill:#6f6f6e;}.cls-3{stroke:#c10344;stroke-width:1.87px;}.cls-4{stroke-width:3.26px;}.cls-9{fill:url(#radial-gradient);}</style><clipPath id="clippath"><path class="cls-1" d="m85.39,114.08s-5.15-1.99-10.28-2.35l-1.15,1.91s4.06.35,8.87,2.18c0,0-5.77,3.7-8.59,7.04l2.27,3.1s2.19-3.22,9.27-8.83c0,0,8.98,4.47,14.99,9.48l1.63-3.79s-7.81-4.89-14.04-7.48c0,0,3.94-2.71,9.83-3.98l-1.07-1.31s-5.73.52-11.72,4.02"/></clipPath><radialGradient id="radial-gradient" cx="-225.41" cy="3074.48" fx="-225.41" fy="3074.48" r=".72" gradientTransform="translate(5460.92 73426.48) scale(23.84 -23.84)" gradientUnits="userSpaceOnUse"><stop offset="0" stop-color="#fff"/><stop offset=".24" stop-color="#ccc"/><stop offset=".48" stop-color="#a4a4a3"/><stop offset=".69" stop-color="#868686"/><stop offset=".87" stop-color="#757574"/><stop offset="1" stop-color="#6f6f6e"/></radialGradient></defs><rect class="cls-6" x="0" y="-.28" width="256" height="256"/><g><polygon class="cls-8" points="57.33 146.98 56.52 146.98 55.08 142.3 55.04 142.3 53.61 146.98 52.82 146.98 50.88 141.15 51.79 141.15 53.21 145.76 53.25 145.76 54.68 141.15 55.49 141.15 56.94 145.77 56.98 145.77 58.37 141.15 59.25 141.15 57.33 146.98"/><path class="cls-8" d="m66.99,146.94v-3.6c0-.72-.14-1.5-1.04-1.5-.7,0-1.3.49-1.77.91v4.19h-.89v-8.68h.89v3.57c.64-.49,1.21-.83,2.02-.83s1.68.54,1.68,2.12v3.82h-.89Z"/><path class="cls-8" d="m74.82,141.76c-.86,0-1.4.76-1.4,1.68h2.73c0-.81-.45-1.68-1.34-1.68m-1.41,2.44c0,1.1.64,2.08,1.92,2.08.49,0,1.03-.2,1.37-.42l.27.61c-.42.34-1.15.59-1.83.59-1.81,0-2.7-1.48-2.7-3.14s.96-2.93,2.35-2.93c1.5,0,2.32,1.19,2.32,2.99v.21h-3.71Z"/><path class="cls-8" d="m84.42,142.04c-.12-.05-.31-.1-.55-.1-.34,0-.91.29-1.27.7v4.3h-.89v-5.8h.74l.12.66c.8-.72,1.24-.81,1.65-.81.26,0,.48.1.59.17l-.38.87Z"/><path class="cls-8" d="m90.76,141.76c-.86,0-1.4.76-1.4,1.68h2.73c0-.81-.45-1.68-1.34-1.68m-1.41,2.44c0,1.1.64,2.08,1.92,2.08.49,0,1.03-.2,1.37-.42l.27.61c-.42.34-1.15.59-1.83.59-1.81,0-2.7-1.48-2.7-3.14s.96-2.93,2.35-2.93c1.5,0,2.32,1.19,2.32,2.99v.21h-3.71Z"/><path class="cls-7" d="m105.87,141.81c-.42,0-.72.06-.99.15v4.11c.32.15.55.23.93.23,1.21,0,2.03-.87,2.03-2.3,0-1.52-.92-2.18-1.97-2.18m-.02,5.26c-.43,0-.72-.09-.97-.18v2.97h-.89v-8.46c.39-.14,1.07-.39,1.9-.39,1.75,0,2.87,1.13,2.87,2.98,0,2.02-1.46,3.09-2.9,3.09"/><path class="cls-7" d="m115.38,141.76c-.86,0-1.4.76-1.4,1.68h2.73c0-.81-.45-1.68-1.34-1.68m-1.41,2.44c0,1.1.64,2.08,1.92,2.08.49,0,1.03-.2,1.37-.42l.27.61c-.42.34-1.15.59-1.83.59-1.81,0-2.7-1.48-2.7-3.14s.96-2.93,2.35-2.93c1.5,0,2.32,1.19,2.32,2.99v.21h-3.71Z"/><path class="cls-7" d="m124.57,141.76c-1.09,0-1.72.88-1.72,2.26s.65,2.28,1.73,2.28,1.73-.91,1.73-2.28-.62-2.26-1.74-2.26m1.83,4.58c-.45.47-1.09.72-1.84.72s-1.35-.24-1.8-.71c-.53-.54-.81-1.36-.81-2.32s.29-1.75.81-2.29c.47-.48,1.09-.75,1.81-.75s1.37.27,1.84.75c.51.54.81,1.34.81,2.29s-.29,1.77-.82,2.3"/><path class="cls-7" d="m133.68,141.81c-.42,0-.72.06-.99.15v4.11c.32.15.55.23.93.23,1.21,0,2.03-.87,2.03-2.3,0-1.52-.92-2.18-1.97-2.18m-.02,5.26c-.43,0-.72-.09-.97-.18v2.97h-.9v-8.46c.39-.14,1.07-.39,1.9-.39,1.75,0,2.87,1.13,2.87,2.98,0,2.02-1.46,3.09-2.9,3.09"/><path class="cls-7" d="m142.15,147.07c-.71,0-1.02-.45-1.02-1.07v-7.73h.9v7.33c0,.55.13.66.48.66.06,0,.16,0,.31-.04l.11.65c-.27.14-.48.2-.77.2"/><path class="cls-7" d="m149.25,141.76c-.86,0-1.4.76-1.4,1.68h2.73c0-.81-.45-1.68-1.34-1.68m-1.41,2.44c0,1.1.64,2.08,1.92,2.08.49,0,1.03-.2,1.37-.42l.27.61c-.42.34-1.15.59-1.83.59-1.81,0-2.7-1.48-2.7-3.14s.96-2.93,2.35-2.93c1.5,0,2.32,1.19,2.32,2.99v.21h-3.71Z"/><path class="cls-8" d="m164.86,147.07c-1.78,0-2.7-1.39-2.7-2.95s.93-3.11,2.87-3.11c.53,0,1.08.15,1.47.37v.85c-.37-.23-.87-.43-1.51-.43-1.21,0-1.92.97-1.92,2.28s.71,2.23,1.9,2.23c.64,0,1.09-.21,1.45-.43l.28.64c-.43.28-1.09.56-1.84.56"/><path class="cls-8" d="m173.23,141.76c-1.09,0-1.72.88-1.72,2.26s.65,2.28,1.73,2.28,1.73-.91,1.73-2.28-.62-2.26-1.74-2.26m1.83,4.58c-.45.47-1.09.72-1.84.72s-1.35-.24-1.8-.71c-.53-.54-.81-1.36-.81-2.32s.29-1.75.81-2.29c.47-.48,1.09-.75,1.81-.75s1.37.27,1.84.75c.51.54.81,1.34.81,2.29s-.29,1.77-.82,2.3"/><path class="cls-8" d="m184.33,146.94l-.23-.6c-.43.37-1.1.72-1.88.72s-1.77-.4-1.77-2.04v-3.89h.89v3.8c0,.97.4,1.35,1.13,1.35s1.3-.47,1.54-.77v-4.38h.89v3.37c0,1.83.04,2.18.12,2.43h-.71Z"/><path class="cls-8" d="m193.62,146.94v-3.57c0-.72-.12-1.53-1.01-1.53-.71,0-1.35.5-1.8.91v4.19h-.89v-5.8h.74l.12.69c.69-.5,1.26-.83,2.07-.83s1.67.6,1.67,2.05v3.9h-.89Z"/><path class="cls-8" d="m201.02,147.07c-.83,0-1.24-.49-1.24-1.24v-3.92h-.94v-.76h.94v-1.27l.89-.31v1.58h1.78l-.32.76h-1.46v3.65c0,.49.18.71.56.71.42,0,.8-.23,1.03-.42l.28.64c-.43.32-.99.58-1.53.58"/><g class="cls-5"><rect class="cls-9" x="73.95" y="110.05" width="28.44" height="16.56"/></g><polygon class="cls-8" points="73.25 121.37 76.7 127.71 69.91 127.69 73.25 121.37"/><polygon class="cls-8" points="74.19 109.95 71.92 115.12 69.62 112.52 74.19 109.95"/><polygon class="cls-8" points="103.91 122.27 101.96 128.35 106.61 128.07 103.91 122.27"/><polygon class="cls-8" points="96.75 108.64 100.35 112.84 105.11 109.12 96.75 108.64"/><path class="cls-2" d="m103.52,118.73c1.51,7.68-4.31,14.27-13.01,14.71-8.69.45-16.96-5.42-18.46-13.1-1.51-7.68,4.32-14.27,13-14.72,8.69-.44,16.96,5.42,18.46,13.11Z"/><path class="cls-4" d="m102.05,118.63c1.39,7.07-3.89,13.12-11.8,13.51-7.9.4-15.43-5.01-16.82-12.08-1.39-7.07,3.89-13.12,11.8-13.51,7.9-.4,15.43,5.01,16.82,12.08Z"/><path class="cls-3" d="m102.05,118.63c1.39,7.07-3.89,13.12-11.8,13.51-7.9.4-15.43-5.01-16.82-12.08-1.39-7.07,3.89-13.12,11.8-13.51,7.9-.4,15.43,5.01,16.82,12.08Z"/><path class="cls-7" d="m154.34,130.66h-1.88l-4.28-12.03c-.35-.99-.78-2.23-1.2-3.65h-.07c-.42,1.38-.85,2.55-1.24,3.65l-4.46,12.03h-1.91l-8.1-23.43h2.8l5.2,15.57c.42,1.31.81,2.48,1.13,3.65h.07c.32-1.13.78-2.3,1.24-3.57l4.03-11.04-1.59-4.6h2.73l5.34,15.43c.46,1.34.92,2.48,1.24,3.61h.07c.28-1.17.6-2.23,1.03-3.5l5.1-15.54h2.73l-7.96,23.43Z"/><polygon class="cls-7" points="170.62 130.56 170.62 107.23 182.05 107.23 181.06 109.64 173.2 109.64 173.2 117.42 180.99 117.42 180.99 119.8 173.2 119.8 173.2 128.15 182.15 128.15 182.15 130.56 170.62 130.56"/><path class="cls-7" d="m196.84,130.91c-3.04,0-5.1-.99-6.37-1.84l1.24-2.09c.88.64,2.76,1.63,5.1,1.63,2.12,0,4.64-1.03,4.64-3.5,0-4.11-5.59-4.95-8.46-8.03-.99-1.06-1.66-2.41-1.66-4.21,0-3.29,2.48-5.8,6.72-5.8,2.48,0,4.14.6,5.17,1.13v2.76c-1.24-.85-3.19-1.52-5.1-1.52-2.27,0-4.25.92-4.25,3.19,0,5.2,10.33,5.24,10.33,12.24,0,3.61-3.15,6.05-7.36,6.05"/><path class="cls-7" d="m34.36,130.75c-3.04,0-5.09-.99-6.36-1.84l1.24-2.08c.88.63,2.76,1.62,5.09,1.62,2.12,0,4.63-1.02,4.63-3.5,0-4.1-5.58-4.95-8.44-8.02-.99-1.06-1.66-2.4-1.66-4.2,0-3.28,2.47-5.79,6.71-5.79,2.47,0,4.13.6,5.16,1.13v2.76c-1.24-.85-3.18-1.52-5.09-1.52-2.26,0-4.24.92-4.24,3.18,0,5.19,10.31,5.23,10.31,12.22,0,3.6-3.14,6.04-7.35,6.04"/><path class="cls-7" d="m58.2,130.81c-6.89,0-11.16-4.95-11.16-11.73s4.73-12.08,11.59-12.08c2.79,0,3.87.42,4.96,1.03v2.64c-1.87-1.08-2.38-1.35-5.07-1.34-5.19.03-8.72,4.17-8.72,9.57s3.32,9.68,8.76,9.74c3.13.03,7.03-1.44,10.09-2.88l-2.03,3.32c-4.36,1.44-6.26,1.73-8.42,1.73"/><path class="cls-7" d="m109.34,107.76s8.09-1,17.09-.66v2.29s-14.23-.97-20.26,1.07l3.17-2.7Z"/><rect class="cls-7" x="115.9" y="108.21" width="2.72" height="22.16"/><path class="cls-7" d="m210.91,107.76s8.09-1,17.09-.66v2.29s-14.23-.97-20.26,1.07l3.17-2.7Z"/><rect class="cls-7" x="217.47" y="108.21" width="2.72" height="22.16"/></g></svg>