<?xml version="1.0" encoding="UTF-8"?><svg id="Layer_1" xmlns="http://www.w3.org/2000/svg" viewBox="0 0 256 256"><defs><style>.cls-1{fill:#0054a0;}.cls-2{fill:#fff;}.cls-3{fill:#9c9b9b;}.cls-4{fill:#b20154;}</style></defs><rect class="cls-2" x="0" y="-.28" width="256" height="256"/><g><g><path class="cls-1" d="m124.37,119.45c.94-.06,3.24.12,3.24.12l.2.9s-2.23-.3-3.33-.31c-.46,0-.1-.71-.1-.71"/><path class="cls-1" d="m32.42,164.28c-2.01,0-3.26-.56-3.72-.82-.41-.47-.7-2.02-.7-3.48.15-.28.66-.3.83-.07.44,1.4,1.9,3.37,3.76,3.37,1.62,0,2.36-1.09,2.36-2.17,0-1.74-1.66-2.77-2.98-3.41-1.58-.77-3.3-2.06-3.3-4.19-.02-2.43,1.9-4.1,5.08-4.1.72,0,1.62.09,2.49.35.28.08.48.13.74.17.18.47.4,1.63.4,3.07-.11.26-.66.28-.85.06-.37-1.09-1.31-2.66-2.89-2.66-1.45,0-2.23.92-2.23,1.99,0,.99.9,1.89,1.99,2.45l1.44.75c1.36.71,3.08,1.95,3.08,4.31,0,2.64-2.21,4.36-5.51,4.36"/><path class="cls-1" d="m43.71,151.38c0-.52,0-.62-.53-.62h-1.36c-1.6,0-2.06.86-2.71,2.43-.26.13-.68.09-.81-.19.46-1.48.57-2.81.72-3.65.09-.06.2-.11.31-.11s.22.02.31.08c.11.37.17.45,1.84.45h8.14c1.44,0,1.77-.02,1.97-.47.09-.04.15-.06.28-.06s.28.08.33.15c-.22.73-.37,2.47-.33,3.69-.11.19-.7.24-.81.06-.37-1.37-.68-2.38-2.32-2.38h-1.31c-.53,0-.59.07-.59.62v9.47c0,2,.13,2.17,1.11,2.3l.88.11c.15.13.15.62,0,.75-1.42-.04-2.52-.07-3.5-.07-1.05,0-2.19.02-3.72.07-.18-.13-.18-.62,0-.75l.98-.11c.98-.11,1.12-.3,1.12-2.3v-9.47Z"/><path class="cls-1" d="m54.63,159.09c-.53,0-.59.02-.72.43l-.85,2.49c-.13.43-.15.6-.15.77,0,.13.28.26.9.36l.66.11c.13.15.18.64-.04.75-.77-.04-1.55-.04-2.47-.07-.74,0-1.25.07-2.25.07-.24-.13-.22-.58-.07-.75l.59-.07c.53-.06.96-.23,1.33-1.07.37-.86.79-1.89,1.38-3.43l1.99-5.24c.5-1.35.87-2.1.81-2.73,1.05-.23,1.86-1.29,1.9-1.29.28,0,.42.11.5.43.18.62.44,1.42.99,2.94l2.97,8.42c.46,1.29.66,1.78,1.47,1.91l.83.13c.13.11.17.62-.02.75-1.05-.04-2.23-.07-3.37-.07s-1.95.02-2.95.07c-.24-.13-.28-.58-.04-.75l.7-.11c.5-.08.59-.24.59-.36,0-.15-.15-.67-.42-1.46l-.59-1.85c-.11-.35-.28-.39-1.05-.39h-2.6Zm2.49-1.14c.5,0,.61-.06.44-.62l-.57-1.74c-.31-.92-.7-2.08-.9-2.54-.18.49-.61,1.65-.94,2.64l-.55,1.61c-.2.58-.09.64.46.64h2.06Z"/><path class="cls-1" d="m68.98,155.53c0,.58.02.64.61.64h1.68c1.16,0,1.4-.15,1.62-1.2l.11-.51c.15-.2.7-.17.83.02-.04.69-.07,1.48-.07,2.3s.02,1.59.07,2.23c-.13.19-.68.21-.83.02l-.11-.51c-.22-1.03-.46-1.2-1.62-1.2h-1.68c-.59,0-.61.06-.61.64v2.9c0,2,.13,2.17,1.12,2.3l.81.11c.15.13.15.62,0,.75-1.36-.04-2.43-.06-3.48-.06s-2.1.02-3.41.06c-.18-.13-.18-.62,0-.75l.72-.11c.98-.15,1.11-.3,1.11-2.3v-7.99c0-2-.13-2.19-1.11-2.34l-.44-.06c-.2-.13-.2-.66.04-.75.94.04,2.04.07,3.09.07h4.59c1.4,0,2.65-.02,2.95-.07,0,.36,0,1.91.04,3.35-.09.24-.57.26-.83.09-.24-.88-.42-1.4-.63-1.67-.37-.45-1.03-.71-2.14-.71h-1.71c-.72,0-.72.04-.72.88v3.89Z"/><path class="cls-1" d="m80.56,155.53c0,.58.02.64.61.64h1.68c1.16,0,1.4-.15,1.62-1.2l.11-.51c.15-.2.7-.17.83.02-.04.69-.07,1.48-.07,2.3s.02,1.59.07,2.23c-.13.19-.68.21-.83.02l-.11-.51c-.22-1.03-.46-1.2-1.62-1.2h-1.68c-.59,0-.61.06-.61.64v2.9c0,2,.13,2.17,1.12,2.3l.81.11c.15.13.15.62,0,.75-1.36-.04-2.43-.06-3.48-.06s-2.1.02-3.41.06c-.18-.13-.18-.62,0-.75l.72-.11c.98-.15,1.11-.3,1.11-2.3v-7.99c0-2-.13-2.19-1.11-2.34l-.44-.06c-.2-.13-.2-.66.04-.75.94.04,2.04.07,3.09.07h4.59c1.4,0,2.65-.02,2.95-.07,0,.36,0,1.91.04,3.35-.09.24-.57.26-.83.09-.24-.88-.42-1.4-.64-1.67-.37-.45-1.03-.71-2.14-.71h-1.71c-.72,0-.72.04-.72.88v3.89Z"/><path class="cls-1" d="m102.87,156.79c0,4.68-3.19,7.49-7.9,7.49-4.4,0-7.59-2.83-7.59-7.32,0-4.25,3.24-7.54,7.81-7.54s7.68,3.01,7.68,7.36m-7.85-6.38c-2.69,0-4.13,2.47-4.13,6.05,0,2.62.94,6.83,4.51,6.83,2.87,0,3.98-2.75,3.98-6.23,0-3.67-1.64-6.66-4.35-6.66"/><path class="cls-1" d="m105.83,153.25c0-2.15-.04-2.38-.96-2.51l-.59-.08c-.22-.11-.22-.64.04-.75,1.64-.11,3.35-.19,5.43-.19,1.86,0,3.46.28,4.29.77,1.27.73,1.93,1.8,1.93,3.18,0,1.91-1.31,2.73-2.32,3.22-.22.11-.22.24-.11.47,1.45,2.88,2.34,4.49,3.39,5.37.57.45,1.14.58,1.47.6.2.11.2.43.09.56-.35.15-1.05.19-1.73.19-2.01,0-3.28-.71-4.24-2.25-.7-1.14-1.2-2.19-1.71-3.33-.26-.58-.61-.75-1.16-.75-.77,0-.81.04-.81.47v2.64c0,1.98.13,2.13,1.12,2.3l.59.11c.15.11.15.62,0,.75-1.16-.04-2.17-.07-3.22-.07s-2.06.02-3.19.07c-.18-.13-.18-.64,0-.75l.59-.11c.98-.17,1.11-.32,1.11-2.3v-7.6Zm3,2.73c0,.75.07.82,1.36.82.79,0,1.25-.19,1.66-.6.37-.36.79-1.05.79-2.32,0-1.93-1.16-3.18-2.87-3.18-.9,0-.94.07-.94,1.09v4.19Z"/><path class="cls-1" d="m119.94,153.25c0-2.04-.04-2.45-1.05-2.55l-.41-.04c-.22-.11-.22-.73.04-.75,1.84-.11,3.55-.19,5.86-.19,1.79,0,3.59.17,5.1.71,2.87,1.01,4.44,3.54,4.44,6.23,0,2.88-1.4,5.19-3.92,6.42-1.49.73-3.28,1.01-5.53,1.01-1.03,0-2.12-.13-2.91-.13-1.05,0-2.17.02-3.41.06-.17-.13-.17-.64,0-.75l.68-.11c.98-.15,1.11-.32,1.11-2.3v-7.6Zm3.13,6.81c0,1.18.04,1.95.44,2.4.39.43,1.03.62,1.82.62,3.78,0,5.08-3.31,5.08-6.23,0-3.86-2.08-6.16-6.04-6.16-.59,0-1.01.11-1.14.28-.13.17-.15.58-.15,1.24v7.84Z"/><path class="cls-1" d="m141.72,153.25c0-2.15-.04-2.38-.96-2.51l-.59-.08c-.22-.11-.22-.64.04-.75,1.64-.11,3.35-.19,5.42-.19,1.86,0,3.46.28,4.29.77,1.27.73,1.93,1.8,1.93,3.18,0,1.91-1.31,2.73-2.32,3.22-.22.11-.22.24-.11.47,1.44,2.88,2.34,4.49,3.39,5.37.57.45,1.14.58,1.46.6.2.11.2.43.09.56-.35.15-1.05.19-1.73.19-2.01,0-3.28-.71-4.24-2.25-.7-1.14-1.2-2.19-1.71-3.33-.26-.58-.61-.75-1.16-.75-.77,0-.81.04-.81.47v2.64c0,1.98.13,2.13,1.12,2.3l.59.11c.15.11.15.62,0,.75-1.16-.04-2.17-.07-3.22-.07s-2.06.02-3.19.07c-.17-.13-.17-.64,0-.75l.59-.11c.98-.17,1.12-.32,1.12-2.3v-7.6Zm3,2.73c0,.75.07.82,1.36.82.79,0,1.25-.19,1.66-.6.37-.36.79-1.05.79-2.32,0-1.93-1.16-3.18-2.87-3.18-.9,0-.94.07-.94,1.09v4.19Z"/><path class="cls-1" d="m157.82,159.09c-.53,0-.59.02-.72.43l-.85,2.49c-.13.43-.15.6-.15.77,0,.13.28.26.9.36l.66.11c.13.15.17.64-.04.75-.77-.04-1.55-.04-2.47-.07-.74,0-1.25.07-2.25.07-.24-.13-.22-.58-.07-.75l.59-.07c.52-.06.96-.23,1.33-1.07.37-.86.79-1.89,1.38-3.43l1.99-5.24c.5-1.35.87-2.1.81-2.73,1.05-.23,1.86-1.29,1.9-1.29.28,0,.41.11.5.43.17.62.44,1.42.98,2.94l2.98,8.42c.46,1.29.66,1.78,1.47,1.91l.83.13c.13.11.17.62-.02.75-1.05-.04-2.23-.07-3.37-.07s-1.95.02-2.95.07c-.24-.13-.28-.58-.04-.75l.7-.11c.5-.08.59-.24.59-.36,0-.15-.15-.67-.41-1.46l-.59-1.85c-.11-.35-.28-.39-1.05-.39h-2.6Zm2.49-1.14c.5,0,.61-.06.44-.62l-.57-1.74c-.31-.92-.7-2.08-.9-2.54-.17.49-.61,1.65-.94,2.64l-.55,1.61c-.2.58-.09.64.46.64h2.06Z"/><path class="cls-1" d="m172.19,160.81c0,2.02.13,2.17,1.14,2.34l.61.11c.18.13.15.62-.02.75-1.18-.04-2.25-.07-3.28-.07s-2.14.02-3.32.07c-.18-.13-.18-.62,0-.75l.61-.11c1.01-.17,1.14-.32,1.14-2.34v-7.9c0-2.02-.13-2.17-1.14-2.34l-.61-.11c-.18-.13-.18-.62,0-.75,1.18.04,2.27.07,3.32.07s2.12-.02,3.3-.07c.18.13.18.62,0,.75l-.61.11c-1.01.17-1.14.32-1.14,2.34v7.9Z"/><path class="cls-1" d="m179.89,160.38c0,1.01.09,1.7.37,2.04.28.37.68.54,2.27.54,1.99,0,2.6-.07,3.89-2.56.17-.21.68-.13.83.13-.11,1.12-.64,2.9-.94,3.48-1.16-.04-3.26-.06-5.05-.06h-2.93c-1.01,0-2.1.02-3.46.06-.2-.13-.24-.62-.07-.75l.83-.11c.98-.13,1.12-.3,1.12-2.3v-7.99c0-2-.13-2.19-1.12-2.32l-.63-.08c-.22-.13-.22-.62.04-.75,1.14.04,2.23.06,3.28.06s2.14-.02,3.24-.06c.17.13.17.62,0,.75l-.57.08c-.98.15-1.12.32-1.12,2.32v7.51Z"/><path class="cls-1" d="m205.71,150.61c-.5.11-.83.28-.98.47-.24.34-.61,1.03-1.2,2.38-1.07,2.51-3.46,7.86-4.53,10.65-.13.11-.44.17-.72.17-.24,0-.44-.07-.59-.17-.24-.51-.57-1.29-.83-1.89l-.92-2.04c-.31-.69-.59-1.33-.79-1.65-.2.37-.46.88-.74,1.48l-1.01,2.08c-.33.69-.57,1.31-.92,2.02-.11.11-.42.17-.74.17-.24,0-.4-.07-.59-.17-.35-.9-1.22-2.83-1.97-4.44l-3.57-7.58c-.59-1.27-.72-1.37-1.44-1.52l-.55-.11c-.18-.21-.15-.64.09-.75.81.04,1.73.06,2.84.06.96,0,1.82-.02,2.65-.06.17.09.26.62.04.75l-.39.06c-.39.07-.55.17-.55.32s.46,1.16,1.14,2.66l2.17,4.75c.61,1.33.94,1.93,1.2,2.45.26-.43.77-1.44,1.12-2.21l.28-.62c.15-.34.22-.62.22-.75s-.15-.58-.24-.79l-2.1-4.53c-.5-1.07-.66-1.22-1.49-1.31l-.22-.02c-.22-.17-.17-.66.07-.75.94.04,1.79.06,2.76.06,1.12,0,1.95-.02,2.52-.06.26.06.24.64.09.75l-.37.09c-.26.06-.59.15-.59.3,0,.17.09.41.2.64l.66,1.48c.2.45.48,1.03.68,1.42.22-.45.46-.99.68-1.46l.2-.43c.37-.82.64-1.46.64-1.59,0-.15-.09-.21-.44-.3l-.79-.15c-.15-.15-.13-.64.07-.75.64.04,1.42.06,2.14.06.85,0,1.66-.02,2.23-.06.18.11.22.62.02.77l-.61.13c-.74.15-.9.15-1.66,1.44-.53.88-1.07,1.95-1.36,2.51-.2.39-.48,1.01-.48,1.12,0,.06.02.19.18.54l1.03,2.17c.57,1.18.87,1.87,1.01,2.17,1.05-2.49,2.25-5.22,3.31-7.84.15-.36.57-1.5.57-1.74,0-.22-.35-.3-.63-.39l-.48-.13c-.18-.19-.13-.64.07-.75.7.04,1.6.06,2.25.06.77,0,1.4-.02,2.01-.06.2.11.22.58.07.75l-.66.15Z"/></g><g><path class="cls-1" d="m206.76,159.09c-.53,0-.59.02-.72.43l-.85,2.49c-.13.43-.15.6-.15.77,0,.13.28.26.9.36l.66.11c.13.15.17.64-.04.75-.77-.04-1.55-.04-2.47-.07-.74,0-1.25.07-2.25.07-.24-.13-.22-.58-.07-.75l.59-.07c.53-.06.96-.23,1.33-1.07.37-.86.79-1.89,1.38-3.43l1.99-5.24c.5-1.35.88-2.1.81-2.73,1.05-.23,1.86-1.29,1.9-1.29.28,0,.42.11.5.43.17.62.44,1.42.98,2.94l2.98,8.42c.46,1.29.66,1.78,1.47,1.91l.83.13c.13.11.17.62-.02.75-1.05-.04-2.23-.07-3.37-.07s-1.95.02-2.95.07c-.24-.13-.28-.58-.04-.75l.7-.11c.5-.08.59-.24.59-.36,0-.15-.15-.67-.41-1.46l-.59-1.85c-.11-.35-.28-.39-1.05-.39h-2.6Zm2.49-1.14c.5,0,.61-.06.44-.62l-.57-1.74c-.31-.92-.7-2.08-.9-2.54-.17.49-.61,1.65-.94,2.64l-.55,1.61c-.2.58-.09.64.46.64h2.06Z"/><path class="cls-1" d="m222.17,160.85c0,2,.13,2.17,1.12,2.3l.88.11c.15.13.15.62,0,.75-1.42-.04-2.49-.06-3.54-.06s-2.14.02-3.43.06c-.18-.13-.18-.62,0-.75l.74-.11c.98-.15,1.11-.3,1.11-2.3v-1.07c0-1.07-.02-1.42-.59-2.55l-2.6-5.28c-.44-.88-.64-1.22-1.4-1.35l-.74-.13c-.2-.17-.18-.69.09-.75.98.04,1.79.06,3.08.06s2.45-.02,3.19-.06c.2.09.24.58.04.75l-.74.17c-.4.09-.53.17-.53.2,0,.17.11.49.57,1.5l1.03,2.3c.33.71.83,1.7,1.09,2.23.63-1.05,1.31-2.45,1.88-3.54.79-1.52,1.05-2.17,1.05-2.43,0-.13-.35-.26-.87-.34l-.42-.09c-.17-.11-.2-.64.02-.75.87.04,1.66.06,2.45.06.83,0,1.51-.02,2.14-.06.26.09.26.6.09.75l-.57.11c-.39.06-.9.21-1.13.51-.33.41-.85,1.18-1.9,3.05l-1.38,2.45c-.57,1.01-.72,1.55-.72,2.77v1.5Z"/></g><g><path class="cls-4" d="m52.52,186.37v-12.25h4.6c.86,0,1.6.08,2.2.23.61.16,1.1.38,1.48.66s.66.63.84,1.04.26.87.26,1.37c0,.28-.04.54-.12.8-.08.25-.21.49-.38.72-.17.22-.39.43-.66.61-.27.18-.59.34-.97.47.82.2,1.43.51,1.83.96.39.44.59,1,.59,1.69,0,.52-.1,1.01-.31,1.45-.21.45-.51.84-.9,1.17-.4.34-.89.59-1.47.78-.58.19-1.25.28-2,.28h-4.99Zm2.9-7.1h1.51c.32,0,.61-.02.87-.07.26-.04.48-.12.66-.24.18-.11.32-.27.41-.46.09-.2.14-.44.14-.74s-.04-.53-.11-.73-.19-.35-.34-.47c-.15-.12-.35-.2-.59-.25-.24-.05-.52-.08-.84-.08h-1.7v3.03Zm0,1.9v3.05h2.04c.38,0,.7-.05.94-.14.24-.09.43-.22.57-.37.14-.15.23-.32.28-.51.05-.19.08-.39.08-.58,0-.22-.03-.43-.09-.61-.06-.18-.16-.33-.31-.45-.15-.12-.34-.22-.58-.29-.24-.07-.54-.1-.91-.1h-2.02Z"/><path class="cls-4" d="m68.64,184c.39,0,.74-.06,1.04-.19.31-.12.56-.3.78-.53.21-.23.37-.52.48-.85.11-.33.17-.71.17-1.14v-7.17h2.9v7.18c0,.74-.12,1.42-.37,2.05-.25.62-.6,1.16-1.07,1.61-.46.45-1.03.8-1.69,1.05-.66.25-1.41.37-2.24.37s-1.58-.13-2.25-.37c-.66-.25-1.23-.6-1.69-1.05-.46-.45-.82-.99-1.06-1.61s-.37-1.3-.37-2.05v-7.18h2.9v7.16c0,.43.06.81.17,1.14.11.34.27.62.48.85.21.24.47.41.78.54.31.13.65.19,1.04.19"/><rect class="cls-4" x="75.82" y="174.12" width="2.92" height="12.25"/><polygon class="cls-4" points="83.62 184.1 88.25 184.1 88.25 186.37 80.73 186.37 80.73 174.12 83.62 174.12 83.62 184.1"/><path class="cls-4" d="m100.64,180.24c0,.89-.16,1.7-.47,2.45-.31.75-.75,1.4-1.32,1.94-.56.55-1.25.97-2.04,1.28-.8.31-1.68.46-2.65.46h-4.85v-12.25h4.85c.97,0,1.86.15,2.65.46.8.31,1.48.73,2.04,1.28.57.54,1.01,1.19,1.32,1.94.31.75.47,1.56.47,2.44m-2.97,0c0-.61-.08-1.15-.24-1.64-.16-.49-.39-.9-.69-1.24-.3-.34-.67-.6-1.1-.78-.43-.18-.93-.27-1.48-.27h-1.94v7.88h1.94c.55,0,1.05-.09,1.48-.27.44-.18.8-.44,1.1-.78.3-.34.53-.75.69-1.24.16-.49.24-1.04.24-1.65"/><rect class="cls-4" x="101.96" y="174.12" width="2.92" height="12.25"/><path class="cls-4" d="m108.7,174.13c.09.01.16.03.23.06s.13.07.2.13c.06.06.13.13.22.23l5.93,7.36c-.02-.23-.04-.46-.05-.68-.01-.22-.02-.43-.02-.63v-6.48h2.56v12.25h-1.51c-.22,0-.41-.03-.56-.1-.15-.07-.3-.19-.45-.37l-5.89-7.3c.02.21.03.42.04.63.01.2.02.4.02.58v6.57h-2.55v-12.25h1.52c.13,0,.23,0,.32.02"/><path class="cls-4" d="m125.38,184.19c.4,0,.75-.03,1.06-.1.31-.07.6-.16.87-.27v-1.86h-1.23c-.18,0-.33-.05-.43-.14-.1-.09-.16-.22-.16-.36v-1.56h4.44v5.17c-.32.23-.65.43-1,.59-.35.17-.71.3-1.1.41-.39.11-.81.18-1.25.24-.44.05-.92.08-1.43.08-.91,0-1.76-.16-2.54-.47-.78-.31-1.45-.74-2.02-1.28-.57-.55-1.02-1.2-1.34-1.94-.32-.75-.49-1.56-.49-2.44s.15-1.72.46-2.47c.31-.75.75-1.4,1.32-1.94s1.27-.97,2.08-1.27c.81-.3,1.72-.45,2.73-.45.52,0,1.01.04,1.47.13.46.08.88.2,1.26.34.39.15.74.32,1.06.52.32.2.6.42.86.66l-.84,1.2c-.08.11-.18.2-.29.27-.11.06-.23.1-.36.1-.17,0-.35-.05-.53-.16-.23-.12-.45-.23-.65-.32-.2-.09-.41-.17-.62-.22-.21-.06-.44-.1-.67-.12-.23-.03-.5-.04-.79-.04-.54,0-1.03.09-1.47.27-.43.18-.8.44-1.11.77-.31.33-.54.73-.71,1.19-.17.46-.25.98-.25,1.55,0,.63.09,1.19.27,1.68.18.49.44.9.76,1.24.32.34.71.59,1.15.77.44.18.93.26,1.45.26"/><path class="cls-4" d="m141.37,176.4c-.16.23-.38.84-1.27.36-.48-.26-.31-.19-.82-.38-.57-.21-.8-.18-1.11-.18-.54,0-.87.16-1.13.38-.27.22-.4.62-.4,1,0,.24.08.44.24.6.16.16.37.3.63.41.26.12.56.22.89.32.34.09.68.2,1.03.32.35.12.69.25,1.02.41.34.16.63.36.89.61.26.25.47.55.63.9.16.35.24.78.24,1.27,0,.55-.1,1.07-.3,1.55-.2.48-.49.9-.87,1.26-.38.36-.85.64-1.41.84-.56.21-1.19.31-1.9.31-.39,0-.79-.04-1.19-.12-.4-.08-.79-.19-1.17-.33-.38-.14-.73-.31-1.06-.51-.33-.2-.62-.42-.87-.66l.86-1.3c.06-.1.15-.18.27-.24.12-.06.24-.09.37-.09.17,0,.35.05.52.16.17.1.37.22.59.34.22.12.47.24.76.34.29.1.62.16,1.01.16.53,0,.93-.11,1.23-.33.29-.22.44-.57.44-1.05,0-.28-.08-.51-.24-.68-.16-.18-.37-.32-.63-.44-.26-.11-.56-.22-.89-.3-.33-.09-.67-.18-1.02-.29-.35-.11-.69-.24-1.02-.39-.33-.16-.63-.36-.89-.62-.26-.25-.47-.57-.63-.95-.16-.38-.24-.85-.24-1.41,0-.45.09-.89.28-1.31.19-.43.47-.81.83-1.14.37-.33.82-.6,1.35-.8.53-.2,1.14-.3,1.83-.3.38,0,.75.03,1.12.09.36.06.8.13,1.13.25.33.11.53.16.82.32.28.16.49.26.72.46,0,0-.46.94-.62,1.17"/><path class="cls-4" d="m155.65,180.24c0,.87-.16,1.68-.47,2.42-.31.75-.75,1.4-1.32,1.95-.57.55-1.25.98-2.04,1.3-.8.31-1.68.47-2.65.47s-1.86-.16-2.66-.47c-.8-.31-1.49-.75-2.05-1.3-.57-.55-1.01-1.2-1.32-1.95-.31-.75-.47-1.55-.47-2.42s.16-1.68.47-2.42c.31-.75.75-1.4,1.32-1.94.57-.55,1.25-.98,2.05-1.29.8-.31,1.69-.47,2.66-.47s1.86.16,2.65.47c.8.32,1.48.75,2.04,1.3.57.55,1.01,1.2,1.32,1.94.31.75.47,1.55.47,2.41m-2.97,0c0-.59-.08-1.11-.24-1.58-.16-.47-.39-.87-.69-1.19-.3-.33-.67-.58-1.1-.75-.44-.17-.93-.26-1.48-.26s-1.06.09-1.5.26c-.44.17-.81.42-1.11.75-.3.33-.53.72-.69,1.19-.16.47-.24,1-.24,1.58s.08,1.12.24,1.59c.16.47.39.87.69,1.19.3.33.67.57,1.11.75.44.17.94.26,1.5.26s1.05-.09,1.48-.26c.44-.17.8-.42,1.1-.75.3-.32.53-.72.69-1.19.16-.47.24-1,.24-1.59"/><rect class="cls-4" x="167.9" y="174.12" width="2.92" height="12.25"/><polygon class="cls-4" points="180.84 174.12 180.84 176.3 175.72 176.3 175.72 179.16 179.64 179.16 179.64 181.27 175.72 181.27 175.72 184.18 180.84 184.18 180.84 186.37 172.8 186.37 172.8 174.12 180.84 174.12"/><polygon class="cls-4" points="191.24 174.12 191.24 176.37 187.72 176.37 187.72 186.37 184.82 186.37 184.82 176.37 181.31 176.37 181.31 174.12 191.24 174.12"/><path class="cls-4" d="m198.34,181.71v4.66h-2.9v-4.66l-4.53-7.59h2.56c.25,0,.45.06.6.17.15.11.27.26.36.44l1.77,3.56c.14.28.27.55.39.79.12.24.23.48.32.71.09-.24.19-.48.31-.72.12-.24.25-.5.39-.78l1.75-3.56c.03-.07.08-.15.14-.22.06-.07.13-.14.2-.2.08-.06.17-.11.27-.14.1-.04.21-.06.33-.06h2.57l-4.53,7.59Z"/><path class="cls-4" d="m165.11,183.11c-.09,0-.17.02-.25.05-.08.04-.15.08-.22.13-.17.14-.34.26-.51.35-.17.1-.35.17-.53.23-.18.06-.39.1-.6.13s-.46.04-.72.04c-.46,0-.89-.08-1.29-.25-.4-.17-.75-.41-1.05-.74-.3-.32-.54-.72-.71-1.19-.18-.47-.35-1.2-.35-1.81,0-.57.2-1.65.74-2.53.24-.38.9-.95,1.33-1.13.44-.18.93-.25,1.47-.24.84.02,1.33.26,1.53.36.5.24.83.69,1.06.82.18.11.46.03.58-.1.22-.23.4-.58.48-.68.32-.39.7-.98.7-.98-.25-.23-.71-.53-1.04-.71-.89-.5-1.98-.74-2.96-.75-1.13,0-2.19.09-3.08.49-1.34.6-2.18,1.34-2.67,2.07-.76,1.13-1.02,2.67-1.02,3.57s.14,1.69.42,2.44.68,1.4,1.21,1.94c.52.55,1.16.98,1.91,1.28.75.31,1.6.47,2.55.47,1.03,0,1.93-.16,2.69-.49.76-.33,1.39-.82,1.89-1.46l-1.15-1.16c-.06-.06-.34-.16-.4-.16"/><path class="cls-4" d="m83.01,115.67s21.43,3.38,28.73,4.9c7.3,1.51,21.9,4.16,28.2,5.76,6.29,1.6,16.5,4.1,21.76,6,5.25,1.9,6.59,2.7,6.71,3.53.12.83-.51,1.54-1.4,1.25-.89-.3-14.66-4.96-24.31-7.48-9.65-2.52-25.2-6.83-38.44-9.59-13.24-2.76-21.25-4.36-21.25-4.36"/><path class="cls-4" d="m140.24,120.5s20.92,1.66,31.37,3.65c10.45,1.99,12.08,3.03,13.71,3.77.21.68.3,1.4-.18,1.63-.47.24-.92.18-2.61-.24-1.69-.41-11.96-2.97-25.17-4.93-13.21-1.96-17.84-2.55-17.84-2.55l.71-1.34Z"/><path class="cls-4" d="m127.56,128.91s14.81-2.05,19.44-2.4c4.63-.36,9.74-.71,11.81-.42,0,1.19-.06,1.19-.06,1.19l-31.19,1.63Z"/></g><g><path class="cls-4" d="m139.7,133.09s19.77-2.64,26.06-2.82c6.29-.18,9.35-.12,9.35-.12l-.03,1.07-35.38,1.87Z"/><path class="cls-3" d="m72.54,74s9.42-4.49,15.62-4.85c6.19-.36,10.47.27,13.72,6.35,5.91.17,15.29-1.27,25.82-5.37-2.78,1.96-9.09,6.89-27.66,6.43-1.86-3.18-7.28-6.02-15.75-5.1-4.8.52-11.74,2.55-11.74,2.55"/></g><g><path class="cls-3" d="m73.63,78.8c4.3-.69,6.19-1.4,16.38-.35,8.92.92,8.69,1.34,8.69,1.34,0,0,9-.25,16.66-1.92,7.65-1.67,8.57-1.9,8.57-1.9,0,0-8.98,3.11-17.71,4.62-7.94,1.38-9.84.75-9.84.75,0,0-11.51-3.36-22.75-2.55"/><path class="cls-3" d="m81.33,83.33s-.71,3.13,3.24,3.82c3.95.69,7.46.58,17.19-2.21,9.73-2.78,17.09-6.18,25.88-8.5,8.79-2.32,16.19-2.94,18.11-.4,1.92,2.53.07,5.97-1.27,8.1.69-3.7,1.02-7.64-4.47-7.35-5.49.29-15.31,2.48-23.54,5.49-8.23,3.01-13.95,4.53-19.34,5.68-5.39,1.15-13.7,2.21-15.39.11-1.69-2.09-.42-4.74-.42-4.74"/><path class="cls-4" d="m111.03,92.34s-7.67,1.06-8.73,1.06-1.4-.13-1-.59c.4-.46.75-1.04.75-1.04l8.98.58Z"/><path class="cls-4" d="m84.11,104.33s8.4-2.38,8.92-2.55c.52-.17.63.12.52.46-.12.35-.75,1.09-.75,1.09l-8.69,1Z"/><path class="cls-4" d="m90.02,98.77l8.15-3.3s.31-1.32.83-1.04c.52.29,1.27,1.44,1.27,1.44,0,0,.46,7.92.17,10.53-.29,2.61-.29,2.67-.46,3.24-.17.58-.85,1.32-1.09.4-.25-.92-1.28-3.57-.94-13.01-3.13.69-7.92,1.73-7.92,1.73"/><path class="cls-4" d="m104.48,95.41c-.35.46-.75.48-.92,1.46-.17.98-.35,1.73-.35,2.42-.52.58-.94.75-1.34.58-.4-.17-.69-.92-.35-1.56.35-.63,1.92-2.44,2.95-2.9"/><path class="cls-4" d="m139.61,87.32l-1.38.58s-1.09-.11-.69-.69c.4-.58.98-.88,1.44-1,.46-.11,3.12-.58,3.12-.58v3.36c0,1.05-.71,2.15-2.44,2.55-1.73.4-31.54,5.85-31.54,5.85,0,0-2.15,1.57-2.78,3.07-.63,1.5-1.19,3.69.48,5.89,1.67,2.21,3.17,3.53,3.17,3.53,0,0-5.6-2.02-6.01-4.74-.4-2.73.23-5.62,4.39-8.98,4.16-.81,32.35-6.95,32.35-6.95l-.12-1.9Z"/><path class="cls-4" d="m123.3,91.25s-3.36-2.48-5.62-.63c-2.26,1.84-3.23,2.95-4.34,7.35.92-4.76,1.79-9.09,4.68-9.67,2.9-.58,5.28,2.95,5.28,2.95"/><path class="cls-4" d="m117.45,95.47s-1.75,1.5-2.9,4.34c-1.15,2.84-3.42,7.14,2.9,11.53-3.65-2.03-6.37-4.18-5.91-7.94.46-3.76,4.64-7.75,5.5-8.33.87-.58.4.4.4.4"/><path class="cls-4" d="m115.65,108.9c0,.4,5.1-6.64,13.03,1.92,8.86-.11,13.35-.17,14.41-.06,1.05.12,1.05.46,1.05.46,0,0,.19.69-.23,1.09-.42.4-1.96.81-3.13.81s-35.49-.63-35.49-.63l20.08-1.32s-1.96-2.84-4.22-3.13c-3.13-.4-5.51.86-5.51.86"/><path class="cls-4" d="m88.58,112.72c.06,0-.94,0-1.69-.17-.75-.17-3.7-.75-3.7-.75,0,0,6.12-.52,10.82-.35,4.7.17,5.1.4,5.51.69.4.29.12.52.12.52,0,0-1.61-.17-3.3-.17s-5.56.06-5.56.06c0,0-.71,1.25.23,1.44.94.19,1.96.06,3.7-.46-.75.58-3.65,1.23-4.62,1.05-.98-.17-1.5-.82-1.5-1.86"/><path class="cls-4" d="m151.04,90.8s2.45-1.25,6.45-1.35c2.84-.07,5.45,1.49,6.74,2.88,1.28,1.4,2.31,3.73,2.6,5.63.29,1.9.54,6.94-2.02,9.96-2.55,3.01-8.1,5.1-13.49,3.42-5.39-1.69-8.98-6.77-8.4-13.95-3.53-.11-12.55-.29-12.55-.29,0,0,7.12-1.75,10.71-2.21,3.59-.46,4.74-.4,5.08-.06-.29.92-1.46,5.55,0,8.73,1.46,3.18,4.51,5.91,7.81,6.2,3.3.29,6.1-.62,7.88-2.42,1.78-1.8,3.36-3.26,3.3-7.77-.06-5.07-2.86-7.01-5.43-8.32-1.63-.83-4.18-1.44-7.18-.6-1.21.23-1.5.14-1.5.14"/><path class="cls-4" d="m134.96,95.8l-2.25,12.27s-1.29-9.69-1.26-10.85c.03-1.16,1.23-2.18,2.02-2.18s1.49.76,1.49.76"/><path class="cls-4" d="m158.18,96.93s2.05,1.85,2.18,3.6c.13,1.75-1.29,3.77-2.75,3.8-1.45.03-2.78.06-3.67-1.85,1.62.69,2.51.83,3.51.4,1-.43,1.95-1.95,1.79-3.21-.17-1.26-1.06-2.74-1.06-2.74"/><path class="cls-4" d="m167.17,106.85c.76-1.22,1.56-2.61,1.89-4.69.33-2.09.3-2.68.2-3.44-.1-.76-.1-3.04.03-3.67.13-.63.49-.6.76-.1.27.5,1.45,2.51.79,4.79-.66,2.28-2.22,5.82-3.67,7.11"/><path class="cls-4" d="m168.7,112.54s.69,1.89.3,2.94c-.4,1.06-1.49,1.72-2.42,1.65-.92-.07-2.12-.62-2.22-2.25.66.79,1.36,1.45,2.45,1.16,1.09-.3,1.69-1.02,1.89-1.88.14-.59,0-1.62,0-1.62"/><path class="cls-4" d="m151.57,112.5s.46,1.52.07,2.58c-.4,1.06-1.49,1.72-2.41,1.65-.93-.07-2.12-.62-2.22-2.25.67.79,1.36,1.45,2.45,1.16,1.09-.3,1.69-1.02,1.85-1.62.16-.58.26-1.52.26-1.52"/><path class="cls-4" d="m162.31,115.58c-.2,1.19-.47,3.5-1.65,5.36-1.19,1.85-2.61,2.75-4.23,3.01-1.62.26-2.81-.43-3.44-1.19-.63-.76-2.15-3.11-2.15-3.11,0,0,1.85,1.85,3.3,2.09,1.46.23,2.82.37,4.14-.66,1.32-1.03,3.04-2.71,4.03-5.49"/><path class="cls-4" d="m142.93,113.93c.43.5,1.03,1.42,1.26,2.51s-.14,2.32-.56,2.75c-.43.43-.79.33-.86-.03-.07-.36-.07-3.61.17-5.23"/><polygon class="cls-4" points="166.74 117.13 143.82 118.1 143.72 115.85 166.22 116.57 166.74 117.13"/><polygon class="cls-4" points="142.9 118.59 94.12 115.55 142.97 116.37 142.9 118.59"/><path class="cls-4" d="m141.25,117.93s-.2,2.54-1.79,4.86c-1.59,2.32-2.85,2.91-4.79,3.14-2.57.3-4.5-.94-5.66-2.68-.79-1.19-1.49-2.32-1.72-5.06.66,2.05,1.6,3.28,3.27,4.36,1.49.96,3.52,1.67,5.55.89,1.72-.66,4.07-3.63,4.73-5.26.66-1.62.46-1.09.46-1.09l-.07.83Z"/><path class="cls-4" d="m126.32,116.24s-.17,2.17-1.49,4.14c-1.32,1.97-2.37,2.48-4,2.68-2.15.26-3.76-.8-4.72-2.28-.66-1.01-1.24-1.97-1.43-4.31.55,1.74,1.33,2.8,2.73,3.72,1.24.82,2.94,1.42,4.64.76,1.44-.56,3.4-3.09,3.95-4.48.55-1.38.39-.93.39-.93l-.06.71Z"/><path class="cls-4" d="m113.96,115.09s-.14,1.74-1.21,3.33c-1.07,1.59-1.92,2-3.24,2.16-1.74.21-3.04-.65-3.82-1.84-.54-.82-1-1.59-1.16-3.47.45,1.4,1.08,2.25,2.21,2.99,1,.66,2.38,1.15,3.75.61,1.16-.45,2.75-2.49,3.19-3.6.45-1.11.31-.75.31-.75l-.04.57Z"/><path class="cls-4" d="m103.41,114.06s-.12,1.47-1.04,2.81c-.92,1.34-1.65,1.68-2.78,1.82-1.49.18-2.61-.54-3.28-1.55-.46-.69-.86-1.34-.99-2.92.38,1.18.93,1.9,1.9,2.52.86.55,2.04.97,3.22.52,1-.38,2.36-2.1,2.74-3.04.39-.94.27-.63.27-.63l-.04.48Z"/><path class="cls-1" d="m111.93,118.71c.94-.06,3.51.07,3.51.07l.14.4s-2.56-.21-3.4-.21c-.46,0-.25-.26-.25-.26"/><path class="cls-1" d="m83.01,115.67s21.43,3.38,28.73,4.9c7.3,1.51,21.9,4.16,28.2,5.76,6.29,1.6,16.5,4.1,21.76,6,5.25,1.9,6.59,2.7,6.71,3.53.12.83-.51,1.54-1.4,1.25-.89-.3-14.66-4.96-24.31-7.48-9.65-2.52-25.2-6.83-38.44-9.59-13.24-2.76-21.25-4.36-21.25-4.36"/><path class="cls-1" d="m140.24,120.5s20.92,1.66,31.37,3.65c10.45,1.99,12.08,3.03,13.71,3.77.21.68.3,1.4-.18,1.63-.47.24-.92.18-2.61-.24-1.69-.41-11.96-2.97-25.17-4.93-13.21-1.96-17.84-2.55-17.84-2.55l.71-1.34Z"/><path class="cls-1" d="m127.56,128.91s14.81-2.05,19.44-2.4c4.63-.36,9.74-.71,11.81-.42,0,1.19-.06,1.19-.06,1.19l-31.19,1.63Z"/><path class="cls-1" d="m139.7,133.09s19.77-2.64,26.06-2.82c6.29-.18,9.35-.12,9.35-.12l-.03,1.07-35.38,1.87Z"/><path class="cls-4" d="m111.03,92.34s-7.67,1.06-8.73,1.06-1.4-.13-1-.59c.4-.46.75-1.04.75-1.04l8.98.58Z"/><path class="cls-4" d="m84.11,104.33s8.4-2.38,8.92-2.55c.52-.17.63.12.52.46-.12.35-.75,1.09-.75,1.09l-8.69,1Z"/><path class="cls-4" d="m90.02,98.77l8.15-3.3s.31-1.32.83-1.04c.52.29,1.27,1.44,1.27,1.44,0,0,.46,7.92.17,10.53-.29,2.61-.29,2.67-.46,3.24-.17.58-.85,1.32-1.09.4-.25-.92-1.28-3.57-.94-13.01-3.13.69-7.92,1.73-7.92,1.73"/><path class="cls-4" d="m104.48,95.41c-.35.46-.75.48-.92,1.46-.17.98-.35,1.73-.35,2.42-.52.58-.94.75-1.34.58-.4-.17-.69-.92-.35-1.56.35-.63,1.92-2.44,2.95-2.9"/><path class="cls-4" d="m139.61,87.32l-1.38.58s-1.09-.11-.69-.69c.4-.58.98-.88,1.44-1,.46-.11,3.12-.58,3.12-.58v3.36c0,1.05-.71,2.15-2.44,2.55-1.73.4-31.54,5.85-31.54,5.85,0,0-2.15,1.57-2.78,3.07-.63,1.5-1.19,3.69.48,5.89,1.67,2.21,3.17,3.53,3.17,3.53,0,0-5.6-2.02-6.01-4.74-.4-2.73.23-5.62,4.39-8.98,4.16-.81,32.35-6.95,32.35-6.95l-.12-1.9Z"/><path class="cls-4" d="m123.3,91.25s-3.36-2.48-5.62-.63c-2.26,1.84-3.23,2.95-4.34,7.35.92-4.76,1.79-9.09,4.68-9.67,2.9-.58,5.28,2.95,5.28,2.95"/><path class="cls-4" d="m117.45,95.47s-1.75,1.5-2.9,4.34c-1.15,2.84-3.42,7.14,2.9,11.53-3.65-2.03-6.37-4.18-5.91-7.94.46-3.76,4.64-7.75,5.5-8.33.87-.58.4.4.4.4"/><path class="cls-4" d="m115.65,108.9c0,.4,5.1-6.64,13.03,1.92,8.86-.11,13.35-.17,14.41-.06,1.05.12,1.05.46,1.05.46,0,0,.19.69-.23,1.09-.42.4-1.96.81-3.13.81s-35.49-.63-35.49-.63l20.08-1.32s-1.96-2.84-4.22-3.13c-3.13-.4-5.51.86-5.51.86"/><path class="cls-4" d="m88.58,112.72c.06,0-.94,0-1.69-.17-.75-.17-3.7-.75-3.7-.75,0,0,6.12-.52,10.82-.35,4.7.17,5.1.4,5.51.69.4.29.12.52.12.52,0,0-1.61-.17-3.3-.17s-5.56.06-5.56.06c0,0-.71,1.25.23,1.44.94.19,1.96.06,3.7-.46-.75.58-3.65,1.23-4.62,1.05-.98-.17-1.5-.82-1.5-1.86"/><path class="cls-4" d="m151.04,90.8s2.45-1.25,6.45-1.35c2.84-.07,5.45,1.49,6.74,2.88,1.28,1.4,2.31,3.73,2.6,5.63.29,1.9.54,6.94-2.02,9.96-2.55,3.01-8.1,5.1-13.49,3.42-5.39-1.69-8.98-6.77-8.4-13.95-3.53-.11-12.55-.29-12.55-.29,0,0,7.12-1.75,10.71-2.21,3.59-.46,4.74-.4,5.08-.06-.29.92-1.46,5.55,0,8.73,1.46,3.18,4.51,5.91,7.81,6.2,3.3.29,6.1-.62,7.88-2.42,1.78-1.8,3.36-3.26,3.3-7.77-.06-5.07-2.86-7.01-5.43-8.32-1.63-.83-4.18-1.44-7.18-.6-1.21.23-1.5.14-1.5.14"/><path class="cls-4" d="m134.96,95.8l-2.25,12.27s-1.29-9.69-1.26-10.85c.03-1.16,1.23-2.18,2.02-2.18s1.49.76,1.49.76"/><path class="cls-4" d="m158.18,96.93s2.05,1.85,2.18,3.6c.13,1.75-1.29,3.77-2.75,3.8-1.45.03-2.78.06-3.67-1.85,1.62.69,2.51.83,3.51.4,1-.43,1.95-1.95,1.79-3.21-.17-1.26-1.06-2.74-1.06-2.74"/><path class="cls-4" d="m167.17,106.85c.76-1.22,1.56-2.61,1.89-4.69.33-2.09.3-2.68.2-3.44-.1-.76-.1-3.04.03-3.67.13-.63.49-.6.76-.1.27.5,1.45,2.51.79,4.79-.66,2.28-2.22,5.82-3.67,7.11"/><path class="cls-4" d="m168.7,112.54s.69,1.89.3,2.94c-.4,1.06-1.49,1.72-2.42,1.65-.92-.07-2.12-.62-2.22-2.25.66.79,1.36,1.45,2.45,1.16,1.09-.3,1.69-1.02,1.89-1.88.14-.59,0-1.62,0-1.62"/><path class="cls-4" d="m151.57,112.5s.46,1.52.07,2.58c-.4,1.06-1.49,1.72-2.41,1.65-.93-.07-2.12-.62-2.22-2.25.67.79,1.36,1.45,2.45,1.16,1.09-.3,1.69-1.02,1.85-1.62.16-.58.26-1.52.26-1.52"/><path class="cls-4" d="m162.31,115.58c-.2,1.19-.47,3.5-1.65,5.36-1.19,1.85-2.61,2.75-4.23,3.01-1.62.26-2.81-.43-3.44-1.19-.63-.76-2.15-3.11-2.15-3.11,0,0,1.85,1.85,3.3,2.09,1.46.23,2.82.37,4.14-.66,1.32-1.03,3.04-2.71,4.03-5.49"/><path class="cls-4" d="m142.93,113.93c.43.5,1.03,1.42,1.26,2.51s-.14,2.32-.56,2.75c-.43.43-.79.33-.86-.03-.07-.36-.07-3.61.17-5.23"/><polygon class="cls-4" points="166.74 117.13 143.82 118.1 143.72 115.85 166.22 116.57 166.74 117.13"/><polygon class="cls-4" points="142.9 118.59 94.12 115.55 142.97 116.37 142.9 118.59"/><path class="cls-4" d="m141.25,117.93s-.2,2.54-1.79,4.86c-1.59,2.32-2.85,2.91-4.79,3.14-2.57.3-4.5-.94-5.66-2.68-.79-1.19-1.49-2.32-1.72-5.06.66,2.05,1.6,3.28,3.27,4.36,1.49.96,3.52,1.67,5.55.89,1.72-.66,4.07-3.63,4.73-5.26.66-1.62.46-1.09.46-1.09l-.07.83Z"/><path class="cls-4" d="m126.32,116.24s-.17,2.17-1.49,4.14c-1.32,1.97-2.37,2.48-4,2.68-2.15.26-3.76-.8-4.72-2.28-.66-1.01-1.24-1.97-1.43-4.31.55,1.74,1.33,2.8,2.73,3.72,1.24.82,2.94,1.42,4.64.76,1.44-.56,3.4-3.09,3.95-4.48.55-1.38.39-.93.39-.93l-.06.71Z"/><path class="cls-4" d="m113.96,115.09s-.14,1.74-1.21,3.33c-1.07,1.59-1.92,2-3.24,2.16-1.74.21-3.04-.65-3.82-1.84-.54-.82-1-1.59-1.16-3.47.45,1.4,1.08,2.25,2.21,2.99,1,.66,2.38,1.15,3.75.61,1.16-.45,2.75-2.49,3.19-3.6.45-1.11.31-.75.31-.75l-.04.57Z"/><path class="cls-4" d="m103.41,114.06s-.12,1.47-1.04,2.81c-.92,1.34-1.65,1.68-2.78,1.82-1.49.18-2.61-.54-3.28-1.55-.46-.69-.86-1.34-.99-2.92.38,1.18.93,1.9,1.9,2.52.86.55,2.04.97,3.22.52,1-.38,2.36-2.1,2.74-3.04.39-.94.27-.63.27-.63l-.04.48Z"/></g></g></svg>