<?xml version="1.0" encoding="UTF-8"?><svg id="Layer_1" xmlns="http://www.w3.org/2000/svg" viewBox="0 0 256 256"><defs><style>.cls-1{fill:#000002;}.cls-2{fill:#fff;}</style></defs><rect class="cls-2" x="0" y="-.28" width="256" height="256"/><g><polygon class="cls-2" points="169.79 135.93 169.79 135.93 30.04 135.93 30.04 79.77 169.79 79.77 169.79 135.93"/><path class="cls-1" d="m28,137.97h143.83v-60.25H28v60.25Zm4.09-56.17h135.66v52.08H32.09v-52.08Z"/><path class="cls-1" d="m58.64,102.81c-.07-.36-.2-.75-.38-1.17-.18-.42-.45-.81-.81-1.17-.36-.36-.83-.66-1.39-.9-.57-.24-1.26-.36-2.08-.36-.6,0-1.15.09-1.64.27-.49.18-.91.42-1.26.72-.35.3-.62.64-.81,1.03-.19.39-.29.79-.29,1.23,0,.7.23,1.3.69,1.82.46.52,1.15.87,2.09,1.06l3.57.69c1.15.22,2.18.57,3.07,1.05.89.48,1.64,1.05,2.24,1.71.6.66,1.06,1.4,1.37,2.22s.47,1.67.47,2.56c0,.99-.21,1.95-.61,2.9-.41.95-1.01,1.79-1.79,2.53-.78.73-1.75,1.33-2.89,1.79-1.14.45-2.46.68-3.95.68-1.71,0-3.18-.25-4.4-.74-1.23-.49-2.26-1.12-3.09-1.9-.83-.77-1.46-1.63-1.9-2.58-.43-.95-.7-1.88-.79-2.8l4.62-1.23c.05.63.2,1.23.45,1.81.25.58.61,1.09,1.06,1.53.46.44,1.02.8,1.7,1.06.67.26,1.47.4,2.38.4,1.35,0,2.38-.29,3.08-.88.71-.59,1.07-1.34,1.07-2.26,0-.74-.27-1.39-.79-1.93-.53-.54-1.3-.91-2.31-1.1l-3.57-.72c-2.04-.41-3.67-1.24-4.89-2.51-1.22-1.26-1.82-2.87-1.82-4.82,0-1.13.23-2.18.7-3.16.47-.97,1.11-1.82,1.93-2.54.82-.72,1.77-1.29,2.85-1.7,1.08-.41,2.23-.62,3.43-.62,1.54,0,2.86.21,3.95.63,1.1.42,2,.96,2.73,1.61.72.65,1.28,1.37,1.68,2.15.4.78.67,1.53.81,2.26l-4.47,1.37Z"/><path class="cls-1" d="m103.91,104.49h4.01v4.11h-4.01v12.32h-4.8v-12.32h-6.86v12.32h-4.84v-12.32h-2.96v-4.11h2.96v-3.34c0-1.01.15-1.92.45-2.72.3-.81.73-1.5,1.3-2.08.56-.58,1.25-1.02,2.04-1.33.79-.31,1.69-.47,2.67-.47.51,0,.98.04,1.42.11.45.07.76.16.96.25v4.04c-.12-.05-.3-.09-.54-.13-.24-.04-.57-.05-.97-.05-.27,0-.54.04-.83.11-.29.07-.56.2-.81.38-.25.18-.46.43-.62.74-.15.31-.23.72-.23,1.23v3.27h6.86v-3.34c0-1.01.15-1.92.45-2.72.3-.81.73-1.5,1.3-2.08.56-.58,1.25-1.02,2.04-1.33s1.68-.47,2.67-.47c.51,0,.98.04,1.43.11.44.07.76.16.96.25v4.04c-.12-.05-.3-.09-.54-.13-.24-.04-.57-.05-.97-.05-.26,0-.54.04-.83.11-.29.07-.56.2-.81.38-.25.18-.46.43-.63.74-.17.31-.25.72-.25,1.23v3.27Z"/><path class="cls-1" d="m118.79,102.63c1.32,0,2.56.23,3.7.71,1.14.47,2.13,1.12,2.96,1.95.83.83,1.48,1.82,1.95,2.98.47,1.15.7,2.42.7,3.79s-.23,2.63-.7,3.77c-.47,1.14-1.12,2.13-1.95,2.98-.83.84-1.82,1.5-2.96,1.97-1.14.47-2.38.7-3.7.7s-2.56-.23-3.7-.7c-1.14-.47-2.13-1.13-2.96-1.97-.83-.84-1.48-1.83-1.95-2.98-.47-1.14-.7-2.4-.7-3.77s.23-2.63.7-3.79c.47-1.16,1.12-2.15,1.95-2.98.83-.83,1.82-1.48,2.96-1.95,1.14-.47,2.38-.71,3.7-.71m0,14.47c.58,0,1.14-.11,1.7-.33.55-.22,1.03-.53,1.44-.95.41-.42.74-.94.99-1.57.25-.63.38-1.36.38-2.2s-.13-1.58-.38-2.2c-.25-.62-.58-1.15-.99-1.57-.41-.42-.89-.74-1.44-.96-.55-.22-1.12-.33-1.7-.33s-1.14.11-1.7.33c-.55.22-1.03.54-1.44.96-.41.42-.74.94-.99,1.57-.25.63-.38,1.36-.38,2.2s.13,1.58.38,2.2c.25.63.58,1.15.99,1.57.41.42.89.74,1.44.95.55.22,1.12.33,1.7.33"/><polygon class="cls-1" points="130.45 95 130.45 95 135.25 95 135.25 121.13 130.45 121.13 130.45 95"/><polygon class="cls-1" points="149.35 110.64 149.35 110.64 156.6 120.92 150.72 120.92 146.03 114.14 144.04 116.23 144.04 120.92 139.24 120.92 139.24 94.79 144.04 94.79 144.04 109.77 150.17 103.17 156.46 103.17 149.35 110.64"/><path class="cls-1" d="m77.4,104.45h0v8.83c0,1.12-.28,1.95-.85,2.5-.57.55-1.34.83-2.32.83s-1.75-.27-2.32-.83c-.57-.55-.85-1.38-.85-2.5v-8.83h-4.88v9.24c0,1.28.21,2.4.63,3.36.42.97.99,1.78,1.72,2.44.73.66,1.58,1.15,2.55,1.49.97.33,2.02.5,3.15.5s2.15-.17,3.13-.5c.98-.33,1.84-.83,2.56-1.49.73-.66,1.3-1.47,1.72-2.44.42-.96.63-2.08.63-3.36v-9.24h-4.88Z"/><polygon class="cls-2" points="131.29 175.68 131.29 175.68 30.04 175.68 30.04 135.93 131.29 135.93 131.29 175.68"/><path class="cls-1" d="m28,177.73h106.19v-43.84H28v43.84Zm4.09-39.75h98.02v35.66H32.09v-35.66Z"/><path class="cls-1" d="m50.05,148.51c.71,0,1.35.1,1.92.3.57.2,1.04.47,1.43.82.38.35.68.76.88,1.23.21.47.31.99.31,1.55,0,.75-.21,1.41-.62,1.98-.41.57-.92.95-1.52,1.14.33.08.65.22.95.4.31.19.58.42.83.71.25.29.44.63.58,1.02.15.39.22.82.22,1.28,0,.6-.11,1.15-.33,1.65-.22.5-.53.93-.92,1.3-.4.37-.88.66-1.44.86s-1.18.31-1.87.31h-5.87v-14.55h5.44Zm-.51,5.83c.58,0,1.03-.14,1.36-.42.34-.28.5-.67.5-1.16s-.16-.86-.47-1.14c-.32-.28-.79-.42-1.44-.42h-1.72v3.14h1.76Zm.27,6.08c.63,0,1.12-.15,1.48-.46.36-.31.53-.72.53-1.24s-.17-.92-.52-1.23c-.35-.31-.85-.47-1.49-.47h-2.03v3.41h2.03Z"/><path class="cls-1" d="m63.22,163.06c-.03-.1-.05-.26-.06-.48-.01-.22-.02-.41-.02-.54-.28.44-.67.76-1.18.95-.51.2-1.03.3-1.55.3-.62,0-1.17-.1-1.65-.32s-.89-.5-1.22-.86c-.33-.36-.58-.78-.75-1.26-.17-.48-.26-.99-.26-1.54v-6.44h3.12v5.79c0,.49.13.91.4,1.25.27.34.68.51,1.24.51.52,0,.93-.16,1.24-.48.31-.32.46-.74.46-1.26v-5.81h3.12v8.37c0,.46.01.86.04,1.2.03.33.05.54.06.63h-3Z"/><path class="cls-1" d="m68.21,149.74c0-.25.05-.48.14-.71.1-.23.23-.42.39-.59.16-.16.35-.29.57-.39.22-.1.45-.14.7-.14.52,0,.96.18,1.31.53.36.36.53.79.53,1.29s-.18.94-.53,1.29c-.36.36-.79.53-1.31.53-.25,0-.48-.05-.7-.14-.22-.1-.41-.23-.57-.39s-.29-.36-.39-.59c-.1-.22-.14-.46-.14-.71m.27,3.12h3.12v10.2h-3.12v-10.2Z"/><polygon class="cls-1" points="73.93 148.21 73.93 148.21 77.05 148.21 77.05 163.06 73.93 163.06 73.93 148.21"/><path class="cls-1" d="m89.45,161.24c0,.47.01.86.03,1.18.02.32.04.54.05.65h-3c-.01-.07-.03-.2-.05-.39-.02-.19-.03-.39-.03-.6-.23.36-.59.65-1.08.87-.49.22-1.04.34-1.65.34-.73,0-1.4-.13-2.01-.4-.62-.27-1.15-.64-1.6-1.11-.45-.47-.8-1.04-1.06-1.69-.25-.66-.38-1.37-.38-2.15s.12-1.45.37-2.1c.25-.65.59-1.22,1.03-1.69.44-.48.96-.85,1.56-1.12.6-.27,1.27-.4,1.99-.4.44,0,.81.04,1.13.11.31.08.58.16.8.27.22.1.39.22.52.34.13.12.23.23.3.33v-5.46h3.08v13.03Zm-7.63-3.28c0,.42.06.79.18,1.11.12.32.29.58.5.79s.46.37.74.48c.28.11.57.17.87.17s.59-.06.87-.17c.28-.11.53-.27.74-.48s.38-.47.5-.79c.12-.31.19-.68.19-1.11s-.06-.79-.19-1.11c-.12-.31-.29-.58-.5-.79-.21-.21-.46-.37-.74-.47-.28-.1-.57-.15-.87-.15s-.59.05-.87.15c-.28.1-.53.26-.74.47-.21.21-.38.47-.5.79s-.18.69-.18,1.11"/><path class="cls-1" d="m91.6,149.74c0-.25.05-.48.14-.71.1-.23.23-.42.39-.59.16-.16.35-.29.57-.39.22-.1.45-.14.7-.14.52,0,.96.18,1.31.53.35.36.53.79.53,1.29s-.18.94-.53,1.29c-.36.36-.79.53-1.31.53-.25,0-.48-.05-.7-.14-.22-.1-.41-.23-.57-.39-.16-.16-.29-.36-.39-.59-.1-.22-.14-.46-.14-.71m.27,3.12h3.12v10.2h-3.12v-10.2Z"/><path class="cls-1" d="m100.45,163.06h-3.12v-10.2h3.02v1.17c.14-.24.31-.46.53-.63.22-.18.45-.33.71-.44.25-.12.52-.2.8-.27.28-.06.55-.09.81-.09.64,0,1.2.11,1.66.32.47.21.85.5,1.16.87.31.37.53.8.68,1.29.14.49.22,1.02.22,1.58v6.4h-3.12v-5.87c0-.51-.13-.93-.4-1.26-.27-.33-.69-.5-1.26-.5-.52,0-.93.17-1.23.5-.3.34-.45.76-.45,1.28v5.85Z"/><path class="cls-1" d="m111.18,162.86c.11.49.36.9.74,1.22.38.32.87.48,1.46.48.78,0,1.4-.2,1.85-.6.45-.4.68-1.07.68-2v-.47c-.19.27-.51.53-.95.78-.44.25-1.04.37-1.78.37-.68,0-1.31-.13-1.89-.38-.57-.25-1.07-.6-1.5-1.05-.43-.44-.76-.97-1-1.57-.24-.6-.36-1.26-.36-1.97,0-.67.12-1.31.35-1.91.23-.6.56-1.13.97-1.59.42-.46.92-.82,1.5-1.09.58-.27,1.22-.4,1.92-.4.41,0,.78.04,1.1.12.32.08.6.19.83.31.23.12.42.26.57.41.15.15.26.29.33.43v-1.09h2.98v8.93c0,.74-.11,1.44-.32,2.09-.21.66-.54,1.24-.98,1.74-.45.51-1.01.9-1.69,1.2-.68.29-1.51.44-2.46.44-.74,0-1.4-.1-2-.31-.6-.21-1.11-.48-1.54-.82-.43-.34-.78-.73-1.05-1.17-.27-.44-.44-.88-.5-1.34l2.75-.78Zm2.57-2.93c.64,0,1.17-.2,1.57-.61.4-.4.61-.95.61-1.65,0-.34-.06-.65-.17-.93-.12-.28-.27-.52-.47-.72-.2-.2-.43-.35-.7-.45-.27-.1-.54-.15-.83-.15s-.56.05-.83.15c-.27.1-.5.25-.71.45-.21.2-.37.44-.48.72-.12.28-.17.59-.17.93,0,.7.21,1.25.63,1.65.42.4.94.61,1.57.61"/><polygon class="cls-2" points="225.96 175.68 225.96 175.68 133.08 175.68 133.08 135.93 225.96 135.93 225.96 175.68"/><path class="cls-1" d="m130.12,177.73h97.88v-43.84h-97.88v43.84Zm4.09-39.75h89.71v35.66h-89.71v-35.66Z"/><path class="cls-1" d="m152.29,152.9c-.03-.16-.09-.35-.17-.56-.09-.21-.23-.41-.41-.6-.19-.18-.43-.34-.73-.47-.3-.13-.67-.19-1.11-.19-.6,0-1.09.16-1.45.48-.36.32-.54.68-.54,1.08,0,.36.11.65.34.89.22.24.59.41,1.1.5l1.95.37c.7.12,1.31.33,1.83.61.52.28.96.61,1.31.99.35.38.62.81.8,1.28s.27.97.27,1.49c0,.58-.12,1.14-.35,1.68-.23.55-.58,1.04-1.04,1.47-.46.43-1.02.78-1.69,1.05-.67.27-1.44.4-2.3.4-1.01,0-1.88-.15-2.61-.44-.72-.29-1.33-.67-1.81-1.12-.48-.45-.84-.95-1.09-1.5-.25-.55-.4-1.08-.45-1.6l2.98-.72c.03.33.1.65.23.95.13.31.32.57.56.8.25.23.55.41.92.54.37.14.8.21,1.29.21.64,0,1.15-.14,1.51-.42.36-.28.54-.65.54-1.1,0-.37-.14-.68-.42-.94-.28-.25-.66-.43-1.14-.52l-1.99-.37c-1.25-.23-2.22-.73-2.91-1.5-.7-.77-1.05-1.69-1.05-2.77,0-.68.14-1.31.42-1.89.28-.57.66-1.07,1.14-1.48.48-.41,1.03-.73,1.66-.96.63-.23,1.29-.35,1.99-.35.9,0,1.68.12,2.32.37.64.25,1.17.56,1.59.94.42.37.74.79.95,1.25.22.46.37.9.45,1.33l-2.91.82Z"/><path class="cls-1" d="m161.75,152.56c.77,0,1.48.13,2.13.4.66.27,1.23.64,1.71,1.12.48.48.87,1.05,1.15,1.7.28.66.42,1.38.42,2.17s-.14,1.52-.42,2.19c-.28.66-.67,1.24-1.15,1.71-.49.48-1.06.85-1.71,1.12-.66.27-1.37.4-2.13.4s-1.48-.13-2.13-.4c-.66-.27-1.23-.64-1.71-1.12-.48-.48-.87-1.05-1.15-1.71-.28-.66-.42-1.39-.42-2.19s.14-1.52.42-2.17c.28-.66.67-1.22,1.15-1.7.49-.48,1.06-.85,1.71-1.12.66-.27,1.37-.4,2.13-.4m0,7.94c.3,0,.59-.05.86-.15.28-.1.52-.26.73-.47.21-.21.38-.47.51-.79.13-.31.19-.69.19-1.13s-.06-.79-.19-1.12c-.13-.32-.3-.59-.51-.79-.21-.21-.45-.36-.73-.46-.27-.1-.56-.15-.86-.15s-.57.05-.85.15c-.28.1-.53.26-.74.46-.21.2-.38.47-.51.79-.13.32-.19.69-.19,1.12s.06.8.19,1.12c.13.32.3.59.51.8.21.21.46.37.74.47.28.1.56.15.85.15"/><path class="cls-1" d="m173.49,155.43c-.33,0-.63.06-.91.16-.28.11-.53.27-.74.49-.21.22-.38.49-.5.8-.12.31-.19.68-.19,1.09s.06.77.2,1.08c.13.31.3.57.51.79.21.22.46.38.75.49.29.11.6.17.92.17.6,0,1.08-.16,1.43-.47s.58-.66.69-1.05l2.75.84c-.11.45-.3.89-.56,1.31-.27.42-.61.8-1.02,1.13-.41.33-.89.6-1.44.8-.55.21-1.16.31-1.85.31-.77,0-1.48-.13-2.15-.4-.66-.27-1.24-.64-1.73-1.12-.49-.48-.88-1.04-1.17-1.7-.29-.66-.43-1.38-.43-2.17s.14-1.52.42-2.19c.28-.66.66-1.24,1.15-1.71.49-.48,1.05-.85,1.7-1.12.65-.27,1.35-.4,2.1-.4.7,0,1.33.1,1.89.3.56.2,1.05.46,1.46.79.41.33.74.71,1.01,1.14.26.43.44.87.55,1.32l-2.79.84c-.06-.19-.14-.38-.25-.56-.11-.19-.24-.35-.41-.49-.16-.14-.36-.26-.6-.34-.23-.08-.5-.12-.8-.12"/><path class="cls-1" d="m179.65,149.74c0-.25.05-.48.14-.71.1-.23.23-.42.39-.59.16-.16.35-.29.57-.39.22-.1.45-.14.7-.14.52,0,.96.18,1.31.53.35.36.53.79.53,1.29s-.18.94-.53,1.29c-.36.36-.79.53-1.31.53-.25,0-.48-.05-.7-.14-.22-.1-.41-.23-.57-.39-.16-.16-.29-.36-.39-.59-.1-.22-.14-.46-.14-.71m.27,3.12h3.12v10.2h-3.12v-10.2Z"/><path class="cls-1" d="m194.65,160.13c-.12.44-.31.86-.58,1.25-.26.4-.59.74-.98,1.04-.4.29-.86.53-1.38.7-.53.17-1.11.26-1.76.26-.7,0-1.37-.12-2.01-.37-.64-.24-1.21-.6-1.7-1.07-.49-.46-.88-1.03-1.17-1.7-.29-.67-.43-1.44-.43-2.3s.14-1.56.42-2.23c.28-.66.66-1.23,1.13-1.69.47-.46,1.02-.82,1.63-1.08.62-.25,1.25-.38,1.91-.38,1.59,0,2.84.46,3.75,1.37.91.92,1.36,2.2,1.36,3.86,0,.22,0,.43-.02.63-.01.2-.03.31-.04.34h-7.1c.01.29.08.55.21.79s.3.45.51.63c.21.18.45.31.73.41.28.1.56.14.86.14.57,0,1.02-.12,1.34-.37.32-.25.56-.57.71-.96l2.61.74Zm-2.83-3.39c-.01-.19-.06-.39-.13-.59-.08-.21-.19-.39-.36-.56-.16-.16-.37-.3-.63-.41-.25-.11-.56-.16-.93-.16-.33,0-.62.05-.86.16-.25.11-.45.25-.63.41s-.3.35-.39.56c-.09.2-.14.4-.15.59h4.08Z"/><path class="cls-1" d="m200.19,152.86h1.99v2.73h-1.99v3.82c0,.42.1.71.31.85.21.14.48.22.82.22.16,0,.32-.01.46-.03.14-.02.26-.04.36-.07v2.59c-.07.03-.23.08-.49.16-.26.08-.64.12-1.13.12-1.07,0-1.9-.29-2.51-.87-.6-.58-.9-1.39-.9-2.41v-4.37h-1.81v-2.73h.51c.53,0,.93-.16,1.19-.47.26-.31.39-.71.39-1.19v-1.31h2.79v2.97Z"/><polygon class="cls-1" points="205.01 166.98 205.01 166.98 207.33 161.69 203.04 152.86 206.53 152.86 209.01 158.32 211.27 152.86 214.57 152.86 208.29 166.98 205.01 166.98"/></g></svg>