<?xml version="1.0" encoding="UTF-8"?><svg id="Layer_1" xmlns="http://www.w3.org/2000/svg" viewBox="0 0 256 256"><defs><style>.cls-1{fill:#007d37;}.cls-2{fill:#fff;}.cls-3{fill:#575756;}.cls-4{fill:#76b72a;}</style></defs><rect class="cls-2" x="0" y="-.28" width="256" height="256"/><g><rect class="cls-3" x="28" y="146.45" width="200" height="22.62"/><rect class="cls-1" x="28" y="86.38" width="200" height="60.07"/><path class="cls-2" d="m49.15,119.78c-3.35,0-6.73-1.11-9.38-3.36l2.88-3.27c1.99,1.56,4.08,2.55,6.6,2.55,1.99,0,3.19-.75,3.19-1.98v-.06c0-1.17-.76-1.77-4.46-2.67-4.45-1.08-7.33-2.25-7.33-6.43v-.06c0-3.81,3.22-6.34,7.74-6.34,3.22,0,5.97.96,8.21,2.67l-2.53,3.48c-1.96-1.29-3.89-2.07-5.75-2.07s-2.84.81-2.84,1.83v.06c0,1.38.95,1.83,4.77,2.76,4.49,1.11,7.01,2.64,7.01,6.31v.06c0,4.17-3.35,6.52-8.12,6.52"/><polygon class="cls-2" points="86.69 119.63 82.46 119.63 77.46 105.87 72.47 119.63 68.24 119.63 60.69 98.46 65.9 98.46 70.48 112.69 75.44 98.4 79.61 98.4 84.57 112.69 89.15 98.46 94.24 98.46 86.69 119.63"/><path class="cls-2" d="m113.13,119.48l-2.02-4.71h-9.35l-2.02,4.71h-4.96l9.48-21.17h4.49l9.48,21.17h-5.09Zm-6.7-15.62l-2.94,6.82h5.88l-2.94-6.82Z"/><polygon class="cls-2" points="138.82 119.48 128.11 106.11 128.11 119.48 123.31 119.48 123.31 98.46 127.79 98.46 138.16 111.4 138.16 98.46 142.96 98.46 142.96 119.48 138.82 119.48"/><path class="cls-2" d="m157.81,119.78c-3.35,0-6.73-1.11-9.38-3.36l2.87-3.27c1.99,1.56,4.08,2.55,6.6,2.55,1.99,0,3.19-.75,3.19-1.98v-.06c0-1.17-.76-1.77-4.46-2.67-4.45-1.08-7.33-2.25-7.33-6.43v-.06c0-3.81,3.22-6.34,7.74-6.34,3.22,0,5.97.96,8.22,2.67l-2.53,3.48c-1.96-1.29-3.89-2.07-5.75-2.07s-2.84.81-2.84,1.83v.06c0,1.38.95,1.83,4.77,2.76,4.49,1.11,7.01,2.64,7.01,6.31v.06c0,4.17-3.35,6.52-8.12,6.52"/><polygon class="cls-2" points="171.84 119.48 171.84 98.46 188.52 98.46 188.52 102.57 176.67 102.57 176.67 106.84 187.1 106.84 187.1 110.95 176.67 110.95 176.67 115.36 188.68 115.36 188.68 119.48 171.84 119.48"/><path class="cls-2" d="m211.15,119.48l-2.02-4.71h-9.35l-2.02,4.71h-4.96l9.48-21.17h4.49l9.48,21.17h-5.09Zm-6.7-15.62l-2.94,6.82h5.88l-2.94-6.82Z"/><path class="cls-2" d="m53.14,128.2c0,1.11-.71,1.67-1.41,1.96,1.05.3,1.9.88,1.9,2.05,0,1.46-1.28,2.31-3.22,2.31h-3.94v-8.43h3.78c1.75,0,2.89.82,2.89,2.11m-1.01.13c0-.84-.7-1.39-1.96-1.39h-2.7v2.9h2.62c1.2,0,2.04-.52,2.04-1.52m.49,3.82c0-.93-.81-1.46-2.36-1.46h-2.8v2.98h2.98c1.34,0,2.18-.57,2.18-1.52"/><path class="cls-2" d="m65.49,130.92c0,2.46-1.48,3.73-3.7,3.73s-3.69-1.28-3.69-3.66v-4.9h1v4.84c0,1.82,1.01,2.84,2.71,2.84s2.67-.94,2.67-2.78v-4.9h1v4.83Z"/><rect class="cls-2" x="70.57" y="126.09" width="1" height="8.43"/><polygon class="cls-2" points="76.79 126.09 77.79 126.09 77.79 133.65 82.79 133.65 82.79 134.52 76.79 134.52 76.79 126.09"/><path class="cls-2" d="m90.33,134.52h-3.08v-8.43h3.08c2.79,0,4.71,1.82,4.71,4.2s-1.93,4.23-4.71,4.23m0-7.55h-2.08v6.67h2.08c2.24,0,3.68-1.45,3.68-3.33s-1.43-3.35-3.68-3.35"/><rect class="cls-2" x="99.87" y="126.09" width="1" height="8.43"/><polygon class="cls-2" points="112.62 126.09 113.6 126.09 113.6 134.52 112.8 134.52 107.07 127.61 107.07 134.52 106.09 134.52 106.09 126.09 107.03 126.09 112.62 132.85 112.62 126.09"/><path class="cls-2" d="m122.84,134.67c-2.79,0-4.51-1.93-4.51-4.35s1.79-4.37,4.45-4.37c1.5,0,2.42.41,3.31,1.12l-.65.72c-.68-.57-1.44-.96-2.7-.96-1.96,0-3.37,1.58-3.37,3.47,0,2.02,1.35,3.52,3.51,3.52,1.01,0,1.95-.37,2.56-.84v-2.1h-2.7v-.85h3.66v3.36c-.82.7-2.07,1.29-3.56,1.29"/><path class="cls-2" d="m140.89,129.85c1.98.41,2.89,1.1,2.89,2.4,0,1.46-1.27,2.4-3.03,2.4-1.41,0-2.56-.45-3.62-1.35l.62-.7c.93.79,1.81,1.19,3.04,1.19s1.98-.59,1.98-1.44c0-.8-.44-1.24-2.31-1.61-2.04-.42-2.98-1.05-2.98-2.44s1.23-2.31,2.91-2.31c1.29,0,2.22.35,3.12,1.04l-.58.73c-.82-.64-1.65-.92-2.56-.92-1.15,0-1.89.6-1.89,1.37s.46,1.25,2.41,1.65"/><path class="cls-2" d="m152.55,134.67c-2.7,0-4.51-2.01-4.51-4.35s1.84-4.37,4.54-4.37,4.51,2.01,4.51,4.35-1.84,4.37-4.54,4.37m0-7.84c-2.03,0-3.47,1.54-3.47,3.47s1.47,3.49,3.5,3.49,3.47-1.54,3.47-3.47-1.47-3.49-3.5-3.49"/><path class="cls-2" d="m165.88,134.67c-2.56,0-4.45-1.91-4.45-4.35s1.87-4.37,4.48-4.37c1.61,0,2.57.54,3.46,1.34l-.68.7c-.75-.67-1.59-1.16-2.79-1.16-1.96,0-3.43,1.51-3.43,3.47s1.48,3.49,3.43,3.49c1.22,0,2.01-.45,2.86-1.22l.66.61c-.93.89-1.94,1.48-3.55,1.48"/><rect class="cls-2" x="173.89" y="126.09" width="1" height="8.43"/><polygon class="cls-2" points="186.52 126.96 181.11 126.96 181.11 129.84 185.95 129.84 185.95 130.71 181.11 130.71 181.11 133.66 186.58 133.66 186.58 134.52 180.11 134.52 180.11 126.09 186.52 126.09 186.52 126.96"/><polygon class="cls-2" points="194.58 134.52 193.56 134.52 193.56 126.97 190.58 126.97 190.58 126.09 197.56 126.09 197.56 126.97 194.58 126.97 194.58 134.52"/><polygon class="cls-2" points="205.84 134.52 204.83 134.52 204.83 131.19 201.14 126.09 202.35 126.09 205.34 130.31 208.36 126.09 209.53 126.09 205.84 131.17 205.84 134.52"/><rect class="cls-4" x="28" y="146.45" width="200" height="2.54"/><polygon class="cls-2" points="80.95 154.56 86.89 154.56 86.89 155.82 82.36 155.82 82.36 157.91 86.38 157.91 86.38 159.17 82.36 159.17 82.36 161.32 86.95 161.32 86.95 162.58 80.95 162.58 80.95 154.56"/><path class="cls-2" d="m87.97,161.79l.62-.94c.66.49,1.36.75,1.98.75s.94-.25.94-.65v-.02c0-.47-.64-.63-1.35-.85-.89-.25-1.89-.62-1.89-1.78v-.02c0-1.15.95-1.85,2.15-1.85.76,0,1.58.26,2.22.69l-.55.99c-.58-.36-1.2-.57-1.71-.57-.54,0-.85.25-.85.6v.02c0,.45.65.63,1.36.86.88.28,1.88.68,1.88,1.77v.02c0,1.27-.98,1.9-2.24,1.9-.86,0-1.81-.31-2.57-.9"/><path class="cls-2" d="m94.37,160.91v-3.19h-.77v-1.19h.77v-1.66h1.39v1.66h1.62v1.19h-1.62v2.97c0,.54.27.76.74.76.31,0,.58-.07.86-.21v1.14c-.34.19-.72.31-1.25.31-1.02,0-1.74-.45-1.74-1.78"/><path class="cls-2" d="m98.39,160.84v-.02c0-1.31,1.02-1.95,2.5-1.95.68,0,1.16.1,1.63.25v-.15c0-.86-.53-1.32-1.5-1.32-.68,0-1.18.15-1.73.38l-.37-1.09c.66-.3,1.32-.49,2.28-.49.9,0,1.58.24,2,.68.45.44.65,1.08.65,1.87v3.59h-1.35v-.76c-.41.49-1.04.88-1.97.88-1.13,0-2.14-.65-2.14-1.87m4.15-.43v-.41c-.35-.14-.82-.24-1.37-.24-.89,0-1.42.38-1.42,1.01v.02c0,.58.52.92,1.18.92.92,0,1.62-.53,1.62-1.3"/><path class="cls-2" d="m106.9,161.64v.94h-1.39v-8.37h1.39v3.32c.45-.63,1.08-1.14,2.06-1.14,1.42,0,2.81,1.12,2.81,3.14v.02c0,2.01-1.37,3.14-2.81,3.14-1.01,0-1.64-.5-2.06-1.07m3.46-2.07v-.02c0-1.17-.79-1.94-1.73-1.94s-1.76.78-1.76,1.94v.02c0,1.16.82,1.94,1.76,1.94s1.73-.75,1.73-1.94"/><rect class="cls-2" x="113.27" y="154.21" width="1.39" height="8.37"/><path class="cls-2" d="m116.49,154.28h1.49v1.32h-1.49v-1.32Zm.06,2.25h1.38v6.05h-1.38v-6.05Z"/><path class="cls-2" d="m119.25,161.79l.62-.94c.66.49,1.36.75,1.98.75s.94-.25.94-.65v-.02c0-.47-.64-.63-1.35-.85-.89-.25-1.89-.62-1.89-1.78v-.02c0-1.15.95-1.85,2.15-1.85.76,0,1.58.26,2.22.69l-.55.99c-.58-.36-1.2-.57-1.71-.57-.54,0-.85.25-.85.6v.02c0,.45.65.63,1.36.86.88.28,1.88.68,1.88,1.77v.02c0,1.27-.98,1.9-2.24,1.9-.86,0-1.81-.31-2.57-.9"/><path class="cls-2" d="m125.48,154.21h1.39v3.24c.39-.56.95-1.05,1.89-1.05,1.36,0,2.15.92,2.15,2.31v3.86h-1.38v-3.44c0-.94-.47-1.48-1.29-1.48s-1.36.56-1.36,1.5v3.42h-1.39v-8.37Z"/><path class="cls-2" d="m132.24,159.58v-.02c0-1.73,1.22-3.15,2.95-3.15,1.92,0,2.9,1.51,2.9,3.26l-.02.39h-4.44c.15.98.85,1.54,1.74,1.54.68,0,1.16-.25,1.64-.72l.81.72c-.57.69-1.36,1.14-2.47,1.14-1.75,0-3.1-1.27-3.1-3.14m4.48-.45c-.09-.89-.62-1.59-1.53-1.59-.85,0-1.44.65-1.57,1.59h3.1Z"/><path class="cls-2" d="m139.18,159.57v-.02c0-2.01,1.36-3.14,2.81-3.14,1,0,1.63.49,2.06,1.07v-3.26h1.39v8.37h-1.39v-1.01c-.45.63-1.08,1.14-2.06,1.14-1.42,0-2.81-1.14-2.81-3.14m4.89,0v-.02c0-1.17-.82-1.94-1.75-1.94s-1.74.73-1.74,1.94v.02c0,1.17.8,1.94,1.74,1.94s1.75-.78,1.75-1.94"/><polygon class="cls-2" points="151.77 155.93 150.33 156.33 150.03 155.19 152.2 154.5 153.17 154.5 153.17 162.58 151.77 162.58 151.77 155.93"/><path class="cls-2" d="m159.67,158.9c-.45.54-1.06.86-1.89.86-1.71,0-2.84-1-2.84-2.55v-.02c0-1.57,1.21-2.78,2.99-2.78,1.01,0,1.66.29,2.23.85.58.6.96,1.48.96,3.06v.02c0,2.58-1.27,4.37-3.44,4.37-1.11,0-1.89-.4-2.56-.96l.77-1.08c.61.5,1.14.76,1.83.76,1.42,0,1.93-1.47,1.95-2.53m-.06-1.77v-.02c0-.84-.65-1.48-1.67-1.48s-1.59.66-1.59,1.49v.02c0,.84.64,1.43,1.64,1.43s1.63-.66,1.63-1.44"/><path class="cls-2" d="m162.22,161.47l2.76-2.35c1.1-.94,1.5-1.44,1.5-2.17,0-.79-.56-1.25-1.3-1.25s-1.24.4-1.84,1.2l-1.01-.79c.77-1.07,1.52-1.67,2.95-1.67,1.57,0,2.65.96,2.65,2.4v.02c0,1.26-.66,1.95-2.08,3.11l-1.65,1.38h3.81v1.24h-5.79v-1.11Z"/><path class="cls-2" d="m169.17,161.31l.98-.92c.57.68,1.21,1.06,2.11,1.06.79,0,1.38-.48,1.38-1.22v-.02c0-.79-.72-1.24-1.84-1.24h-.65l-.23-.88,2.16-2.3h-3.47v-1.23h5.3v1.06l-2.23,2.29c1.21.15,2.36.77,2.36,2.25v.02c0,1.48-1.13,2.54-2.81,2.54-1.4,0-2.39-.58-3.07-1.41"/></g></svg>