<?xml version="1.0" encoding="UTF-8"?><svg id="Layer_1" xmlns="http://www.w3.org/2000/svg" viewBox="0 0 256 256"><defs><style>.cls-1{fill:#fff;}.cls-2{fill:#ee7330;}</style></defs><rect class="cls-1" x="0" y="-.28" width="256" height="256"/><g><path class="cls-2" d="m184.95,76.09h-113.89c-4.8,0-8.92-4.12-8.92-8.92v-30.53c0-4.8,4.12-8.92,8.92-8.92h113.89c4.8,0,8.92,4.12,8.92,8.92v30.53c0,4.8-4.12,8.92-8.92,8.92Z"/><path class="cls-2" d="m105.02,227.72h-33.96c-4.8,0-8.92-4.12-8.92-8.92v-104.29c0-4.8,4.12-8.92,8.92-8.92h33.96c4.8,0,8.92,4.12,8.92,8.92v104.29c0,4.8-4.12,8.92-8.92,8.92Z"/><path class="cls-2" d="m185.29,227.72h-34.31c-4.8,0-8.58-3.77-8.58-8.58v-104.97c0-4.8,3.77-8.58,8.58-8.58h34.31c4.8,0,8.58,3.77,8.58,8.58v104.63c0,5.15-3.77,8.92-8.58,8.92Z"/></g></svg>