<?xml version="1.0" encoding="UTF-8"?><svg id="Layer_1" xmlns="http://www.w3.org/2000/svg" xmlns:xlink="http://www.w3.org/1999/xlink" viewBox="0 0 256 256"><defs><style>.cls-1{fill:none;}.cls-2{clip-path:url(#clippath);}.cls-3{fill:#fff;}.cls-4{fill:#7bc5bf;}.cls-5{clip-path:url(#clippath-1);}.cls-6{clip-path:url(#clippath-4);}.cls-7{clip-path:url(#clippath-3);}.cls-8{clip-path:url(#clippath-2);}.cls-9{clip-path:url(#clippath-5);}</style><clipPath id="clippath"><rect class="cls-1" x="28" y="27.72" width="200" height="200"/></clipPath><clipPath id="clippath-1"><rect class="cls-1" x="28" y="27.72" width="200" height="200"/></clipPath><clipPath id="clippath-2"><rect class="cls-1" x="28" y="27.72" width="200" height="200"/></clipPath><clipPath id="clippath-3"><rect class="cls-1" x="28" y="27.72" width="200" height="200"/></clipPath><clipPath id="clippath-4"><rect class="cls-1" x="28" y="27.72" width="200" height="200"/></clipPath><clipPath id="clippath-5"><rect class="cls-1" x="28" y="27.72" width="200" height="200"/></clipPath></defs><rect class="cls-3" x="0" y="-.28" width="256" height="256"/><g><rect class="cls-4" x="28" y="27.72" width="200" height="200"/><path class="cls-3" d="m49.96,102.79v29.13h6.76v-10.57h10.02v-5.92h-10.02v-6.44h11.69v-6.2h-18.44Zm92.16,29.13h6.76v-29.13h-6.76v29.13Zm17.2-29.13v29.13h18.44v-6.16h-11.69v-22.97h-6.76Zm39.14,0l-5.96,11.17-5.96-11.17h-7.75l10.25,17.57v11.57h6.76v-11.53l10.25-17.61h-7.59Zm-115.18,11.68l2.86,7h-5.76l2.9-7Zm-.4-11.92l-13.71,29.37h6.88l2.19-5.29h10.06l2.19,5.29h7.04l-13.71-29.37h-.92Zm47.68-.04l-12.88,16.65-13.2-16.65-.91.08-1.35,29.33h6.52l.28-14.31,8.15,10.21h.71l8.07-10.21.36,14.31h6.56l-1.39-29.33-.91-.08Z"/><g class="cls-2"><path class="cls-3" d="m162.65,162.19l-7.36-6.61v6.36h-3.21v-12.99l.59-.1,7.26,6.56v-6.31h3.21v13l-.49.09Zm11.88-.05c-3.9,0-6.74-2.78-6.74-6.62s2.9-6.63,6.89-6.63c1.5,0,2.82.34,4.28,1.09l.14.07-1.36,2.61-.13-.07c-.86-.45-1.81-.69-2.73-.69-2.3,0-3.68,1.35-3.68,3.61s1.44,3.73,3.51,3.73c.9,0,1.32-.1,1.7-.28v-1.6h-2.51v-2.78h5.55v6.22l-.08.05c-1.51.88-3.05,1.28-4.83,1.28m-78.52,0c-3.48,0-5.4-1.94-5.4-5.45v-7.59h3.21v7.39c0,1.79.76,2.7,2.26,2.7s2.24-.91,2.24-2.7v-7.39h3.21v7.59c0,3.52-1.96,5.45-5.52,5.45m-15.54-.08c-1.07,0-2.47-.1-3.77-.26l-.13-.02v-12.51l.13-.02c.88-.13,2.48-.28,3.53-.28,3.88,0,5.64,1.83,5.64,3.52,0,1.24-.62,2.15-1.89,2.77,1.49.55,2.25,1.55,2.25,2.96,0,1.91-1.78,3.83-5.76,3.83m50.66-.02c-1.46,0-2.28-.07-3.85-.21h-.14v-12.6l.14-.02c1.42-.15,2.43-.2,3.73-.2,4.87,0,7.78,2.39,7.78,6.39,0,4.21-2.79,6.63-7.66,6.63m-8-.1h-8.24v-12.84h3.21v9.89h5.03v2.95Zm23.61,0h-3.21v-12.84h3.21v12.84Zm-37.01,0h-3.21v-12.84h3.21v12.84Zm-30.03-2.7c.33.03.56.04,1.06.04.92,0,2.02-.24,2.02-1.35,0-.9-.72-1.35-2.14-1.35-.37,0-.68.01-.94.04v2.63Zm50.67-.15c.43.04.66.06,1.23.06,3.14,0,3.8-2.03,3.8-3.73,0-2.25-1.42-3.49-3.99-3.49-.45,0-.71.02-1.04.05v7.11Zm-50.67-4.82c.24.02.47.04.93.04.89,0,1.95-.22,1.95-1.27,0-.74-.67-1.22-1.71-1.22-.48,0-.83.04-1.16.1v2.35Z"/></g><g class="cls-5"><path class="cls-3" d="m120.04,189.19c-3.13,0-5.41-2.15-5.41-5.11s2.22-5.13,5.41-5.13c1.06,0,2.12.3,3.08.86l.16.1-.83,2.29-.24-.13c-.71-.4-1.45-.6-2.15-.6-1.65,0-2.64.98-2.64,2.61s.99,2.61,2.64,2.61c.73,0,1.57-.25,2.25-.66l.24-.15.81,2.3-.15.1c-.88.57-2.06.92-3.18.92m-13.78,0c-2.96,0-5.04-2.1-5.04-5.11s2.15-5.13,5.12-5.13,5.04,2.11,5.04,5.13-2.15,5.11-5.12,5.11m-11.8,0c-1.07,0-2.4-.4-3.32-1.01l-.14-.09.75-2.46.26.19c.75.55,1.69.87,2.51.87s.84-.45.84-.6c0-.34-.11-.62-1.55-1.2-1.61-.65-2.39-1.63-2.39-2.99s1.11-2.95,3.56-2.95c1.12,0,2.22.4,2.78.78l.14.09-.69,2.43-.26-.18c-.51-.35-1.35-.73-1.96-.73-.55,0-.9.2-.9.53,0,.45.34.62,1.53,1.12,1.73.73,2.44,1.61,2.44,3.03,0,1.58-1.11,3.17-3.6,3.17m67.05-.15h-2.65v-3.92l-3.5-6h3.05l1.8,3.37,1.8-3.37h3l-3.5,6.01v3.91Zm-11.53,0h-2.65v-7.46h-2.84v-2.47h8.34v2.47h-2.84v7.46Zm-8.93,0h-6.45v-9.93h6.45v2.47h-3.8v1.24h3.46v2.37h-3.46v1.39h3.8v2.46Zm-11.16,0h-2.65v-9.93h2.65v9.93Zm-23.59-7.66c-1.34,0-2.28,1.11-2.28,2.71s.94,2.7,2.28,2.7,2.28-1.11,2.28-2.7-.94-2.71-2.28-2.71"/></g><g class="cls-8"><rect class="cls-3" x="49.96" y="93.62" width="156.07" height="1.17"/></g><g class="cls-7"><rect class="cls-3" x="49.96" y="139.95" width="156.07" height="1.17"/></g><g class="cls-6"><rect class="cls-3" x="49.96" y="169.95" width="156.07" height="1.17"/></g><g class="cls-9"><path class="cls-3" d="m154.8,85.62h-12.32v-19.37h12.32v4.24h-7.71v3.28h7.03v4.03h-7.03v3.6h7.71v4.22Zm-18.98,0h-4.61v-7.71h-7.24v7.71h-4.61v-19.37h4.61v7.52h7.24v-7.52h4.61v19.37Zm-27.63,0h-4.61v-15.13h-5.77v-4.24h16.15v4.24h-5.77v15.13Z"/></g></g></svg>