<?xml version="1.0" encoding="UTF-8"?><svg id="Layer_1" xmlns="http://www.w3.org/2000/svg" viewBox="0 0 256 256"><defs><style>.cls-1{fill:#fff;}.cls-2{fill:#009fa0;}.cls-3{fill:#b81178;}</style></defs><rect class="cls-1" x="0" y="-.28" width="256" height="256"/><g id="Page-1"><g id="logo"><g id="Group_4"><polygon id="Path_215" class="cls-2" points="35.31 27.88 121.83 227.72 166.09 156.45 108.74 27.88 35.31 27.88"/><path id="Path_216" class="cls-3" d="m153.61,89.45c-.41-7.93,4.86-15.22,7.29-22.51-7.58-2.17-20.41-18.47-17.27-22.08,3.14-3.61,20.06,5.12,24.23,5.88,1.47-5.16,16.21-23.57,19.42-22.99,2.98.53,4.4,18.65,3.3,24.03,12.09-.63,28.24-2.22,29.99.95,1.75,3.17-18.21,10.41-28.89,12.88,6.33,5.76,16.85,19.73,16.13,23.08-1.05,4.87-24.52-6.96-32.46-15.54-4.63,7.18-11.27,17.15-19.42,20.03-.41.16-.88.08-1.2-.22-.74-1.01-1.13-2.24-1.11-3.49"/></g></g></g></svg>