<?xml version="1.0" encoding="UTF-8"?><svg id="Layer_1" xmlns="http://www.w3.org/2000/svg" viewBox="0 0 256 256"><defs><style>.cls-1{fill:#fff;}.cls-2{fill:#573393;}.cls-3{fill:#82c341;}</style></defs><rect class="cls-1" x="0" y="-.28" width="256" height="256"/><g><path class="cls-2" d="m153.86,175.88s-27.88,6.05-24.61-13.89c.8-4.17-3.85-9.72-15.07-1.75-9.64,7.28-10.98,8.49-16.47,10.19-2.23.69-2.19,2.14-1.81,2.8,2.71,4.73,13.96,1.64,15.82,21.47.19,8.32,1.14,20.28-3.95,29.63l-.04.07-.02.08c-.12.35-.18.69-.17,1.02,0,1.11.88,1.8,1.47,2,.62.24,1.12.23,1.18.24h26.87c.06-.02.43-.05.89-.28.43-.2,1.06-.8,1.03-1.69,0-.36-.11-.72-.28-1.08-1.99-4.06-7.04-19.45-5.03-28,1.35-5.72,8.15-6.48,14.64-10.28,7.63-4.47,11.62-10.88,5.56-10.52"/><path class="cls-3" d="m121.51,130.95c1.39,2.47,4.02,1.96,4.86.97,10.99-12.33,35.08-18.86,54.5-21.37,9.52-1.59,26.22-7.02,28.18-27.26,1.96-20.17-9.88-42.81-40.98-45.85-10.76-15.52-41.3-11.56-51.79,5.43-10.49,16.99-12.03,50.05,5.24,88.06"/><path class="cls-3" d="m104.84,123.59c1.4,1.26,3.33.79,2.74-1.26-16.43-56.69,1.92-75.79.83-81.79-2.11-11.66-37.42-3.8-38.14,20.8-.26,13.03,8.37,41.12,34.57,62.25"/><path class="cls-3" d="m116.44,145.09c-46.92-30.73-51.61-66.09-53.36-77.95-.07-2.19-1.83-2.88-2.83-2.39-7.02,3.4-22.77,22.78-6.13,43.62-21.96,35.67,23.59,77.51,62.14,40.24.69-.67,2.07-2.49.18-3.51"/><path class="cls-3" d="m185.41,150.88c11.11-14.29,14.69-29.77,2.78-32.15-25.4-2.78-47.04,10.73-56.15,22.8-3.39,4.59-2.23,7.23-1.01,7.63,3.66,1.23,6.95,3.11,5.8,8.03-4.1,17.6,31.51,15.12,48.57-6.31"/></g></svg>