<?xml version="1.0" encoding="UTF-8"?><svg id="Layer_1" xmlns="http://www.w3.org/2000/svg" xmlns:xlink="http://www.w3.org/1999/xlink" viewBox="0 0 256 256"><defs><style>.cls-1{fill:url(#linear-gradient);}.cls-2{fill:#068844;}.cls-3{fill:#95939e;}.cls-4{fill:#62c422;}.cls-5{fill:url(#linear-gradient-3);}.cls-6{fill:url(#linear-gradient-4);}.cls-7{fill:url(#linear-gradient-2);}</style><linearGradient id="linear-gradient" x1="194.15" y1="109.09" x2="194.15" y2="41.39" gradientTransform="translate(0 -10)" gradientUnits="userSpaceOnUse"><stop offset="0" stop-color="#005222"/><stop offset=".85" stop-color="#008839"/></linearGradient><linearGradient id="linear-gradient-2" x1="129.56" y1="173.51" x2="129.56" y2="105.77" gradientTransform="translate(0 -10)" gradientUnits="userSpaceOnUse"><stop offset="0" stop-color="#498524"/><stop offset=".85" stop-color="#62c422"/></linearGradient><linearGradient id="linear-gradient-3" x1="65.24" y1="238" x2="65.24" y2="170.24" gradientTransform="translate(0 -10)" gradientUnits="userSpaceOnUse"><stop offset="0" stop-color="#615d6e"/><stop offset=".85" stop-color="#95939e"/></linearGradient><linearGradient id="linear-gradient-4" x1="61.85" x2="61.85" xlink:href="#linear-gradient"/></defs><path class="cls-2" d="M95.84,31.39c-9.87-2.12-20.73-3.39-32.3-3.39s-22.43,1.13-32.16,3.39c-2.12,9.73-3.39,20.59-3.39,32.16s1.13,22.43,3.39,32.16c9.73,2.12,20.73,3.39,32.16,3.39s22.43-1.13,32.16-3.39c2.12-9.73,3.39-20.73,3.39-32.16s-1.13-22.43-3.24-32.16Z"/><path class="cls-2" d="M224.61,31.39c-9.73-2.12-20.73-3.39-32.16-3.39s-22.43,1.13-32.16,3.39c-2.12,9.73-3.39,20.73-3.39,32.16s1.27,22.43,3.39,32.16c9.73,2.12,20.73,3.39,32.16,3.39s22.43-1.13,32.16-3.39c2.12-9.73,3.39-20.73,3.39-32.16s-1.27-22.43-3.39-32.16Z"/><path class="cls-4" d="M160.16,95.84c-9.73-2.12-20.73-3.39-32.16-3.39s-22.43,1.13-32.16,3.39c-2.12,9.73-3.39,20.73-3.39,32.16s1.13,22.43,3.39,32.16c9.73,2.12,20.73,3.39,32.16,3.39s22.43-1.27,32.16-3.39c2.12-9.73,3.39-20.73,3.39-32.16s-1.13-22.43-3.39-32.16Z"/><path class="cls-3" d="M95.84,160.16c-9.73-2.12-20.73-3.39-32.16-3.39s-22.43,1.27-32.16,3.39c-2.12,9.73-3.39,20.73-3.39,32.16s1.13,22.43,3.39,32.16c9.73,2.12,20.73,3.39,32.16,3.39s22.43-1.27,32.16-3.39c2.12-9.73,3.39-20.73,3.39-32.16-.14-11.42-1.27-22.28-3.39-32.16Z"/><path class="cls-1" d="M224.61,31.39l-64.32,64.32c9.73,2.12,20.73,3.39,32.16,3.39s22.43-1.13,32.16-3.39c2.12-9.73,3.39-20.73,3.39-32.16s-1.27-22.43-3.39-32.16Z"/><path class="cls-7" d="M160.16,95.84l-64.46,64.46c9.73,2.12,20.73,3.39,32.16,3.39s22.43-1.27,32.16-3.39c2.12-9.73,3.39-20.73,3.39-32.16,.14-11.71-.99-22.57-3.24-32.3Z"/><path class="cls-5" d="M95.84,160.16L31.39,224.61c9.73,2.12,20.73,3.39,32.16,3.39s22.43-1.27,32.16-3.39c2.12-9.73,3.39-20.73,3.39-32.16s-1.13-22.43-3.24-32.3Z"/><path class="cls-6" d="M31.39,31.39c-2.12,9.73-3.39,20.59-3.39,32.16s1.13,22.43,3.39,32.16c9.73,2.12,20.73,3.39,32.16,3.39s22.43-1.13,32.16-3.39L31.39,31.39Z"/></svg>